<mxfile host="app.diagrams.net" modified="2021-11-22T19:31:57.677Z" agent="5.0 (Windows NT 10.0; Win64; x64) AppleWebKit/537.36 (KHTML, like Gecko) Chrome/96.0.4664.45 Safari/537.36" etag="hXRcL2CT0dGEuOUihiDo" version="15.8.3" type="github">
  <diagram id="Y7afFvEJpSnw6NbkY098" name="Page-1">
    <mxGraphModel dx="1221" dy="644" grid="1" gridSize="10" guides="1" tooltips="1" connect="1" arrows="1" fold="1" page="1" pageScale="1" pageWidth="850" pageHeight="1100" math="0" shadow="0">
      <root>
        <mxCell id="0" />
        <mxCell id="1" parent="0" />
        <mxCell id="bKqDK71Te4AQbXzB7GY1-11" style="edgeStyle=orthogonalEdgeStyle;rounded=0;orthogonalLoop=1;jettySize=auto;html=1;entryX=0.5;entryY=1;entryDx=0;entryDy=0;fontColor=none;" edge="1" parent="1" source="bKqDK71Te4AQbXzB7GY1-2" target="bKqDK71Te4AQbXzB7GY1-16">
          <mxGeometry relative="1" as="geometry">
            <mxPoint x="54" y="37" as="targetPoint" />
          </mxGeometry>
        </mxCell>
        <object label="Actor" Title="User" id="bKqDK71Te4AQbXzB7GY1-2">
          <mxCell style="shape=umlActor;verticalLabelPosition=bottom;verticalAlign=top;overflow=visible;metaEdit=1;labelBackgroundColor=default;fontColor=none;html=1;labelBorderColor=none;noLabel=1;" vertex="1" parent="1">
            <mxGeometry x="310" y="47" width="30" height="60" as="geometry" />
          </mxCell>
        </object>
        <mxCell id="bKqDK71Te4AQbXzB7GY1-22" style="edgeStyle=orthogonalEdgeStyle;rounded=0;orthogonalLoop=1;jettySize=auto;html=1;entryX=0;entryY=0.5;entryDx=0;entryDy=0;fontColor=none;" edge="1" parent="1" source="bKqDK71Te4AQbXzB7GY1-9">
          <mxGeometry relative="1" as="geometry">
            <mxPoint x="277" y="210.75" as="targetPoint" />
            <Array as="points">
              <mxPoint x="325" y="167" />
              <mxPoint x="277" y="167" />
            </Array>
          </mxGeometry>
        </mxCell>
        <mxCell id="bKqDK71Te4AQbXzB7GY1-9" value="User" style="text;html=1;align=center;verticalAlign=middle;resizable=0;points=[];autosize=1;strokeColor=none;fillColor=none;fontColor=default;" vertex="1" parent="1">
          <mxGeometry x="305" y="107" width="40" height="20" as="geometry" />
        </mxCell>
        <mxCell id="bKqDK71Te4AQbXzB7GY1-12" value="Actor" style="shape=umlActor;verticalLabelPosition=bottom;verticalAlign=top;html=1;labelBackgroundColor=none;labelBorderColor=none;fontColor=none;noLabel=1;" vertex="1" parent="1">
          <mxGeometry x="220" y="47" width="30" height="60" as="geometry" />
        </mxCell>
        <mxCell id="bKqDK71Te4AQbXzB7GY1-28" style="edgeStyle=orthogonalEdgeStyle;rounded=0;orthogonalLoop=1;jettySize=auto;html=1;entryX=0;entryY=0.5;entryDx=0;entryDy=0;fontColor=none;" edge="1" parent="1" source="bKqDK71Te4AQbXzB7GY1-13">
          <mxGeometry relative="1" as="geometry">
            <mxPoint x="277" y="210.75" as="targetPoint" />
            <Array as="points">
              <mxPoint x="235" y="167" />
              <mxPoint x="277" y="167" />
            </Array>
          </mxGeometry>
        </mxCell>
        <mxCell id="bKqDK71Te4AQbXzB7GY1-13" value="Admin" style="text;html=1;align=center;verticalAlign=middle;resizable=0;points=[];autosize=1;strokeColor=none;fillColor=none;fontColor=none;" vertex="1" parent="1">
          <mxGeometry x="210" y="114.5" width="50" height="20" as="geometry" />
        </mxCell>
        <mxCell id="bKqDK71Te4AQbXzB7GY1-39" style="edgeStyle=orthogonalEdgeStyle;rounded=0;orthogonalLoop=1;jettySize=auto;html=1;exitX=1;exitY=0.5;exitDx=0;exitDy=0;entryX=0.518;entryY=0.041;entryDx=0;entryDy=0;entryPerimeter=0;fontSize=12;fontColor=none;" edge="1" parent="1" source="bKqDK71Te4AQbXzB7GY1-16" target="bKqDK71Te4AQbXzB7GY1-31">
          <mxGeometry relative="1" as="geometry">
            <Array as="points">
              <mxPoint x="564" y="350" />
              <mxPoint x="426" y="350" />
            </Array>
          </mxGeometry>
        </mxCell>
        <mxCell id="bKqDK71Te4AQbXzB7GY1-16" value="" style="shape=process;backgroundOutline=1;labelBackgroundColor=default;labelBorderColor=none;rotation=90;rounded=1;align=center;fontStyle=0;verticalAlign=middle;spacingBottom=0;whiteSpace=wrap;html=1;" vertex="1" parent="1">
          <mxGeometry x="499" y="39.5" width="130" height="75" as="geometry" />
        </mxCell>
        <mxCell id="bKqDK71Te4AQbXzB7GY1-35" style="edgeStyle=orthogonalEdgeStyle;rounded=0;orthogonalLoop=1;jettySize=auto;html=1;exitX=0.5;exitY=1;exitDx=0;exitDy=0;fontSize=12;fontColor=none;" edge="1" parent="1" source="bKqDK71Te4AQbXzB7GY1-17" target="bKqDK71Te4AQbXzB7GY1-31">
          <mxGeometry relative="1" as="geometry">
            <mxPoint x="361.3529411764707" y="390" as="targetPoint" />
            <Array as="points">
              <mxPoint x="277" y="350" />
              <mxPoint x="425" y="350" />
            </Array>
          </mxGeometry>
        </mxCell>
        <mxCell id="bKqDK71Te4AQbXzB7GY1-17" value="" style="shape=trapezoid;perimeter=trapezoidPerimeter;whiteSpace=wrap;html=1;fixedSize=1;rounded=1;labelBackgroundColor=none;labelBorderColor=none;fontColor=none;align=center;verticalAlign=middle;" vertex="1" parent="1">
          <mxGeometry x="247" y="298.75" width="60" height="20" as="geometry" />
        </mxCell>
        <mxCell id="bKqDK71Te4AQbXzB7GY1-18" value="" style="shape=process;whiteSpace=wrap;html=1;backgroundOutline=1;rounded=1;labelBackgroundColor=none;labelBorderColor=none;fontColor=none;align=center;verticalAlign=middle;rotation=90;arcSize=0;size=0.041666666666666664;" vertex="1" parent="1">
          <mxGeometry x="231" y="167" width="94" height="181.5" as="geometry" />
        </mxCell>
        <mxCell id="bKqDK71Te4AQbXzB7GY1-23" value="&lt;b&gt;Mobile App&lt;/b&gt;&lt;br&gt;&lt;br&gt;Framework?" style="text;html=1;align=center;verticalAlign=middle;resizable=0;points=[];autosize=1;strokeColor=none;fillColor=none;fontColor=none;" vertex="1" parent="1">
          <mxGeometry x="524" y="42" width="80" height="50" as="geometry" />
        </mxCell>
        <mxCell id="bKqDK71Te4AQbXzB7GY1-24" value="&lt;div&gt;&lt;span&gt;&lt;b&gt;Web App - JAVASCRIPT:&lt;/b&gt;&lt;/span&gt;&lt;/div&gt;&lt;div&gt;&lt;/div&gt;&lt;i&gt;(progressive web apps)&lt;/i&gt;&lt;br&gt;&lt;br&gt;&lt;span&gt;&lt;div style=&quot;text-align: left&quot;&gt;&lt;span&gt;User&lt;/span&gt;&lt;/div&gt;&lt;/span&gt;&lt;span&gt;&lt;div style=&quot;text-align: left&quot;&gt;&lt;span&gt;Admin&lt;/span&gt;&lt;/div&gt;&lt;/span&gt;" style="text;html=1;align=center;verticalAlign=middle;resizable=0;points=[];autosize=1;strokeColor=none;fillColor=none;fontColor=none;" vertex="1" parent="1">
          <mxGeometry x="202" y="218.75" width="150" height="80" as="geometry" />
        </mxCell>
        <mxCell id="bKqDK71Te4AQbXzB7GY1-29" value="" style="endArrow=none;dashed=1;html=1;rounded=0;fontColor=none;" edge="1" parent="1">
          <mxGeometry width="50" height="50" relative="1" as="geometry">
            <mxPoint x="20" y="1030" as="sourcePoint" />
            <mxPoint x="840" y="390" as="targetPoint" />
            <Array as="points">
              <mxPoint x="20" y="390" />
            </Array>
          </mxGeometry>
        </mxCell>
        <mxCell id="bKqDK71Te4AQbXzB7GY1-30" value="" style="endArrow=none;dashed=1;html=1;rounded=0;fontColor=none;" edge="1" parent="1">
          <mxGeometry width="50" height="50" relative="1" as="geometry">
            <mxPoint x="20" y="1030" as="sourcePoint" />
            <mxPoint x="840" y="390" as="targetPoint" />
            <Array as="points">
              <mxPoint x="840" y="1030" />
            </Array>
          </mxGeometry>
        </mxCell>
        <mxCell id="bKqDK71Te4AQbXzB7GY1-44" style="edgeStyle=orthogonalEdgeStyle;rounded=0;orthogonalLoop=1;jettySize=auto;html=1;entryX=0.5;entryY=0;entryDx=0;entryDy=0;fontSize=12;fontColor=none;" edge="1" parent="1" source="bKqDK71Te4AQbXzB7GY1-31" target="bKqDK71Te4AQbXzB7GY1-43">
          <mxGeometry relative="1" as="geometry" />
        </mxCell>
        <mxCell id="bKqDK71Te4AQbXzB7GY1-31" value="&lt;b&gt;&lt;font style=&quot;font-size: 12px&quot;&gt;SERVER&lt;/font&gt;&lt;/b&gt;" style="text;html=1;align=center;verticalAlign=middle;resizable=0;points=[];autosize=1;strokeColor=none;fillColor=none;fontColor=none;" vertex="1" parent="1">
          <mxGeometry x="395" y="390" width="60" height="20" as="geometry" />
        </mxCell>
        <mxCell id="bKqDK71Te4AQbXzB7GY1-50" style="edgeStyle=orthogonalEdgeStyle;rounded=0;orthogonalLoop=1;jettySize=auto;html=1;fontSize=12;fontColor=none;" edge="1" parent="1" source="bKqDK71Te4AQbXzB7GY1-43" target="bKqDK71Te4AQbXzB7GY1-49">
          <mxGeometry relative="1" as="geometry" />
        </mxCell>
        <mxCell id="bKqDK71Te4AQbXzB7GY1-43" value="" style="shape=image;verticalLabelPosition=bottom;labelBackgroundColor=#ffffff;verticalAlign=top;aspect=fixed;imageAspect=0;image=data:image/png,iVBORw0KGgoAAAANSUhEUgAAAjkAAAGwCAYAAABLvHTgAAAgAElEQVR4nOy993Mc6Z2n+bxvZpaDJwB6347N7la31OqWWlLPjkaxO7ujm7242LuIi/u77k+4mdubvduN1UoxkkYa2fat9vQOIAkQ3pVP8773Q5rKckABBIkq8H0YRRSq0ryZlcj3U18rtNYag8FgMBgMhkOGPOgBGAwGg8FgMDwJjMgxGAwGg8FwKDEix2AwGAwGw6HEiByDwWAwGAyHEiNyDAaDwWAwHEqMyDEYDAaDwXAoMSLHYDAYDAbDocSIHIPBYDAYDIcSI3IMBoPBYDAcSozIMRgMBoPBcCgxIsdgMBgMBsOhxIgcg8FgMBgMhxIjcgwGg8FgMBxK7IMegGF3xE3jtY6eRz/DR+tryVodtiQQInomBIjwp0h+Ru+nXjMYDAaDYZAwImcAUYGiXvWpll1qVY9a2aVaqlMtu1TLLm7Vo1738eo+ga8IAtWscwRYlsR2LJyMTSZnk8075AoOheEs+eEMuUKG3FCGXMEhm7ORljRCx2AwGAwDhRE5fYRumF4Sq4xX96lXPapll+JGleJala31CsX1KsWNKqWNGuVijWrJpVZxqVc93JqP6wb4bkAQBKhAt4kcaUksW+I4Fk62IXTyhQz54QxDo1mGx/OMxI+JPKMTBUYm8uSHMmTzDrZjIWTDIgTG4mMwGAyG/sGInAOikytJK40KNH6gCPwAr+7zaGadW18+Yub6IqsLRYrrVSqlOp4bihcVKLTS4VZSrqxdE3qsEveUlAIhBZYlcbI2heEsIxN5pk6Mcv7lY7z4xgmOnRnHydhYtgxFkyVBtqipcJMGg8FgMDx1hNZ7mhINj0l81rXWBL6iXvMob9ZYXSiycH+d2etLzN5YZn2phFv38b0gcT2FlplY2DzBQUbCRwiBlAJpR9afTOjmOnJ8hPMvHeXcpWmOnRln6sQohZEs2byDtARChHHtRuQYDAaD4SAwIucpkgQNK00QxdUUN6osPdxk/u4qD++ssnB/ndWFIuWtGm7NDy01ffgJCQGWLclkHYbGskydGOX4uQlOPTfJqQuTTJ8eY2Q8TyZnY1kicWMZd5bBYDAYnhZG5DxF4ownt+6zulDkmw9mufXlPPMza2ytVqgU63hekGRIDQxR9pXjWBRGs4xPDXHi/ASXvnOay2+fZWJ6iEzOMVlaBoPBYHiqGJHzhIlPb73iUdyo8mh2nXtXF7n26QMWZjcobdXw6j5KabQa/I9CytC15eRsRsbznLxwhEtvnubCy8c4dnac4bE82XwYCmYEj8FgMBieJEbkPAHiU6oCjef6VIp1Ht5Z5cpH97ny0X0eza7h1QPUIRA1OyGlIJOzOXlhktfeOcvlt89y8sIRCsNZbMdCWsaNZTAYDIYngxE5TwAVKHxfUVyvcPvrR3zxp3vcu7LIxkqZesXD9xXP0mkXUmDbklzBYXx6mOdeO8F3/s1Fzr98lJHxfJidJU3xbYPBYDDsL0bk7AOtAcWbqxVmbyzxzYf3ufXlPEsPN6hXw8J8zzQCbFuSyTmcODfBC2+c5JW3z3L+0lGGx3NYtmXidgwGg8GwbxiR85ikXVO1isvi/Q0+/pebfPn+DMvzW9Sr3qGItdlvhID8cJajp8Z4490LvPWTF5g+NUY2H1ZXDpcxYsdgMBgMe8eInMdEKY3v+iw+2ODqJw/5+Dc3eXRvjUqpTuD3Z/p3vxAWGxQURnKcfm6St//tC7z83TNMnxoL43WkETkGg8Fg2DtG5OyBOMXbcwO21kPX1Gd/uMu1Tx6wvlTC9wIjbnaBEAIna3Hk2AivfO8s3/6ri5x9YYrh8TxOxkqWMRgMBoNhNxiRswe01vi+YvnhJh/9y00+/NUNluc38Wq+ETePgRCQyTkcOzPOD396iTf/5gWmT4xG1ZONyDEYDAbD7jAip0d01ENBKU15q8ajmXV++Q+fcfureYobNQJjvdkXhADbsRiZyPPSd07zk//tW5x5forcUCbsp2XEjsFgMBh6xIicHlFK47kBa4tFvvlwlvd+fpW5u2vUKq4RN08CAYXhLOdeOsoPf3qJl797hiPHhqMMLNP402AwGAw7Y0ROj9RrHo9m1vnz/7jCF3+eYWV+i8A31psniRBgORbTJ0d588fP88OfvszR02Nksk7yvsFgMBgM3TAipwvxWQmCgHrFY+b6Er/9L19y8/N5Sps1fC842AE+Q9iOZPRIgVfePsuP/9NrnLo4SW4ogyVl2CbdYDAYDIYOGJHTgXTtm3Kxzo3PH/Krf/iMO98s4rsmuPhAiGJ1Lr15mn//f3yHF14/kcTpgMm+MhgMBkM7RuR0QGtNEGg2lkv85fd3eO/nV5mfWadu4m8OFgH5QobTz0/xV//zZV7/4QXGp4cQwgQkGwwGg6EdI3JSxKfCq4f1bz745XU+/OUN5u6the4pc6YOHgHZnMOpi0f44f90mbd+8jwjY3lsU0/HYDAYDC3YBz2AfqHholKsLm7x/j9f50///SrrSyWC4BnvOdVPaKhXwxipSqlOvebx/X/3EkeOjWBZAq21EToGg8FgAIwlJ0FrTeAFLM1v8d4vrvHHn12huFY1AcZ9jJMJ6+n8+D99i+//7UscPTVmCgcaDAaDIeGZt+TEGs93A9aWSnzym1t88Ye7lDaqBL4ROP2M5wZsrJT58y+uorXmhz99mSNHh7Ed47oyGAwGA8iDHkA/oLVmY7XMh7+6wae/ucXWeoVMxkZaZpLsd1SgWX64yZ9/fpX3fnGNrfUqxjhpMBgMBnjGRY7WmsBXrC+V+PjXN/nsd7cpblRBh+nK2byDZT/Tp2ggUIFmfbHE+7+4xoe/vM7magUVKCN2DAaD4RnnmZ7BVaApbVb5+oNZ/vK722wslwn8MMhYCHAci2zOxjIWnb7HcwOWHm7y+//6DZ//4Q6lrRoq0GitjdgxGAyGZ5RnWuRUijWuffKQD/75OuvLJZRqngyFEKHQyTtYthE6/Y5SmpWFLX73X7/h6kcPKBdrBz0kg8FgMBwgz6TIUUrh1j3uXlnkw1/dYHluE99tThOPC8wJKXAyFtmcYyw6A4BXD3g0u87v/9s3zN5Yxq2ZCtUGg8HwrPJMZVclmVSeYnl+iz/+9ys8uLmM53bPoorFjpMJ2yRVK16bxcfQX9QqLjc+n8P5B4uJo0McPzOBENJkWxkMBsMzxjNnyQl8xeL9dX77n79k7s5Kz3VwhBBYjkUubyw6fY8G3w+4880Cv/y/PmPxwQa+p4xFx2AwGJ4xnhmRo7VGBZqttQpfvz/Ljc/nqJZ670UlhEBKgZ2xyOTspDGkoU/RUN6q8c0Hs3z+hztsrZVNELLBYDA8YzwzIgcNvutz+6t5vn5/huJ6dU9uJykFmYxNruAYodPnqECzvlLmg1/d4NaX8wSBKe5oMBgMzxLPjMhx6z7L81t88MsbLM1t7ukbfXMwsk02b9LL+x3lKx7NrPOnn19j8f4Gbt03Fh2DwWB4Rjj0Iid0UynWlkr88WdXmL+3hlf3H2ubodgBJ2OTyRrXVT+jNbg1n5lrS/z+v33DxnLZBI4bDAbDM8IzIXJqFY+bnz3k6kf3qZV7j8PZCSkFTtYmmzOuq36ntFHlo1/f5OYX89SrJq3cYDAYngUOtcjRWuO5AfdvLnPlo/uUNsMquPtB7LoKhU4YjGxcV/1L4Cs2V8t89OsbzF5fIvAD47IyGAyGQ86hFDlxzIVWmvJmmGFz/+Zy0rJhP4mFTjZr42RsTCmW/kUFmltfzvPJb2+FgleZtg8Gg8FwmDmUIiemXvO4e2WBq588oFbxnui+hBRkcjbZvGO6l/cxtYrHjc/nuPXlPG7tyV4TBoPBYDhYDq3IUYFibaHIF3+6x+Zq+YlYcWLSrqtMxoqCkZ/Y7gyPQeArluc2+ewPd9lcCbuVGwwGg+FwcrimYh0+tAbXDbj6yUPuXVnEqz+d+ihCCKQlyUTByOJwnd1DQ7Xs8s0HYUFIzwuia6Z/XVZapx7Rv/gFrTWNf4OD7vLY65aSf+mTZTAYnnkO5TTsuwGLsxtc+XCWSrH2VCewRjCyTdZURu5LtNKUNmv8+X9cZenBZs+tPfoCM3cbDAZDzxwqkRN/m6uW6lz5aJaluU187+m7IxKhk7Fxspax6PQhvhcwP7vGZ7+/Q7Vc7/Mv/uF1rbRCodHaRxMXNQSto75cj3kQScD+dg+6W2F6tcjo1DG12qF2PoLWMYXHj1bR+FR4PvZ4DgwGw+Hi0E2/SmmWHm5w5aP7VEv1Ax2LZUmyWSd0XRmDTt9R3qzz1fszLM1t9n9sjg7Q+PgEBCgCNAoScSN0n4+/A6Ll0TsKHZ2FUM4INKLxqlAYk5fBYACwD3oA+01xvcLtrx+xulB8osHGOyEiVSMtyGRt0Jp6zRSh6yd8P2BpbpNbXzxi8vgo41NDQOOz6wdCV2t40QgNlhYgQCCil9MX1M7p8Nu928tRh1aT7TYiEDvsp/u+dE+WoGQbSjQWFiBEtF0Rj7WxpX76TA0Gw9Pj0IgcrXVkxdni1pePqFe9JyIoknulSO6kqTF0Wl4gJThZOwyIru9R6CQ38NTNOjLX72obT+Jm320cT2p/O9FrILGGSrHOlU8e8MIbJxmbLPTlZBgGHAs0EhnZPTQaKYIk7BYs0CBE9+MOjT7bHJ9ge4ujBqF3kDCRS2s7xSR6k1PbvBPbfhSgUJHgkwBCoLVInF8iUj3x9dCPn6/BYHhyHCKREwYcz1xb5NG9tSfifpCWIFfIIC3RdLOM+2PVq35X65FlSbI5G0TYS2m34iSbc3AyFtKSCBG65QJfUa96PVussvkn4zrzvAC35uG7jXFYdphl5mQsxFMOvg58TbVc7+m8eG7Ana8fMXNtkTPPT+Fk+7WgowChETpACaKJPZzoNQKtQW4jcKIt7NYv1GEjekdz0NM5fRqERkuIi5hLACWjQaiWgfTlh2owGJ4wh0bkBH7AxnKZG589pLqP/anSjB4p8P2/fYnxqSGk1Qhn0lpTKdb54k93eXh7tW1ybbiuZOS6Atf16TWMwnYsnn/tOK98/xwj43mEEPh+wNpikT/97ArrS+WetvPtdy9y+e0zSV2f/UGzsVLm1//355Q2aknzy5GJPN/98fOceXEay3q6oV+baxX+9LMrLN5f3/E60EpT2arzxZ/u8er3zjF1chQpracz0F2hQSvqvs/dtQpzWy5eoJJYHKEFAt3DXL79Aj0F/u6w9Z2vrJ2W2MnlFgs+jYosXBP5DBcmhzlSyGBLEUYspUxKxoJjMDybDLzIic3QXj3g2l8esHh/48nE4ggojGZ59Z2znLwwiWWnJkKtqVVchBSsLhQpb9Y7ukuEEKFFJ28Dmno96CkAwXYkp5+b5K2fPM+x0+OJNej+rRW++NM9NpbLPYm6i68e492/v5xYg/YDreHBzRXe+/lVylt1iEXOeJ7Lb53m9Xcv4mSermhYmF3nqz/fY+nBRk9uK6UUD2+vcP2zh3x/+iUsOxRl/TUxhvE2FU/x3s1F/nBriY2qjxA+WiksHU722wuIXuJ1ovU7bKYpXqb1/egNoXvMZhAd3Luhdtl5nCIlcpTEkZJXTo3x0++cZ6QwjiUJPVlNg9QdBm0wGA47Ay9yIHTdbKyWwy7jFfeJ7SeOiRGtsQtCkMk5XPrOKWZvLHH904dUS53HEcboSDI5BxA9xuiIaL+RBUbEVZZ3d9sWNKoz7+f8Hcc9dHpjf61GuxjQLlJ2tIbyVp2v35/l8ltnmDw+2n+tOXQYT+MFMLdW5ursCstlF7QfZlchIwvHDhvZ7t1YqGy3kNjhxPZsQm23CInknZ0QUT4VKCXIOpKcA1s1N4zNUVGcjhE1BsMzz6EQOb4XMHdnleX5LTz3yWZURcbvtpgcy5YcOTbC6z+8wOqjIg9vrSSum7ZtRBadTDa06Lj1oPe5oTXOYFcqRyQ/hBCpRqZ7r/irIWl02fS6Dl1BKlAEfg+DFA0BJqNxxtNgsv0eh6gCtavlIQwIf3h3lfl764xNDpGx+uxPQwi0FGgBSgiUAF+pMNBXyDAguKuYjMJwezgfO4T1hIJqm+Cehoeo+X2RXmK7gsQiDixurJckUIkw4DoMxwntSgqBFBJfRMYbNCCjLK/479QIHoPhWaXP7uS7R2tNrewyf3eV0mYVrQ4ubTyTd3jxjVOh4Hq4Sa3qbht3Y9mSDE4Uo7MLobOPVEsupa0aft3fc2WR1YUintvsevNcn/WVMov3N7CcnR0YQgiyOYeRI3myWSd53XcDttar1KtuV9HYysr8Fm4t2NXxBIFiY6XM7I0lLr56jEyuv/40BDJxRglpgYytcXboRpI6ylpqddGkBcX2mVGiw7qN9dJPtxMMkR+qRYwnW4uzs4ToPpRYjEfDaOwytOBoES0jNAQ6yvhKbFkg7RaxZgSOwfCs0l938l2itU4mp0cza7jVp1+HJrEYCJBSMDSa5Vs/Os/M9UVmry/j1vyO68WWIMuWZPPhpP60hY4KNHe+WeCPP7vCytzm3kSOhkqpTnmrhkoJzM3VCr/+x8957xfXQsvMDvOMZUnOXTrKv/3f3+D42fHwW7vSVEsuv/rHz7jzzULP7RfqVY/lua3dWac01Csud68s8O1/c5HhsRzQH3E5Ij3ppy0TglA0CN34PSEVYZNomx0Ck7VuHK9uCJO0rtGAFppOaeDd07RTJQaa3LydhxHvL5I04c9Y8bSulrJONjTe/rpjDQbD4DLQIgcg8BQL9zdYeVTs+Zv+fuLWfHzPJzeURUqBkILpU2P84O9eZmO5zNpiadtA6KSpZ85BEwqdp1WsVWtNcaPKo5k15u6s7d1lpTSqxT1UK7u4VY/VhWJP23AyFrmhDLWym4hGTWgRWp7bZPbGMl69s2BsG4/WqGD3xxIEmkezGzy4ucLJ80ew7IOfKWO3IsQxVTQbVtqETYuaEDrSOL34qhrLddKlumm51G6SXYYfXMd97egHS6moJEg4do3F64avt9a+adnCboJ7DAbDIWew2zroMB7nwc1liuvVAxlCaaPKna8XmibgXD7DhVeO8fJ3T5MfzvS0HcsOhU4mYz1V63oYNxPW3NnrQ6nO8S9xLZ9eHr6vQktQeju6EfOjdjOePQic+FysLxWZub6Ed0Duw07EsUqhhOmQtZdM/LrxEGGhvKaDaGpn3uXRMy0fVJMQ6fTokfjaF7rxSG9D6A5qpvH7wctSg8HQTwy0yAlUWIBv5toSbs07kDH4vuL6Z3OszG8lQkdaguHRPK++c54T5yeSlORuxJOYbUuykdB5qub25NvzARLNY22jeMpKo171eHBrmUqxtmex9CTQaQ0RP0k/bz1zkRaIA8Db43W67ahFV6R1U/xcpV5TLa8r3eFB90ey/bTQ0oh43ejajLOpuh9Bqx/MyB2DwTDg7irfDVh8sM76UvFAuo0DaKVYXyzx+R/v8oO/u8TE9DBCCpyszZnnp3j5u2dYmN2gvFnb0Z0mhAhjdHJhCwjP7S0GxbB/qECztlRi8f4GQ6M5LDuMlzro2BwRu4WSzLPIqqN1UyxvY3kRFTUUYaFAEce37PPfiRBNQrTd5Snaw4V2QCfxQ+FaSqmkh5eOfGUmZ8pgMPTCQIucSsnlxl/mDlQMCCnx/YCrH9/n6Okx3nj3Iplc2BogN5zh5bfOMHN9iZufz1Er92ZtsmyLbD50QRih8/SpFOvc/uoRJy9OJkHh/YtIcpcaQkzgZLIUhoawbacpcFnst2WsQ/xLpwo4vYqRhksuFDlKKWqVKvVqFV/5zZY9o3AMBsMODLTIKa5XeHBr5WC7jQNo2Fgp8/UHs5y8OMmxM+M4GQvLCmvn/ODvXmZtocijmTUCf2drDoBtSYgsOgdtRXjWqFc87l5d5M2/eZ6xycJBD6fhmWoNTyHu+C2izO1QGEgEjuMwNDxMNptrzs5qCdGBFgtQS+CyTg+g5+uwvWFr6zW8bZB7FKQspMD3fXSgcOs1SOv9bbPhO8Qtmb8hg+GZZCBFTnyDXF8qsbpYPFCREwc+1Gs+d68scPWT+4xM5Bk7Ek6O+UKG5149zivfO8v6cpnyVq2n8BchBbawEPkwY8vcpJ8ebt3nfhTMrs/vYm5/wgjCIDqtdSPTKuWm0hDGsUiQQmI7DpmMgxCSJOlbN+wsqiXlO3T/pOrQRBvVRHE9oiWyJxJVbc1qafyNpt9LP0/KDbSrIWTKvSWFhbSshvRKWY50ov6SvR90ZJnBYOgzBjLwOI5XWVsqRfVZ+uDWpsPCel/+aYbZ68v4ngrv3wKcjM3lt8/y/GvHsXcIQk4Tx+jk8g62I43QeUqoQLG+VGJtqUTg94e7sCmsdrvLoOW9MB5Yo5RCpQRImyElqn6t4p9KEQQBQRIPE6/XeCTxQdHy8T7SVpr08kopdGp729Ehsif1um47ToPBYOjEQIocoirH60slfDfYc32X/UXjewELM2tc+WCGjeUSKggnSGkJjp+d4JXvnWN8urmD+U4IIZC2xHYsxGB+WgNHLKIXZtZ67C12ELS4f1pfby07kxYopGweWoOKU811Y6XWYOIW8ZJasOUl3bRua4q6Tm+n04ntdrKbYn4aTrW+/GgMBkPfMJDTplKaSrHOxlKpa42WAyGaHG9+Oc9X792jXvGTG3qu4PDca8e59OYZsntoGSBEHIFheFos3N+gXvGeehr73thm2k80RSMtqSlOhzC+R25zfWl6NJ6ku9d2FSwtQqit463BYDDsDwMrcjZXy2ytVfrEitPM1mqFv/z+DnP3VvHqoTVHSMHY5BBv/vh5pk6OYjtWz9szt/+DYXVhi9XFYn8J6Yiu18R244yNPEkne8IeWFIgZEPItFacaY97iWxByWmJf29xRaVjddIbjGN+4uCbuNCOCP9OOo6i0wF3ySE3qeUGgyFm8ESODmMm1hZLlLfqfTf5QGjNWZkv8sUf77K5Uk6+tDpZm1PPTfLdn7zAyEQ+uqEb+pWt9SoLs+topem7kNaW4OBtCwunPFhx3WQRi4poO1qk2jE0e7xSLaFSNXoE6Kj6cFzTT0UCqJPQidcXQiaiqjm2pnEA8f6a+12lA5iN4cdgMPTG4IkcQPmK9eUSlVL9oIfSlXrV49aX89z+5hFuzYsTUcjkbF79/lleeP0EmWzv1pwnipkwOlJcr7Jwf4Ogjyofd6JNgHXyWKUid5M2Ulrj+z6e5+JGD8/zwuytbkpCgNIKz/dxXZe66+L5Hr4KQhEjWwLkUxlYWil838PzGo8gaAR2x7FCYUhQw0bUfrxd9Fz62AwGg4EBTCHXaFw3YHO10rXDdz8QW5u+eX+W85eOMXVyBCdjI6VgbGqIb/3oAvP31lmYXdtbtWYBUhIGMbdUne15E0IwPJZj+tRYI+NmF5sJC7V5VIp16tWDaavxJHFrPpsrZdy6nxR47Bs6fVaCsGVVhxoyQgiE1knrJ6U1nu9RKZfxXDdyVQkyjkNheAjbcZqagxJvVmncep1atYrneaCj4pXZLLlCIcwejN1YsbIX4f5qtRr1Wg3fD68VaUmyuRz5QgEpZeIaU1pFhqoubqoOGBeVwWDoxMCJHDTUKi7F9SoqOMD6OD3g1nzuXV3k8z/c4Ud/fxl7IpwoM1mbCy8f4+W3TrO1VmFrrbLrbQtASkkuZ2NbAm8PafRSCl54/SSnnpvck2D06gG3vpzjN//0JXN313a9fr8TBIryVp1auc7QaJa+mEajoOFGhlTKqdSU1KTRUd8oHRbXCd+ORYfSuK5LsVikVikDYW2dQn6IbDaL7USVniMBHaeMKzSe51EuFqlXKmilsTMZ9Ngo2VyuWV+lXFVKKeq1GqXNDWrVKkKC7WTQY2Nks7mwBUW0n6YAe50cdHxgdPocYidcP3xEBoOhfxg4kaO1pl71KG/V+jLouJVaxeOT397ixIUjXH7rTNImIDeU4bV3zrN4f4MrH93fW0FDEXYvzxYy6Iq7e4uQgFwhQzZns5dSQ/Wax+KDApnswF1GPVOtuFTLbigY+sS7CLRP5h2sN0QviZTVR0fxLXHdGt/38D0XCAvvBY6fSi/vsDUd/g0Gvk/g+6ggQEgR1b/pMJC09lKKwPMIvHqjs7pSse5qWBLT8UZNR6K3D8YxAsdgMLQwcLOT1mHZ/Uqx3h9FAHfA90LX2lfv3WPy+AinnpvEsiS2IzlxfoJXvneWB7dW2Fqr7EnoCAS2bZHNOaA9/F1sIyw2KNhraJZSGsu2kIc0gFprTb3iUqt4fS2okxiY5GMQLT+3IUmRigJaGilTRLaR9K+NdaDDOWlNDY/HFz/XjRfiSsnNXUUTN1W7hms4pHbKUG8cd/9+ZgaD4ekwcIHHWmuqZZd61R2M8iWEQuf2Vwtc/fgBXs1P+lFl8w4vvnGK1945h7NXa4ggMv1bZPMOlnU4BcdBoDXUaz612JLTJ+jkvw66Jk0PUbhJ3EukRGLBtJ2oa4iqlEjpZGHpEjeU1OmJxEwjHmyH8YrWX7bZt8FgMDCAlpy4EGDg651viv2ChtJGlWufPuDC5aNcuHw8tLwAIxN53vkPl5i7u8qDWyt7DqYWUuA4FgxlqFd6s+gopdhYKbO+WKJa2X3gsO/6PLi1TLnYv1luj4XWeK5PpTQYVsM4RidtDYmNbEk8TkyH7Kk2B5HWgCQJdWlZvZGCvuPAmvaihWhke0UusC7eti40LFdt/bQMBoMhxeCJnEBRLdcJ+jzouJXAVyze3+Cz399l+uQY9rSFtASZnM2RYyO8/qMLbK1XWZ7b3LWVPbnBR0JH5zS65u/o/tIKHt5a5b1fXGVpbnPXmlEFmkqpzsZKeXcrDhC+G1AtuwMhcpLAFtFwC8WCJ65lAyRtGiLbTSiLYqWQ9vS0KYe46nbDX6Sb3m11FDVFQjdtKcm+0u276Vmw6MYYBuDTMRgMB8DAiRytNLWyhwrUwBhyYmoVl+ufPuD8y0d5/UcXyA9nw3NSiEgAACAASURBVGyrvM1L3znF3J1VNpbLePXHS413MuHHWq95ocWrC1prSptV5u6tMXdnlfauzjujlO4rV85+onUoTusVD9XntXIapFK+W2Jrmt+NF6KLqyv1U7e/1HEzHUJ0elEssTVG79XtNGg3AoPB8NQYuJgcpcLsqsGZdBqoQLO1XuWjX99gYXY9sbRIKTlybIRX3znH5LFhbGfvH4sQAikFTsYi10OMjlKawFP4XoDvKnxvdw8VdOhofYjwPUW91t+BxyGtQTpd3k/T0r+q8/vtbuF0TFCbSIrfTJpwdtpu6uk2cTvh6p0W0Mmj3z8Vg8FwsAycyNFaU6/7A2s9CHzF/L11PvvDHcpbVZTSSSXkc5eO8toPzlMYyT52kIEQAtuxyBWcKIPKsBdUoPD66XprmfMTt1Cn9PGUK6ehU3Qj2Li1W3h6m918QHE38aYXt7++mpOyGmONd9ns5mrZtm55HgUp973mNBgMfcEAipww4FUN8F3OrXnc/Hye218+olYOa5QIIRgazfH2v3uRMy9Oh0HEj0kodGyyuVDoGKmze4JA4bmqzyw5KZdU6v/m9G8aDTCJXEGpVO7kWlBpxZC2kMS+ppZ4HSGSujaNVdrTxjsPVzUtm6SCi1R5nJYNiKZX+ukzMBgMg8AAipzQvdI336z3gAo060slvnpvhqWHG0lQq+1YTB4f4Y13LzB1ahT5GOngIpUS7DhhHR1pDdzHfeBopQn8oG8tB7rlZ4LYZpmeLqumtCyabS3te9RN1p3WNKydd9O8rZbNxyrIYDAYdsngzXqagcus6oRb87jx+UNufD6HVw/QkdvKdixeeP0kl98689jWnDhLWEhBJmuHsT7GnLMrtA7jlvpZ5XQSHam3U7909D81i5PIUtP1OkllNLW/F3cg7zyWHZ1auvHY7mybLuQGg6FXBk/kHBK0hlrZ45v3Z7l3bRG37idzw8hEgctvn+X0C1M4Weuxv8QmacJG4Qw8Haf/veRQJ0X/Oq0rOtYRfAy7YlvRwB2vx7ZgZ51sx8TkGAyGXjEi5wBRSrM0t8l7P7/K+lIpKeDnZCxOnD/C6+9eYGQij5QiipLY453d6JtDzh6uix1UQlJQMF1sbze76dp7oTn+JzQM9ZqhZ5SNwWDYHUbkHDC1isfdKwtc/eQB1XKjcnB+KMMrb5/l4ivHcbI2WoEefC+dYR/oKAj2KmK7CmCx/ds7vpmmPb19z3LFmHAMBsMuGEiRIw6RQ14rTbXo8s2Hszy8vdqonWNJxqeGefOvn2Pq+AhCMNDB1gNPH19zDXdkijjrKY7ZiTKjOq3btFLsCxLNNwehW/RM+pdUZeVuqqdNMrXntm9Dl3gj8+dgMBh2YOBEjhBg27Kf55xd4/sB83fXuPbxfUobVVSgEAKcrMW5qDqyk7FQgdp3i70J4tweIQW23ed/JqLxIy6uFzs3W3OeRPtqQOd6fM3rNNxMOvVrIpJEty33eAgdOpInQdCdBmgwGAw90Od37w4IgeVYj23N6amx4NNCQ63scv0vc9z6cp5aqllmfijLq++c4/jZCYTc/wHbtkUmZyOfwLYPA9KKr7eDHkmaeMZvBA8nwqNVtOrUoxNpF1KSqSW6LtPpj6ZTvI6AMEi46e9MNC8QLpQEOaeHGffXSgoGim2OwWAwGLowcCJHyrCp5V4nfBGtP3F0mKkTowyP57Cdg7cMKaVZXy7x4a9usPxwM3FbWbZkfHqY85ePMjSa23dhFnYvt8nmnceqy3NYsSyJk9n79bbftBfGS1XUa3sv/ZJu1LLRnZPOt/3i0Etaud5GUcXV/joJqC7b7Vh3p2m83YdrMBgMMIANOoUIRcpeCtsJISiMZHn+Wye49OZpsjmblYUiVz6cZf7eGl49eAIj7h235jFzfYmvPphlbHqI0SOFpA/V1ImxVBbuPt3dRbgty5HkCxmEFLhVj2AvsT+asAr1Ifu2bdkyvN4OdEZNn9Tt1EZo7kjkT5wdJUSjYrPWTeogfr3hnhLJ683eo8YvImUu0om4aQmxiWs0EWUGxtdGdM0lW+vQyfzxOWQXocFg2DODJ3KkCK0Occn6XdzPnIzFK987y7t/f5ljZ8YRUlCv+Zy6cITf/tOXzN5cJvAOLoVJa/BqPlc/vs/xc+O8/sMLZLJ2GAQaWVn2M+haSsH06TFee+ccZ1+cRimF5wZJKnvP41aaesXjzpUF1heLBAPYPLUjAizbIpt3+saSA60WjF2e60j0dDKDdJcbLX9oqdjhtlYSqSWbbUtdCiD0dD0fkuvJYDA8dQZO5EgpKAxlsSy5K40TN8H89l9d5Pi5iXDiQuBkbM5fPsYLb5xk4f46Vd890KwNrWFlfouv35vh1MVJjp4ew8k8mY9JCMGpi5McPzcRBjVHA9jt4WsVtqn4L//n+2ytVggCf9/HehAIwHEk+UI/uvLiq7/xV6CjnlStXqHEiiMasTKNrYjGNnTKstPlcFvtSG2yKB6ODkfTZH3s5K6KdrbjNddjHZ2eE7YMBsMzweCJHEuQH8ki7ejbaK93NCFwshbHz46HMT3RzVZaglwhw/TJMXL5DLWyd+DNGOvV0G115cNZRv/u0hMTOQC2I8N2D4+BUppKyT18bSME2BmL/HAWKfspfE10eBqLE5GkdMdF9sIg+0aaUhzUGwse0SIytrMWpt1TzSOJCweKxGYTByRLEcsxkbyeiKtI/KRjhYjH1dO5aBvgXtYyGAyHlH66c/eEkGFcjZOxdxd4qDW+F7pjVKCTr6Ragw4Ubt3H91XfGMbLmzW+en+GuTur1Gte0sRzP0nHbDzWg8Ycerg0Tmjpyw9lDjj7rHscjkj9vy3d4qXiYGGt22vtdNxh61hi31V7wb/417iOT1y1u3U/bcMyEcUGg2GfGDxLjhBk8zb54QxiqXeHlQZ8N+DmF3MURrIMj+cBCHzF+kqZ+zeXqVe9bb8JagWeG+DWvCT7yXMDlOq1LH3veF7Awuw6n//hLhNHR5Ig5OR918erh4Kt110HvsKr+QR77EbebT86ULg1f1djad+2RimN7/rUqx5CCpTSuHUf5au9t7R4HARk8w65oUwUk/Okx7Bd+lL8frvgSWsCrTWia5uEqANUOggZjVY6SvVurviXdl2FgcidZFBcjadLRlf6uBI91VpzJ50nbjAYDPvHwIkcBOTyDkOjud0Fg2rw6j5/+dc7SEty6TuncbI2a0tFvn5vhltfzOHWve5iRUO5WOOr92aYvb6EZUk0UNqosblaRu93Z3QNbi3gysf3o5T3EaTVmGR8X7GxUqZcrPU8985cW4zS5cWu5hOlNJ4XdK24rDWUt2oszzVS33eLDsK4nr/8/g73ri0hRJitVdlyWXlUDK1vTxkhBPmhDPkhGxFX2Xtye+tpKZ2KxRFJNlUofCRpudFwSSXyLBm+aDzX0XOtwu3odnGjVLTnuLlmqrCNjsx4IvZNpc5R+pnS0ci0RgeASAmx2GWldBQ3JBqvt52j7T4DcaiqoRsMhsdn4ESOEIJsIcPwWG7XLgQ/UMzdXaX8/9X45oNZbNuiXKyxPL9Feau2Y2+o4nqNj351EyuOBwICT1Gvuk/EnaS1prRR4+Nf38LOyOabvtIEgWoqHLgTNz6fY+baIo0I1B7HoTSe61Ov+Z2PU4MKFNWyS7BHsae0Znl+iz/+9yvYjtVwJSpNtVzf83YfByEF+eEM+aHswWZXifRPgdYCtIjibeLgY0FzLFkj3kVEsWtpaSQAKSVOJkMQ5NBaJb+LKP4obXFJ/7CkTcbJ4Gd8tNY42QyWEwbyk/6Y4jTz6Lll2TjZbFKvJ5PJYFlWuF4krkRKyGg6xAclVQFF1y8kXXuDGgyGZ46BEzkQuhBGJgpYuy23r8Gt+SzPbbLyaCuJE+jVSqACRXmrtocR753AV1RK9Z0X7IF6xaO+C1EUEweb1qsebj14IoIOHboTS+7B1ipKY9uS4bF86K4SkgOLONrmdHcKku8UIxULnTgSWQhJxskwPDKCk80kIifjZLFtO2XNEUghU8MQOE6GwvAwdiaD1mGafSabS8RR21kSAktIcrkcAH4hdBVblkU2m41Ejg5rEbUkE3RPAmh9Pb2O8XwZDIaQgRQ5ti2ZmB4iP5ShWnJ3vX4YbPyk3Q+HCyEEmawDiDBO5hloFjo0muPoqVEsyzroodDJFRTbcNroYYaXQiBth+HhYfKqkBRMlghsy060Rmz3EQJQ4R6djMOwPRqla4cjsYTEElZ7dlU8JCnI5nI4jkNiUxIghAwfgBZpO84u0Y1sMoPBYIgZOJEjhEBakomjwxRGc6wtlg56SIeeuGKutASZrIXWGrceHHiq/ZNmZCLP8XONnmEHc7wpl1HT/qOA36a06/R6DVdRN8kjIheStDQ6UjWN9G4QMt59GHwTu52EaDQtbU2qSuRNZP1Lu8pCYWU37T8dK5QInCT2pyV2TDQ/EU1xPY2fxopjMBhiBk7kQFjb5sixEYbHcrsqlWPYO3FshLQkubwDgFv3D/W5H58a4tjZCcSBFFpoiYeJEETiY8eZvFUUNa/TZAlqVOyLBEksVURqFC35U+ksqVTWVZsTqUWEJcvF6yevRU90SpbFz6Mgoka9nyjgumlnjXIGyc6MpdZgeOYZTJEjJcNjOcanhhBSRK4nw9Mibq0Bh1voTJ0aJT/sEGYHbR/4vFNWz05WINExMygO+G211jQm/vZ96IbbpsP7jTDl9B5iMaNTad+h66pFR3StadN2dkQiXaIth72wdLRlHZ9PDVoCWrXpOh1nbKWzwlp3Ax1S240px2AwhAykyBES8sMZJo4Oh6ncKji0E22/kVh0ZNgmA8B1/R0z0wYNIQUnzo+TyVsgdW/z5rbL9HKBdtlAbJRIuWZaJUS3FVs9WGn3UGNoDX+RTkyjokW4NFSTjoSHiNftIPBEnAkWy6gk5SlaP21oSQmrdpkX/UssRwJEQ/homk9NuDlzMzAYDCGDKXJEaEk4cnSYbMEhKCpjzTkALEuSzYUWnXrtcPSrgqg/2kiWo6fGcTL704F852rCO7wfZo03LC7x4nGRwjj+JSV/Om0x7gzelmadLKzp5J/TrTpPJP81v9Hq0+o6DhGF7kRByOlw5dbNJsqsycSTGltzZpXBYDDEDKzIEUIwcXSY8ckhahUPFfRP6vG+0XXyOHjSwcjZ2KJzSFxXdsbixIUjjBwZQmAlRep2JAnSTf0asX0Kum5YOJpzkogcPWgg0JpAKxA+KA+hQ0EWaD/am73NPsCSEi1iwZXIpdRA000X0gE0gGjU4WkItk4WHN15BLr5abJp0WFbDX9ZeD3J6EGruIn3Ga8Unantoq0NBsMzxUCKnJjx6WGmT4+x/GgLv4/qq+wVIQWWLclkLWzHiiocC5TWqEDhewFeXRH4/eGeSwcjZ/MOWoftJvphbI+DlbE4cm6CmpQsbtUiN0/joLpLFd1djO4kclI/mraYcu9oFFvVOrV6DQIfqaJea8KKRBRJhpTSCt/38HwbKaLomiCVetTUbb49uLnpSeqwxI6frdhRYOzsTmqYcnzlRfFQIgo+bmRkiYZWS8aZNnIN+GVoMBj2gYEWOUOjWV54/SS3vpinzu6L3PUNApyMxdhkgenTo0yfGmVsskC24CCECCsblz02VsosP9xi7vYa1VK9r8SElGFPMURo0RnkGcazBA8yml/ceIj9wEGRzjjaq5Fg92vqlBCJQopxPY+r80VKnkRhhbVrkqyjcGmlFJ7rUioWqVVrjUKAxK0fUhtt3mPjxU4x0B28U63H2Bof02mZHU9D7I4SGqUDqpUKvu83FSgMXV3RMcdFBI31xmAwtDDQIiebc7hw+Rj5kSyVUv1A+hs9LtKS5Ao25y5Nc+mtU5w4P0FuyMGyJCrVQ0gIgecGbC5X+M3/8zXzd7w994nab2LXVRijY4PWeG5/WJt2QzzcLRQ31tbxvyyDJUinT7fOo71aDZJ4mZaYlW3X0+lVJCiBUB6bnqbqC7QlIQgAEbnUwodA4HselWKRMEeKVLp2dyUQ95ba/ji2P06dDHibBXd6S4tGcDKh0NFaNc61TrncOgxowC67Z4qOFbpNYSPDE2SgRY7tWIweKXDy/BE2V8q4weAFvxaGHV78zkn++n99heGxHEppNlcq3L21xOLsBr4XUBjNcvLiBEdPjzE6mScXWXj6iXg8liXJFzKAi1sfPBeiErDhSB7UfPwg6Dwh6y5umw7LxvN9Ii46Wk+6o4kNGxK0QigXYTmR+ysIY1VEoyKzSFowaHzPa0wqsSXmcXpwaXqM7JXbOua2l3ZRd610lcE4DjoS00mj0E7D2bupzXCANFnpDIZ9ZKBFTuzmufDKMWZvLOEOUIaPlIKh8Ryv/+gc3/vbF3CyFrPXl7n+6RwPbq5S2qzhuUGU7CLIZG2Gx3McOTbE6qMi6gAaVvZKWMI/zLoaNIuO50hKozbaAdF1wmyNYensKonidaNlGgGxujnaN3q/sXD6/XgIGgVCIW2B0Dr5XQsZxajoyGOVisYVDQvSDjaj3hFi+7gc0Zb81MyOF0OsxqJzKlLHkxI4TbtMNmkUjsFgaGawRQ5gOZIT5yeYmB5mc6U8MBOqk7O4+OpRXv3BGYbGs9z9eolPf3OHu98s4nXIUqpQZ2O5zNzt1fAb7Ta9oxqVYSP22tNHdPm23Lqv1pUAy5YDJXRii0m1YFEascIsJNHF6hDH73bzYaVeblq/e1JSy3qdTpZGSxkVvxRJTrcQMkmREjq1ZuqbcWyA2Xn633FgOx5CXMCv68fdS+iMFsk5DsNuFM2ncbv8LsMgYyw6hv1m8EWObTF1cpRjZ8Z5eGsFz+t/F4kQMDZZ4LUfnmXq5CjlzRof/eoW968v72iN0tu4DKQU2I6Fk7WwbJnEyoRZWQG+11lsCAEyXl4pVKCRlsR2JNKSBL5qE15ChO5CO2thWeGMpHyN5/lhppsSidAJs676/3NRUlAatqkU7B1nz6QGXqOM7/bL9/B+ssv0vhPXjAYRoNAIHOLKMloLUCC1RndzRekuad0dlkt8Q13cdLF86Xo8vamp7Ul79jrrvc6B0XR43WAwPNMMtMiJG/gNj+Y5efEIVz/NEqxX+75DtpOxOfPCJKcuHqFW8fj0t3eZu726Z3eblIJswWH69CjnL09z4twEI0fyWLbEcwM2Fss8vL3KvStLrC+V8P3mb8ZDY1me+9ZxhkayrC2WeTSzzvFz45y/PE1+KMPD26t89d59vGh8lmMxcXSI85ePcvLCOMMTeaQUVIouj+6uMXNtmdVHRepVH8uW5AqhRaebyOoXfFtQHLEJrFQaUbfxxtpmNwfUVoGveXtdfmmsohu5UTppThllVKWaWjbicDRK667utM7ja7jJ2sbQg+tuf2hxxbY0qNMpf1la24jU4rC7j8awd+J2IiGRyzX9frSMiNSp1qFEl1oBCiUtEOk4rnTj2fhvUaR/Mxh6ZqBFDoTXfiZvc+q5ScYmC1S26ijV31aDTM7m/OWj5IYyzFxb5upHD6lX91ZfRkjB0FiOl948wavvnOXY2TE04HsKFShGszZHT49y4dWjnH5hks9/f4+Ht1eTeB+AwkiWb//1BaZPjTJ7bZkjx4e49OYpJk+OJD2Qrn08h1cPyGQtTr84yZt/8xynnjuCk7EIgrBeS8axOHdpivOvHOXjX91m9voyXj3AkmFTzxr9J3TioSgB1ZykNGQTSNGzgGnNFhGRZSfs1dRkkml5rpssI+mav513JBryo8nko8NgYh3H86QCjZs2Fy277SzRLh52RLf+2jieXc9Iccq80PEWSH5tOT9NYThdX+yjC+2QE1s2001b0wh0qF21CmPogUDo8LONBVBTo1djmjPsDwMvciBs2Dl9aoxzLx1l9VERv49dVkLAyESOqVOjCCFYerDJ1mplz4HEuYLD868f552fvsToRJ61pRLXPn7I8sMtPFcxNJblwuWjvPjtE1x66xT5kSy/+6evWby/maSgCynJZG3yQxmOnh1j4mhYRfqz393Dq/uUNmv4vkJKwfFzE7z7H1/m1HNH2Fqr8M37syw92CIIFCcvTvD86yd47lvH8L2A8maNxQebBFqHrqt8I0an3/BtwcaoQ9URoSWwTSTQNqE2iZKOwqbDevHCLU/VNhaUpu2I6Ek8IaRdO+ltxkFGOrH9EI5w+4m/LcW8q4VpG59R67lp28k27jMRj1s3zqcQ9FCF0HCgxJbE2GoTEhZy1Eg0WlhowCIg0IRB89LCIq5UnbKgGnFj2CcOgcgJXVb54QxvvHuB2189olp2tw3MPUiEFIxOFsjmHTw3oLhefazA3KOnx3j9r84xOpFnfmaND35xk7nb61RLdZQG25E8urdOZavOaz86y6mLEzz/xnG21qqUNmrhmERogZCWZHg8z+y1ZT7717s8mlkn8BVage8GjE0WuPy905y8eISt9Sof/PMtbn3+iEqxDlrz8PYa5c06P/yPlzj13CTPv3GC1YUSKgjNz7YtEfmwq7fvqb6y6Ph5h8rpCbJjGTJWe++mTvN503fN1oCltvU7mhzSuqBtN2krkYitS4Sp4YHnJ7VvGsHGjXUty8bJZJGpY9G6ddDtfh0hU8e+3QfU5Rt78lq3dUVjoK1upUZTz+Z9+56H77nJ8Rr6jSjEXjfuJaEGbogdDSgRRA1gZfRZy0ahytj1GmUDilYRvd31ZjBsw8CLnPiaz2RsTr8wzcVXj7O6UMSr92c6uRCQzTtYlsCr+9Sre68OLC3Bc68f5+TFI5SLdT7713vc+WqxyRXl+orlh1t8+q93mDw5wnOvHePsS9Pc+mKB0mateWwSvLrP1Q8fMHttmVqlUUVaCDhxYZwLrxxFCPj6vftc+eABtXKjFsvGcpnrn85x8VvHOPfSNGcvTfH1+/ejzyL8oCw7dl15fSN0tCWonzmCc+444xk7qSXTRZZ0nGd3uvX2epjpSaHV2yREWM24uLFBxS83W/9EPDGEzzO5LMNjY2Qy2bBnldbRo7F8Y3AdRI7ubItJ1kqvI1qEyU4TUeyO6mSFaiHwfcrFIpVSgPI94swrQz+hm3RtkiEVaVKtNUqDHyiQEiUthNBIFAKLdPCbji06rddnLMo7lBHQLdeiwZBm4EVOTFibxebF109y5+tHLD/c7NsA5KT4rdbs3MenM1IKhsdyHD0dur0WZjZ4dG8jzGxq2WQQKNaj4OOzl6YYmywwPlVgcXYDnZonVaDZWCqzeH8zbM3QNGbB0bPjjBzJsbVWZf7uWtics2A3d7LWsHBvg9MXJxkayTIynmNrrYL2G4OSlkU2B+DhuQdb70dLgT9eILhwjPzEWOcMJd0SIdAhCFJGTWObO2I3nnc6yrZtpW7grS0dEpETBFTL5cYckEz64bdgrRRSCGzHJl8okM3msGQYBKG17jiOZDypCaLbdZl4zLoImjZxlqShNS8Vu6GS6a11f5Fo830fr16nmlgHtjkAw4GhO4iPQCuEgEALtmoByxvF8D4yniOfFUgp0VrENbmJHL6pLcTC3cTnGPbO4RE5kbvlxIUjXLx8jPWlUt8WB1Qq/EZt2RLblnv62xVSkB/OMDKRI/ADVua3uvez0hD4ipX5Im7VJ1dwKIxkww7WKSGolKa4UaW0WWsTiNKWjE3myRUyePWA85ePMn16rG0yzGRtpk6OIG2Jk7XI5Ozo5he7KMLnlh0JHe3h+wdj0dGAti3qpyYIxgsISzYJj2S5OMagZWKPj0pA06Qdu5BEKh1JKNVYL/7aGy0c/97tW2jyutBRRmEkNaKCf40igir1u0CKcCJJrCYi7F3V3ZXUEGmyw1jiiUwQXn+kzkKzty6OqWk/l/E66WNNznl6Izp8LYnJiRdM3F3R2deNSKN9K3ho2CXR2U9924nKVYIWlDyfz+ZX+cudebSG7549wssnRpkaLmDb4dIi+Qxj0Ssid1eqszxRo9Z4L8ZqY+iBQyNyILwXTp4Y4cXvnObaXx6GsS59Zs1RCqplFxVosnmb3FCmSQT0ipACJ2PhZGxUoClv1fG97a0itbKL7wVk8ja2I9v2q5XCrXoEfos1SIBlhVWXbcdifHqIt//2hY7nVkiBbUssSyQp/h3HL8IaR9k86Kq349ifFKqQoXZqAq/gpO3tjUHGNE3AkdUkeq6BIB2ko9Pntd3p1ZQBFU3YonUX6Z9x4T8NKmX9C7/3irS1PwkcTkKMIz0Q1tPbPvC4F6uijisrp/NgWq1O6difbtvpvoMdFupgztG97dPw5Ig7vIVxU1aYSIXADxTza5v8y9VZ3rv+iLovuLVY5G9emubN88c4NWkzZEviqg2aRhA+RF1LQjMkOqrhZMSNYTccKpEDYZuHU89NcvGV41z9+H5TXEk/oLVma6VKpVhn8vgwR44NkR/OUCnuvsGoTv2/K2uQ6jYniCgmQ7S82ngpCBTlrRoPbqx2PbfxnFtcr7K1Vm07rsZNSmM7FjlIYnSeJipj4R4dxZscBqulCF40ccZCokXzNUuXtnPfcmY7BczGCkSI9s9Bt3+mjd5XaQGWclUlj9Rs0SRamkwtHa05yXFFFh2lFFKG1i2VzpghCatpFKcU6a3EQ+0QKxFbn5ouQN1yflOWm7ZLwkxwfYkIazIpIdAE4T1GWSxvVfn07gKf3FpgfqWGpyWblSUWtorcWivxoxdO8cqxUY4O57Bk6hoBBAqhg9CWIyxCQ6VGqQApRcOP2/YXaTA0OGQiJ7QejE0WePWdc8zdWaVe2+wva46G0laNhdkNTl6Y4Pj5CU5enGDm6hJu0HtqtdYa3w0rGQspyA9lsOwOWUEpsnknKRBYr3rt39y73Cu0DuN1fF+hfMXqoxK/+c9fsbFc2fbbv1ahdai7dyTcmW1b5PJQ5+m4ruLNq0KW6vlpgnwGLRtWpyRmCkCLJCsp7TppzOmRFUZEBvfWeSnxFAAAIABJREFUImYa0DI03kfqr9lRI2KvSyKoWhw5TWNOvx5HtIiWfYomN0+kRtIaKe0aa8kKS4xCOnUsYcRzyi2WeBMaQabRSdPp9VqJ1xcNkRQfXJx63FguJS2TySz8JWlC2rQbM8kdJDoS7aEmVUgtqNZcri5u8Js7K9xfqVH3A0BRqmi+eeizUPSZX6/z45eO8dbZaY6PF8hlLGS0LUEA2kcLB4WMLzgaeYadMNeBoZntZ8UBJZtzeP61E1x89RjZ3M4l+p829YrH3a8XKW3WOHJsmO/9hxcYmcgjrd4HqgNNpVinuF7DdiymToyQG3K6Li+EYPL4MJmcHa63UduV5SjwFeXNGr4XJDE9WmkCT3V9qKBHwZK4rpwdhdp+oW1J9dwU9ZPj4MQZHuFgNHFMi0wCiltjSDodlhChJUzIZhdSR4tM6q3YUiZaYmz2fnCRVaf15HcSIMmYJWjd5A6LM610a/BwfE6kTH52FDjpbROLr3CuEjJ8T6bObWPZKO4nfbZ0y09D36AQBCIUJ44KsJWNCgRzxRLv3V3kytwqtZqP0AKpNJYKUL5maa3GH68u8I8f3uf//ct9PnuwxkrZC9vKBBoRCDQ2Sku0UqFlJ1LH4d9oZHU214RhGw6VyIm/vEopGB7P8fqPLjB1cjTMLukjVKCYv7vGna8WCXzFmecnefMnF5k4OoS0usSxiDBl3M5YSCucUCrFOgv3N/C9gGNnxzl+bpxMzmpb33IkR04Mc/qFSYQULD7YZHO5jFY7F4eL0Uqz9GCT4kaNsckCZ1+aIldwUgGoqXHKsG9Vr6Itnvzi9PInJXQSp44lcadGqD5/FJ11UmdANHl/dJM5nGRy77zdODYlEgjRO+n4mSaPUXrdlLBpK8bXCy0WuNgTFh9vYznRtHjbsSTGnYaoieNthJTJH1hDeDQsQk3Wo3SwcGrfDatPPAbdcIU2iajm40mWgeY3DE+FRvmBLg9CoaMjy6HWsFZx+fThGp/eW2F1042uc4GyBNrSKOER4FOsu1y5v8TP/nKLf/zoBr+98YA7ayXKrkbrMPtKaJCBBh0AGiElmsaXkXbXrMHQ4JC5qyIiy8Dp56e4/PZZNpbLlLfqe07X3m+0hvJWnSsfPmBsqsC5S9O88v0z2I7F1Y8esr5cplb2kjoocbXg0ck849PDzN9ZZX2xTOBr7l1Z5OxLU5x+YZLX3z1HtVRn8cEW9ah+jbQlE9NDXP7eaY6dHae4VuXOlwtJIcBevwVp4NHMBo/urfPyW6d49Z0zbK1Wmb2+TKXkhqnLUpLJ2YwdyTM6VeDRzDqby5We7j/JJGlDvuBQq3ptPbb2i6CQoXphCn8sn6SMCwRKBQS+H7nYNEiBtCxsy6LhPhENLxBENUAUXhCggsZN2LFthJCJ66cxUeskxsX3fVQQhAJIiDBo27KxpJWIpCY/017md538Fx6nlImeUEGA64WfXWhB0UghsCynTaQ0uplrtAoIgjCoX+vweG3bQlpWIwVeqaZ9aq0JfK+l5YrAsiTSbtyGknif5MjTikcYjdOXhHI6EKClRc31ubZa5Lc3FplZ2MKrh2HIWspI0GsEPlIEgMT1fWZWqyyUK8yulZh/ucyPnzvJC8cnyGcspBbYIurPJsK/IJ32wibfTMzFYWjncIocwnv00GiO1945x4Oby9z+eqGvCgT6bsCDW6t88i+3EQJOPneEb717njMvTrEyX6S4XsWt+WH9n7zN8FiOsakClm3xm3/8is3lCkppFmc3+ex3dymMZjnz0jTDYzke3l5jbbGEV/cZGs1x/PwEp58/glvz+fKPM8xeX8Gt77K1goa1hRJXP3rI0dOjTJ0Y4a/+l5d5ePsYK/Nb1Cse+eEMY1MFpk+NUinW2VqrsrVaRe/CLSaEiNLLNdT8fQ9G1lLgTQ5RPzuJytrJDVIpRa1aobRVxHNDQWzZNrmhPMMjoziOk7qZxmMNJ/NatUpxq4hbr6EBJ+MwPDJCPl/AiiZwHVV5jads5ftUyiWqlQq+FwZw29F6hcIQjm2n9rR7pdfNnRYrCK0UdbdGcXOTeq0GiLDRazbH8NgomUy2ObksEi1aBdRqVcrFEm49PE+27ZAfHmJoeAjbyYQxNpH7K1aESgVUymWqlTKe6wJg2TaFoSGGRkai8xSmvXf/MhIHA+36dBieIFJHVhYBNU8ws1bh9zeW+Hp2jYpbCy8BFZtGLVA2MvoctZQgLYRQuHXBrQdltkr3ub9W4scvneKts8eYHs4i7IbYlTRrcE0Hq6TBEHEoRU58wVu2ZPr0GK+/e4GNlTKPZtf7xn+rdRibM3N1mUqxzms/OMuZF6cYOZJnfHoIILLkhDcDFShqFY/V+S3KxRoqmgjqVY97V5Zwshav/uAsUydGufTWKXwvIPAUtmMBsLlS4esP7nPj0znKW7WmYGzfCygX6xQ262EF4y6B2m7d5/71FT7851u8/lfnmTg6xIvfPsGFy9N4XoDthN/k3ZrHw9trVIq7t57Fae22E056aC+slLpPn5s/XqB6YRp/PA8yjvoI3Uy+51GrVKjXquHk7ThIW6KH44TY2IQjkhgaDQSeT61cplarApogmyWby5LL5cKdJplJDdcOWuO5LtVyGa8emvMz2SzZbA4K0aHvu+UxJZu0JggCatUq1XI5rNskJVpphoaHI0EmUtlTscsO/CCgVqlQq4TnyclksB0bNVRoi1dquKOIzm+VWq2C0GBnsjiOE9Uhauwr7Zlqn7vMN/aD4v9n782aJLmyM7Hv3OvusWVm7QUUdjTQ7IXdrWYPSXE4nOGYjWTUg0xmeps/qId5kPQkM2koaobL9HDY7I3sbjTQAAqFAmqvXCMjwpd7jx7u7u4RGVmVhSpkxYGhMtPd776c7yz33FXzURBBaY294xo/vbWPH//uAR4fzlFbLaHQ0oYfML41YT2RDUhqbiefVxq3d+eY1vexe1hheqzxr95/Ba9fHhqtn/X9Cube4IRM7t0G8GwoonMJchwREYajAt/5wzdx97M9PPzyEE07Bsxzpvm0wq0PHuHuZ/t47d3L+Mb3r+P6GxewdWkImQmoWmN2VGL33hFuf/QYn33wELOjcDcXM3B8UOIXf30Ltz96jG/+8Abe+OYV7FhH5sf3pvjyk1189NM7eHSn//LS+XGFD/7hNm7tDPHwi8PlF5wyMD1Y4Od//Rlu/+4xvvWjG3j9/SuYXBhCEGF+fIyHXxzi5m8e4MuPH2N2VD1Rnzgfnbww/kXz4wrqlMfroyrHGWPxjWtYvHMVnAVnY6PgcOYgNkH12P0MaUN+9vZkdxrJOetah18NbTZf64DM2gbR8w69BBbwx7RdOVpHEUIsw2eEctZrpK1u72fufqHI9MQczSUGtLYunbFTTHC+jr/VTrvj6hnFy3HpnC+S81dSqoFSDYgIgs39WwLkb6PmKG2f7/SGvnryfmV2jnNywtCZcAUWtcLHDw/xn397Gzfv7aOuFZgJTOyd8ZlqgJRdagRWjXEoFgJKZmaeNA0e7tb4u4MG9/dqTBc1/pf/7g1c2hljkAmwNfEKYeakJmPmlBbgeN8vV/+oLWmMpw29DHSuQQ5gnGC3L43w3T9+C7c+fIg7nz5+ISMh1wuFO5/u4tGdQwxGObJC+AWrao1q0aBcNKjLplfTwtpcyfDLv/kMH/70jtGqCKCpNcrjCotZ7W8db9NiWuPXf/+FiYDc6KXfxWXt3Z/i5//5M3zwkzuQmTHFqEajXDQo57W5XuIMSGYCw3GOct4YH50nJJ0LlNe2Ub59FTyw094glOBQK2D+J3ibv+O0Zm90jFd7BuxGgmPXEQ7/E5HRr0dD5rMmZ0IyDECI9vFxckW2cIzLfDUC8P68vkFLvnN+ScJFSDYMTUQO+97BOHIWdvPTmeFswiV1IRCEOf7tQJNjk3E8nU5bXVkrmxoSb+jMKQCHWGsStCcA0Cjg1u4cf/O7O/jNF/dQNSUIBEk5mBswKQ/WiQXABE0SkACjAcAQkXDBJNCA8dnjffwfv6hxb36Mv/jW6/j2jcu4MsrNHqg0NGloaRauA+5hPrYPm28myMtI5x7kmMjAGd54/wr+5C++hb/6D7/A7oPpiYz8qyZmRrVoUC2a4BR8SmpqjaauTq1BWQfY9JdV4viwPFW605CPo5NLAygWtdHonFK6ZwKqSYGjb78CvjwOgf/cyaE+h1YHgNx7D1xMCr/lW7BDgD9d4tISw3rSpiAjlTTZH4vt6QGEm7f914HhJMdpnftLtK07R02jJvHaFpdb/D9H/kbkwBfaJ/04RVzEviec9kfYdF67RQFs+fMwPu80KhCoc/c04q4P/ZfUyNdlw8POljj66c5QMbEJzAcBwVZvqTX25go/u/UYP/n0MR4dzaGhwJSbcddOoxdLAuQXkDHfmhnk3pmvFGY18PH9KY6quygXGotK4Q/fuYpxXiADg7SCECbClAIA1giHOk2+Zh66+EqbSfKy0bkHOY4m20P84E/fxsMv9vGTv/oYh7uz512lDa1JROYKC5DxYzqt6arJBQ5e38HirUsoiuwExYYDKWipD3oiE6e1XJZb78NQfsRKYh6wonqnoVUeLMFfJvgM+dD8y9Jw648IgVjosl5VeyoVa3GejBVtGNizIH+rlO1eN86KzEULi1rjs8dH+PHHX+KTe/toGkCQgJL2CDi0UZGCQRCQMjOnCpU2mlO4U4gB/BrpwJhvy5rx5cMp/uN0hsPpMUhm+OHrV3BxmIMyCTCbmFwCkP7oo4n5RBw0hxt6OemlATlCEoaTAX70b9/H7oMpfvX3n6Opmo3N/wWneHPK8wwYrw90GICShL0rA+y9NsEgl4kg2eHCLUHT/GhtkDFCWmPjDGr9yOTTLudZ7L/rbOpPs/EH+1T65xPnk1IwiVgGe+Jwb5jYsyJhAb6CcQ6XzAAZgKI0497hDP/l47v4+a2HmM5rECQUtNHbsQBIGj0LA0IKDMdjZFmGpqlRzhZo6hps75px0awBWHOvAFkd4O5c4R8+3UOpP8TeD9/CH33jOl7fGQMASLj7rxj2/gcQSWsic2s2QmkbemnopQE5BHNx5CtvXcCP/vw9PL5ziLu39lCfke/Ihp4teWfkXILGwGJeQzX9nM891QKYbmW4/+oIapyhcFrxNYFtZCV6urqD0PafOau8z5pWVant/hxridpd+sSyQyti8sb5+DlSYiMkq/EzTuJMGsSE2aLBB/f38ONP7uD+YYmGAUnCjJnW1idNgFVj4mgVBbZ2tjEYDqFqhak8xHw6RV1VUGxPXQkR+bTB+gQBNREeTEv8/Ud3oalBiQb/7puv48Igs7GspAfG4eyWPbWH5Gzkhl4iemlADgCAgHyQ4xvffxV/evRd/Kf//Z/w4PbBCxMkcEMnExEhyyUGbI7Pr9LozEYSX94Y4nAnw+gUV2aEwnqendlceVG32hPq1XptnK97+mSzps4NmaCPVqsJQEFZEEO4ezDDz794iF/feYyqASAAxcb/RrCJ/6RZgBiQWY7RZILtrW1kWQ5daORZhqIoMD08xGK2ME79QFCBMkc+bApaAEelwE8+2UXFwEBI/Olb13F1ZwjNDBOYW3izayeezlfXbRt6QejlATnkTA/AeGuA7/3J2zjcneHH/9cHONybnfoG8A09H3Imn7ww8X8Wsxo6Om3GMEJnWQh8+doIu1cK6Ez4Y6+91PZsTUtcke4M5szKsp8BLemHlAEs+2ZJRXnpHxs6B2QVId4FSwvjuzVbaPzmzgH+6fNdHExrMKT1rRFGp0IaDAXSgBASw9EY460tGxsJNsTHCDLLIKWEkIdYzOZomjpyJGcQNAjhbjUNwtGxxi8/PURVfQ5VZ/hX713D1W0BG10LAuG0lblSRHuH9zCPu/N8A4LOH708ICcimUnsXB7jD/7NezjcneHnf/OpCVz3It1WvqGl5GK25IX5O9boMIAqJzx4ZYC9KwXqQqB9vVabToszTqX588eX1sp5aRZnQS4IYQfoJHu+PUvD3V4hdB5Febi7jHpLfuI6PzOfpQ2tTc4R2FxhYi5WVUrjztEM/3jrIW7eP4bWwpwSdJGMYa5sABufnnwwwGhrC4PBEMpqaMywMrJcYmt7y1/aOjueQqkaDnqzj6MgfHwqrTUOpzV+9skuhjIDa8af/d5VXNkeIhPmlJ+LvQRhTlfFIR+cCXmVCXZD54NeSpDj6PIrW/iTv/gWynmND35yG9ODJzu6vaHnQ+7UFTOjKhuohtHkhMeXC9x7ZYjFUK6ZE6/0/VgP0pylVucrBNvRKS93vehpSndhflZ/dIpqdJI+0ZWlGzpDYrAPlsnCgIf5osanD3fxmzuPsXfUQJAEQ4EhATLxawRnADOEFBhNtjAcjiBkBm0DTpqpbmacEAKTyRaEkCApMDs+RNOU4VCX9xmWYEFglCBuUJc1fnHzAQQxtuUM/+L33sLlLeuMDHM+y90vZ2aTgAsZsZlZLwe9lCDHbcp5IfHKWxfxL/+nb2NxXOGjX95FtVh+rcGGXiwKpqsMTIS6arB3Mcfd10eYTTKwC8IX/b+cidu4Nokot3wTpCQKMZuorhYkeAkyEh2d6txs2JFqh+DdJH1wPCCFG27C+iQ2vTsx4l47huBOmPjyKTCqJW339fZP3C+Rcp/IxtNxdV6TeMWxdI6+iR7FeS8rx185saFnShRmtj1ppXHvaIFf3t7H7cdzVI0CJACIKHK4MH+Tua5kMpkgzwsfWDCMsZ2xBIhMYjSZmItxBTA7npp75LQ9gk5mXrMmCBIWVCnszxm/uHUPO7JGNtzGj97NcWmY2ajdlAgORNwNqbQ5Xn6u6aUEOZ4IGAxzvPPdV/Dn+vuYTUvc+vDhmUXr3dBXQ0IQxDDD8U6G268PcDSRBuAAcOAlCekSm4/csW5ON10DDFKMBJ8kAjiJOaXL+NuWKgMmIr15VF5UHQ8mev1kTjThOJMTwD6jNW1m1G1vmmurbOqPHxSeLSl3TZVRZEFDDOjapWzoGZMNpEcMLBqNjx8d4eef7WJ/WkGL+L4xBjHBHWPM8gKjyRYGoxGEbGtWU98YBiCkxHg8hpQmns7R4YG5+JaV1erYq0TMNZ1g0QDcYG+q8NcfZ6DiSwzyDD966yK2BrlZkcwQyUUlBmJtoM3LQeLkT84vkY0IKzOBN3/vKv7Hf/8HeP/7NzCaFM+7ahtal4hQZ4RHWxk+vTHE8dips2PrT9CIOH8ewzADsPDPzJO1fEFChOEus11nA312myz5/32Ie15uiuKI15ysGCHEWicA/uqIMwu4FtnANoqa50d+GAgASWgiKFa4fzjDB3f3cfPhEapGee0kR5pD97MYDjCaTJDnuY2GHS+t1iJjBmsNISRGwxG2d3awvbODwWAEfxTcrVU7MYTMACGgQdibL/D3n97Hf/z1l/jw7hSz0twh17CCdvO/NaGcwELd2mzonNDLrckBfPyV0aTAe997FXVlLg/89Nf3UC25J2pDz5diJYgShN3tHDcvSOxukwU4zkZkfW0irQg5J0ZKN7yzHOXTb5RnubVGUqr7Zw0lTm8NehFG8N3ppLZraQNMzgd1hpEZtdb47PEUH9w5wKPj2jgFk/F38TKzBThCCgxGQwxHQwgpoZVC4vjeWn9hfZqggMNiCGzDaoY0yrK0d6qZCR2UsQJMDM0K9w+O8Xcf3cOl0RCTwQDvXBtDCoKOr2hBWBK9179tkM65opce5MRUjDJ860dvQEhzeuDzDx9gMaufd7U2tIRUlmF6eYzbV3M8pgqa+s2MiYaBT+VNcua0suSnrlaQRTn552za6xhD38kr2OcbgHP+yAypBnSNo3mFD+4f4ebDY1RVDSEswGGnFTE31RMRisEAg+EIIpPQrLszZgkidredExGGxQDY3gYJwsHBPqrFAlopGzDQ+vYQGXjFDNXUuL07xV/+9guMRxL/8+htXJ8MkJFtg/DV3WCZl4Q2IMeSY4TDcY5v/uAGJlsD/L//4Re4+Zv7mE3Lzeb9gpDThqtc4vjVC7j3/jUcLo6gpnVQ2XjqqjA4+tc/ix2F13UWQe/+vBadaNYhWkf5sgZFOazrk+O/PTnL9Dk/eYesQxuO9NzIwWalNO4dzvDRgyPsTkuwbuzlrxKJjwszpJQYjkYoBoXRprJOnMz7yJmWBdmLXpnBglAMhyApoJlxxEA5n0d5wZvKSAOCJCoFfPrwEP/fbz/Hte0B/uydV3B9MgJl7iQCNvPpJaKX2ienTc5fYzDO8ea3ruF/+Pc/xHf+6E1MdoYQTxIxd0NnTkyEZphj+sZlPP72DcwvjqGlXLFp9b84iR8H/wKgCxZa2bddC1z69oet89Z9gKu3xgkAezaUOFb3VmJF2icBN2sW4t2nTl/Chp6Swg3zRvc5V8Dnewt89uAQx4sKUhBMECpnfgLYHg/PixzD8QhZltkXad7+lvrwwC9KsuuEyZQshEAxGGJ7ewdb2zso8kHwDHNgiG08HZEBmnA8b/CrLw7wl7++hQ/v72Khap93fHDA3KrOYAqG2E7dNvS1po0mp4fc1QFvvH8Vf/6/fg+Ti0P86se38Pj+0eZAx3OmZmuAozcuYf+tqyi3R+bUxUoOuGLAok2VaRkntT4u3hG2B7x0PHbXnCRd/f1qLcppaV204nf8NT71TtqOonNUT1B354fRZ7lwzuDeNXSDdJ4LsXVs21swbu4u8ODxFIuyNjFzvGeygPMMlpnAYDjEcGB8cYzT8OrJ5f1xAGit4U7tBb8boCiG2NpmgIDpwT7qqgSYfPRkCAHmBuayT8J0Dvz0k8d4dXuM7ckQ371xESPh7rdybeuvy4bOD21ATg+RVe0XwwyvvXsZfzr6DrYvjPDT//QxHt05RF2rDdj5ish1s5YC9YURDt6+ioPXLqIeD6ClAJo1j/uTza1n3JyavLMPe2fFuCaxVsf+iHfivtuOV23wHLtCunqkjr3uDh6OzXEr51+4nNCDNKvWj/VH4U6g4KztuomYfEwT37bYgTuS3uMq+aDKJ1XRpnCSc3CQ5tQ51eUTmpK0c7MQny0FPyzCg6M5bj48wOG89nOSosFx4y+zHIPREFme+RvMO/l2NKKt76JJ5GamEITBcAhBgK4bHGuNumrs3BRgEIhrkNAgMo7Oj45K/LdPHuDaxS1c2Rri9Z0h8izzmlG29XPaqniO9QUH39DXjzYgZwm5RVgMc7z2zmVcuDTGlRs7+H/+t5/h8d1DNLXa+Ok8I+pgDSlQXRxj97uv4eDaDppcwh1Z9iw7sSg5WGKes0B0worD59EOpphNdFSbnQMu5D9zWh9EjJbD9u6xAEWJjDXY3Z8TgwYXu8eABRlxE2cqS3uBXcU6PRV2ZUERUCPhcUOid2mBB8ejnOo/0ptAEEGFwpN05iMTkM2DPE4GwQY/7AZ+C/mkZgGKwZ3jMOS/7HAdIqy8k+zMjrS/7MQCChpf7u7j03u7OK41SACCFQBp/HK8VlQiG+QoRiOQi4vjAfaqMrqbqTvZSnYCaQAkCMPhEDsXLkBrjbrcN4pUgvH7IQHjeSMAEqg14+a9Xfz1Bzm+cWWE7eIVXJzkkDBmNWiGFuT3BS/S2PUWa3A38+nrSRuQsyYNJwW+/S/ewHCc4x/+8iN8/M93MTssoRr9vKt2bokF0BQZFjcu4uDdazi6tAUl3THVnusi+/YgWv7KAw4yUmJ3D+Pwo6NFSP0KwmYIv1mStfNr60zpwEuHMTtebsGRMFcph43fIStO07QhzGkwt0vplDuxP0IvRQDDK8VcVOUk/lDom1irxdG/vg5k7ioSESNh9zwCqk7T1q5H0pgNPTNiaBzMK9zePcK9vSM0TWNABRHazv5CShSDAfI8R6yjPFN5kAjFYIit7W00jcJiMYfWypTHBCYJFyyQyAYv/PIR/va3W7gymeCHbw4gMmGmEmsI9qshmlpeWjjLmm/oOdAG5KxJQgqMtwq8/4MbmFwY4uprO/j133+OR3cPUZXNRmt+RuS6sRFAOckxfe0Sjt99BeX2CA2RcXTsY8QEY/rpBL5oI5P49xhEdD/tT5Q+TjRCHLFylyVR54JQ8ptpnM6BmFZZRF5TcuIUW2MOJhKpd8B0WpJ1sgvAyjCvFBy2h8ZdWbGMqGXOSK/L6K9E3N2uJhtW9OxIaY27+8e4tTvD3qKxmklAwwBUB2WNL2OGwXAIKTMzTvqUW2NPDB0gnprmtyzLMJpMjAZ2T6Ocz0HQ0CCwdipMM68VJPbnGv9w8xHevnoBb14c4vrOGJmQVoPD0CTtlRT9M2mjxfn60gbknIJIEAajHG++fxWXX9nGm+9fxX/9vz/Ex7+8g3pzFcSZkZLA/k6Beze2UL1+Cfn2EBDW/PGEYHKVliL2TXFaBI60EMHu0wJYbYbsApm18235G5Agb4rxlp5QUbg7rkKa9Rq9KgKQqQP7erEHZA60dNRE5s6gtAD/2p2AodhEhtBFJ0rvrg6xucqdPuNQz3adetu2qpwNPTU1mvH53hRf7pcolYRx7HXmRBOjxoHnLM+N34wU/iqVM6VIg5vnObZ2tlHXFZRq0FQzGBOxNCZnocFQAGWoIfDpoxn+8eYDfPvVHWyPBtgaGI0PY6ONP8+0ATlrUix5y0xg+8IQv/cHr2Pn8gSvvnURv/3pl9i9f4Ryvgke+CTEALQkHA8FHm1J3L2Y43hImGQCmRDGhKN1n9VoNS37uIcxt4+PBjt92+wSWYuALlNumW3caXRKnrHxOUgAR4glnPimnDGlYKIL/uITVNoCHedr5M1brMFa27ZoaO2CvTkzXZwXUl+aqKx261b6PnSEfNognGdIDoMuasbt3RkeHJZoagYRWw2chL/4lRkkCfmgQJbnZ45u4nkRr7Msz7G1swPV1DhUM1BtzFZG26QAYe3HilBpxm++3MPffnQPNy7v4N3LErmQABn3aCLhEXqiacUDgQY+AAAgAElEQVQJ83JDLzRtQE5C661MIoAkYbIzwDvfuYZrr+/g1Xcu4Z//y2e4/btHOD4q0WxOYJ1IXoshCWqQ4Xi7wBfbhC+GjBmADIxxHLOCaMVN2oikvMhP5oQxcEdgmSM/ksSfxGkqnEkpAjIxs43qQO59ws2DKpyZobWHBKE3YuAF5/NwNpOI2cQCaccJcW0JwC7VQKWmLXM9IiPS3lge4troAVvPqSyXZ+f3qI1s/Zfa354tfd0W5vNjrooZe8clbu9NcTA10YadW5wHydrM7SzLUBSFEUgsneEUDkAjdgaGcURutrdQVscom7l1WOZkThMRFBEeHFX46c1H+M5b13BpMsK1SQZtgZoAw3s5b9DzuaENyOnQ6VakkMDkQoE/+Nfv4q1vXsXvfnEHv/i7z3Dn5i6qRQ2tvm4b6ldIRNCZQH1lC9M3L+LBlsSjagHVVMiZUOQFZGamaMfU5BiwY7KxvSehoHtZyjQtMJFSmuiqQoCZIWWGvCiMecl+58r2dSKCzDMMRiYqK5iR5TmyLEs8ReLNGZaRF0WB4XgM0eQgAHleIM9zdI7ThlyW9+UyavvZRH5DJEw8E3jnaIFiMICwEi0JEUx3FiSBASkzFMOhyVsz8ixHURT2Wxvmn4K3jQusKDOTTtvDZLntXwey+rQ6T9P01fR1WZfPl9kqzdg9LnH/cIZZVYFZWbhvzZ+ReTYrCmRFEbR3brng6Xu778i5Uf8yJAmMRhNsbV+CboC6rOxHwh7JYrC98qVUhM8ez/GPNx/i7Ss7uDLOnaoxqqXbUDZg5zzQuQI5nW2ybdKPFt2qXE5DBEAIwnCS49W3L+Li1Qne/OZV/PN/vYWPfnEHj+8dYTGrNxd9WmLAgJtcoNkZYXHjIo7fuITZpEDFGsNmjNz63kgSyPMiMFpEY8cdw87yMjlsxiYvky7eOGUmMRqNIbPMmGisVqLICxu1NdTd1YfAxk9rMARdugSlNYiMV0CeFRBO5G155jIRpHWclIPCSJKAiexqJWG2AdHg69oOTt41+iy9DKL12GlLBoMh6AJhvL1li2EUIkNW5GabbwMPm244HADiErTWIDAEA3kxQJblvr2myCDGCykwnkyQFTnGbG6uFiAM8gGyLPNAyAG89hol92/clbFGKeqK5Fh6tzc6/fbikgUS7Ua09rUYTPf5nZ2kEUuTpOmV1tgvK+xNS1S1gpmGDCZ3CZSZI8KuVXeqypiMnK9LSwN6UmX6AE3Pd04jyWzW2/bkAuqyRqMPoVUDaOnXhLnXjsAscDCr8OvPH+O7r+7g/csDbI1HEBCm6eHwZqc/2icpN/T1oHMDcsLiZsA6koVN0IR6IhBEFwqdGclMYHJhgHe+cx2vvHUB3/zha/j1f/scH/7sSxzuzlBXypgpXvS99YwptupwJqHGBeavX8LstYs4vjTGQghoIggGRnnRb8JpmzZax4yTbyINQiqLkf9MIL6ZGCAm5FmBPCvCXLIbLgPgyDcxwCuTX5bnEFlYSnF5if+yLdxpUfLBANmgSFPETbBpgz9MzORtyyhRYyUmJs3Gx4dANo5IrBkRkFJgNJJRXbVlHgIMw+BiYgtCMpljMs5tDRyCisqMtEWOGRlNTo5RnmPk+pBhTWDOJBbMZUzhCD5aVkd/atnPBdtx2jAxw3j1GkL4i8ys3LhqsD3irH2Pk+1X9Dr3JiDvRFBh/rGWJygCJCvjUE4S80bh7lGJg+PS3CIOYcYGDBNFyYJYypDnOTIpIfyAkVW2nHwlbljL/kFa9x7wFoNwIkJWFBhNtlBVJRYzZc5aWS1NCFqo0BDjs0fH+PmtPXzvjSv4djHAIHOxmKTN28L0DaD52tO5ATmGYjUjA3bDc5fPsmBoEYOhPnXk009qygSGOyN84wc38Oo7l/HtP34Lv/v5l7j12wd4cPsA8+Pq5dLsEKAHGZoLY5RXtzB/9SJmF0YopUAtyO2z5tMEFFDvcDjm2S6DmOCch5O4NYKsJiSYmfr8BDy4ipDGupDYR3aN/Utc9XukU68V6p1vS8qMmIU5CSbAlJ7RNSfQUmfiBOBwyMtT5ANzIjuybSGOGWjXvLY8jL/TyUQcOu6fGGC6urSH2oIjsIB2Qg0rAI39X/hYRAk4SmrxojMvZ+6TAKfHtA0+JEDzytsHT8egUzTu4jsdL2rcPzjGwXxhQC/lcGAh+McRhJTIZGZMnVGOX9Uu5wSH4XCEcjRGXVXguvJt8QIDAGjG0XyB393bwz/d3seNnS1c2y6gCaBo79gAnPNB5wrkeKmV4cU9x/iCcoDhZHEnAMY5GHrKyU2AJEAOJQaDES5cuYHX372ALz95FZ/+6h6++GQXj+4c4vhgYbQ758hvp6O1GeZotoeoLk+wuL6N+cUxyiJHzVh+cLPNgPtU2LYM7x+jjfRuxppCuhab6zBjX2T36Pfa5KTpdro+5n1qcpoSWG2Oxe3aAplE2I00KKFq/TAqrk+8sZ9QG47SUrs8CuYLxM/Sgldkvupd+3d2HQFoAX9ZI8FG4O3RjsXV+pocG9Zaet9tD5idZoLZI+nuCblTMmorXQRfGpPuuGrw8GCGo3kFxbCBtI37uakPASSRZTmyLE8CO55qzp+0TtZcR3mRYzyZoFzMoZomSg9z0kobcNxA44u9GX722WN8/40ruDgpQFJCwp0mXL/qG3qx6VyBHI34zh7LHgSgwTZMFCGDjXSJ1gbgNk7SWMF+T0dW5S4F4fIrW7h0bYJv/+Fr2H9wjE9+fR+/+OubuP27x5hPK8O0zoN2h2BuDy4yVNe2MXvnKsprWyiHBUrNqE+59/V9TIDXgqSyZ2raiYGHj5Pj7erw/c3etv8U/d+rGoo0Q0+Tty/D8XpzbJvBVoPUl7dtq/NHinyRzqpOndRn0H8xKEtug46ZDmmjnVIAa4AgIZADyMHIoCGMRB4LLR2l4FepZ3hSEgC56EcMZzMlMhGxw36X0pNpIMxt3DYHn/PRQmFv1qBsCOzVRtoCXAIzQUhhnO3zDGRPVp3lqarTEJG532o8maCpKtR1HXz6nJaJFCAEDkqFD+7u4+MHh3j78hiDrWEipW00OeeDzhXICbZgAMRQbCQOoxnX5j1E4D3pluoSorttPC0FqarIBS5f38ZkZ4T3v3cDD784wO9+eRdffLqLvQdTTA8WqMsGqtFGO/EC78PO5MKSwFJAD3M0WwPUV7aweHUH1dYQdSaxIIJSJ4TcWlfj0Wf2MegmMoHoiDmSZ5YhZyvHt5UMcfl0OoPGsg0xzrPvyPSJxAwXMtnf3wTYSLPBPOeeuXKS01w9ZTqgeGJdn4D68m5TEhYg7pdY++VOvcRmPZuMrW+bC3KoWEPD+GEwh4jSkT6n1dJnsc7PngRU0DLaf5gVQt377VXrjp8xyDoNqDN9GidcpTUeT0sczBtoNjdCeROZ0ygSIIWAzDMId1eVqYEFOif746xX0dXgPBZgpDCHCKrFAqpprO8d2ejLFtyyQNMwHh7N8NHdXXz/1R1cnhSdfDdA5+tP5wbkOGc8p8HVMJsegSFZmNUIAgv/darKt5JuuK35mVQSAJAVRvKZbI9w6foO3vnuq3h45xD3bu3h3md7eHjnEHsPpjjam2F+XEE1DK1c4LVnU7VVlJofYKIPCwFdSKhRATUZoNkZobk4RnlxjGprgJrIeEg4ZQLwZOrrNb81zrVL8ncOyN6MFadLv3G+HOsw6jj/k0TXZLM8jZgb1YeIoCMAE5uJjOkgTSfI3IOV3Ca+Znkr36+T1wlOo3G7zJ/dU1X+TjH/AN6UQmy1HJKNrx0ZfxyhGwhNgDAXlIaS2yBvhTPLC0Phjmz3l7cneZNSO+J0pNtcE7CarzSYpc9bE9AojUfTOfZnJZy8CHKmTeuoTgBJgSyTSXycqEJRfb8aMicHBxiNxljM5tBNBVgfJiaOfOW09c3Zxee7V/HNGxfcvbYbOkd0bkBOICvJQ1nOIKG0OS0iYMyylOyagcjdpstfnb1eZsBoK8Mb713Cjbd3sPjD13B8VOJwd46Dh1PcvbWPO5/u4sEXB5hNK9SlQtM8h0CDUhhtzSBDc3GE5soWmosTNKMCzTBHXWSopUADQoMQ5dftxTFoaJ/+SP4WIvnGH9dun7aw79wNCSB4KdPFuXGVICl8zBdz9xUQaea9Jsj9eVpq1zl5tzTRmiXZ9glhneidKcFqMJyjpIV5aR0sGDLtdjFDVhbVoV5wdAp/j/gG9ji/GNwg/j36WwhhtDJ9NbUO6wwNkoDIBIgkmE2ofmNOCQ12mh3XGoZ+4itCviry1RPGU0SzG30NgoJgY7AEyRW5nExuCfjoxRYcKq2wO5vjYLaA4gYA27ketEgEhhQEmeet+fB8OtcdK5fSxIAaDAaomxrM2pukmazjPDSqRuPW42P87vEUf1xrXBz4SIfYwJ3zQecG5DBssDLYGCsgKCYclwp3Dw+xdzxHrRgCcinICRLHs1igPWUBVuK2G7x7xAzezqBG29i+NsJb376CK/sL7N89wv6dQ0wfzVDPaqhKQVcKutFgZXx6WGkoFTH4E6rEMMeLQQALMpoMQdCSoKUAZwKqyFBvFagvjFBfGKEZZlB5BiUFagC1qlHPK69FA9YQ9h3z8z3hGHjSOy0M0mKIAJqmRlOHSwO942vkewNmNFWNxWyGxjkjush2TjPB3W1tmRYg1MzVJf079i8J6ZePxJKZEfKmuL2N3bSdGcBJ+bHjtIZqGpTzObRSCcBo4/e2xqoLajgdjLZg0NugCNBE49zbvp7kZryNuUNrjaqqbOwi+DE2aTWgAd0AB9Mav727DwENmeeQbSDrzV0cjcZXsc7bLTsNWTGBBLTVPBEYOWtsDySuX9rGznCAQqIDIn1t1gHT2l3VELpKM1AphcP5ArOyNGYeFyPHa5FMHwsSkFIG4QLhvanTGcCFE9qRCFFkNHVFkWMwHmNRLVBVJUDaaPA4A6BgDOgCj44bfPzoCF/sHWP7+haEjHz0og0psI0N+Pk60bkBOUC0OcJMcqWBR9MFfvzxPfzqzmMcLhoQMiQzF0CyBL8qAaS10xNMUMFMECQRSASFut83diSwcxFodqCnFZqjCnpaQx/X4EUNLhV02aBeNOBaQygGaROsLSma7P9CQAuCzgygUblAkwmoQqIeStTDDPUoRzOQBvAA0FxClQs0c0bdaDS6pT3wapu44suodc9R8qqPKbVSExkmWC686hzObwBugyewZpSLuZHmhFXJR1J9AFqtejCw8gh5z2aXMPMYMPcAhP4nvuhOMud/U5c1WCurqeGoMKvhYUZVljg82IcQMmrksqPz3XJbjfAfRveWr6y//4ZPH2vEdZuLNF2XlQ08aEp0fhVOf6UU487uFH/1wZf42e2HgMggeQmwOpUQ8/TM7GTrXspIE58ksAFyEEY7RQCxRkGMd6/t4M9/P8O3rhcYZN16nuauJdOTLhheCOlQNgpHZY1F0yTL2gNf5wsmDMh5sj5+Aurr1BioO4FJmkjk+WyAuqoB1n7OsBXwiCWOqxo3H+7jo/sHeO/KGJkU8NGbWFijIUFY0PPihx/YUEznCuQIhjnZY/d+hsbhrMKvvjjE3370GHvHiwAcls7TlqPcGa7VZdJWeO9+uiOxvdWD9aAzzNzamWnAoALABOYaby0BDXvKJNmhvGraLXS2+xsLcwqNJQPUgJsKPAX4OKSPL5w0zryr2dyqDb6jAUneRX2V4CYnxZt+8o63lKbztjIybW3qGk1dw6nio5K6ZYfq91Tsq8PBcZke7PmOCCDQkf+NCE3TQB1Po2cIffI1ID833Lgi1krYeD4EQBjfu8fTGQ7nC++D1AaH7Xb3n0uKidcA6X0Vj5hgNBe5Lz/yL/349IJHp2qFCQBYSIndWY3vv3kZ6soWgPz09UzqQQAyC/u1B6fzqsGsUmgUEByc04syiSSEyACSvnltgPU8IIFRNkkUgxEGgxHKeYmmcXuhMrGztARpoK5KPNw/wicPD3G4uIJBnkGQ9mOhQdAsICzg3NDXi84NyGlL426XU5qxqBrM5hWOZ6X3n/AOcS1KnFfPQs2a1CllTN09lKPvTlLPLgFKkgBJoB4UF/u/OKDTT/a5PsE3aUkfrkuJpqObeaiJlRqDpOjs6iqR4Ppig6SxYxhdftczB9BmMqFKz+W0W1J+qkvphEGIEJqxFkWapBcJ4CyTxhNzhxksp5Fzar+kyTaJUhqNUl7bYwICrqwATgI5TxVLpz0ufZ3PK/WEHgO5+MLuZMRAZphVGvUZnb70PeE0nzBxmKZlg3nVQHmnY1ftYNoiIpAQ3umYbT6dNbRuXU4QBKMPU4Af+/VFeWVZjmI4QJbnUKqxaSLRzK6p6aLGrQf7uLs/w+XxAHlGPrSEmU0b+rrSuQE5y0jYBWicGmXHuTFRFeOUqvUk7SmoJejF1A7w1k64Dq4wG1a/juXE9sVA7CQ7+EmnNp5mB6aWrB35dawMW+/NW6GTOUYJ6O/epUfAW+NBK77tpEsL6K3/aegkBsBW4+O+ZZcmBjr9GccVX6sOy+iku5PS28l7pP0V4xD6Dwb/kNXyEcHEQAlaPhtQYlkr0OkMav/BgDtttCKbpE7+WSSCdNYzhx8nneRhmHVs9y0T10kDJAESxvT6lP4h0cj4J2SFw6NFg3mlo8CTLUON9d8TUkC6+DhPVZsV1Haoj39a3y8/3yMy98ENUBSFiYKsTdQ054hsQooILCrG7UeHuL07xbde2QFnhTERQtk176JSPQ+91Iaehs49yDHAQABC9CtIuPVL6/RHm1J+kaKck00zrTy6/NlLb4n4HknnYQONMmm14UmlqKRyXxWd7LSwNq1/MeOLTae6eyhN2JvHWunOcBxWUruc1mLo+JI42yi6S9Wr5aKFHcdKWrGK7bedR3FFcaL6K46q7Otj0nTBQ2gO4m/XEpScRstpblbrYZ+EYkGAAChmTGuFsglD4LU9kZ8cEUFKGQTJ56LqtLREMMuyDMVggPl8hsY6sJM1/ZkQhxK1Yjw4KnF7f47jusFoMHA41I/tGUX82dBXTOcM5HBA2tHG6PaF+IjkagGNTuCSbjGlmZg13pfxMmSVPg+CCXeehZxiiOM21QjrsN+Oespt5dWnGUhF0mdPyzbFZZqkZVqMzmdtoLCcKZw64Ne6Wq6Wic2+WF8lD/Qi1icJUGYPmK8oJ1owlJbBbfDUlujj9MvybplqCWu0f9VrpzHxQr07RO/S+ZW/LPkJT1anX17BdZi8mwsrwGXUZeTuqWcO90XxU5rTempkQJTRyGjWOK4aVPWScBX2mRDGXEV9MXK+SurTMtn1J6VEMRiYYIVVA+uMaL8DwIBSwOG8xp2DOfZmNS5P2ATXdECUHPzb0NeNzhfIiQVABAmEW+9OphXsgE74orec9n0+9ilxZ+H4e7a4N6VX1QfljvZ2cIqdU59SjX2SPmid3E/Aks+MunU7iZmeDFpOTSeAt6cy5S2jJQzTSaInjge3flL4kaR7iv4K83aFObWrsnEvw/OA71NykZBP8KLwvrzdmrmMuuV3KnvyJ71pkt+5+zz6O4XnDPij3tGR7zMidx0twYCcea1QNQp6VdwwWnJA4nlRrJW0FZNCoshz5HmGZmGu0DGXnmrznT28UTYKdw/nuD8t8e5ljZwk7NXO+Hrrhl9uOl8gB0DvrkNA2BqCmtV/z7EWJBIEkW6kZ66N5VMonaNvqQe1caTWh6SguVrm49B2Ku6T1les63WW/Ylt67OzR5n79jrNR/Rv/GlMgUlG7XF3gi0rz5k44jxX+Eb1OUz3ako4+QDcfrGkE9uwtw06uKVpaVUs/Z1bNV01aEnyAMCTdhkdfxekxZqg3mzX14r0BX30ZfuvW33ICLjErZUT5u/qJyevS2r37WmJ7bxp9WU8391lKOTvXYIByeSu9Xh6YpC5gdvCHLLlKg5/L9NiOM85Z2YMa+cZ6T2W+I9R+130nIggswx5nmMhBaDM1R/ekd3up7Vi7B7N8fBoDqUVCNIdJLdjZU2gLxSq29BJdL5AToTe3UWN7jG3gEGQI8kvBCFFd9ug9NdlQmaHIgy1LL9ViZOrJx1T9UCHl2uBXFut9NWBBFbVI0gYdWzPgvXOtisWM63VmBNOj/iX1OqvlKkSpa/cTePu0kmtlQFtFOEGCjV00ZL9KR33YtnYtMEnRS3mqF0cv+qCq6WZd161+nFJt7rx1lpDWw1ebKZsm+iECI6SHrCcMGSrogC7JdTHUDgCOWtN8bZjWmwmDT7EcLGQmLUHnuz72yIau15ICgsGDHN2JyX752pk+umlHj3JsobxGt/0fG/GrVsvs4a1bUM4teTjPvUUu/QU3Qlat6QHWv1pxjusP/LfRJ9bwN1+d1paW7PJ3KnzSfe0gYw2J8sLSCGh0MCEnwA8KoZx7D6aldibVmgaDc41QCZSuCYTragdoX3Z0Lu8YznGXz3UGY5TAMKOYNSSgNqfRd+7OqX74/kHbOcL5LQGP8g6Dq7Hmg32GwyBkA8GGI5HkPaSOR+PJWZka61D8oygLz6H+cRm1pvfCmYYPfW+CNFpGs0MrTXmsxmaqjKMoZOWIUhgMBxgOBiChIw20MDcE5i1dB1Qd0NZVmcv3a0ANCuKiRoQljURlNaYHx+jKkv4gIDRWDkJM8tzDEYj5DJ3ic1nLe2OHxrHUDvVizUcCCZ7hzbaYCMGVfanr14bTNmvY5eBpBvsBrs4nqEsS3NSJEIl4Qi9QJ4XGI7HJhKtY1kndHVLDmj/4Src+sT1o3kf+oRcgNzQxgicdJzu/T/oMOX5fI7FfG4CIMbvnSqFGSKXGI0myPMirK9Qo27efQcMItBNnZfxGnHp+9eqGz/CKtAYi1OB8SitUVUlyvnMhHCIy/E/7H/JWARmDfLb3UqAEzdcuICDbkKzhGqs9S8McKv/TL2FQIf5P1NaUk6yRSdjZU5Z5UUBmQugZICdAND4q17AjONFjd2jBWYVMB5qczeuJhsNHiaqPNjstVF1Yk2663rN2lzFQeY+rSByRLzIrh//3u5BiWDn5orXSJuWGv7mhDsBFx6TLZASAFjbeStgL69VEBAQFF/Pcb7pfIGck8gzQCct2efSMP3tCxdQFOYm2iToXDwZ2pKE/6qXJQCtr2MU3YfBO0C9h2LbeSzxMmtUdQ3VNFB1nTCehARhOBph58IFSJnDa0Wir+M6dByx193LuIeFL3FoNW3oy7r1JD7RQmTaqzTqujbaHCe5Jg0wIHZ7ZweDwWipU63T9qSO2F1pLQARDtIuEAUfboEcjhImLQszJMZmy7qXyAT507a9SivrSG/71QNeIC9ybG1vYzgaQRBBK+3zSNsUXw8RnbFZpqlxn7q2haShPxAd4I7m4LoO08GBmI2WDiaCc6ObCOXD4iXT/izPMd7ZxmS8ZdqrtQegCXjrANC4MyhZU6DW/O3UP0bB0WqP5l8/iIoxgzX12AYprTCdHqEuF2iUsomW3DSe/PU0AIPs3DWMj5mglMaiKtE09soUW782rDN90jqu3zYv9plRl1blCRlvrLHqyUOQgBTSaOsFeUDgNRpsYhzP6xqPp3NMFwo7Wxm0bkCNREMMVgqV1iiVwqKuUTcmVlHdaDSNhmYGI4NioNEKddNA2WtV8jxHITMIIhBrgDXyXCKXApkgFJIwzDIMigxSChRSICMT/V4IgARs3B42dzAaGGWAFhvXdLB9zgxBDC2ARgDSXGYEwYBma5rkfiB/HunlAjmOYm5q16+QEoPBAHluJX0PctKN3LxqsT1qASFEm0AfyIj2/4hlW+HIfC1WTL5IZvOMVZCd6GRubgZCbIu+4kkI5HmOLB8kanCNrpQdVdmUzz08uwcEdUFM2KzZAqDE/4e6a447v7j9jDyIcu1tMz7fVmeTLwoURZH6eFjpzEnMy/dYSivjhD9KvvAY2j8OKrdOjgHQpFFk02JbgIwIQkqESzkjQB4BNBIyaa9ulAVxwRbUx29W8RhX1xgGpxInQj+6L9xcwHL/sJ5a+PYq1UAIGTRlbnzt7+5Uj5BGe+WEFB0BvmUbeRgj93eLKbdBabKc+l7aX1f1YbTveDOPnbtEgNIa5WIOIIylaaL5Ujv9AcGv26ehNmhxfymtUZYVag9yWulcR7jQHEjn37OkpfNo2X5n17mUElJm3sxt3/pJQkyoSo2D/QXu7i3AQ4mjqsT8WONoUWM+q7GnGhyWFQ6O5zhe1JiVCvNZjXmp0CiGzgVq0liUJWbzGeq6hhACo+EI49EYUhCgFYg1RkWO8aDApBDYygtsDYfYHg9xaZhhp8ixU+TYHuSYjCRGhcAwFxjkAkWmkUsNIglQBk3mAlcmDaBBpglSZwAxBCkD1hkQLCDYQKSXBeAALxPIsRwlvtiwLdEzM7x+EWbNGHNABEV6F3G/A6AvpwfoJPIfR8zN/nSayWVcJ7l5iYNOoM8pua/cWI+grT+dZ2KuC+L+8b8EiTWWiVdSxOiSx1GbnRHoJJ8Rx+Acw3f9Z1UFvjA3zuYx+fa0IwT7SySj5q2p4e/yudDUNbRxKWNZyRxa2iYPYBPdSX8emu3dZXZjj02YSROoDdP76xGml59xnTouT49TbaxEbuwo8rtw40oeWJiLR8M4cms8TbldkNUSVbrvuCeNwz+0vDF8QjsD0OFIQIqjF1sAG2nn+ut9tlzK1gKuRkIYrYd3KO6jHoD9IhIBkDIzIEcQ0CB0n2bYm0ZRaeCjxwf4P3/5MQafSOzNFjg6qnE4q1EtFCoNVI1GpRQUaygAjVJQyvhQmbuujLColDIXyxJBigZSzAC4+DyAkAQpJKQApBDIhIQkQiEZw1xgMsixPS6wMy5wYVjg4rDApckYVyYjXNka4MIow84ww/Yww2iQIxPmYmoCoKXZyEiLML+8hcr6Gr0k9PKAHEsx23YagaBVDTJqul7drtVnqgqbU7kbPIEAACAASURBVGCx9neKn/SQ35QDo0hOKbhvOlw3lqVhmT1b7Yj7uZra7WMHEpIGrM4ldnYkDzJCxTj+Zx0e6IXhZeynX+40r6KULebkAWyiA7N/Wa7dI/+l7Y/Ffg5gLJ4zaVvIa4q8difqF2/Cpy4MpjSj3q5LIgf3jZNrswPqXnPW+gxpr8oI4HeyRDym/RTpcJLqkfvjlLQ07pQXRU0LTFNXXHNg3/evJHTa1GdKTd+bRKsiZadvIu1BJCg4DU48EOT/DVqGpXRGOCfpThiAMxwMkGd5+sJTAJRfCbhJhJO0vFiT2Ufujj0S0mtBYR27I+kOIEZNwOcHU+x9VAICKCtGXTEqZYC0G3d3eo+t85PZtwHWBGITNyj4ZDJqKDA3AGz8nWiwmWHUdQywZhBpCMHIpECRZ8gziUIQhjLDZDDA1niIC1sFXt0q8MaFEd68NMGNSxNc2RriwjDDuBDIM4YUGUDuYmV3waiGM42+DE7HwMsEcty8atmJA5OK7PHRZtNZvpT+Ea+3+FvHbON0fg22Jc0nILu0rBU9MFR2YsIJe2NaflQ5t+OuI3WvybTam/vaV0sAWKraiQCVZ96ea0RltMqMmbQO+qNWc6M+QPSCbH36vEkTsEGdpDFxlHVbA9Xb1Phfin+azXpZIgfgBQlAsPUZaFUEYa6eNC69R8p9x8Vp15k8q8m1z9+JFAbYsBjXbOHaGTtS9vXnkj7m8MPXuqWtdBcWmCFeHt8n6s21iWFOvguC0Zo4cGxfxrJDb+qzwhdRGUQMKYHhcIBcSgvSeXlFviqg81TE5rb0TELIsL7NuLkRZkAzFlpjVioAwih4mAChAVJGw05kzaQCBAnvaa7ZjKNs7UeAud/Larvc3HXmSiI2PjIWjLE1KTcVoSkVmJTdBksQzSEkI5OMPBMY5hKTQYZXdoZ4/9oOfv+Na/jujSv4xsUxdoYSWcYgyXYSk7mblKUJM/JyYJyXCOQ4SiRg+zcnW9zyjaO1+aSopl+6MMmcVBZ/0F/MifFPgABgOGhw4k123e3Gx49pgy9ah02tOH3lzVD9WoZlcUHa+frj8n397NQDAUHBHy13ZURA1rQ1YkQW3MWB1uI20zKmiNV1T77ikCfBmiD7NDN+z+07DuuwOXnJsOv+CZPGqsZjKY1bfZFMwRYQBADl50Q0dhGIif9N6tjxKUo1kq4fVo99lKUzx9mfFAbGtI7aeUb/c8/YEZn14u50S5yJwoLujE00XoRU+o1Nuqw56ifd7iFX9d6xZ2YoIpB2p3bYzeaoD5bRGYALO9Qh/pIB/870kQpl3Xl0hjVZj3rmbagEd7+zj91FokIQ/BUZZMw5Zm3Zs+LkRUc7bbT5HgZMEwvzXZR5WBfagJgYDNuxhQ37EUx7Gsa5ncN+JoJrsam+m/9uTijohlDXjBo15oJwIAQe78/x+cNj/PL2IW5cvIv3Lo/wjWuX8P61i3j90hiXtgqMCmlOXNn2vywo56UCOR125JB1/JzcZtTakuKFjvAqmFiWk1OThxukTQ066WJtQ/xbUsHAQFMHuoDZAltdUTOKs+1+Z6SMSDblViUQNbx1B09S/yTrbjkdyzBz6HuzCwU/qLZvQLyfIfa3CfWOn3hAuMbithiyQ9z+yjFjn6rbHsAAitQHyTUpjCG1GW9UTmDhrqS0LEIEWhxjbM3ZdAgjMOj8fBBv1uhK7sy+jI55rZffpIDCtT94YEV1j+oZY+5Vl5H6HGznxCBkSSqPgRKAvoI7B5MGR3JKVAb31LwPZEXFxdVul+XmaPg4bk+62M9Ce+JvcYfx50t5XzyH0rkQZIzoAEFvAaes47LvV2gZ13JEtgBOSBmuoEiSuXUlAA7hD4goyGqMwCCc0BGvR3+8MswGCgzFvrKrOH3sV55JaFKzCHOaoX1YAH9QhM3lqQ0bc9q0LPHgoMTN+3v4zaTA9QuP8OalCb772lV8//WreO+VHVwaC4wKQo4c7rh56MguP6O4bq39/Oti7np5QA5bkJHsyBoQ3OK0FG3k9h/WcEe047nI7PH+8r3Slqc1hwmPSArU4dJNtyjYSnOGWSHJ2YWrTxZ2dBTLSWJeQ7V0A0jWv2eSYTO1vj22fM+YXHeR8PFQWsgmsdPHirPQUwiF2zpSlM50C0ftSVhvp4P9J607GZ3jZjBFMlYJMH7bYg0F8lcLCStVxZt5CIAGE4vCnXuxDRW2rxj9YMltHUGKI3usM3joOKDlv4n6KAY7Hf0DRz8YgEhxk6sOgaFc0EjbGH/EnKM5FiV2UXHdWvBHoNmNLkVzOJqP0XbOTorW1pRmtVe+f70aPzi9tjdjD3c5lEmEpDeYuXOnErMyYI2N+cCtPacNTchWXbECgezx33i1WmZk6yZseleiRgAubjIEn6XgGWH60Y6mNkEKe+MZO+1aW/P8FGRqp02UFXZaDQ0tCZQJSGHit2i0x9E2STOUMsen1z8992xoGZxiwHY5QwgJQTlI1IDWZq+Bi68VBQj0wY7CWBOMJrANOMnvv27hxLDAAX33cUsfyMFcFqa4hvGdifZ1t+Yd3yACs7T7m11DDGjNmFca83qGB4czfHhnFz/7fA/vXH+IH7x1Gf/9u1fw/dcv4fo4hyBrsLfjpuwGKjm6FIV8jUwAUlsvgvzagIevSz3PkOwm5dTgSAQmH1wtgBgYe7/WqKsSZVmiUSZ2BwmJwXCIYRR7JRzhNdNEqcYG91r4DIU06QaDQaS6NJXwpqdGYVEuUFUlWJlFKPMcw8EQeVGE6R+bN3pUyYm00JLul21JRATWCtWiRLlYQNkgbCQEBoMBBsUIUrBV7cZbiwlGuChLVFVpThYwQ0iJoigwKOwleVHJHAGcarHAYrGwsVEAmWUYjsbI8jyYPhIzioUJDC9RxowhbV90YsUyFt/rFmzWVYXFfI5GN2AYf5BBXmA4GEFShvb2RgBY6yidq7c045QXIGk2IHf6x4MApTGvFqhL208ECJlhOByhKArPME/kZR5o+iHoTACOv2UHTEysnfl8buOxmA05LzIMh2PjtNjTi8yMuqmxmM+glIlbI4RAUZjgktIGlwzVscyBGdXczOfGppNCoigGZh24IJymEMMMIqYZCwgpcWikH5gAAOPvlGqwmM1Q15UFZUCWFxiMRsiy1lbopgkRVKVQLhZo6hoCBCEksjzHcDiAlCZdEBAsQ2I2674qTT/ZNhT5AMVgAMqyNJgfkQU3bg6noK7vdweMltJaOMjFjAGcOQ8ApGBMBhKDXJh+0OzXn9kTzXxmrc3/EThtV+GEWj45JWbdZRAHfiztRoMAQy0E8dm4aNnmnWMMTphpC3NJ2TZv54gcFxySuPRhD+M4X1seW9URRVHtY8sCQ4MgItN2tJ/CASBGrTQarXF3f4a9aYnPHzzGZ/ce4ZP3XsUfvX0d717dxnaRIxOWL2k38xQUASY4pBNuhek1f+yXV8c5eYHoJQQ5q4l7NgbDAzWqssTR/gHKqoKGRpYV2Ll4EcNimC44n85GqJ3PcbS/D9UoEAxY2bl0EXmeQwhp1pPHKWYSaa0xOz7G7OgIqjFROYfDEbJLJnLn2u1Z9dJJvxFucAxGK41yscDh/j7qugJgQMf2zgUU+SCRPshL9Kbe5XyG6dHUp8vzApPtbRR5gVgzE2vCWSksFgsc7e+jqisAhGI4NMc+syzSKnCrwie2MjQXlAxT++6hqqwwPTxEWS3AADKZQ022UGSFiYRN3ZI0M8qyxNGhmRfMbMZn5wLkduYjaEddDiEITaOxmM8xPTxEU9cgELKiAF0E8iwDZVkApTGQPbmRq1/bMdeaUdU1pkdHKBcLn3Y4GiHPBpCDPMmTNZsgatoE5pseHaGczwFmZFluxjcrPNNPyTD9xWKB48NDLKoFiIEsK7C9vY08zyGl7PRtcmomwSvc+i6wprgbYg0aM1DXDY6nR5hPj31HDcdjZEXRBTmuXGZopXB8dITZ0RRCCGRZhvF4giLP/Lxw9TV8yqSr7LyoqhKAAXWTrW3ILEeRn45BODzTtz89FfmbShmazNFiQUBOwIVBjmHu1l5w0ifbuQw2UX3ttSp9N5Enwtha9VlvLa+kltBn//BAgoQDIu15xP5T94s/+eo6n9w+IhChH/uJSGIa+XRxHewmEsA8+3zTop3wGyFhJxC6nBLBmiwoN2USSZ+MmXG8aDBf1Dg4rnF7r8TNR4f41998Dd979RJubA9Q5NKcvgJDU6R9tFot0i5zYcvu6/gXkzYgZylZ8xTM8tYAlFKoygUqC3K0NtJh76ZjJ64JaKZQlxVUbSS6TGuoRiVrMJaBmI1GpKlqlGUJ3dQAmZgKSrtbCE+Q4Jwqys18pyEKBVqJLC3XpWff3hJ1VQFgyCxDM56Y5NRRpge1pzaAsC4XZiNUGoPhEImeif0/AMyVFHVdoyqNtsyZKpRSKza+02yIVvKMAKWXjazkra1Wpi5LM95SoSgG/hZmH4Aw1iQxQzVGW1ctSmuGYdTjulODtlOxahrUZek1C67Pn97Xon9uOJkQTptk51i1KMEwp0/yPDfyLaFnmpmNVzXK1HuxMI6yucJgODIaqdDYRFplAFopVFWFajE32h0Nr0XqrW+szVq3S6gLXl0mzBpVVaEsF968luVFt78jUOXGpC4rVPMFhBTQWY68KKC0Ro4wh5KJhbAOysUcZNfvYDi0RQi0r105FZ0RkyHA+uIYLYS25pQMwMVhjmGRRyZHQ2ZrC9oLrTSU1svvfX9eHLFTrjm+7eL/+FNOiIU8RHjIAQdzJNwIKCZqsg/IacsgdxdgFByxl9j5gboj6QxmBdYM7X467ZjmaL/hVJFEaM3bmJkQQNLsKbqG1goQEkwZDkvGR3f28eDgEDcfGqDzZ9+4gW9dv4BRIaCJAUgIzRBCeWzHRpmTlP91ibSzATlLKV7UbTfkFTtuS8sQM1FvUwWcJhN9gCVlhs773kqrmvuS9NQDXpXppMvlzDNtXVDvUqTOjZToxK2dwZnZerL2/gOhNQnTcid/HVNpAYF0Ha+qfyzFhO/ZlZnUySWzsSNa7xIVMsJmZ5Kk/ZhGnTWScNAgRN/Zb123+ai97rMY+1EMIh3wPJnLO3+apYqfaJg5kh7d38GPygACb5lPOED4GeZ21N6E2QfJvxOk0gGJFBfY9ncr7+fNGfFLzfbKohi09pB/n0j5HABKDObi6vm1Ha9fpwUwq+mUEN2Xd6KZ6lRk/dSsv4XJ15hCtgY5xkUGKQRqG2nZDG8YYyfEuWtDXghKpMew4bp6Bw2I01AAsYZGCGGAjJAgC2ikkPa5uxrC9JG75NgHrYRYPTQcfMDCCUIDarRWFuBwADusbP+an+wu52ULgmKe4gXHsC8TSQhyc9UC/Ubj0aHAtNrF/nGNe/vH+DfvvYbvvHYFV7YHKDIbQFRJaKH9WtUwgExAm8jJcnAGg/XsaQNy2mQ3J+OknG7KRGR2RiEA1sbhrKUJYcCbBNwm7wV/EZeRFBjx3eBECZt/FFcOiYZmneYs+4yjrPq2WyeV+IinRtLvWIp6yklP1YQNIPblIyBoygmmHEm+vE6+Le2J/cNv+gZ82I0sTuzAhO2yhD9Y7RbB+Sxz3MkBLPT0oXdUJVtnYeaGGTZhfHFgGIJz7ktHOoCvhGlRG+SuiDZ7WmpnxOkYOOmQ3Q3npqG2jhEaiZyFXX2FWwuJCt3lCb+hAwbIpk74MePhjoZxbVo6TuYlWS2FQ10JOHP/urnbzpDIj6kTACgZI+MwrBHf5OTmh7Dgk7rawCei4Jj9tFjHzUkzOhpgBYZh4uMix2SQIc8E5pVvdkhLwmhAHQN2a8KRB4acJnxu5PYic4LKbtYGuGSZN0VmWYYszyGzzAAdf/TcjT/ZH25/QwQwKCmvO8rW2T0WHFwGzHYM3LbFHviopoFuGijVoGkaNKox1gDVeM0PwpWhBrTCjJFjPA4UmUCFErN5gw/v7OLB4TFuPTzGv31/hn/53nW8cX2ESZ6DtE0n2Cx5DaAxvkI9lskXljYgp0Wc/BZJm7r/q24GbtI6ic2yTIpSpcoNm6zFTOJF4JixZ5RnRMvQClG0oQWp1dtpqZ3EnajRXkOR5hzSuHwt/Iv2wQiM2D7s6ab+Oq/dvuB4bPc3xEeoETsNRuVza1bASXBAVEHLPB1waLc/Zp2UArnks6gPnsqcsUY3Raw9eRJARgQoKVoElH7vHrZnZwC7qeTqN3MdpbfMf635vQxp94C4qHr2EYc5Sm5saUmehiEmICwBpr6hCSM308BO8sg5MzkifmbI9QyIALA0ggzIB6UbSsLlcY6tYYbprOrqnuy4NpbxLgMzvSfXngMZ5aWElDnyYoAsLyDzDHleICsKyMz4WBlAI9E2yYe/U3HFxRvzWq6Qoq8WiDV75qsA+gl2HOwpLhISAowsLwxwYePsrZSCUrUBPFWNpq6g6tqCTQ1AAexOxTlh0F3twiA05hJPRdg9bPCTxWM83J/h5qNH+DffeQO///o1XN8aICcFwQxSALOEphyaACaBvKd1LyK9hCDnhN2FOSBfsD+FYfjOySrmOFYLM/kIxF5Yj/d1n3O0EUaq786XTyL9tYWLtLI937OXJPzmHb/rqXnHfJMKM77vTJr+ODUd6w21qtcBfydL+33bTfAnSOPWmG/cZhMhsi4ajRheYJrpySvH9E6onevAWCKM675q7E6gBFC383BjFCFOPz/dT3agz+XTYmBJn7XS91LrJYennvFH9U60KWR1F+v0RZSv+cWBl+gFwWtXAvB1bQinaYKiJpgOyQOjkFdfFeI5EVfMgeSlQO0rJgaDCdAkwMjsDdkAE6OQhCuTHDujAvfFwmgLImzv4ldpraCa+im1U2dI7X0h2reEECgG1swiBGSWI5PSaG2k9Fo/v9cnZlzzruvH6PaLOHZOWofO0ulb62GXgvO8dImdKczuFDD8xYCdpqnR1Abo1GWNuiqhdGNO5XJwJUi2U1ZGEwcBrQWmpcIHDw7w8HiGhzON+0c1/uCdi3jj8hgXcgGptd8flQBAGjnSQxUvKr00IMfsK+3J57fY5BkB9r4fwMpk8Ntgsu+nIMBhmPgnOKQljiOgxKki/kLp324nZasK6qaPcnKbeTKh+79fsj+HJG5xO2mU45TRZt3x17BV8Bt5VI7X8rDvVWrlapxenVYgbB5tX5jTqL/j8r3mpmdDjhms2cTdX6nk5n9n7iReVisH7kIgr4jxugwcvoowyFK2wUAayyN6xe1fIqLWjCeb3tXfY0luzSH4cYieLMMu9nPybTKxRKL/o103mLOWNbRVTnvKhalmZ3vUc618zXSOAjC2SqPW3AjjzB4UdsbYgTCXpjUvEtkg+j3GwZQmSWgldHhKXMEIbn6Co9upiSAygetbA1ye5BAC0Dra2dxxc2aw0mjqGko1yHpOyb0opiqwAbfFYACZ5dYc7/zOXERyIOnUBHychtpgp28Cu+cmXk08KZM+5DQ3QTCARwhIkhBCIs8Hxqw1socgqhJ1VaJZVNCqCVpTO7agDMwKgDkVp0FoWOLRscbf/O4Bbu8f4tbuZfzFD97BD1+7bOIoQYM0GXYgCNiAnBeF2gxTI1zHGh+V85/7v63pHomE73YBmyyW8ADPx/2MdDzEZOsxOHwpdt/oxARpA6HIecL962qf+gGzQ3RBvdrL0IP5gIgSy4Grn3OqCw0Jfen3as/4WmU4gMg2HbmRSM1Qri0ECovZdXNbk5Tkz12zUDQeoedMG+KToLbiSVs1ma3GONdZwBj7EHrtTtiMmAjJULk2p5PDVtcbOiAEjK3ctTGpfAsILOVicYMcQw9VTFIyWSba0kR6ZNDl+O24T4CJm+kVPH5uBZDSyRs9Zbaq7pq8UrHRxoM2sVu78bVV7OreY3pK8vIYKF770byOPvafWL9clvAZeGWgAzocHVJgt26jdtj8fDq40Q4zN+1HJOOSALAz0ZyY2hLYsyy2N7aTIFzfHuLqJIcUGjUbzTb7vcWGO9SMpq6hlepMWc/mE7PnE9Ay0/qabfRzVNtj8jKav25/81/HRZ6uvn3CCxFB6+4z93unYDfoS4QUba8Q8cCYjAZKCEBkObJigKKpUJcLlNkc5WxufHqsls4U7fyLFED/P3tv+iVJjtwH/gxwj4jMyKz77qo+Z7rnnuZwJZFPWkpPWj1xv+gv3v0Hdj/u8fi0WokUtRxy2MOZ7qrKjMMdth9wGeDwIyIjo7Kq0uplZaQHHDBcZj8zGIAtiCuACYZbvL5o8J9+u8JcNfj1i4fgZw8ADRjW7jDM8rUlN5U+ApCD4XGaCZHgSckFv5NMqR1H8Su4yVJSSsnj4w6PPjWZWp4oTyiZSfbOaKEda6hMHqSVnh+CivmQB3lCKSYvReAxzkfSkuXCxHfxFGkgRUgogrYkiwKv7IFkN+kopTAPAgBQBLS7LKt00glNnn8nMGME9UMoZ4SyikuPaIcrMbWTOLeeevolDA/WLUcZAPcDORgDe9ckFjoJ5F6NCDZQWo503xu1ItxbLvDwfIF5pbBeN+EUcLv7zoEcNmhbGxTrPbFJ2NEuY6iwLN1LfcCpJzbImI5JG+2KyED+baHY/nEaxkrhu13IZlPuYz/2pOyK49h64HSlUVX20EqtNVYXl9huNjDcIgB3qtwEaRDOeuYGzIxKzbGcL3BSzwHS7mgBgLXtdTW6HH9z6OMAOYekolXpn/cAnD1HQ9i9Q1cYTyNCw8qD9LtuCOmORQYvhFDwPXOcyvLoWiiHLCmGyE3m7M0ewTlVeJdaNLZTymO8umGCaGSEU2rDro3cqzKVXIFe8Snh2XAFXG1cjL08oAxLNeom5873cgxODn4lKpaXlBSGtG/7Uj75H/1jjPOGPiKRD3KFOzLCWeoajPN5hSd3TnG+nOPtZYu29fLCgzy79bxpGmy3W7StQe0PVhRxLTvRoWN7WMwpibuT8q44uAMNAdPrIwm8LP5gEGnM5wtorVHNaqwvL7G6fGvPHrOCA3A+RLnjVSvC4zun+Pbz5/j86QMQaQde3eWj79HOKuAW5PTToPUxbSDbIUTButut/OTXnhyIPPKYlowsRisrgqjfOT4YKfDKuykOKue7lo8EpZwDDde4ZUjUrXvniYzT6sd3Qed147BGqCehj3QqceWXLtM0A74nZ6kNWZSDlCwDIeUrj7wU5eZ9EXj0WkngQjsu0xr3gZPukM1bIk1cxrMD74QaRGao9Dx51uP5omiZD820Q20hZ38fV/AcKefJNljONJ7dXeLe2QL/+McVmsZ4Bt27ts9M22Kz3qBtG9R1LRzgAzXYxbszKnNsiWxMwdvp+s5tq0bn29S71+tB6RkXaV/2eQOvLtCKB7f2kJ8uStkT8rW2W+C3mw1MaxxoYQdnK2EYEeazCq8enuEXL+7h6Z05VNh1and3EaurDruj0nuGyd41edhSmETXUNLeCRLLRSobEj8jeSffpw7eknVWnnPTPQr5zsubNImEjeQcVBx/gvsj2vXFOheEXADB2bMdGBqksbx8P+bjJFi7nXG0/ygPQEU+GdVbQxB/yPPmSmAkvJfqGJeFSuWLtNnSlAchVOKjV9/tbuhct0+Ak7ZMgaki4GRe4/m9JR4vF6i1FiDURvGwu7U7nI6+bRKe81O+Q0DSLt6afTw73qPpfhu2h+sZd89WEex4oycZ7/EnGnr5jxGfp1E8D637k8DjBNSX5mK33ODBdHUmIGyP9zjWXlfROPu7srUgAKhwb3mCn35yH18/PcOyYlTa1l3BenkUKXux7ntC7w+nN43CuKLwZ7Ltr5h2j+z7/r4O6ZfMKLjJMFxQfpBbh66F0UIRQwYj0Il3KcC2rt7s6KQRpTr47TQazWMoQYIb+pV3L1H2e2Ly/eg4MDaoggLWvw4az3aiJ6j4XZQ11wN/4s3nHrxpRXh8tsCLu6c4nVdwmMaxpEAqXrjbNA02m82BribZj7rAmEPAsd9FNsyZET8lQHMMKvGQP0PGV/ze74olpaFIgRnYrrdYXa7QNE0AShbguHfdzemLWYUfP72LX796gOf3TqEJdonKHo7j5o0/Gfv9oFuQsysV3djiu873e04ODzLk31NeyoRLlx0OSfN0hx2245a6TBq5EDSFoRGE0xV55R65qtGd50UcA4LjacGpdvWelF4einmPoZwE5kxituNFS1ddim3m3fq9ZXhvYZbXXuCrl3axnMVb+TQZiFfbjR1n8e/4mqekWVzQz+HnZZdsPYOJL45OsEscD09n+OzhXdxfnrjLLVur+XxgkvOMtE2DzWqFpknvbXtX6pDdf6mnUoDFjmeE3xk466PudSvRq9SNt5ZndrmTnYlgjMFmtcL68hKmsXfFkXLHKLABeAuwgQLj4dkC3376CN88uYtFrcHKeetIwe/iAnF6Nu4Np48Q5Ow35cIU2XcO7DF5/MmYU2Q5Z78jZdI946V/N8CBiNKPnWPf+xSMd9UPLsvtxkpy6nRgyp+ZEht6dP18opKe4pXpSxOXQ65AU/nM0Iv3fDHF7f4Hs2MHDQLJx1jH8+gjX0z+aQplIUUIu8160+cv7EYHGnJ7Uwlg2a3VCueLCp89vouHd05tfIbZAmhDALLdPEBoW3shaeMuIu6cqXRsypdbGYN9eFPoykDLATvjAq2NYWw2G2xXq+DlAbkLSrkFsAWzQa0Unj88w28+f4LPH5zDbhbXYHfqdzRcCsd33GD6+EAOQyB3AoyyP+5PS35yWknMYouriaephEkE5+YNoRqxqJgpASBjf0QpHVkfdlR5oeoDZmMFvBKSnALszq+wh4aEZSSvtPKJQ/7IenEfi1hv95+7Z/aIv0pxP1nCoCA9wAiWom8oV0cf3yLqOSbYU+sMRWnqbJpw63QxzsHzEdbFkbSfjCvgcAAfIbaT/UkDA/1/Y8ThH7ImCH6BjsIVle0ccOkTxv4jQhyzhWSkYpbEagWaSwAAIABJREFUVigotttEFRB/suYugorwXQbQdwiSJfe+vyaEkkK7lOIb2xdGjEufX/ieEK9bEGnSeZh+DgCd5LgVeZA88n8HZB5iR1xRIuA41CuMpXjXWiGnPUnOM3fgUAhAtrvsKqXw1f1TfHn/BGd1BXBl03ADGONiOWxezXaL1eUFmrYJ8TDk2mcn2gPVUT5RlN3ubNgFjCd95GUfxXqDxLNDanEp6e1sMoZgjAUgIU7ILyMV6x7ldTc8QPLuvC5BlhC2mw02qxWMBziWA5BqAVYgmoE049G9OX7z6j4+uz9HrQGwgmL4yCvXJxrEFfR7hHI+jt1VQVJ0yQ0PpIM63WrYDTSOg8VvuvR5lQ1KKnsR/LfZEsbw8OlXaL3fZxT46Po702d9WRUnYal28pqEVMn5QwE7GCrpqyEtiqig+vjMcV1eobyuXUdXxpxMFPU2ib4NxyXuLQMIMTJiMFmRrUA80IYA4lJTuosnxyZJlp06peOl1wOWY4MR8mB4N+qmL86lsv4o5kSldi0RUTxXq5Bn+UoKDnUMfCag0P3imOLavDkkPsj+dMxUSuP5vSU+e3SO+2cLvF239mC5QAbMVrE2TYP1aoXNZgN94o4XlMu1hX6VxzMkY6gw14erQGEuxqMYxPk4wbiKElteslomjjzm/E2gaCQKGR+qEjtbit4y0JGxjz4ux/+djQ2fF1vQub68RLPd2ju2wjm4bD00sLulqnqGz56c41evHuDR2YkwskMpVmZzf0vdVPooPDnh4LcxgSWFjDClSp4KK7BTodBfNgthmdvTXaDh11UH4y+u6NLMz424VhIYR1qisekyEJmYsf5ZyQsxVWNCShDvCxPsUTd9pwrdstJc8hczxSb5n9Lme3VM3o4Tz9oRr3swzmQtYMPcCcHclaXDCcUpk3gH8rongNu4GyevKYv/y3kN1FIM+OFt35zJiygFpPw6XtiI9xAQ7p5U+PzxOV4+uou6rlwQr3UBKjJ26YrYxX9ssF6v3Mm8x10gCl3KYjcVEPr0aE03SDma3a2F4lhw1/305GO4xWp1ifXlBVoXiyPzsCsYdsKfL0/x9Yv7+ObJOU6qygGnfNfX7iDvJtBHAXKK1KNzSD6YLE0G3DR9heY5dLwqpTQT2fFZDC0lFdIOFj5KXWslAEGXJ4ukPfhmv2KnJvXu6lLbut/SChzPPqROM6L4cS/K+uxdCOacgw4PV3NXlcv00rsARNN0h1P0g+Ct6M7aE+iIPOPYH0o/VEGOy6GHxHwFpWa/AIgMPn14hm9ePMD5SQ1ilXoQKMqwZru1J+xuN7EeYVluZIm7n7nB9goimyjM31YuBfXUt1yU3Mo9UOZgXbrbwbvVKW8dL/MlyyLEReTIpwc+SikQMcx2i83lBbabLRgMUqJfPdhWGlVV4YtHZ/jVq/t4fneOuSJotyzWvW4I3fFxw+kjADl9k2mkk4pmUzpo7TgRil3mXHJPj1AnxV6mcynjciaUucD3Ua3RwhXMyl9SGAuv2HDuHTdO+nknLbdrAwrFkb3acSDv6N7Y1WbbXRGkBew1dCRel/kdSKYF4e4ytcOj0IiDzB9qYgwUOYgxer7seR48pt6bkIiUcW9wuYjD1L8Iavx34ccuyT+5c4qfPTvDs/MZ6ko7FvzN5GGCo20brC4vcXlxAdOO78PZKcjet1dp2Vr82TovjgkAJ94OJudV+Zya+J1shamToAuSqPh9+Wyc8XLsOyq8R8Iy9zF4pm2wXl1ivVrDmOjFYe+uBUDaQBHw4GyOP/nsPr5+chen8xkURWBQ8uTcgpybTvmleTlwQf8QK3qaJ/f18ETJbzQ/Cl1lnMo4ol62h5XRgF8LB9OqYzShzSeKtpGv3fcTu/jQI2FyfpzV5KB4Ip93opgdy7j2qdLbnT2gZMJaOOcAZ0cGjnkFiiTvPTifaXz18BRfPFpiWSt7urDlLGGSmdGsN1hdXmCz3djhc1XGJ8hHD5gNG3f4X+ZhDQCn7HkZkPwD310lbZn28b7LreVsWmzXa6wuL9FsNsI76lkkZ8y0WNTAj5/cwb/48gle3l9CKe02gbxPm8SH6QMHOX1rsD2DUFjmYy7l6FDggXJEcRnGufbV4WvVAi7vUcFVENRj74xmuYcAySy30vO9eJFJCYG30mupnUbyj/G8pzJ1wD4XxqHLOy9rLIMIBoQoTuZM4jWbztXxAI50DfhC8+YPHhrxehQePRnvwkr51rNjUIQDBBhCTcDL+0v8/MUDPD6fgwAYVuCwKyu+2xqD1eUKq8tLtG3TmbZX9gSUApgBMBuwYXCvjubsx9VPZDu0BDVBQGU/u9AY0ApcuuDj9MBAIgZzi+12jdXlBbbrVdQzQTY5rxkbcGvw9HyO33z6AD95fM/unIMLeg5BznsuL94g+sBBTk7DAy+XbTkNOyy4mE7uLor/jkETSsmMo3QaddPuWkJHxE/xyHKWbpQmtqZwaZfWygUMSnYWFMO/O8Ygdb/PuQxBp0OKTwDmQaFygBHUE6dQLq7f+9jNxbefTOg9laLsPMB36rJNyYM4UJHe8P1+p1KYpXkXDK5gdb6PSp9cm6jg6h/ICEgngAPPcZnviK4c1ydMCgy7lfz+coGffPIAnz+9h3o2B7MOFQ9nsLjt+c16g8u3b7HZrEN+yQnp2MdJOOAZdkPK+A9EIQ5lio7u9/LIgVZe6krT7gMIIjAq7azKgVmM6QHibiuGMS3WqxXWqwu0zdbmqFRIbwWs3b+pVI0fvXiE/+GLJ3hyeoKZUtAw9i4yGr6k9n0CPR8YyOH4yy1LUZh3FNP4A228kA5H08YfTpSif9Of9CgELdydHyq1ZOLEDwyFSSg4sUI4Ky9+B/jAjxA81zGxQyHjrSMsUkIsUyp4CHe83CbqbAVbf7ZnXyRLbEXZwMmcZ8Ce1iK6AIy4ghgqT2lbSYt6iDryP4EurjwOP36YJMwHfj3v/gwb1wKZck70rHQLK9uOPjwwHM5ljMjPkmHY7Z1ZWyVtWKhjOFuoN+aqQB23f19QMdLBH1gRcwVifBMQrgB1ZXScHpJ3ESsR2jkDXqlYFxPKmqIikRtAbuiKnBECmJOJRbbRJS9+LnB3XyOTOysrTEAfSyT6X/S94TRPUBA3obqDVEJXru0lZ+mdXLkHgYoDIL+PbLKycnnNlMJXj+7gFy8f4Mm9E2ilQoWicrbngbWmwWp1gbdv3mC72VhlHMZNOg9FEf3lu6sHVJaWEfvN5OOI00ziOTjIc5AFlUpAlOF5GyJ7h7M8k0oU8pfvmEKfcPave+UEEWCMsTeNv71As3IHMqotQFsXkE1gNGBuoDXw+aNz/OkXj/Hjp3cxm1kgC1O5CziPDKivkT4ckEPyQ5QkflJEs4oFaEnfD/ISCMKdmcV5a/4ZgmBGkC+UvGc/xoJyJUYBTHQHPHf+kMq6p/rOokiUbh9NMFETIZHr0lxnhC8o+RXKkgJBZBkAhCwzCD8EnDHI+1BNM5dQwDMZu7GufuxQFGbgDp/21UwIBtBnv/Vn3XCOfUua3wtJwU9RPI4u9ZWEZymNL7tnHMSTG2O6xFPpQITPS475jhIWLFF2XhSLfskMhzLbHrywaA8Vn/igOUbwnoSsM/0TAW+3+mkb+qBY3xb2LznXctdMon6s3rJtke302dkYHpqn0hMgPvtxPJhtAnaE4nQ/CgwmRgsCQeHZ3RP8+uU9/OTpGU7q8pjzyni73eDizWtcXLxF2zadasg5g9wDOEC5t9C3tTEc8GvSi17cJkAnBfD+rXJg7ZBknTDveijtnz5whPT7DGj5jOyutgt7fYML+Ga46zecJxFst/ufzit8+/ljfPvyIR6dzwHtzHdSWbuV2+M28Pg9pjDEMivWGhJeyMbn1lJXA2MzVdoRLFivgJXduQKNP144phq/IFQmWGX9ACnj15fvrVcvqB1QU17A5G5njxECoOEIgkwKcJjZWsdO4HDSPtIacwL3CnOqTxkJlrvpg4ZCVJ4hGwl2GYDzEhm2bVTIU7wcf8syJKN5P2ZjcW/yyl26E1zfhtsLfV9Iz2fGihwT5L0oYYhblMHZ8hP7ehkxH4DQz96TLouTQGVXPOBLLdrLfnwZG9vgyyEApFRIGKxZwyEOM3qpKMwDBcSlKEg54T7bo21hT3AWJ55fk57Yr636cnKeAzJ+8GBREX787C7+/MfP8Pz+Akr7e6wE5PJLXcZgvV7jzfc/YL1awRjTTVfop0l1y+Rz8OIMyMH92nwIxFDP5zHqB00lbxM5gGlPNE75ISI0TYPV27dYvX0L0zRgMiA2gNEAaiebGgAKi9kcXz29h7/4+hW+eHQH88pPfQOlWjD1XjX9XtLHc+JxYeB7uZo8kO9QRLJg+1lrjarSYKNQVRWU0ukUcKjZfrS5a6VR1TWMUmDYa++9MPWWjAcVoSwAWtsyiBlKaehKx3XVVOsKvgeUbNHyjrk5dSN4IuiqQu1cskor65727SbblOI9R0op6KqCMTU0G1T1DKqqUp6kAjTGgielbDs5RWDbV6V8i/adTpw1iGsjdoLYjw8iKG3PjWAwqqqC1lUU2N0RY99RCpWuUesWAKPSjm+Q2+HhlL4HtY5/pTV0VaFigIhR1RWUokI/cafLBQMpTx4QUTc5kT2mH4C7AoSgdYWqqixvVWXHJtkxEDwCcXA7kKugVYVK1zBkoLWfBxbsG8mrjCdRCrquULU1CBpVVUNpf+kfWSValK1j/Z2+F4dH5N+fIqurCnVdh7FeVXUAUgmgEsqSyI7nqqrh+1crnVi4ubXo57OutGtTtmNL63jo7FidUGgPBuTy+mRwkMk/TuqXCz6OZcDJBTbQbG+0NkR4cHaCP/3sCf7q736P7y8v8Lsftl1r3/02bYvV2wvUsxpaa8wXJ0kKkokjg4Va+P6J11tEqMDupvHdlHNxaYi7vUMFJuMyVZfH7mckefYDMalNqPNVMDII8C3QNlusL95ifXkBs93CrlawG8MaUArgFswtlFJ4fvccf/bVJ/j21QM8OFEAGWhrqoPRAvRh+T4+CpBTnC7klbpMmFkBTjD6Z/VshtPlGdq5vZdFVxVms1nwxsSp4UahUwizxQJnd87DwVRKK8zmc2E1inVpb9kQYT6fg8/PYdoWRPYdK2iBOAF4Z8WfTdX0ifdMEKGezbE8OwuuT8vTwloa+Ws+b2X5PD07Q9vMAViwMl8sbH1ZACk45ePyns3mOD0/w7xZgAHUdY26rtOlAcnnpDrHHilft+L5IVS6wuJ0iaqurd2kdeDbcApxog4n1FWF0+USs9nM5lNp1NUsAL/YrtFZEdrp/Bxt24LA0JVGNZulyoI5SrYeuRg9S+x9DwmYEikdsLOeh1pXOD09RaU1AAbpCvV8Dl1p1ya2XPLg0uVR1zVOT5eoqyrOg/k8mSuxxMjjbDHHaXuGajazQKmqMFvMQVU8/t9inYJmDw1XaAAO/3VKJnBowkprnC5PobUO9ZnN51Di7zRfO8bqusbpchniT3SlsZjPHZDtku+P2WyG0+XSjmFYULtY+DiWAWVcGNcs/o91sz1dancJjMtV6z6M25CdgvSlGrKBh8RgDTTEmFeEzx+c4ttPH+M//+4P+N0PfxDGUjb+GNg2W7x9/QakNXRdo9J1LBdZt44tr/k03vhg45apeOzVpMR+oDENKOUbGIaWcMbLSvPqlCX5ZWc0ENC2DdaXl7h8+xbb9doCHOUMK/ZX5/g7EzVOao2fvXiAP//qBT65O0NVN2igULGGRgsTYjN2NSRvLn0UIGca+QEUp1xYUnFScrFYWCtQWHj2dMnygGDngVmcnmA2nwUBwGy9BGE5SCiR4P3RGienp1icLOxbbD0GSut4uWDOPu86PPvi59mWf3KCuq6dwCPYiHwNpd0loIX3lVJYnJ5iNp+7IFsEvrX0XiFa14BVACenp5gt5gAbGFhFnLQTkCmAzIPRg2alLOq1nxyo1E5xW2OGoLRrc2SCyuWrVASfHAQvrGfDK0HvfXOvGzcuTpZLzBbzAPRAgNa1VZ4ecAeLLe2fvjokX+WClVnE25JV8ErFw8LIRmBU2vZ5qRgLRmeo7uqwi4VIQWtlz9jIOfVjkgiLkwXq2QwmnK9ixzkpFUbSgJro/absCohKG3CgrqqxPDvDyekpwhKV8+4MUV3XOL9zB8vlMljTSkWvZpElIiwWJ6irGq1pHA/KemML7RSrcthwz7hIbHMPAKkos7xydL/FezZwv4Vdt9NYNwav1y02LYPDDa+uzVU62cjNie1mi4sfXkMrjeX5Oep6lpQ+7t1KOQ1mHvsrHGROfW/FeubSsuzZkvn1oex9aGpNu1z4leCm2WJ18RZvX/9gAY4P7HY6hQkgRWBuAbSYVwo/fnYP//JHz/CTJ+eotEFLBGYN3bq2qOiw1bwB9EGDHD9V+01gL4DF4BczLZ7L6v4mBVXr8B6cBeXvaJEFi/BCVLoCeWUNpC5VMSjDIzeKrReDoyeDZWAxJ1mE3wPV7ZKY7Im1bvlRSmM+SwVyEiuTv+N4r6oKcEsg0ZPh30+KsGmc69ku3+hgnSWB23Lm7eiSTvomZzn0NQCtUWu3DKEEqOmx8v0t9XYpw3akV9UezMoycp6qqnZekwCrwW7Jh42M3dhF/HsgLf+Kii14ZRwwmM3nUakx4u5Bn0G+BEEEpSpU2i7pyfikoBZzbOWBhtLQuoqWeCcNFefDOBGkULZYM8vfAeraeUJVANzxez+fUy8Eu76qQHXthryLvSp6UCJpraG1gjF2mSt6HvqMC/Qol90VYjKuRVvGnVil/HMwZPls3VJi27R4s9nid28Z/+27Ff7qt7/H//Y3f4/f/nEFIpW0hczJl8lssFmv8fr7P9q2Oa+sV21P8nKUjTz4bwjgUCaySp6f/IGce5T9FqkGDN1uvqUyUh66tXH8w3Zna7ZYXVqAs764RK67mBggu0sKDMy1xovzGf71T17gN589xMNlDVINGBqKVRgnBGUN+w+IjgRyetyIBSXZFW67YHv/e4dOEqCgI6CTbEgkpjAQOsayT5cte0F55VJwLxPZIGSxxh/bJsa6ID7qUPooQzpSYPcRZ+3nC/Jr38zO6o/r3t5CD7z54sJSUvRgxOyj9C1XhbpdGZqeE+9P+vYOPgDn8UhEcoZTrcxwvqrQJy6paEdyUscDC47JQjkJb+Gjb0MKniNmCpkkZ4nkvHVq58eiDGQfUqSU1YHiuOKYTx70m8euSJ+DBTiynbxSF3k6C98vR8UhwQmw9K9lTA8AgO4XzDGv+MwvvYlXB9qGHNj2oEt5gOM9WErJ1knKie3kwIKcg2zju8hbJWJO9NWwn1JgQdn/8rfMiNn3X9geIBsh/DCATdvi9arFd2/X+C9/eIP/869/wP/xX77DX/39P+AP6w0aVgge0z6eyS6fmNag2Wyx3W5hTBuXDqco1ihOAll5NNBGJD4Ul7PyB3mskhRC/YXEfH260maJabqM/fzxrwiVQERomy1Wlxd4+8MP2Fxegk3r5HTkM4jM1kBThYfLE/yLr57g3//sE3z+8ATzGdBCQxsFYgJpdhsHVdJkHwId0ZPTFUYjc3sPIviTbGIEBcOAYcg99+dpCL6CyCXqcMnMMJTuJgrVCeaSVAbps0xvhjwl8vcKhh0aD9vNSQrRLg5Ja55Ooajmpix2pErH5uXaQkiFcKNv8ian7Agew/ZQEpZO0OPlzg/nZwDWGnEKpl/JxdoWvycSYqdPyKRLWpaP8JVtQS9gg66yfHaDkSmA1tTKFxk6TwoL4W69gQhMpJxyAE2JfuZunWNfZECQ7RlFCvnYS0vKa9Mh5ghyBb/yE4u0UkKzsVuRlVIdj4kH0myM9Qqg0J0J2PSKWdQ209VlDxghBDgLb1Wu4r3XhewG6gSwEBGgM1lWmlWdU3cJUstGW4DiH0K3WYUeywUMCHGjQ3RWcZAd9j8T6khhhvq8Ii/k8vev+f2QzMCmNXi9bvD7N5f47R9W+H9/9wZ/9d33+E/f/RG//e4CP7xe42Kzdmc1uTalOAKSkly1FBHqeobTsyUWJ4vgTSO5/D40+LLvrBcdYSxxEv5dmnvy3Wm46uo0OqPSpIiykt2OVAU/RAyabYP15QUuXr/B+nIVjAcv7wNwJi+7GeenJ/j286f4y2+/xI8eL7GoFQwAgnJn4ljZALhhQxEmfwh0FJDDbsa6ZgznzgTbT6KdorchkVw9hfhUrVPQOp547aLNg1BmBif4wdsyAyviiSWGKFC8/sss494aBKUNhOUcAZ3j4VIRbIR0HUkshJ1A+9KqStpX1Jbj2yGhF3opBMzqkHighDDL3fx55UUdQRwCYLuFJJWPRaUmeahj8HORsRDXRE3nl2aEWkn5EsthnfL995wqwAB68vqJ7yVQ61BuoXXcP74M8afrU/Z1ksVLwOgfEdLDFbOG7l1iCTo/rZ/sY8FiUJ2DwtD3lQeEAvzJ8RQ4koAjqUOh7/ykSMY6wvJnn9sz9J/3Ukpec96B4K30yy5Fx2gCOAlJrWQ5jm/yikjkFz1nFOUZk90dg9YBs7i70Z9pYgGOlEtO5eVBpIFvy5ffzW/YYMMtLrcN3m62+OGywXdvGvz1P73Bf/3dH/DX313g7/5wiX98c4kfVhtstjbQl9nt1lMma2dXR7bADLC7Uuv5AqfLM5zduYO6rm1sH6UjiIAYB9npt9hXzPGOKi9Ec9Ad52E6QeXuqdzTl5ZWolIaLnwuCbfSM/e3tLKYAHeKscPaYGPPHFpfXODy7QU26zU4jDlXZgD18SiLk0WNr1+c49/87Cl+/ckSy5kCnBEBwHpPwfFoCVA8V+4DwTlH8+SUxarJ2rFH+E4uhKwQIHICwIAYUAyooIRtMV1FFCNwguCAPCk5pgusFgDOND45/UzZ4O8I3zILJAV9/mVhdAY3rEjrgYkv72jXso1OngzlJF/580mky9/Xrywc4ZI5bRV1I4nw6VyPovg48GC/LIAWueyIQhclXxTyzPkOIxPJGCWPTPNsfDpOn02lKWn7Rnzvuw7oBHDSkzAe11DIU7rX5DuiL/3YCH2be6oSYBu/64w2MS/76tSjiydQHDOk4twLnk8xTxn+BmkCsT3zhNHaQ5vJLXu5vGLr+GP8PPigZEwYZmxaxsY02DYGq80W3725xP/3wwp/+08r/M3fv8F//cc3+Ns/vsZ3by9wuV6haRqrEamGIm39Ww5bgQgsluN95dgYgGw8Uz2f4+zuHZzduWt34sF69uLStwd46G1UCUbtmUMeSgZpPfRWRiX5Uupp+WzXzpbyKC9Pxgdlc4JNMGisk8tgs1nj8u1bXL69cKdHt6EPDPxGEICg3RDaQqPGy3tn+J9+/hJ/9qMnuLeciVpkploC9jqi6L2mo4GccF8te08L4DRTGKCE/iA0lrO49D27MghQXl0Tg7X12lg3rAGRhogecBZH7HBFXkhYKp58mZseSEHJ2Phgj7hZDrXoNvb+pDCJ3Wzwloq30r3g4jSHwERfMFxy+FmwAGzdVGaUxHZwE5KyLz0fyc4px69/L1dKSAWiXwIKiip8RmdFhsT3sXqUfB9jLzIFJ/P1eVEXEPg+iJTuMymiH+EZJMFniN/o6QtOFLesR6rTw9EozE6p9/Wt+KFwnF2hToV3SfSf5y1Z7ktYjI0pWyfprzjTLP6wY8Qkwj8WLsvxB+1ZblwtkrHZVR52HLok/lDGTpVToC/needZ9mYKvCw47vRrSXPIMc3izCSipK18XVRgws1549qRFKxX2kCjgTYNwIzWjwd28SlEaAywbYHWNDCmQdMwti1j1TL+uG7xuzcX+N3rN/jjxRr/+P0W//CHC/zu9SX+6c0W3/+wxpuLFTZs0CoGKwJpqyrs4YatFa8gb1MKsM9xrGp7JML85ARn52c4PV2ims3ArYm9wGKu+GoPoEf/1AIkAx8yxem3WR/0AN2s48pjRYC2xIgiUOIpY8g+tE3hvfJRdtuyVcgvX7L08sBv3GvaBpvVJVZv32J9cYlmuw21IsNQIBhFMNTYcrkCMWFRa3z26C7+8lef4t9+/RTPzmpXCztOiDQUKHr7uDvePxQ6Eshxk9m04JaxNgaXTYvGLS2kwpfS1k4kTr+YZgAtMxTaIEwaw/jjaotN0wT3nYwTiS8zuDVomwZNGIgZ91K4RkMsyjGvGCag/TCHgwaPK6A+jqAzx1nkLpSzPdLCn+djz01gwWNaD5GdMWjbBk3rlvVAcUdP4sMVL3byjEClszQ01RxIwIAXmILhABASDRN+N00b3bZeuOblsrUq26ZBq7fwk5rJxM4YQKhJ8LFX2gUAlQIh348yWLrQkEMatbN8YvvXn4BNlI42uUnQhP5t7JKCWHrpow6v+RIMG49WUp7FGPHXabnaZ1UqTOzwrgiw90AAQNs0MG0b+Q/zLOfd1teeOQRwO+yTJMlCmN4i76zukXXJN/UaX1H9pTBGvu+vuOBYqNsK7XmPkJX8ZEcDwhZt2+D15Rb/8HqN79cN/PKGYcbWEC62Ld5crvFm3eD1eovXb1f4/mKN7y+3+MNqi+/ervD7N5d4s9rizSXj4nKDddugNfHk4FB6WP+0t14zYI0aNxYM2N5qHVsLWmvMFgucLM9wsjzFfLFApaswNlOPWtaEcoyFxouD2y9TBYAT5I4ZHN9p7/j29UWKfioA6HIe/h2TPffspmBLjqF8IUEex0Fkl5uaZmPvorq4wGa1Qts0Yky5w0YBMOxVDeAWDIN5VeOLx/fw7375Cn/5i+f49MEJZsruioRpoFTq7ZTG6odIxws8dp1+2bb4m99f4D//4/f442pjz1iAPxyrRToYhLuZ0ujxUgHMBiqcvw60DPzt92/x3//pNTbbLYL/SOTvJ81ms8bb16+x1tUE3RzRb8iHxJQY8mEnS1FyQlgKy2Oi3p08M13pB6sBo2kabLfbbGkq7rNHApKUAAAgAElEQVQA7ARar9Z4/fo1qmqVKeTSEt0wRQWRqTXqnznRwslAjsgnwAopgLL8ts0W2+2mK4tEOzIzttst3r59g816Ldoka+uMZw4AXNZLqK0gd2NbR0FVUG6lYZEvVSatKd52OtcYuw03nG0jyLeZYXuPzcWb19iuN4JzlHko8GTxZQRG+W7A3jFOuWKXAHLMlyTe8XPT3aocztbpGVNt22B1cRGvDRhZd/VbzDnjLVYrra+EViGQV/SxBJgi+jB7v5Mz4rjw/DAuV5cO6FBUQjDBFDJM+O6iwf/+3/6Av/5+i5YNTGvB4KbZYrVlG1+z3uKHdYvvVy3eXK7wdrXCatugaRmNMWgbhgHBsBKDw9gm1mLHkMBcMcDZAKRjhdxjpRTq+QInyyWWyyVmi4Xdfq9UCI+h8F6s8zRwYtMa9iHSAiT2Ut7yfVbFaMkTeHM5D040Rn6isq+/l7ttu8Vmvcbq8sJ6bzYbdwq8bWR/2StXERoR1QArKLXFq8en+Lc//wz/4Zcv8dWTBWaVgnInGhvoJEb8QwU2koh3DijZnZgZBgaGDX77eoX/5f/+W/yv/9ff4L//4cKuJ1Ltxl/j5nVmrQUXeukG2ZhGo7GDnzTIXhqPy+0G37+9xGq1RdtqANoh35Q/rSvoeibtSZFAfBY6KfKXC96CeRIGFXXnHVK3pdw1UawviW+8gKQYYd82DVpjrV9FPlAxVbJEKgifgNmEBUkdZdWpfoGztMLBACyRBGhAsBylAdSRe0SihPipbRq38ytTxDZjEOzVGkrrcp1804ixl7QxZPtFEFKqh69LzndQfdmYSCFNJnlko3NU/U3TwJgWfrmERZnhcEV3orAKSjLNskTU+Sttgfgnxb+LL5Ps2P5kQ+Yje5AJtG1rPVhufoR6BA+mHef24Eh3sGDvwBNVcHWIzUyijwSsDWMi71ffJAL0hfxi2wVwltQvDeKWFOtrj6ogwwA3ICgomoEVUM80HiwXABs0260LBDbYbrdoGmPjdUjBQMGw9XIbryQBe1WMsaCmVVYeuIEU5YHThmTEuHRraWTILqOxfZe0PddrfnKC0+UZTpdnqGq3RGK6ICb1Gop2Fl5qbwgF8c+M1nm62rbkMy/1eT6ZZKtT+FwKS4jLU9yZX2n+ErRkEJZToz1MR3mHmbIPTduibRqsLt9ifXGB9WoN07jbxG2nuRIs0ol6rAIbjTkxXjyc4z/8+nP8x19+gS+fLlHVjIoUKjYgQ2Bl46n8tTOTvO3vOR3Nk0NMYEN4uzb4m9+/wf/z96/xd39cuYFcufVpb51mwhXekhwWXAQf+2Nxq2EDg9ah31mwTkm+BDtwWzYwm3W8DHMqlfBMogPc5AgCnWIax0/3ZTFtCpMrTFOiVFgEJRCj5YsYlgHmFttN2H4WefF5izJ7MF6iyPqodLBUx3mRf/aCDQh9BqJYx5jKpSkoy6zdWmPQtm24KFSy74sPa+MknoXsMpDYycErycKAcMolxQVOPebgANl74nnYIkrkzl3qjtToGTPYbtYIsSyI7dVHXu+PJxL5uYEgsVSpbbrUp+JFCjmuw7P0tbhTyGCz2SSKc5CDfEmi0JYhD5J/FNIFwyRdZi5hVchnggcPhEIfuf4lB0RsYK+7O6oFVusGv928Bhkf4GsLiMOUAWoBbkEucEbB7qyxatKNSTJQtIX1oluvOpNycX9++dryyszwIpocuKlqjWpWYzZf4OT0FPOTU1S1P7XbNw8V2yCAmjDZs7Nlgnx2oMiBjXjwX94f3ei/NA1nT/18iYCnz+anEmPus+07X990AHTfs/0ZlQTDtAbtdoP1ao3NaoXN6tIBV3+dTpoXw4CpBRkGmQpMjOUM+NHTu/iLb17g3//iU3z15BSzyo4Zex2eEifld6/lCe2UL8N/ACDoiOfk2K17F5sGv3+zxtutsfOFDWC2AHRUEgwgCeoCij2SZg8AzqnSgnkbvNakK7csZgeYRMVAFDgeR01zqqflJkaeH5ScTasgMTkO8kxBE1E4H8E9iDxmZYL8oGR3CduYEovK0pebe5AsCBRlBrTlyhP5DRjLecHpRy/YsryjwqHQoCyHgRwKRMKNngqozvkocqIq0VcUCwjFFxGY6KPUJ50kTUBEdrR9OiZkmWONKMv2YCxTDq5iqTyl9H1ZzysQyz7wXQUHZrl/lsalm1iPMZJn06Row+WRAdmwgJF5r3oyT7gLzdxBjaLITgJKvxPjNv1egCi/dJXE/LiFUZHcdpm/TMXWiRWBG7skz6Z1HnJ3AaMffQTYA918W9gj/e3kVSB3i7WNB3Jp3Nk78OPK7UolFzgSl77trlWt3MWyswrz5Qnm8wXms7kDN2IJC/nHbF6Gxz3P00TBoIsxOIdVwLsvaiQCyeci8IN8npUFBrcNmu0W2/Ua280a2/XG7pxyfSuuNkxLZQterXNA4Xxe4VefPsC/+ekL/OtvXuDl/SUWM1uuNgxqGaw0mOypTxbgfliXcA7RUa91MGD8cNHguzctVo2CvfDUKegWYYLZ81cE+ldSgeTKJQrPcF4EGMbPGwaYW/h7PUKwZmleJQda5RSlYPJqyURxKYLgC48jsOFcaPs6MMp3UxWI4dKG7UlB4xQq599x4CHMP6FEhZJPVGKmD3yC4I2axK1/n9Lfeb5OmKVbrqIiy/n1cVoSYFjgJgSMdAuJ973yiJxQwkfCIXt0JNonya+s/DoyjvJH/X3daVcJ5kruc0oFdQISJJAbKrCwJT35OplvoivC2OsvIwJ3wUihuBhn4NP4/p1gZRIJ/FzaMTNCaaeHPO2fA5Vz76a7FZHgM3Z/l+e+fc8fxpYAZ1JOrFn5Fo0UAe5IxBS5wRlkKNn4njByk/Hq8mEPxEz4HFW1vzevQlXXmM3nmC8WmJ/MUc9nUKoCQYGUijz0okXXM6Vln2ya2lzi2WFGsJbkLmJ7vMd3KM4nzt3YJ2mOtgRvQHblHIvaUChfSPc4z6Oli3C2T9tiu904YLPGdrVG224CgIMft+z6jQjMFp7YSELlsGyFu6cL/PLlA/zHbz/Fn335EC/uzaF05IXt3btgGLuLeFQIfHh0vHNymNG2Bm/XG7y53KBtWMy1OGG9FR50qZ94IaP8Y5AGiUGQKuiOZhHfQUDlNFEaQMgjAjyfJAUlTt3zcQ9C1PO7ZDTBbhukPK2gQf6uyLwUPolCZiGwO/Kx3OjFc4IIIPH3qHUm5HkYj8Wx4oBFqr/CC/nICXUJbI0IlpK+RtpOpbGTbPk2sV9jsHAc2x0sludVavuMxxiMPUAl4FJ6paessfyToPo8piMroNQ7UykaMtMHvcWJAhwJ0dEhvwSbP3M5FZtMgPDkt4jxCXF47M/JiRfFJueDBTTIcWg7FOGvmFG6Qj2boZ7NMFssMJvP7YW0dQ2tVMBHxiBZCt6HPCSPf8fgZ2P8zrNCGY4JaQhRADsirwCPJBBGeGazijIlhgPErkxlq+hYgTs9kPDXghhu0TYtTNtgu22wWa/sbqmti62zg0ZUyPZRjA/VIRYKLn1dz/Hk/hL/4sfP8D//8lN8+8ldPDqtocnY5UulA7/ey9pZov1IwM7xPDkENMx4s9rgcr1Gawz8yZ7x1BwDvyku6q502Ms/w0fO/hYTP6DpaMcMEBc+ecEe8w7jeorwy9zXHSWVK8Idx11RgOdxPv5x7kofUzwTeRk/A2ZKJqL8IsiID/vXzTscTC83+ewtw/HXffqc7VI/l+/cGsu5P09P0dEQJW03LZcaqFvYBNY80Cl7UsbfzZnbdfzk4Cb/bmiO5eXlcWgHoaGxmmMTqWDjWz0MSTCfy7iYxN467R4KGZqyEoEOkbKHEhK5S1Q1qrpG7X9mM+jZzF04qm36WHyO/TuU8FeumOBIGr/2lw2qFstUDIE6kNRR/u42fRk+hjfI95cYE/nydT64lM03jDtuQxC4ad0xDs0W280WzXaLttmGYxF8WcblS4RwfxsrAnMVGTN2m75WhLvLBT5/cg9//vVz/MsfPcHPn57jfK6hYGCM2yoOj18p6iDXEUMi/kOIwcnpaOfkMNtTNn9Yb7DabJNbYyOajrDYDgC/vXxM+fsBmA7IjgAjaeFK9iixbkqiNbHqCp4Im01XzSW7hkr5imWHQ2x0S60T/8T9LcY6l5YlskcHYKdIST1de/bVPZ4BxMkzoKvQSEjeXVj3SjPnqx9UCAkveR0pZZSrUrwPsnFcEEJJbErUAshbaMr4mpKmOFbz4TaxjKFx36l3DyDhnnfy7/rK663zyHgqjbd8TI63p0CWZYRW5quv/Qsgkk00oHw8FxHBxqLaXXhVVUPXtT2duLLgpqoq6EqDlHb3S8WlIAumnCw8sJzwLWIDjeFuGTduKS5HiZaXcLxI7/iLPSQhpd+W7w/2o+S+vJSj0JfslgxDf1E438gYu0OqbbZotk0GbIzzrnlUmAGoUCdCWKJ1VVJoUWvGg7vn+OVnj/CvvnmBP/v8CT6/N8dZTeH0axgb+2rvqHM5Mom1EHJ1+/DATB8d78RjBlbbFj+sNliHQwAhdt+wc3c6T47xkypF3mF+h0nO8Nvxeq+Ij7MmnITam3BswpI7Lj3Vru717ssJR3LteJiLYYQxZsX2WGzhiW/DwXGeWoFlLqdfAjForY+1h1zisg/i5zyvfaigNAZ3WWSAS1qefWRdxkNtKUC+ANKdMTOwdOc9ozDsrDeFsLOlZ0k2zaS8RCLZTKZeLqQZCKcBCr7C6xP7h5GOiw4w6Yxd7nzaxWggV14ndc+YKC23JuVPBYpgtzPCLQEWXmPjOZTMymdiidL/n7gmrNdFKQ1daehaW0BTVajqyp5roytUlYaqKmitw3KXcgf+Mce6Gs5kX7JMdHWSopqBcPVD9FJiUP5FXuSBijFvJGlykJEGWcN7dkzc2UVkf7dtCw7b2S2wabZbd16RBTTGuKUjRE+ULd/rGQ6AM/DIAEi7jm9tGgMsZwo/enSGv/jpK/zzHz/HN8/v48HJHHOn/4zSaNmehaO5hVKxjlYSeP0Y5ejHAnOOGpOz3jR4s95i2xr4ECp/HRgHS8MKZl3XIFXBd1ISR+LlPbLxLoJyOhacmzpDagbAUNylTdeTweBEz0BH0TizmcTBN8AHJ7/9pBQ5iQkUUor88jneL5OHEH+qzKZQ9yTivtbIsg5CfII3ZG+ibOZn5fiYMfFV0v69nerTjllPQ+0pD8Us55Ke8ZLzLfp/UCFNaNsEK2V5h+cC5HiGe/u6e1Be50yn8J9P4JSDTOBfoeRRkfVQpgQHE7x/ybIMlUqYTjFmMAefgo8wJDKQkwws40CMcleruDOuSEFpbe+ZUsr+VDosOSmtwjsKBOWWrHzLRYzJCciJfESwz3l/hPbBJMAX6ire86DAe0jkCnw6gp3ecOLOtM6L0jYeMSCRhd6LJdrRb0/3wd3RQ8UBqDAbt+s1PrN82QMr29bG3MAtVQWwS7GvPbD1ui6ZzMKIsfGJClrVOJkTnt07xc9fPsA///wx/vTVQ7x6cIqzxQzK3l4FhoK/S5zAbt8KCZmVzfkPcElqiI56Qed6a/BmtcG2ldYAxQQMQBHq2QyL5TkqPQNI2Z1SCcq2A0b5yU3pOR3onRA9/Zu4m4cHQFFMS7TFua7ssfYKPLH7I73/p8juoLIfs2LFfO+VQUWFmecT/hujPBEX/+S+JD2KK7G2BooeLL2ELSjm3WGlZzmk2AyF5ct+Nr2FVc7fykvyIjJa7cXU/fwdAiJ25pAf86GDvGLJGSnXMc/ODHwHZxolg0HqU99thTHVN+/6hnB+cKQEmoA4tLO49EtZ+nJZ3rjuyq4MtaWMJWTPQSEXW6Pg46VIKdgt30r8HUeOz56ytgpX4PQtRTmg0AGRwgNJ2fOdvT0S4CQMS1AlAY71sjTN2l5iGU4F9wDD/efAWHruGEfPoZcHTq6wAzLJT1gNcB4e22joDMgETDmwiMh3gs7dWFHunXlV4eH5DD9+fhe/+eIh/vSLJ/jRk7u4t6hQk73l0R6xqwCloNhAs7uvkSrA3VAPQIakxvZLEP6HTUf15GyaBperDTbbVgwUBNDJbAdAVc+wPDtHVS9gXDxOGIg2OZSyIEdrZa2Q3HAgdz5yNpi7fOVPhnu9fOZuZoXJqhUmfS45RhYJipTUJauD8ouxAwjGe6T6wExYzx3iYarG7HhwxoFfEn9B1M1DZJ3XYXiXEHeKpwKP0tIboqnggcZ6WSzHdZsn7hIK21oTSy2I0UHYk4PEbik+VX+KALAoCu40fzFDOJ0r/r3R5dpgAcd+8Pozctf16kVjOJ5Fky+oxiWDtK7+b0LWAkLP97Jd8nLIsvyzgreIkg/pewlaK1AybkXdZQ2KO9E8H27ylPorAWYZoBn2Wl8dRjPs1STG39HmxvpQ1nbeGGw3G6wu3mK7Wodx5MMZoqeq8HZYAs8ktTMuOsu+rm9CbE7ikRMyvwPACfaSaIQTo+G27WsiVIrw9P4M3zy/hz95+QjffvIQXz25i4dnM8xrALSBPRRSgf0FAB6fuUMc/foIS7Zy/NXflB8cHQnk2MGwbRkXG4JpGfaQHAJDgTiunxJpKFXZI/gVQbEfePHiQC/8FFk3qw4WCieCTnXWO0sgpywoi1RU/InNIhRuipYj51HQyXE3ZHFmHIeJF1JnAtvf4BxlWlerSyFXHPGjIIftjceDaUR2UvAXhGTnSRaD0idYQyt0cNTVhG1y3HyJv4zGirNnZ/TnIsFSZ0k0WNqc3pfU4XEKXO5PEVzpQI/i5jCOx1YjOJGwadlmaE1Yjg8nsNkVH8BLUgg641g2s5qwDGXfEYrJZ99JU+aXs37wifMYHps8M43yOnXK7zcIQl+gx4Bz3yfjKYltKrdMUOgU08l6JfwX+CpSNp+73wn5wOJ+KimfSOTTsc4Ybdtgu1nZu55M5g8kn588M8h9x2k+aeXcnHAGOAs3ex4nZqsW7060B+7peIikA12M1qo/dsa6IpwtZnh2b4lPH97Drz45xc9ePMBXT+7j2dkJTme1G//OM0VkPThgfziAK0MlsiqohZJR9xHRcUCOG5xbA2wai0KBJixDBRRtkUsQEGzaIHTjQU9Ws7JhGOfNkevjcWxyGAK9O0HcH1x8PrFilA30xLqNEzKeMBpLTbfhsky+h0UkJ1/6fDSrPkU1IsVGs5WW/Njy2YiV3LsDJ/tcnMBDmiv/PhQbcxtiL3w30hh9Cmswz8iMBT/Z81xhEgp9luU7JOGsfukJJvdWsVepkpFSAyWNEsd4cmpwMk9KnSDmDMHFTnS9LX4JMRgPBaHeHwmX8iINEDlbu++VCwvgYMLYZxDUmFer9wsO4C8Umb0Q6r2LKCl5nvvGDKXt0GuIUKG9srXyRDaGpSFhafnlpADrZAEWvDTbDTarjd3FRAhLgfZDPPHeNokDLuTODUPIPgzzeLO6HBXul+eFPDCLMl1UyjNo24dtsDKMvXhoPq9wZ3mCx/dO8OWjJX7x8gF+9fIxvrw3x4PlAvPZTPQvO705g18G84YNIDys7JfDxMAQHz9GOtpyVcuMbdtg027RhgOdyhMwTIqwFpGCAS8S5dkJJAdcoHjPydA8nyIDMq/wSE5yypIYZJlATIAPxzfH7ksY+dq3SDY1J/AtiuhFDDswsgsVreTCo+Ja0w6Z78SyLcv0vJjr9n1bIwcv3YIojPOxfK5C3OGk0G5UAs1pS4wcmtD9bpd4jQKQL43zKC6mtUp/62YTIfdkTFh+GyrVDACmKeSP+4s5viMaCvAbc/sJYufFMQHExeschooxxmCzttu2Gf6ONzfW2IMcuKBeih4iMVRl/Iz9He+AkXDdrRiLV30P+LvBCMSNu56hCfVQmjCrapwvZnh47wQvH57hiyd38fWzB/jywRIv7izw8LRGrStorQJIDVMvQfaFhvBWzseKZnrouIHHTYPVeo2tu2FXkT2qWi6c+wC52KMC8IjcpOjxYtMLHWn9J97NWEiZySErt+9px4ItDbwMaEXYHSaxz4+dOTYWAE3y6ofEasz53W/QFzFOXuQUoTyUJlhbhWXFydJa1HSgX68CQPpcBOnS0VUUzARvW6H8NAdf//6aWoE5AvfL+jylzvP4XnFcjOXT6R85s4tcjpL0cpTLHrFa0o5PPa5ZHn3nJo3xdxBEki2Xddp6JwuuJ/EB4mymkdu9xOX54Me3D2T2mISZ0W632KzWME3r0vqQ4CjJwl1cvj+DkcmIy4YcxnB+JIm9bsOEyR48i2TPpvFME9nt31ob1JXCvK6xnM1x/+wUj++d4tXDU3z55C6+uL/E83uneHznBMtZjbkiaPhyo6eOEvkubxDvMfp2MRo+AjoiyCG0htE0DQwbKNIIN7cKJG37KAU4aaRBbjXG3+/cqrmiMEiAyTFpyAq7zmKnJBhiy0m5vef0Hsqpj96ZBe1pGN/ENJPzu8YxeNW8PQi+Vh7df9c5L66GjKeXAUyrx3W1Z08cXimZvb4hVeqSN5YC3+kLNgbbzRqb1SUMN0i0AttdZ16Y+HPYoJR95G9wjxDHvSsnFFsPps85a0p23iFFhLpiLCqFWbXA8nSGB3eWeH53iU/vnuKLB2f45MEpnt8/wdM7S5xVCkoRWGsLltgCGna7pCwXGfzvtKMUkrfgpkRHO/EY8Fa7ApG7cdwYMCthCYm0oOxvFVB3EhiXeBcySzsUn3p3ikNhygQfCp6bQmEZrixw0tuzewSsT9PrGsZ+gvOACl+yMqWtKCt3SL907/rxz+OjycsHuYctzTJYd0GwyTY6pEKYyO5u23ALmRbdc+P5y5x6507Hohxy33R5S0837vmOyFm1Pvh+qLx+b6DtT69E+mls/LIIbt3rQDwR93Xw+ZyUsUPaUvzMIWjEC8nwO6rEAn72DjmhIKNyiGADjtdrmHYDeBAT9Io7Md+xwExxRcfIXYtyXJC95gIqxqiRPX9GUQ1FGpUm1AqoFKNWwMm8xtnyFI+XJ3hyfoKH5ws8vHOCx3dO8OTsBE+WMzw8meG0Vphpgq7dzfHsPTUOhJHbHStwWu7lllvy4xLbLfXR0Tw5lP2Tazf2PAa/Oi3dwYAPDvN/JoDJURQV3n0ovzjgABjLq3e5RHKeeqaY02+SAVtSHk66H8Px0ltGmFgjTEwETr1f7yifh94bFLGZFg+HdbHA0VLQ9Bb8jqg07kps7TtupLs8LC06AS3i5nKru6j4Q5Bmlq//nwGonnkU3hvx3vWA125G6D8lfQqN2CPT3p/oYRkqYMD4SgDdLoZcHx/7vjvynvfijJ2Anm/WYGY0mw222w2YW9dUCv44EtsALUgR5m7pSGsFH4Ds5zaHvjAgKHulhdKwh+sxtAa0JpzUFU5mM5wtZjhf1DhfaNyZV7i3XODu2QmeLE/x+GyBe6c17iw0TmoFXdlTpBXZ3cKaEOIxldNxcF4mQ/ZoP1X02IjfTg+UzvMasWU+OjoayHHhWABkJ4j1TKDQM7JjywO/Mx9Gccj07pfQo5T93uqt98WJvB1gFF/JQDykXo9GzPXxsksZ3swTCiynqxrXN5ZGK+UgXwDmnLXtWCRZX1m56yZ/vI+X5EDppkz4ax0MwlV5EwD1NZD34Bg2ML1xQV2xRwQ0TYvNeoV2s4X12sB5YMQZNNRgMavx9dMzfPHkPu4sT4C2ARnrETGACwBnEAxqXWExm2NWVaiIUSlgVhGqirCcKSznNc7mM5wtagt05jMsao1aEbTSqJSCVhzujwL5YxBsTFxUd4R0kwlDwUD5Oxt9xWONxf+FBrmlIh3tnBxLZF3OXih676jzDNjxkAEbsu8n3hqHupNoeKF50rM+nFXnJk8XIfeTz7KDqXOB07FI4/vuheL305jo84aMeElofPz7TZWlfHIjs2QjTq7LqAv80LBhomcDbqw4N318K/e0AcUzaHiHNrhOkpb8oMXfMyYozKyeF0stIyANl77r8hVnIyHZqh7GanbAH6O3ToNjm8Z2PO2iGYZQzpE1zED/Ju2d0ai36hDxOr1L6172igMsRUyV32TQshFe7WF+bEynfbfZrrFZrdE2Deyllnapya5aMUAMrRXunc3wP37zDH/x9Ss8vHMGtI3dvs9ACwN293V5kDOvZ5hXGsQMTYxKM5S/qd3/KA5/W93FMO6EPgW4nVwAWFkPKAAf22Pbw/Ln97tbcAb4jRjJycSyicnmzT64Ojy/RTwlOmLgcfAN+kUl+5xbl8K77DjrLDcQALDxa5Em+Z7ZACK2p+QF9qfmdqaPHzlyksp88jwAIax7SAj18tfpYBwUyAW+OmX1vTrAYvL9WBl9ddlnUo0s6R2cxgS47P+Rtkxy2seqPkQdDxbcXqApwaEhaTmtH8sdsD+0dDnU9n2Kuy/dGNDr+37fWJSpfdprjIwYK3nb9KQfhHRDPB7KOzTY7n72UHKmkV+ZapmDNz/GJXIqF72xywg6wrTWi7PdrqweIQWQcTvG7ZIVs8JJVeHrRw/wZ589wy+e3cdyMYPXBIrsMpE8gSnE/FB5WbQsry3fdqVV3rXlzrQhXze5niHr5jxJpOLjrPDkTxJGxi0N0tFADpD4c7IP01+O6DZ6aIJhkBd0S1enD9RFfkvvmKRSvLVAP3By7vokcB8Ai2BjH/AbFD5QFOTB68dothusLi9hWrcbiRiK7YYpkAGRAZhw72SGn3xyH68e3cHJvIIOdx5Yzz5DAT6Yd5K46/M2uediO3kEbCNg85aujY4KchI6QId7IyeeOBm+QXnJgjFq6cl0nceHUfh75zPibdibdrSiB995z+hGCJ6p44EyRTGUT1/Q7zVT6QqD0nhPvDvw3tcRb0eJSoH5u+Yx9N7Y931A7aptLfs5z8uPg0P055R8nBdl3+W5vK/JBfr6+6n8JZzD26P9EysD2bTYrNdYX67sRZzOw2+vJ1VgMgC10Frj1cNT/PzFPTw6n+66XDcAACAASURBVKPSdkkqBkAUTgj2FOJ6It8xUc6bvGgnfV4W26W2vAGy6AMkNZ7kXdD0yZu6x+V7I0JpPOPJPNzSLR2ddgVnN30833T+PmY6RNcIOW3DZRjsAA4IHXAc43NsEC4h3qoNZmw3G2xWK7TbrePPpg27+g2DDWExq/Czl/fw06d3sawVCK09S4fygzELRm2xItma0SgwuQUu75qO6MkpWXMe82YxOOzTO7TtfsVAR289jVji17wjIT2tuFD2h0gfUr3y8XHVuh27baZ4D94X8HBdc3UfD8t19eNNnDuTjT4M6utMgveW5QP9W2PQeg+OgBtFr58YG9Z/YrDZrLDdrEEU3STWgxOXvup6jk8eLfGTZ+d4emcBnchrCVDy37JWeZBFGqeTBgc7z1B2DtqN8BZ/xPTulqt22Z3jKRGEhQCufJBeVWiW3MSHoF2A0bEDcktBju8zDQWU7gJwRl36V2irqcsxud+7tFQyFsg6VsYV+7wX9Odl5EGVw5n2f3fVwN+xvEptvMuy4NCyU1523td9aa4LuI4Bwh6eAlxwGzv6IlYCRDF2mYqNEen6+9GH8IT71o3BdrNB225BStxSD4CVbSNiwkld45vn9/HVk3OcL2oX1GuN5xhe3Adw0i6RQCVsQGHued5tytwgvgU+x6MjL1e5ICzvrZGyYGoOIfaG0mfvi8U6RB9CHW7pesmPkbEdQjeZPjbv51WpAAp3evcq308sY9Sj7lAIswc4hVOr+/ejwl9+ycx2R9V6hbZtwQKnELcAtwAMlAIeLmv85uVDvLp/F1VVIy57aYD9VQ/DS040VrdbuvF0XE8OI6AUu4zKCNHy3kBhvyYb0IwIEhPGTHySFUDx4xDt4x7PrLqdgNUusUDZxHpnAK7Pc+Bpl8k/oJSvU4hce9vtwPvYtmuZLjk9+FABpn3Ut0RwnXSFIPp4IzWN57NLUPfU8T2V7yvWD4C9rDh+Eb+nrvTrZ2PISzKhHwptk/A4iZN4mzhz5sEhZPlT97NTEm3TYHV5iWa7AZvWnY7tPDzc2qUvAma1xhdPzvHTp/dx9+QEhgyICTrY9dYDpGiah6V3Ga1U06Ewhls6Oh0H5AR3o4luR79uyfBnIYXDk2QwMcsI+DxTl5YAaxmQ2ILYmTgFGlLgg/XZQ0BPVVZjAOqYFnzX57r/MgjQFSauHacIhF2Ez0AmRb72poKruo8CcM/Slvg/iIDM67rjmO3jYTL4yZd5SmNn33peZ/zOdS1Rj1E2N3hiv7F4dx9g2ikr/TL5LO/qssnjPYIs5bnMwsv04MUJV2SCE4O036NCDuCwMdhu11hfXqJt7XXMzELms4K9Y4rw4HyOX336GF88OMNCuwU0x6vVR9JwjjebD7XTVenWI/Ru6GjLVcyMqlKYz2torS2aZ7/1z/2QP8BJno4KxMHvFUVy+5OI7hl2PWYMXblOB83nlt4velcC61ZQ2lkuwdNNpQPIht4cevKWYPo6qXQZciKzhSfee+eN+0nSew9+r9x28p4Ibdtgs7pEs1nbx0ojvRZBA1RhMZvhi8d38YtXj/Dg/ARaefDqD5u1xaUY7rDj6BbQ3Bw63t1VpFBXGvNZBa0Jbev2VnG8noG890UE11lDJl7l0CVnKeTfTZnouwZcXlV4jHkSCjxMcn3uWo8p6Q69RNJnKeUWfzGb/S2sYtvt49Hp8R4cVZhllnWHSuNgz6Wcg9XLeyIO6T27Sl593ts985RBqJISZS/S3TSj6GBnf6WZJvkzYHdTta3dMg6gC2q8nJM3bPvrP6zXpdlusFm7KxyURryc0oIXVgSCxr3lAr9+9RBfPlyinlUgNiA20dt0JLoFOjeDjncLuSJoAjS5yHalkplh8Y1bszUSskgvjfuUCBb/OXU5dt8aoX1jBK7Lde5oZyE0ATS8b3SU9e2hMvoAxZ5r76UYnNLzK9EVx8GHHFPQjSfZjWR/9YJoYah1wOkBvcj+upqctzTZnkbSPiBYAhxnerJhGGMBTn5TfZonkPYIB8PXuMP/mm0Tysm1BBOwUIRX90/x65cP8PRsBnvqMUO5e612cfbf0odBR91dVStgXtsbWr2/MBg4gB247sdH4gxR6vIsbEl/18rxfaYPCCRdG32ofX/d5BVz388xSIKQj5n2iWkb6qMEJNn8DbszcXrAfUwsvoONm1HOU7NZr7BeXcK0jQ2/8aELEuAxcPe0wi9f3MePHt3B2bxCBXu9A/kdWmHj+K18+1joeJ4cALNK43RWo1Ie2RAA427JdZAlrJ3al2TsTfjEMleb1rgJFbw5+wiwD9ALciW6ajscqj0PEQx6VYV2HV4WYG9v0E5lvYvxLOfgrvUbWtrpC17O35ngaRgtv4emeEYoz+cqfTwIDjK6YsD5oPdG5M+ZjPUlsEvDztPi43BYvJuy671iPv8IcDyZtsF6ZQ//a00LwN9oDvh4HwJDK8bL+zP8+tVDPD1foNYa4Bb+IB0iciE8lJR9Sx82Hc2TQ0SotLKenNzd64PUPMCJ7pnRfGUyzpQHZDmHrc4tHYs+Nms7H/eHqP8x2/AIHhIrHiYswYwtQU4FQkFGHbEd9/Vq7cijb8urAu1uuEsEOZN2TzqQY/Px6e12881mg/XlJcy2BdjF9LgNKz68AWywrIGfPL2Dr5/ewXJeg5ms8QtyhrT14IS9Lrf0UdBxPDlkUXetFeZ1BaX9QUyIEN79kHBFsoT3QBJzE7OO610JxkF4LMo54Mj2+e0bxzOU79B7NzSAcZRyqzZvg33rc9V22CMYvPe9Q3uswmP7vOMd2DVvIiTxP6U6TG3PCXz4JejBgPM98r1qnycl9Hl9ffv0eY7k+4cmItAOdfTtbF+l4NEOeU3NJ++ryXPUW5lubDlD1d4ubnbynpG7loHJGr6mbbBdrbBdb2xeDqSE5SoApBRmFeHF47v49qsXeHbvFLWybWig0TJDgUEKyINySsc63NKHRUc7J0eBUFcVTuc1aq3EWBOKOyATdyomGCScTUPT1S9y2YkKeSzgHvwWXN5jrvNC8N/OAab7rI8PvVd6fmigN0RjAGFqPtdJwstX5PYQfdVXtMtntNzS0s9EsNun7DoHDk7Iq8TfYNvJ5O6dXJmMnU/SS4cYxzLGRACDnXZCHXLsTi03B19983wXwDqUNvuulDJ5xu7AP+bgpLeP0772u6k8cLGLVBKEtNhuN1ivVmibLcIylSuRrGIBgXG+PMGvXj3Az149wfnpPI5HReBW3Dl+i2U+OjpiTA6hrmqczmqLsl3kPMFeRR/8lWCwacGmAbAAlHIBN1TyiXbIMIcDqLxgf898Hrf0sVAJTBfoSh6cXWifWLaJdTgkfTBW96G8slONiX3ymEjSY253U9mf+JiT37E4b556cKNApEFo0bQG68tLbDdbF3djYN0xTqo7nVEr4OWDM/z55w/x4nyGmlTQFQSAFImQ47zaH8hYuqVeOgrIsQiasNAaZ3WNmXbuWD8J5DhjhEnCzFDwMoBDurJHJJ6lwwniTy2zyZbjAQTQ0LHfnq7ldNtj0C5Wbubl6tR530Dxq5Ir90pibqqQLNTvXQhY6a3oeFWyE2373vXvy9/ii/gx+7tEnff39WbKZ1Pz6PG0HpTGgqhLS959XtoJ8iQ8m8ze7nUOb4hQAf/ZBxobw4P9UDzpGwR/qTiDsd24042brcvfHjtiGCCtbf4tcOesxjfP7+FnLx/i3lxDc2thENlzc0h4MW8hzcdHRwE5TNZrM9cK57Mac61h0UxI4cA5OSckWZATDgCPyfpHKXUPBAT2d9leQel+yGeM7EXXEQ8FAOSPad9zyeMQ/bRvTM5QTE/fUlVfuXvQLmO0N+0V44M6z/po13JG4qXCZofklQLYmMofgNHYjncF5A9NA6DNGANjpmwXLwBmsp4cD0fapsFmZS/iNNyCSANwhwO2AGsNUgBvtnh+d4lfvbyHl/eXWGiATGs9PkxAHrpwpTiGW3of6XjXOoChFeF0prCYKSjtB7bKPDn2jhI2bZhIkx0v7HdmDaW7Rmvtlo5KJWV1S0eg2/F+S4I4/PjdVOLL4DGUsTYQf3fHErPB2p+Lw3bLuF1+IoAUlFYheudkpvDLlw/wyxf3cVI5daY02N1aLrm7pY+TjncLOREUMRa1xsm8QqUJ9vBKCrE4nthZBBHty2WtsXNFCkFyznIsus/zgM5d6SYI/F0s/X09Dwei6/Jy7R3A6ukmWdpTly/eBRWWuQC8e75KdBPihMaCgneJaXpXGwxKZWXzxXpxIsCJW7bj/4PscfgPbdNgfXmB7XrtvLQIy8oMApQBMWNeaXz6+A5+89ljfPrgDFoRmBQY1usDsoBJEaJauAHi+paOS8cDObDAejHXWJ7MUCkFexAgEJA22zVXZoZpW8R7S8Z9jCwmSfYwfr7uiQ8MK6Q+gHUVvm6icplCB+Db34AMvIey613225GU4uSlxLG22JXfKUD+JoHanA61jHoEkMcA2HBYogp3U/m4yfD/iPwmF3BgDLabFbZuR5WPpwm+GAIMG1RscO+kxj/75hl++fIR7p3OAAU0btOJJu8nOoCMvaX3mo64hdwe0X0yr3G+WGCua7zB2gaHcQpP/GRhZxkQACK2LsiMYhCyCQApDzxOednRk7GvgN7Hu3IVa26IriMw+dDAbBce8+DWQ9Eu1rh857p2xwyl3bfMXcZrKPIKsTdD3111DO35fjgR/TrigvJ83zWYvcbleQ9iw3ZxB3CC97z8cvEREQNssN1scHn5Fo0PNvZLXUwAuYhNVlgsNL54dgd//uUTPLt7glppMLmlLWa3m8ouczEDhly8Dx1YZtzSjafjeXIcWFnMKpwvZphp57WBdT0S7DgO50oZf27FuK2eLGv5OA0Sb01UXsWSruhtKe1IOTrtodgAHExATrpJfd8yd0mf97foWxpSCH3LM1cIVE2z90B9wjtXDTgu5LPzuCzVfQR8DS4VX4UOBTB3yWfIUMoATkfhU89Bf+8aDI0RxQ9y9Sdc28DFbR/DWXq54IZTa1ps1pdYX17AtG04Iy146ZnBaKFphvvnJ/jpy4f41fP7OJvXNj8Rw0kiDochh+wtxPnY6HiBxwQQKSwqwvmJQl1ZZA52t8qShjsmwXlyWnDbgtjAR8h3lqOQgQgV8PvxxvJ1LEFdN91k3t4FXcUrclOXPDyVdg318XwDxsU7u3F+n7rv43ndpX5jO77G3vXljf2MECPe+E1hGch9Zxit2QXgiCUtmwGIGGQIZtNgs7pAs7lw40DBhjBYLw85MAVF+OzhOf705QN8elZhroAWBAMbcGzlvwKgAWgQNNTgUbK39CHTka51gPPkEOa6xvnJArO6ilH37N3HcaHJiOBjRTRpElnszsnfuwzsdzIJDq1YxlzlNyEYcxfX/8g7Y16InZTmHgB1n+PzE9rFy7VP9q4MAOPj4cB87OQh2nO5ci+6yfE4nnZZSr/muviR7QEOA2GreMsmQKBhj230k8dxYeO1iBlt22B1eYHNehU9+GxgDwd0pTJBqxp3FzV+/flj/Pj5fVRV5XI1YgO6bDtKmvIW6Hx8dNRbyEHAota4vzzB6ayCIsA4Nw0n5+YA3BqYtrUnP032N7ljxB3i71U7N2XN3Jf/LizoQwj6d8X7NVCyO+sQY+Im7UCS3k6g6yF413PgiBQU8VV34g3RTViidjQKoPvAuZAP/nt/kjwzo2VG2xq0zP44mslgXXm05IsxjM1mhdXFBZrNJpuHxoIdsm7+5XyGr1/cxZ+8eogXd05cTCdBhdOQb4HMLaV0vFvI3b9FpfFgucByrqHdhWlM/tQDS8wMwybeXzUpWMytdYFgjLscbsdV4kPcxvve0MdSz1u6pVvqpx08ZwwbgxMBjtnJW25P2Y7Az1/t07Zbe33Deu3Y8cd9eI8OACgo0nh65wR/8dOX+MnTJZYzjZYry0MSv3lLtxTpaLurADsZak24v6hxZ1GhUsC6ja5LGdHGxm4jt+u3lHw3WE5iofago5GJnZxeegxL7FBxPMe2Gt9zL87UgOih02ypzyNSapvrbq+b5D26obT35bhTvD9jsU7i+xt5+7X07or6Bkjigozb1thgY/nuLqvC1n8PuC3jm9UK68sLsGnD0pS/yVysbOFsOcM3z8/xr756hMdnc5DSMCAoA+vFkTzcoGa9pXdLR1uusgCdocE4m2mcLyrUmoC1nOziwCcGTGu9OYaNBSzFQ6WiC9VORMB6cxhKy5Xg66rYsNDcSYjtAnam7Bi7TqU3IV7mRgryjKbwNim26BZMvBu66hLjLnFK+xojhTImnx10xbi2K11X4b7zB/sZAK3zsjO7i5C98Vlw6UjZHGRBxv9ms8bq0i5TxRQE5saWoTQYgGbGqwen+GdfPsaPH5xgUVdgUFALTDEeM8YQ3Vy5c0vHo6MtVwER6JzWGneXCyxmNWA4uVw8OGPIgpy2absemtGCXGwOgJ3gjRcI1HOq6w7lX4n2tTYPzcct9dOtAL2lj4SYEUIArOEpBbZDGCMU5CkRlLJqp20arC4usV6t0HqPvQs5ANnrfuyBsITz0xl++eoOfvXqAc7mNTQUFIAadneWy9yydKB639KHQUfaXeVcnfYjTucV7p6d4mQxB5E7upvFXPGWgzHh5GMiBe/IFBln7mdCPB58xHUMdLwRVHqeeyyuYYt475UEU8uaYI1dK0m/coHn0SWh3PVdyLt4toikQ3TH0Fbrqduw8+/9mJnieduVv6vQvuPiusDdVcfprl61q5TXNy939CpNOkPrUAbPlPezZ2JxzS1TtSEOB3AxNkxhi3nfRg95ss7/z957P0mSXHeen+cRKUuL7qpqPd09egYzA4AQBEDsAVweuOSe2dn9wWt2e3ZL3i6M5GJBQhBy9HTPtKhKFRHu735w94jIrMyqLNHV1T35xmq6KjOEh/Dn3/d9qvQ+OUs2CsHGeQ7hCFXBNEGMQZ2jkSZcu7LGt165wp3tZZIkxQIJNsTuJMSoz8OXdHmCwBfyfOQC2zooBgsInVaD3dU2q+00vM/qfzQUfwrxOU4tzlnAB6nV6mmWxyR8G/lSlZDOqIJTH9gWbIOxhfBUKuIZZROdOdX6dCd9Nsc67XGnAYop8QFTdpwczOnOP03OK9X4qHty2dKZz+u9mAYK6891xnXPtRDN48qZPPbkPvPe92nbndM9OrdF9wgD42wSs1WhcCEOx9XOobX6OZFFqbmoxwBGHYKIkhc5w+GAPB+h6lC8ERtZeJHE18XBcXUl5Xt3Nnnv+gZr7RbOxAadyUTK+OxwhoV8feWCAo+970gC0mgmwvZyh7VOI8yVOliJaN4HpRVF4cuFy1GeNZ34t35eGTvs2FanibV4RkBnLjnPGJuzXsc5g6T6s6n77U+V7TZ5sHkPMW2RuGxK8qTjuei4oXnmVB1owMlBxAkygk6077TA8vD5ie7c84rVmsUszSklo1w+F1B8mnisWzZ+/MP7zxxaqYA9I+S7jA+x1lYWqDpf/BWDWhAxrHRbvHljgx+8usfu2hINY2rAZgFqFnK8XFydnJJKEVKUjW6LtW6bxBhytd5lVW7tLQTnfEyOLQoSk3pAdMQ55lEnJajS2gcvolwm6/84mWcRG8vkqH08uc8kpT4JZE4Cao5ZjCYV5temvMBZ5Bm4c08qJ2qTUe008zjhYGcd1rHnG5OTuErPYWxjwcFjruZQjmPKOec5a9xPRcs6O3mWMRoMybMM5xxiJKwMDg8nLYrBJCm7m8t8++4u37i1zXIrDR3FD7v3F+BmIbPkAuvkVDa6AGvtBtsrHbrdZhmIpkC9NoKq4ooCawuOW7kmXnlUQ6bVYl26fFJ3Q8WfWXJcdghQhmDN+lnIQhZyrNRZHEVwCtZpWXn+pDK+j3c9FTZn0O+TDYeo9QDHb+tjfVQq1n+52+QbN7f5zp0rXOkkNIKVO2akLmQhx8iFtnWIVrcRZamRsLvaYWOpRX80xNlJoOJ3sNZSFAVOHWLS2QtiSfPUwuVCuqOoGV8npxziRE0kn6ccG4B7jPV5WSyekwaHTro45jzGmItyWqzPsUM4bN3OJZflPl+0POfrfiHm8Tz36Lg4rijnFLBdJ0AV/97bWmsdv+nR93acAarF4wTs5KxlNBww7PVCyrhixHgWCUVjrRtxNFPDne1lvvvKVe5tr9Ksh0aVY4464QzzdCEvvVxsnRzCZDLQaSTsrnTY6KR8UqYOViL1uJw8x1lLkswe7nhcT/WZ7wpRxebMmqRTP39WmQ0XJZdhws97ryKtHf48NPLJbKXjD8hkINZk65Cp5xk7pU79fSGXV079nKbFqD2r+LujDLWjvn9GEuOO/Km1bLppJ9PFJ/eb+954CJXnGaN+P1Q2dv6UtfifGEisWLZWOnz79jbfvL3FartB0OJUu+hhV/VCFjJFLrBOjo+vV/HBa43UsLXUZL2dkMhhkOPhf2gElxfYojjB5I+Uq475mo+V41wnCzmZnOZenuoZBL9UjEUs62YsnuWFy8swh1708Z9E6rGQQVdWDA7ESXVahiQWeS1y37phNBhWVezBJ5UAGCmTbLvtlPdvb/BX969yfbWJEcXF+W1iGyCYLypoIV93ubC2DoqEyHmLSkKaGNa7TbZWOjTTlEGWV/E4Y/uqDz62btqRD59Kxw2iqdOgDII+5kDzyGXJXpk2hrNmYz2rNPOjNqtvP5Vdm9xh3O9f7R+s0vLTKWpRJFT30BIj1c8R6zZNHfk0q/syMGdnlZO4Q487zrO6R6eZAyedC2dlcaYF259Ep8z7HGawjVNByUxdpeX+6jx7XmWKjzl85wI7k9s45xgNfU2cPM/8NlP2c1rQShNubi/znXtXePPaKt00wQCOmPlVneMlmG0LuQC5uDo5IWBMxb+wSSKsdVpcXVtiqd3gad8XhCK6FMr3WbHOYp31Hx/rc68cHhHLTIFOtUHFzS9wyswDjCaziOKuk/sfJc8z3f20UhuvlLU4og8+1OXQ4OQXH8zojcWwTQQoeOvPN2qVUCupcokpUt5ig/rOyLX9XThkhaEinV8f5nOyJE+VVv+CvQcvslwCJkjHX9QZQJ1SBZZ9qVzoLK71vSoQNA3kHI6HMVRci2KLnGG/RzYaos5hTIKveqaAj8MRpzi1rC51+OadHb51e4sra01S9TE7zjhUpXRXLSDOQuaVCwM5BnDGYMW/+EZhudlkd32JtaUGnz/2XW0luq00MDfiqx7bwqHOkaTpWHO4+sQbLz4VJ4OfbLHc1BiJo/F/Uyyn0/jHT7OQHJceShzmuNI6TsZ6xbxgC5zU771EH5QioSy2YkASDAVOQ95eYG6s89R6IoaGgWYidBJDKxFS0UB9C5kzjKwwLBxDW1DgOywbdRjRKo5dJPToqUOkiuI5l5CAkzyfeuxSuD9z7T0v4L0EC/Rzl8tgRMyrf45jfYKuPJQOH6cV/r33AMd63RoATnzT4p7zuazCgaOxYHOGvT6j/hDnopEazx10lBoES7vd4PVra/zV/V3ubq4ikmBFSNT4iBzxIQ9myhv/Ymm4hVykXAjI8QtBVYkYQMTQaiTsrHXYWPL1cmxRVxqVmaHO4QoffEyaTp3Yh9mdOJOkylQO8y98GqfYMYOff/qcxm89V7zQlG1mZTLAlEW3DpCOYZHqFuCZFccZFwCt/ybB9jMAFnEOH0+QoupwWFTAJNBtNNhqN9jpNthZabDZSeg0ElLUV1EVQ6bQyyyP+yM+PXB83st5lOWMihHWOYwajJqSMUJyUEHEVAtH+Fsi6C7XpZMBhVPVdYnbnnChPeod1fNYtI9zk8y7z3mP4TTbnRQUHnft52EEHbnpdJYlAvGx1iiVlVi2bFCntcuR2qmPYINq5/GvT9TNinOW0XDIaDDAFtafX8BpHmrjBINWFDGGG1vLfPf+Du/e2GSp1Qw1caDuVvYqbMp8ecEMuYVcnFycu0o86Eic8UFkCM0GXFtvc2W5QyNJyYoYkBZf2EhpKkWRUxQ5jWZzhvVcfTpJqzqnizlwUrkErq4ajAMVLCkqFqHwjAsJVgWHd0m1EuH6cpNXN7u8utnm5mqTq6stVrupr5RqfbwBRnAmIXOOp4MRnz1xfPg45zcPe/z7E8fnvRFZ0SA1KSIWGAV6PTI4gWIPQ1vIQl5I0dB007lQ8I8pht/JuEopN1dskXk31XCEOhCcXwdMAWJQTT3wMbDSbfPN21f5y1eucH2tRWL8OU0YwsJFtZDTyoX2ropp3EYFK56U2VlpsbfSZqmZ0hvlfjKUaD2axg6XFxR5jjqHmMmkMAk0aARFNTo/LNZacaRj1srLuErNdFHNwxRES+ySoELR2GU4BVLUGUR9Yz4nglVIRdloCfe323ywt8o7V7vsLSd0W4Y0NYgBo4o4QBN/bYngMGy0mtxYVt662uGt7Rb/+qDBP312wK8eOXq5As5HGMT91L9LUgbsjEVLne1aZzE6057bKZ/TIhX+GcrzurdHsLOzmDvFM+TWuVDwr3IHIROFVOcktLxa9nPG2oLRsE82GOKsrbl/FWM8M4MY1EE7Fe7vrPCX93a4v7lMisM3dwhsj/pj+s7klc5e1MRZyDxygSCnYv4JqFwE1poJe6ttNroNHuz3Q1PNZBx/KDhnsXmGc77FA0wLozkclFzStFpRsTMtgpdh0pwx22usd80lEFUDxlPqaOEDiCXx8V0qJKLcWE744NoS37m5xisbS2x0G6QJiBSIVGygivEBxuKdlSJKIxVaJqHVMCw3E66vNLi92ua/frLPL7444MG+xTqDJAKYMI5poOP8rnnsPY6usAlqfupzmgWGFvJMpP5cntuCe9I5XgJpHwNpnYYYR4kOoUN233FXVr2qnjG3rmA46NE/OKAoqoQSNdEFZkCTUjdfW1vmL+9e4f0bm2y0WwRyBwOhQKBD1Ibcgmjg1heIxTu+8x+4qQAAIABJREFUkNlygSAnTC4Bo4QgUqVlEq6td9ld7/C7L57g1EGIqI9Bb1UfK18vJ0mSmPjrj1katHGiahlfEFkNb7moLyO+mBMzMyUulxiEFCcFjgLjCpAUh2Kt0hDl5nLKd2+v8r07a9xdb9BNQYxiJQQnC5Xvv5TKfSkhmEZQWg3YXEl4t7XE6kqT1abwjx8+4ZOnOa7wYEtiALLEmC5d0OhfV3kRWLFIiNcqcDhVnIMQ1gZlKut4nJ+IzIWRKz3isNaSZUOG/QOy0cjHzUkYgElAHbgYK2RZbSd88+YWP7i3w95qG0lSVHwCgKrixK8BJgZUViNkocgXMo9cCMhRAQ0Bxw4X5pQHIYlJuba1wvUrKzR+/0Woh1NvFheOoY48zynynLTZDH5aOaxnSl70cGCyc84His7KSDhhBtNLJ5P35bnfBy3BhAgk4dNcwWjBbrfJD26s84O7m9zcTOmaEUaKoP5SHzisvlKqc5GBCe+VxgJnHkYnISgyT6DTMbzZaoNukFvHsHjCV/0C6xySJFXCF/F2hTE+K6V73GJ6qZ7ZQp6XHFknJ4CYqAetrfWjisbgDJU4j2dUxOCcpcgzhrE3lSs8Kx8YInGAM4hYBKXTNLx1c5Mfvb7Hm3vrtNLERzQYPz9dCGswQKJh9mttti1e9YXMIRfE5EgJbDzb71N5FUGMYXO5zc7GEu1WSpblOJznZCLrEpC/zXPyIqfpHCbxk+cwGzH+d0m/qobMnLjZDKBzBjku3uFZMCd1t0btRMfud6qxnDZW54RjG0t/NxnivCWXupTCNDHi2GrDt26u8f17G9zeaNJOAVo4BCRB1MdoFUXBYDhiOByS5Rmx6k6jkdJtd2h32pA2SI23Hpsm0OiMuLvZIHMbPB5Z/uXTpzwZFp7zEd8A1hipgjVL5Xua23Px782ZpJ7GHqQc4bTU51np0LNcq5fkei8kfmnGOcbu7VH39Njjj5/Lg5zwb43NLZ+oEhgcKQ9QdhI/NNTYPZySPc9GI0b9PjbPA3DSwCYJFLFEiKXRgN0ra/zonTu8f3uL9U4DEoOIhqKxQC1sQSMbtGBwFnJCuTB3lYT/G5WxAmsiwloz4dZKi93VFv3BiFERajM49cFpJgGX45wlH2XYjiVJGh7yMxurqEpJ7PiKy0FxqS/+Vgv5oaQLzhiIPLZAl5d5xkl53P6nUcazjnlJFhioGHafaGGxqVC4nG6S8Pb2Cn9xY5Wbm02a5Vsc3JgORnnGkydP+PyLB3z48Rc8fPiQfv8AC2CEpXabm3u73L97h929XRrNZmnRCqAmpdMw3Nvo8KNbq/QHBb/4vE+mChicGK+MS7r/HBbEF5FJvERB6hcthxIgzhMUHfMulF6o6HYtgZD/Vqh0XQwkdlplUrmwnQfpbmLsE4biBDN+CHSrr2afDb2byuZDvGUaB4d3U5kqNm57pct37+zww7vb7K21yqBlwZQxmQahQQRdMB6Ps5CFzCcXVicniikXhIrc76QJe2tdrm+u8MmjIcM8G8s00RiR7xRbFDhra+6scLwpVsbk2UuPRfxG6tba2SfOcZbfXJ1yp3w39klpVR1xrrjwHLP4HFsz5Tg5o/V9fH2Y2JbBAEouDiuOK0sd3t1d5d5mm6VmBCa+Zo06JcsyPvv8Af/6q1/xv/711/z548/o9Q7I84wCMEZoJgl3rl8jTYStzU3azVYZAebHlpCKsNqGt3ZW+fCp45Oe5dP9fgDP3rIUTGAL9dnr3uOA6ayg6OP2H9vk6G3GntW8i/oFAKGjKvE+y3OMnes5gL3SO08VLxZdT/Fv/1oEcOPGe/lNAhj/2Xi8Xox3dM7VPhMPXMQX8suzEVmvRzHMQqZWPRNKQVxwEfv599r1DX7w6g73tpbpNNJI9pfG8PS2DQtws5CTy4VmVwGIaIjPicWjlDRJuLra5fb2Gr/86CmPe0VNYUT60k9EV/hU8mZLEaMhS8aMuQpmKiOJ1owilYu3/O6sLM6FyWVIVZ3297M4pTogQaVBppZWmnBnvc1bVzpsd4QE9bR2WODzvODjTz7nv/6//8A//+IXfPzp5xQhcN2pj8lClVYzpdVps7m17Vmc6oy1yxPSRLi60uS1qy1+82WDhwcwco7UmIBrFPVFQBZylLwIQbovpERdGgGuGfdQieCcHQc4Y4T1/M/lUPZqADFFkdHvP2XY72EzC5KgiXii3RYQa0wZIUlSdje7/PC1q3zr1horTePZeqilkixkIecnF9aFPM7BccvB/2sENjtNXtleKqsfe58xngqN1gCKdQVFSCWXsW7TWh5v3Kc8Li6kTLpqc85rhYrnvfD1LrI29Z+XQHxX4pgZBzjlSjfh3maT7WVDGgqGeQUORV7w0Ucf8//99//Bz//5X/joswcMcotV9V2OjeDUl6LcWN/ktVdfY+fqVRppxPqT8VwK6kjFsreccG+9xWqriYpgA6yuEtQXMibHvYPTAPNL9O5elFTsB2O/lYxvADcR4JS89ZTbXOqvqc8g8KUi5V9GwBY5g0Gf/qBHXuQ48f0J65ND1AAJaWrY2+zwv799m+/dusrOUhOiobqYQQt5RnIhIKdC/3qIQo5/LzcTbm8ssbvWpZkacC64qirg4BlSR55l2CIvP5PoaNDqmJPnqbusY38WXejTSy6Cj7OxKJZE4cZSyp2NBktt8SmpoWSYc46n+wf88t9+zX//+T/x8aefM8wLJGlgjK+PY8R3vUmMYXV5havbV1jqLmGMp/XKdNr4o4picWLZahvurnfZ6rYQY/DVP0xgJRcv0kKen9SjAMsgYbyujDE4UaT+U+LK6cAmJolUoT3eJRyb2apzZKMhg16PbJDhRCEBMYrBIU4REsKHrHQavHdzg5+9eZ37W2u002ZQzBVTv5CFnLdcGJNTf4mrGgy+N7QAjcRwba3Lzc0OS01CpVspqcz6JC7ynDzLcc6VE27aeWaJq03exQJ1mUUgZGNAQScRbiwn7KykJGmCk6QEtlme88cPP+KXv/o1H332OYX6fjgmkbIWjgc7xsOiEBtw6O0ZC2vx1L5DaDUSriw12F5q0kiT0Bg0LBeLV+j8ZOHWOrlMAO1o5Flrcc6Wf5dgpsbGnCRzLz4aY3w8zmg0oH9wQNYfIhYS8dlRiCXki6MCziiJWN7YW+cnb1zjjSsduo0EpwlGfV0ztwA5C3lGcoEgB3xw3Lhv108KSJKUK2td7mx32VxqYLCITwgO7oCKanXWejbHFpSgRo7rT1W30H0gXqRvfXDeOUyy4wI/n5WM+wJfmnNqVH/hHO2GYb3TpNtMSOIQxG/XH47488ef8tFnn5WB60a0bAGBc6j1pQcUODg44MuvHjEcDn1MDXCI/I/4RQ3GJHRawlobOiIed6kGFnHRG+2QHPdeLMDMOUkNqNeYbB+DFqsZV5/7PcZd69Ne3ViMtTxHYEFRxVlHlg3p7x+QDQa+Ho6J+gBwvsRCcCbTTg2vbHT40b1dPrixxVLbQOo3FSc+RWxBqy/kGcmFBx6PS41aRVhpN7m5uczu5jJ/fviUzFmQxsQEkJLNKfIsBI0Gy6TM1glbjs2bMu/AL53OA6xxSyZuo9MJoXlqvJSjPGKbsyj4aWOYzHiZc8U98ThmHfuoz890fp+VQSgE1kwMjVYTkyQYdaV6V1UOen0+f/CQ/d7AlwuouTEBkNDKQb3V+OjpE37977/l9s1rtDst2u02Y7xOiPdSBeO8ayppwlIHOgZSq5iken/9YvOcFPVx9/GoZzPx3YneCZ+eOP/2s8Yw7+fTzl/u8jUFTVrlBGr421nng42p9FGp2Y64T3EaH94mxuMYUF/wb9DrM+j1sUWIjRTnsw5Jy7EISiKw2W3xg/vX+P69XW5sdJHUeKNUXVkDi0Ul+oU8I7ngtg4SgoUPTyJBSAV21zu8srPOLz98TH4wwtnYkDMhMkGqii1y8iyj3QkZM6XCq1fC1Il/4zh8XI6UlnhNWU78/czlOaWenkrq46wtcKrjYOK8rHRvOfonlABNY2inKYkEJRmyNmxh6ff77O/vk+e5f18ExAgG8f2miAyiH+JwOOJXv/ktS50lev0BOzu7NJststGQZiNlc2ONdruJKWuhKKkxdNMGbSMIFglNOxXLM9PQl/3dmCetfSEnFontt8eAd/XXpMZCq0J/VjW4U8N25aOoBx7XjzAZj6a1xxd1pIdMzhUMhwOG/R6uyMLxQ0iBsYhYnE1AEjCWteUG793d4m/fv829q6u00jRcnGIESARxWhoKC6SzkPOWi6mTc0gR1i2wGKnvJ+mVlQ73dzfZWP6c/X7uXQmO4DuIAcXe35znOdYWJGlz7Oj1QOdqDNXf8WuHhoaP9UX6jNc6z0aTin+GVT3/SZ+NYjhVHZ1pn596fNG9qMH9JDQEUvHxNXXAbIuCbJRhrQVVH3tTFRGpwV0NtZrg8eOn/PP//AWPHj9iZ2ePVrtNNhyyt3OFb773Ls1mE5MYfI0PJcGQmhSTSMgKCTFDYk95fZOXO/0+HV9P6PhjnHq7I/adeoTj3uVTgp8jWxa8bCKHWemJrxljwQPA8ZlULniNKtb6qHtdj0uMbU6krG8TZ6AHPc4WjIYDhr0eRaweHgwHJKklf3jDs9NMeO3aCj955yZvX99gtd2oGQ0mwCn1U6h2ZQtZyHnKc3ZX1SRYDGvtFq9srbC33uGLJz32R0XoIi6xLS0oOOsoMs/mJGkDmagPUTtwPDylK4o4+aPyrKyeZzLNzputOc/F7hKLRowiDov4ejcaYrWk4V1K6pk+Y0xoA1LZuqr4fmWB3atXgBUjOOt48OWXPH7yhPa//x5JEhoifPCNd3j7zddC3FZ4r0QRcb45KIIT4y1RQgbggrAYl7O6ohYyVaZhyLIfVa2j+EllVjFFCcH34Fs29PcPGA363vgcq5tjgCbqLCKO1Diubyzzv726y/fvXGGl0yQxPtGE2giPKvexkIWch1xw4DFUUGIcUogIokInEa6ttHh1d43VbhOcIyRZAQGcoOAcNs8ZDYa+CrK6OfRnxQQBoRNvjSotcyqpfj8vmUe5n9c2L5V4peiAkYPMWqwrxoKFjRg6nS6rq6u0mo1S6dczSuJ/0ZJUVUyaQGLInOXx/gEPv/ySUZHTaDZoNBseNEF4Dzx7OCoKMqc4qm7kCzmFHDW3XsKaT+cjFYfjAlvj1OswG9LF6+6oecGDasUG1V1VhNB/DS0bBj0PcJyzEJjVitVz3uAQSBLDznqHv3p9lx/cv8a1Tou0FuT83GLXFvK1lOcAciYkeiQAFUMqwna3wet7m1xZaXt+prQA6rQq2MIyGg7J8xwta0Ecv+hEmBMp3vHWDmcIID1OMT+v7KsXWAQpYxKzwtEbWfIiVngNWxjD8vISV7Y26bbbZYClOi2fZnyyBlOm0VoNLIzx3Y8xwsrKCleubtPptInMelTjWaH0hgWj3JagCRRZZIYcLbPmxCSYqbuyJrL3ji5U9xJKuB8ySS9LaBBLADsxBicaazoJWuY7VV00VJj3iRlKUeT0ez0GvZ6vTxYACyVwkXDeAiOW9aU2f3Fvl79+5yZ3ttdppQ0/R44YTv35fm2e8UIuRJ4/yCnFuwAQYamV8sqVFa5vLNFuNij7IBKtABNCNZQi81lWqnYuo2+M5iUUBnR1kLOQSyMhIlIAUWWYFXzVL9jPQ+/WsJmI0G23uba3x/bWFmmSlDS7MpFGGwLLRXxAslUXWEBHmqRcubLF3t4unU6zPK8HTYZ+bnjUdwxz5xvNBvBlzgKMX3ZZLFjPRCLAiT/xTTzsqpoH6EQYL6UFKCHextqCYb8f4nByv91EjJh3aiWogU474d0b6/zs7Ru8e32d5XZSvgKLObKQ5yGXAOQEU6VasWgmhmsrLe5ur7C11IKwCBFRfi2+xrmqZk5V4G+6lNZNLTA5to+oB+CdWiaszxPLEYGnX1vrJsRMIZAXls/2M77oF2Q2FDgLcQOtVoNXbt3k9fv32FpfI5HQDiRYxOUTj+XtawBKrSUR2NpY49X797i2u0szbZYxW4IwLODhAB4MHJlTEhNCgjwFOd9a8nWQeV1Mk2zNguWcLiEeJv54htKVLiqrtUDjqff96GdReufrjGdw77oiZ9TrMzg4oMjy8ruSIaqxqQ5HO4X7O2v89PU9vnNrg+VmignVyiuKicVcWciFynMHORIXKg2t5UQxCWwvNXhtZ5299SUSAXBBCZox95I6JRuOyLOsFqdRHp3JuJ+xrwhBeyU4OsHsm1cxnxKczKRuS7NoCtV/WeMYTruICajxLiXEJ9l90Sv4+PGIflYEnemDj9PEcGVrk7fefJ03X3+NleUlUPUd6wOjU++uLAomKGxRZW15mbfeeJ2333idrY31kHFnwo/wZGD58+OMh0PnO5mL+jL2wmJxnibT3E8LmVvqBpl3DfnPXdlN3GGtrXTheCTyic4VMxer3/Gp4oNQ0Xg4wsUmtPXBlL86Ugpurnf58Wt7/PDVXTa6TUxILVeZ33W2kIWct1yq7KpY4RZ1vpfV9iqv7G7xqy+e8HQwCItU7PhsECwaApCzUUar7UhSvyiNTynP+oyfb5x2deoQDTlakxN5Ic9VYvs+TQ1fDQs+fNTjUa/JWjuhkVSLadpIeOX2LbK8QJOEX//mNzx88JBR4asepyGAOC4gTiFJDVc2Nnjz9df4y+9/l9s3rtFqNnDOYiQBFQrr+Pxpnz883OfJyOKMIdHYfdCP0MvinVnIs5OIFV0IrPcflt+W7OTJDkr52vpAe6WwOaNB3wOc0cgbj8EQ9J14IpujoEIjEXbWO/zkndv89evXubG+hEnSwKSmKG4Rt7aQ5yaXB+QgxMgJA2AMV1e7vHFzi3/88DP6oxxrHVAAjbCwOZAc51LyUYbNM9IkmcJk1OjV8qPa7A5KwxgpO+hGCrciiuN6prVDhKBIODl7UrdyZ6RvHrvvUXIOaebHWl8+L3v+44j4cgBHjWXiezVgnCkzo/at5Y+P+vzhqxZbyw02Ok3/dI1/g9ZWurz1xms02m3Wl5f511/+G5/vHzAaDnzxMucwicGYlLTV4sr2Vd569S7f+dY3uHfnDp1WBxHjuynj47X2B44/fDng91/26OWhIKVo9VqJZxhn3vOjAtHn2E4PvbfHHH/Sup/3XTpPN+tFWO7x3Zt1T074rh0pY+nSHP/en+Q5ld+XX4wZYdHTE5tt1rOoymzTqTg76KexsXvNVrlrg6YLNaecFmSjAb1ej9FwGMCUCwmGUrKngvNNOI1ha7XLX9y/yt+8e5vXd1boNELMJA7B4EiR5PC9+tq64BdyoXIJQE7FsggCkvgp5Cxr3YS39ta5u73Kw696HPQy784y+DgdcZg0DWzOkNGoT6PRIG20fObMmBIZByeHK376cugSfdsyri/K32sKcqYr6USXf4IF4iTHPw8FMo+iliPCCSf3nwMQTS5OHkBajCpN57t/f3SQ8fNP97m62mW10yGJqwCQGFjrNvjGa7e5trnKG/fv86s//JGPP/6Yr758iHMFrWaLtdV1rl2/zr27r/D6rRtsXFkjafp3SXCkIliFgXX85ss+v/jkKQ/2h0DDK3e13kpVfPafav0Vm++6j1qIzyKnffYXtOhMzr9D9+G4ccwLNs44X2QasGEcdB7SCyeRQ3PpMBeojrIcgu9HFV4z1ZmvW9izNuy6q7bO+ESXuD+5U8twNKJ/0CMbDDzAEQFMAPWherhxnlG3sNxOefeVbf72269xf2+DTiOAKPElQXxIMlMaKS9kIRcjlwDkVDaJoKgKTg1OHC3juLmS8s61df74xVMGA+vLlbtgvYgQS4Sr5owGA1qtDiaJpcOny6zCV9a50ArAlAruwj3Jl913PS0G4BmKUQPqG7GKQIqwnwv/68GIraUDlltNbqw1aKV+TEoCojRSZXtrk+7SKrdu3eDp/j79wQBrC9IkpdPpsLK8zOryMt1OizRNSkZIsTjN6Rcpf3pU8A9/fsqvH2X0rCFJIQlxEsHGJYlU37OWWe/Gcc/kKDA1D/A8R9EaUKiYijPevNNew6z7Eo53LIN2HmOo76+gRgKDrFBmT/kaOK7kkyfd8UcdtmJzovjUcBNUaKV/s9GA3tOnjPq+J5USbpEkoV6ZQ4yPVTOa0G3DB3c2+dlb1/ng2hprSQhYxqDqG/HEYy9kIc9Lnj/IqeuF0sLwZfnFODY6wrvX1/jFh8t8+qDHyBlc4TDiHcSqBkJsTj4akY2GpI0mSaM5dvBpk/3QEFSxFkh0Ro03HfvnwuWCF6Qj5bzHMnUR8VZkzJKywTp0mvBFz/E/Pt5nrZWSmBX2Vhu0TOhEZsCIodFMWWm0WV3usHt1s+zKLGJIjCExEsCKKbNMfHNxS+Hgk6cFP/94n59/8oQvBg5rEgKWAjVoGFtZGfYkMTkXBGZLNuI4oFPtcPQB52H3nodMex/nZCInA6MjUzLrqs7FzTLplo36SQOTrONBxm7sGU3sU4stnCUlcNJYIFPLd0PVkWUZ/YMeo36/TBX3RgMQyi7gHMYoaEKn2eT+3jI/fesmf3lrm512QlJjh8aYpNpfl+BNWcjXTJ4/yCklBpBajFqMpqhJ6baUV6+u8fqVJX7xp4Rs6EJAf5hQJvEWkCtCb5UhzVabtOHjdpzTKbqvRjePua289aSCB1CTrpij1qULZjguTGbFykxz103b9yyLuYhnSsTgTIIlxWhBIo4c4Q+PR/yX336JiON7d9a4vtwgja0dVAEfZyXqGTqfZltVPEZ9Ub/EOZwAxpCgZC7hs6fw3/74iP/nD1/x5/0hBQmpMZgQfenCu+FDw9x84OA5vBtj6b4vu8xzjXPEQT2PGVzNJQ1VjAPAURfe28PqZx6wFTM0xwBRmB8ajIc8y9l/8ojhQd+3TYnHNeGkMTTAgGiCquPmdpf/9O4dfvr6NXZXW74TlUkIQQc+I1ZDZeaXTScu5IWS5w5yxhvJhUqbxEkISMJWt8ObexvcufKApx8+xmECnYyPPdYQy6NKMcoYjYY0Wi0PgBgHNbOsHQln9t3JwaqSnGZyXtBiNkvBnWuq5hFxE5Pnn+UCPPsQ1LN1TsqiexqCJHNr+NNT5f/+wxMGWc63bq5xfa3LUtOQmlAaTYvwHoV3KgAbr/xDOQLxbTuzQjkYjvjj44x//GjEP32yz8f7GRhIUIw6JAAvJ3ir2FXtJWbdq6+lHBUMfZnuzWnGMsvNdlZDp8bIjBf6mzjvCWRa/JDEd16hyDOfRTUYYl2oZxPAj0Aw+Kx3GbuERmK4tbfMX7+7x49f3WF7uYNJBQ2FXGNJEIIx8NIZfQt54eS5gxxKQpTSulAxmJDmJJKw3Eh5dXeDN65t8O+fP+bJwE9EATR0ndZgVhdFTj4ckbczGs0WYswRcbw1FqfGsDoFcYqJlC5fQ5p1UmEfsxg8iy7RQkjTVoOoYiTHeeIOcQ4VoeeE336V08+f8tXA8fae8sp2h62u0E2gaYIl6zRke4T9Q/yOVUfulF6uPOgV/O7hAf/z06f8y2c5DweOQh1J4t/HuK9KtIoJL85Y/weqL8du0Pksgqd1Fz1LcDFrTFM+l/jdHNtetEyC8nkMifPTC/5IsRdVmUUVXEAEUH3UeGYZGqrqG9iGbEFvQyq2KBgc+HYNRe7j3qqfylXlT29oJIa9jS4/fvM6P3ljj/tXuzSSCsho6F1FDG4O86LKUa2ucyELuSi5BCDHi+JCOqTBYkjFL0hJCAK+utblrZvb/MMfvqA36mMLGxYvPK0qfhI7a8lGI0ajEUnaoJEkqEhIhZRSn3rWtraAl3Mw+KmdQ03IEphQwkcplZdOZiPECzm3aIGI72HmyFFNQBOMc2hSYEQZkfK7p4bPDgb87mHOmztt7m83uLnaZne1w1KrQSJaKWAEdT57an9Y8NmTnD981ePfvhzwb49GfPx0RJELqD++U+8yg9AGRB0Yb7WqJHhl7r4e6vu8goUvUibGfGj+1pXCPHIerunxsJVQrsC/X9baMk28BBo6scNJTjURdKxAURQMej36+/sUWY5zoS1ObISsPv3b/+FjH7e3VvjhWzf4z++8wus7XZIUnFpSl4Cx1UWJZ9atelexWQQeL+Q5yqUBOYbKIvB9U+LEcJjUsNpu8PbeBt+4ucXDxwUHtsCKQpqWc19UECM4W5AN+rSaTdI0LEKSVEwsrlIe/oSUWcjBaLLBFVE2o6s2Ox7cTCrMeQIiJ7c95SIyTxDiWY4fTnL4WHVWrB60KbF+zERMT9hvbKGp7V/t4wPLrQCY0ErBs30xO8RoQSGGfSv89nHBg0HGrx402VstuLpSsNWBpVZCKwHUZ6nkajgYWR71cj7cVz57OuCLXp8nuVKoYESrnlQabdH4fkbXV8zgm6y0PV28S3b2dR+6p7Nkkvk4zaJb33Ya43LMscb2mDbWk7xfJ3XxHrXtPDE30+bmZPzdrOOdVgLAHv+7OrzTir2xWhsX9Wc9G+jMel71qulRdxVZFgDOAdkoQ/Gsta8YHx33BlFBjZKIYXu5yV+9doW/e+c6r2936SYGNPwAQlLqTkIGmC+NI2M6dCELuWh57iCnev2jotOQelirqonSTgy31pf44PYuv/mox++yDGtHqFhUQ5VjDW4IhXw4ImuPfKZVanxgXBlw589Td0NN02WxsqgYM1WJmJryiIt2KUctPPO6FyaPFX+vBRJemEyJwZlWUr506YxtW/UUGysMOLnQH7qmGmVOZWZKADwAohZf1wbUJAyd8lmv4GE/5/ePBnQaKd2m/2kmIM7iEDIV+pmll1kGhWNUFBTOQmIwJgJFE9R1DeDUF5+Tau7zemTP8tmf5v06BjBdqJwENJ4ELI3tdoQBM7nttEOPWU0B3KhiXWwWLDWDb/K1CW/jITujzk7JmPopdZxTCpcz6PtqxqPBwH9hjA8aVl8UAVJpXTi7AAAgAElEQVQkpI0nAlvLKd95bZefvHObd69vsNzyAcZODeUEgTLWbezavw5s90IutTx3kDMudYulvlz6lPG1dsJ7N7b55fWv+PTRAdlwgMWBNL1FUUMsRVEwGg5otlokScPjG5imNSaGIJT54xraPTgwyXgQs6llKVy4nEdw8zmMXWqPqQIv4X8lQI0UNnMt8nrCa9NQaVjU99wxYnCJUuA4UMtB7khyS9IbYdS3DEEMDqHQkHKuwTWapOPXU3Nhfq3kuPfied+P83AXzXP8M8okgxHymUriLwYYW3VV49iw5dFtBavJVIGaaWwcJaISA3mRMzg4oN87IB+NwvwVMILiMAk4a1CXgFFEhmwuLfPdu1f4z+/f5oObW6w2EoyCi9mn4lBRRI8a70IW8vzkEoAcLf9VIl06OWF8HZKGgRvrbd6/tcG/fPSQgy/6uCIv11Ak1oIAVMlHGaPhkEazRWIaQSdGK2laob9JxxS+46+JDR5qzENUYM+DVTlKIkiYZ6E6xSJRT3Wt/hm3LEtAWQM+1b2a4yQnuJ8qxuPSuF+0aE2stVpVjEVd6eKKONqU4x5nZuSYYM/TyFSXwixQdxq35bPa9jz3vUzyLK9jCvNZTRmtpYiPt2k4PLYpTXrHOOjIbvq4sPrpS5CljnyUMez16e/vk+cZqAutFkJwPxanAeCoQ8hZW0r47p0r/N27d/jWjXW22kIqFiXBSdSIOrtVy0IWcgnkEoCcKNMmSjSrw19iWG0Jb95Y5/Vr63z+tE/2tKi5PWqHEXBFQTYcUrQ7mJZBSGv06kQbzylMQ+UvdxitXFZjy3w9a+ayyDzjOQc2SNWVfv7y9lX/YwwU1j4pXVdhHFNHEYDa8bEhEsBTCFwXfzxRQ0Q/KkUglxJi245g/zIGduu37VmzBQv5WkiNyyylnj3lZs7ViTk0JtVnlfoJVYzjOx3njihFntPfP2AQGJyKKI8AxwEJqmlA/SOWWsL7t3b52bt3+N7dHTY7hkSsd23h545RwdsLp3DdLmQhFySXB+SMGa4a/Lu+zYNfoQwGQ8soNza6fHB7i1998oSnT/s4UZyPSKUeJqyq5KMRg36PJElpNP3lVtxR9cu4/7hSTYqU7gvna+Oe/VInFs4TN2C8BFKPDVaJ7FH1fSw65hmUmNVWe0ZSXXfdLg07185zNNAxCjhPmY95mGIUTayhVIM1Vbx5PWD4kgHVKBfhEn1eGVP186oe/vxUh5zBrD6Lazwmpkfr22l4P7VWA0en6CIm3/nIbtcCiMeuoaarois9lk1QXwV+2Dug3+uRZ8NglJQ8tZ+LanCSgCQIluVuk/dubPD3797lgztXWV9qkxiHYkuXf0mG6pTyCQtZyCWSywNyymi8qPCkrH2jxP5UQirCWrPJu9c2+JdrG3z65VP2swzFVSXR43EAZy2jwYBms0WSNsoKyeN0zKQEZVKGm/q0zsQY1CTVfD4lYzJXteAzyjxdzE8zgvHjjjNt8dgiPmXfWoctCowY0kaKmPEzzly/T7AQxXgaVwNM5W9SI+4mjl26uFAfsKAlBKoGR3VpF6nDZy7Uz0rO4VxH1pi5wNi1Y+9bCbyDW/M08/CE+/iyAx7klFWM42cTh5o+/sOfVT3AIrniQU0cnirk2YhBb5/B/lOKovDfVzYgYFAVxJfNJDGW5Ybwzo0r/P37t/nRqztsLLeQxLt+owFqfIO3WvzcJTUQFrIQLhPIKTmYWG48enzxcRdEx4KhmaTc3lzhO69s86+ffMXowVeMMkqgFDmYGKOTZxnDQZ+02aLRbMcAjmPGU33vGQvF4hCpqj6U7iuJDMELMtnPI3AZoOb6GaPQnZKNMgb9IaPBiGarQXd5iVa7FTLKYwyPHFLyJxU1PpIropv64WJl5PBH1Y9Mqp/qkY3tWfv1vO7VCySnzDpayITUmJcYe+NcnXEcZ2COBlzHwe2qy7i1RQA4fYa9A4piiGJCnFqkMUNpBwEVi7Gw1Er5xq0t/o/3b/NX93fYWW0gxmGUsh6UKOAie6NY8cAquVAzYCELmV8uAciZcBGFoldlyYbyu1A7x/nMpvVOyjvXV3n31gaPDwY8zDNPpgqB1bH4yxNwOdlowHDYwiRJyKIxobRxfSx1YFNnW7xy8JZYlVI+uWbOcL4cuVDO1en4FAvL8RaqjMHKKSflOP7Cp6eGzsMOrHUURUGWDRn0B4wGQ/KsoMibmCT1IDNJ8XWKXHmOGjw6ySUChyvUVNdEcBnUXJgTOEbLpzb+fOqJYmP38VlkHc2zz0Vm8dWA+6TMww4e+9n4AU8ysrllzK0zxQ1Wn7tThxU3n7nB0ePWsVem1kXcjbtUy9jAkg2ZFWQ8ftpYWsPXwKm2EQF1ltFw4Fs1DIe4PKOc6xLMxmhDkuBr5Di6Lcu7N1b5T9+4yQ/vXuXqcguMCaVZXclp+5pRWmZW1g2WhSzkMsolADmT4n3EQDm/fXxFbWIhtNOEm5tdfvzaHn/6fJ8n/UfkRY4vYhXrPYQ4DLUU+YjRoE/abNBOlgJFCzFeJDTBqrxlcSxjCjPgojK2hDK4TyJGm1Nvz0Or1zae76D1/Y6KcYhj5yhYMU1p1dS/CBLbJFiwuWU4zOgPBgz6fbJshLMOURgNMtJ0RKujpO0Ii0KPVSWipenXOSULrL6ISX1FqR2jYpfmYSVqjE/t+OeyCJ/iGEfGlJzzuWad46TuskOjmxzvUff0pCBuyr2Yy+1UMzbKKubTxnUOQedlBeMAcMr08Gmxa4eGOf5e+h5rUL7VgZKM3l//lSurvfcP9hn2QuapgAka1Kk3FGMxS8SXXFhup7y22+bvvnmTv359l53lLqQJTpTIoYs6Hx8ZFV24DhOnziKDfCGXVC4dyDlKWZXroQIYVtsdvnl7l198+CWf7ff481c5uNCAkUaw5C1qvD85Hw7JGk0aaZNG04RifhJYBSp31xE6t2RzADG1vi1x/MywEi+L26O8sHpjSRkn1Ga5bqhAnapirSPPCrJhxnCQk40ysjzDFtYrwBDw65yQjXKGgwNM2qLRiJlqpwRyC1nIWeVZvW8lZtLA3Jz1PBE9VPNFyvSHsvIO1lqG/T6DUOTPFr4XleB8Uga+llgkr0UUkZzVlSbv3lznb965x4/uXmVrqYGYYFSW4QLiq8mX03Ua47SQhVxOuTQgZ8w6n2rdQJ2Wtao0jLC3lPCdu1f43ZdPedAbMRoWoKacoorvQSUO8jxnOBjQaDVJ0xQxaU3Zjbs5qvPWlZRXKaqKdQ5EMLXvhYiTTulemKU4TqBQjmweODkmxbNQccx12lmrytDl9Yjg1OEK64stDnJGoxHDwYg8K3zH5JIU8UpZEm8LZi5n0D+g0VTStI3EutYl3V6zni8wKPTI5zSLjTitHMUazDuG02xbC8o+072tn+O0i/cFLI5jc3ba+U5y/+vHOYJhqwcCq9ZcUxP7VCTRPPfBb+PcuEvI/1rpLWtzhrGKcb+HC93EYz0oDaDIiPrvJCExCStteO/2Bv/xnVv81b1dbnQbpInFGvVFkGe5bePcrpOoC9CzkEsqlwbkHCciviGiCwuzikVQGpLz9rVN/uLOAb/+7BGfZpBbb6lEpiYG+IhCPhoy7DVotlo0m6aMContIKqqozMAl3rLRhVwng3xHX5rvvhnzUrMc3xVb4HN3L7O4HiQMU42Kagr4xdUwRWWLMsYDoZkwxGjUUFRFL6hoDqMJDUrM9iBIb3fFY68D7bZRpoGaRhidYALZXGeJ2O0YKu8HAdCnrOcZsFWYgaVlizOpJkxk+U96rga2SDfbqTENuFIzhaMen0OnjwhGw4Bi5HoXldEUtAGqgViCkRykCZr7TbfuLHG//XN+3z/7g5X2wmJzShCJWNVMFp1a6sMoOmu44Us5LLKpQM5syaNhjibmN0kKBaLSQyb3ZRv3rzCLz/5iuHwIV/uZziXeyZCDBLibdQk4JTRcMjgoIesGBqNZkUkBH+Y1IPrpo2FsDY7Xzsn+rZlUoM9CwVwAstTjhqDg2DmVQHTwQ3l+RsP9mxhKQpLPirIRsElNcop8iIEUQaYKL6fjSd94nEFYwVjfKhxkRf0+0PSZovWcpekkQDe6qwhy9PemePlpIGzL6BMraVynjFGZ5VDbGJA1s/o/s/dsPZkBy1/rUCNqyoXH8Y3pRF18lPVWJOSkXOo9QbGsN9j0OuRj0aoOsSMn9tnmdoQv2NI0iZXVjp8+/YV/v79u3zr1gZbrQTBYdMEkQSjnqFWE88ppSFYG9nJL2YhC3kOculAzlFS5skoPupOfQ2ddppwb3uZH712nc++HNIbfMkgj407k7BtVBhKUeQM+j1MmmASQ2IaoeJ/YHTKM2ltfXDEU0cnDoT6LE4RU9EgZ5n+J1XKY+6pCGzGBjHd/Sfh/tWjiaJbyjpHYS1F7pmbbJSRD3OKrMBaxVnPjGk85+ThhXAPFXUCmvgGgKYglZyuyUmTAifOM3PnKEcWWpwmUxakWcd9VgtluXhNHr/+PDneaq6s/hmnnDzvaeQyAKXzlOPcWUd8H13Xzjmss6ir7VNzr5e7lS6ew+/SWGPL2rtWzq/AzCCCOkuWDX0MTr9HnmV+e1ONV4yhanDsY+RSI2wsdfjeq3v8zVs3+N7dLdbaKakBF+LnEgwNC0hoUCyem401wheykBdNXhiQowhODEnQJCb8Z336AOvdlB/c2+G3H33FZ48e8+ET67OgnN+6bi0qjmw0IOn7InWtlrdg0Goh0EMLTwUGQmJCiRE8Ne1IjOBLq8dd9OyLymlEhMPJ1ZMSy74DMfvCerZlNBwxHGWBtcmweeF9+RqtuXHL2xc81jLmQ4lFzgr/mRNSYGvZ8MbOMneubfLAZvzpaZ/MtUBMbWG4YDnN4zlF9tOcWGoh5yxnBqYzMq1KBkcd1jnUhWxOOSrNKFZwP35MVVq5Br0kIQ7H+RIN+/v0Dw4obB5OK+Uc8jVRTciIsog4DAlb3Rbfvn+V//Pb9/jmjQ3WGoITKAQ/biehoGpgdQFfAWfx5i7kxZUXBuRAmPIxmE597EcCFKqYBHaXG3z3/g4fPt7n0a8HDIYFjlgxmaCwNMQQKtlwxDDtk6ZN0jQJOqIOauLP9LHUQ3AqQysyQdT2nV9JHKmU51lcy7+l9udhet031oPCeWCTZQV5ZsmznDwvKApLYdUrb8WDQO/sB/F3FU3L5nz+NFVgNhhEGrRTw/ZSk/u7Xb51a5UPrm+xtrzGzx/sMyoe8OF+4bcPfXeq8caU2wsCB2cFpMcyRtWbNZOROWkq9TnIWNzZCe9BfaQy8dlY08bjAupPEig84xiTjObkZzNl2kXUxlWFwIQZH0F8qFzsYvxNKKFdsmUnfI7j4x8foBjxjYKLnCwbMegdMOz3sdb37dPJm6/x9N4oaYrh5uYG33v9Gj97/xpv762w0kwQMRh1QT+G1iuBwRHxhmS87IUs5EWVFwbkiMSqmqEEfzB0NEIYMTQS5e1ra3x8b4c/P9zn958/ZphbBIu64Kw2kYnQ4NMekDZbdLoJSRLic0Kl3HqZ9LGZPuaTB1Cco3RxeU+QjuvMUonNF3x4fBhFzTV2SAlFzTQeB+CzPhzWFthCsUUANVkWivZZrHM4R7A4a6MtGZx4dufvTwR2tQXBOEc7Tdhc7nJ7u8v7N5b54OYab+ytsb3agiTFNZWv+kO+GjziIHcoDb8wShGO763Mk+rXM1nuM6z2Q8c96SI25/bHuZPOzEqcN4g6SQDxvOc9B/bzbPcpumUmDZwInCirF9vSPVi5uGNM2+QVeDUx+alMbnH4dwm6Kh8y6vcZ9Hpk2QhrbWBAo55xxAQLjQYDSrthuLWxxE9f2+Mnb1/n7VvrNFPPvEowAON4q9seTbRpCHAhC3mx5IUBOZXU6N7aIugLXFl2ltt8+84u//6wx6NBwSdfHZQxM55lGLek8zxj0PMNPDvdxrgbZmLSlzKNoFHFOus/TkwJPsYVnreW7LGG6eQGRyiYWJzrkIRMj1CQzFpLnhfkmQ8azouCvLC4osBZC2U11mDVlUcJ/njvdyrH5hAPHinAgSVBpEnTGNY7yqs7K3xwa5NvvrLJvWsrbK+2aKaCEU+f39lq835vjT89GfFvjwZYF6oTGwM4H8uzkIVcuEws7NEFpN7oiQAHZoOpmWUwjnFajoPcEBfooMhzBgc9+gcH5NkobCzlVgaLaI5Tg5qm/0wdzTTh7u4af/P2NX7y2m1e21mi0/BVwQyK0QKCqzp4xajP/XJQi6m4kBdYXiCQUy/YX+NnpRaMLEojSbizucSP39zhw8cHPOll9PuFBwOmqpAreJrXu60GDNKUNG1gGs1g1QhjqQo6adkAOu5eAcoaFcb4rCIx9W+9T76KSwxqpU7H1DBc7UQVkxLGITJu+aniKXTnSlBTFEXIjnIe2OQFNrc463CBlo5+Nh/gGAGNoMGCFC28bx9BaeCZNBfrRXtVbJSOSdhe63B3e4lv7C3x/q0t7u8tc3WtSbspJEnodKwgallpwqtbbd7bXeazoeNhryjvi0NIxISi8+cUUzEpR1FlJ3ELzuUSmfMc8+47KWdgUc6SAjw1oP0k55/DxTe3zGLaJp9TjM2TKftNOt1MaFmizv+4WmNN1bGpeijgvXbsw1cxjdEJEMi5oHsErGM0HDHo9xj0DijyzG81dmLje/upKXWhAVaahtevrfKTt2/wH9+6wa2NZTqpNyBMAE9EPaIyNqzYAqIa3QLlLOTFlRcG5NTZkGoO1txGOFQSxBm6beGDmxv86cE2Xz4e8auPD8iLEcGnVFotMfDWWsuo3weg2WqTJClGEkyShKrGIUX8kIL0/xuzwNT76xVBxYMaJ+Fchwiaw9lQXnnW2aT6NYb/VLEhXkZVcdZ3SbeFpciLEuAURe4BjQvVV21Fr2OiUpQQK6mlxVoZsC78nYQBuPJfB6RJg6VGwtXlJq9stnj31hrv3t7g/s4KG90WrVZCYiCRuJ/63mN4r+H2csp715b5ZN/y3wYHjNSC84UckZBafpTlOy3j6biFcWYMU/0QZVDD8SBg1vdHZM/MJScBUUfJecf4zHsdpwGXpzlvHUgEV5fMcewyrrd22Go3Kf92LrpwXflezDPy+nsZ59zhS6gYaXV1g0dxeUE2HNI/6DEc9CmsN9TEhHfe1RMLBEwDtb5n3+ZSm3dvrvOzd67x/VevcWtjlUYIJnaS+ADjeF6xlXEzQ+8sZCEvsrwwIOd4ESABEYzAZrvB925v8+mjjAf7OV88zn1AHRC4kDFFVBQ5rrfPsN9HJMGYhCRtYJKkbOppEp89JeJZmtJyEhOyG6Jv2/eJMRgSXAWQKiRTxvJEFxpEcORK3VcRLbU6HNZnc7iQym2trf2rOGtDvY5ocVJTzMEKRMFpCE+qYg9KZYzxDU5dgZoEJwbVBAQSV9A0BWtLba6vr3LvyjLvXFvi7WvLXNtss77cotVsYCQhQTDWIUZwRgGLGMUoiLN0Eri31eJ7N5b44iDjt48ycudoGodT64uSLezIhcwjWps08yzQRyIVxYaA4siKznJBnWCAhBzvMMxoTAjRDRwPn+c5w55nb/Isw6kNuwYgFBIHqnggUOtoiLC92uI793f56ds3+fadbXZWOiSpwamL4T0lmaXgDcPFDFvISywvEcgBcWUrOlQS7l7Z4IevFvz+y3162ZD9fmQHIgsQmJOgQJyzuCJHVbxbyaQYk/iKxsZbYmKM/yxJvDtKJHwft6l+fA0eQ5IEkDPWnrhyf9WBjPogGlxghGL3YudcYGV8uqrfLMQHRH+61o7t0dbEDSpP7FWj1nYYC6bW6jNVxBYkRmi3Wqy3Em6sdnljb4MPbm1zb3eV6xtN1rpCwySYJAXxjiZRhzifxSX4eyC1QM0kFTZS5a29Fp/3lnjUd3x2MCRhBCbBijlmMbpgOUmg7VmZmNPsd96szTEih96ZC5RzYLgEvFu2NHh8RfXYlsE6rRicQzLVrzy3lCZPMIzU4DuIZxnDXp9hz8ffqAT2OQQIT3b9luCuSkTYXWvzgzf3+Nv3bvPejS3Wuk2Mqa4t5plK0JIa5mXpplqwNwt5CeXlATkaeryUDcwN7abhzb11fvrGLk97A/7nnwZkBYxRx6WvPoAfI6EwIAFMKLZM5Yq0s3h/vVRVQEvFI6H0eugJJSIYESRJPQtEHVvUWi8ERVtS4kExqY7r89gNPbI//txBZcZriieJdHypxCZTQtUr0VKM9+ipZ8USERoC6ytN9tba3NnqcH9niTeub3DnygpXllLa7ZTUGBKMLxrmBKVAE0tuBCMpaUjh971wAgw1nnETtWyvpPzFzSU+3S8YfjTkUV/xdYuec2vjaPJOk3PIAlrIKWVWzNTEM6k/HY3ztPwuMK/B2KinhFfzMAIRmTjnaZ57BXqja8gbGp7FsUVONhjS7/UYDQY4F+rfiAYvsQ8XluA69rWofDB0KzHc3t3gx29c52fv7PHGzjKrrcQfu3RNJT6OzlmcOCjZ5dNdzUIW8qLIywNyBFyiVE0fhESUrW6b793Z5cH+iMe9EX/84inFGIHhAUxprUUAowHsRNajFgSrqlD4bb3+02oQpbM/Ht+Px5jcsz0YmGQoJCjd+jjKQ1YoxZ8rIpaAVqIrqgZWpA5utOZv12rRVlFQGyoOe4VugKZJaaUNVjsJ20sp1zfa3L+yxKs7K9za7LK92mJjqU23lWJMBJX+mD6W0XnwgmBCkLVEZig+m+DO8wS+oWkaXFszfOt2zoNsxD99bHBW0ECxx1ggxUwlp8p4jHlkDnBSLmzHHfcigM6zOn79uKdkRY6sTTMJDE7DbE279qMATvy+3O0YR0xkUJUy7sbVjYNoDIXnHEyKuYY9fun1a/dvbKxk7JwlyzNG/T7Dfp9sNAxNNAMMKtuvhCyoAM68ceRY6zR449oaP37zBj94dZfXr6zSbSYloy3Bje/ZafzvlOZRKMuxkIW8vPLygBxCCRyCjlIf+9FOEl7ZXuXH96/y+ZN9Hg2GfPV0gKq3ilRtsKjCIorBBIWm4oh9mDyg8fUnUH/8EvbUmeuJrA4NwMLHPHvFY0z9tmu5b3kqjYCksjipqaZIsUtU6FJTnuDjesQrN5+GGpVjAFImUkEOwZEYQ5okdBsJ250mt7dWuL+zzP3dJa5vLnF9rcP2covlVkqaSDlkR72OkIeBJbBS48+utR5aUsNu8dpFSDRlKRXeutrm0WCJL54qHz8pfKSCUZKiAAzWpOG2aHn9XtXPCAY9ZIGfTeql9s9VzivI+DzOf9LAbeKuOvnBzO2PjW+Ztu9xYPMQ0zL+ThzqBh7mgndLBZdw6ectzYrarIOxOVhndcvv4m9afaK196X27iKKtY7RaES/d8Bo0MPmQ1RtmCumcif5Ge0PoYA4GgaW2m0+uL3GT9+5zg/v73JrrUW7YbBqcKqk4ue3L5kaB1DdGynHtAA6C3l55eUCORoX0mineJWSJsLdnXV+8tZtPt8f8Y+/+5T+QAALJvZhipPfWz8ixvvJAVe2yxYIrpf4kYS+WDgLuOpzPWz5la0inA3gpXKbjel8j0/GXGpaZlPUU+m1pL9jPRvPmvhuMxqDikP2lDoH1ndnN5LSTBusd+DKaosb2yvc2lrhztYSdzc77Kx1WF1q0mmltBIhQTEmppKHscdx1Ku91i4iOLCqL7S63qS2NqgoJhG2Og3e213hSc/wX373iE/7PrhaQ3dz32rVYtWXqY8kUmjBOjV2oo4/z10W7qpLLNUs8X9WrKeG+RSrFUcXVQVtKLc7lQSGSEu9UWL8EAvoKPKcYa/PoN9nlA3RwiLqI2ZUQF1we2tolCneQEKFhjHsbbT43qvX+Q9v7fGNG5vsdlPagfV0gAuuVqNCIjVDI7K2zwqwL2Qhl0xeGpDjCYS6klKvGHwxHJbaLd69tsnnb1znSZbzyz99xSjzVpO6YCGZyqVSmTmxkillphJhqfeay3c2r5gJoKwiQ9hWKLOmRFBXoCKYWIenpmcCEeL3rLmSxpbrkF3hBy7ltjo2tsA4GUMihtRAyxiWmglr3TbbSx12/3/23vxJkuPK7/w894jIs7LOvg9cBEASJEHOcEYcaUbSSGOS7eqfmj9qzdZsd6WxlUbSzMh2Dg5vECQIoIG+q+vMI8L97Q/uHhGZlVXdaFxNIB5QnVWZcbh7RIZ//fu+773JgJtbPW5s97i6PeTS1pDtccFmz5BnQUgdHpAaJ4iQX1rjA9TSPMSb1rffWpPdWc9uFrqn5Ea4Pu7xL28bnpzOqT465u6Jw9ssQitXC5dFNITmLy3gL3hgf5KH+TkMwtKEUGux0vg/w4T4rGLl57XPi2FKlr4En/I8F02sbXeXtH5f2WrNQVm6t849vm8S+vkERtYdfenNs1B5HYPT2HKJksbdDd45yvmM+XQa3FPlAl+7lUwNRESazMmKjwsTobDw2tVN/uT1K/zFt67z+tVNtvsZuYbzBJYshIV7zNJYN7KllUHqcE5nX2H7yoCctmsiTfhNTSQhU7g87vGvXr/G47Lk0fGUD+8dU3kB9REMWdQkxiQV3JOlqdrXHpkIiLzWlLTG9HUJYMSG0URyhH0CH2LSGRA1iQxpdlvm2uNLBDESdT314RtaXVQx1pBZyK1lnPfYHBTsjXOubmZc2+pxZbvP9cmIa5sjLo97TPqWXm7JMoOxIfIJ9VFPpK0GSc3khOe3ufD5+LSJP2A+jXUHQxTJqIBXdzN+9PImh6XnweyE0inWKCIe8VkAh6YK7gUubsOFE/Jq+z6PVe1FwuVn3fbLsDVAr3YzPcu4fdq+tMHUmfOtOd3q+/VXUOP/rWhFTezNJ2/S0jmlucdFTLM6SQxt0qLF7XxVMp/NmJ2esJhNcZULrlbRuOhJCx4fvseEJQsq2Cxj3M957dKIv/jOLf7NG9d489KEQZ7KOdRG2MsAACAASURBVGQEcOWwuMBuamBAxUirzS/QPdZZZ1+AfXVAzoqlXDUQ3DMAYoVrmz3+7LXLPD6a83/PPuDuo9P4oIkgxxPZm/TwAiREKQR3i0HUIt4GbYt4RFyIYmhFPtTLykSD15GaUj+8vQ8ruCDgTQn3tKXJCWu59IBuVmEG1SCyzgUKK/Ryy6iXszEoAqgZ5uyOB+yN++xt5FzayNmb5GyNMoZ9S5Hn9PKM3MToL0LNm+S8awTPEXolATVSS4Ce9rg874G6vC6OVX/ERE2Sp5fDm5eHHM6Vu6cVv92fsvAgYvFIaI4jJDRsnAvN0S/Qg3T2JdvTdFLPysat22yNLkiV2i2VWJyLCZ8lanC1AUtNSbXt1rUjJRoVQrLRxXzGbHrKfDqjWgRxsSTNnLrAvhCDvCV+x3xoqTWG6ztjfvDyLv/um1d4+/oWNzZH9DNbN8vFxZwheqe90ooJ6Kyzr619ZUBOLQJO8xvBVZMefFEyzDAzvL6zwV+8cYujo4r/tnifRyclrgYlCWCklOfJBRWYBmsycskwzoRQzKjbURfOErIEp2aECVgTcKlBg6k9WxJBg0UjGxTz7sTJ2hohM4bcGHJr6GU5RW7pWWWQw2SQsTnI2Rzm7IwKdsY9tkY99kYhCmrSzxj2oJ8JRZ5hTaSwz0Rnp1VzrEuVxM3pzcTf1MSOpwldX/8kPU+om1Lih3OBk7BNcD1ZRJTtvvLW5T77p2O8Kr89mFM6j7EuXAoVjDcNo9Yc/KLb5JPbZyAKrjMzf1nC4me11SilMx8/Pyu15Na7AOhIe99ztznrPkrnTOPslZD+QX0dQaXeN7dv1KmcV/27AULpzbMZi8OiRpd+6tB0QNVRVSWzWXRNTWe4qiLJiBPcEjSmV4isrLV4UayBYWG5tTvhR29e5s/evMwf3Nxis8jITRYaLBnJnR2XdPGRFRcm59S2+0Ru1s46+z22rwzIgcgJrDxAUxRFcAuFkOWtXsEPbu4wX1TMylP++p07HE7B+SrIWyWAHNVYcLMGTp7cOC6NM66MN8itMPeOmfNUleJKh6tK1LtYG0ooYybi2r0EMeIo1HOyxmAEjBFsZimynCxqYorMMMwNG3nGOLds9CzjXsF4mLMxsmz0M7ZGfSbDHuNezrAwDHOhsIYsC+6nWhsQH4Q1EtTkr0+CRq0/TrCwtW5laRWLNpPVpzRRAfEpCwhGwzWzBq6NLX/+8oSThXK6cLx/NEViBmmVDHHB3bXSvM6e1551wjtHs5Tuic/kUpzXlqShOef+C2kfAqhJrqm63tSznuIZm5hAfv2ckHg/AuojexMrh1eLBd6vMIzpoaQaXV02sKleMUYZDXO+eW2Hf//tW/zZ63u8sjdgmGchwAKJbm+J35vIH6c2iZAqkxs5s6LprLOvjX2lQA4Q3T1QUwVAmgVVlPScGfWUt29NmFavcrjw/PN7j3lyOIcsuIeW6182zAYok6Lih7f6fOfWHnlmOFl4FqWymJcs5tNYVkEoEWalY+F8AE8RQWjUuxRFTlFkZDGxYJFbBv0Bg8Iw6OXhp7D0raGwkFsosrBdkRsKayiyWHJCIlgK8sbY/bRylRrsIeHBJ2qpI8WAWkckRPdey+VW/5aWqCmc/tmms6WQ4YbmCtBTFKsughwbAI96lIwsM1ye5Pzo5ojThWO2UPZnC1QcUJESmrWvstZ6qNSHZ3R/dPZsdpbOWEYL54GPZ3VRXcR4LQGctPhotDWatDY+inzbx2qQfmzzejaonZT8bFh6+zV1VevFAgSXWFkuWMxmzE9Pmc8De9Po9uKmNRgMEZleYroF9Qyt5/rOkO+/coU/e/M6P7x1masbBYMsJvOMTDOi8ZveVJ4SYjSWBlZo9UqssqudRqezr7p9pUCOifqV8G2XGufEtRWQ5MQBZGyPCn748iUenZTMp55/nu4z82WssxQ3bj0+EMXh2T+dc+/wgD+wE96+scuoKKjUUDmHKyskqpNLhLmDCsUSQtwlkCioOqwVsszW4dTWGPI8p2cNeZ6RZRaTSkIItWvGYEI9LFJx0LY2JWVOpn6YAjGnTnrIm+aBWAOgNpAL41VHhbRX5+1w8ed8QDZniIfzEjJ5SHQ6SgJqQmbg1d2C03KDo6nw9/eO2J/PCBEnjrp4aOo7wYWV8iQtn/g52vuM7MbaYqH1IZ7RVfU0LdF5x3hBJqpnmTBrN0nzxXyeE9WuqXSfp1pt3jW6m6U21WPXcrmGm3gJCAgJQ8mZ9tXdq2/gBjCo9zhXxcipU2anU6pyjjpXF8OFuJaom5TuC0FsSF46yoVX9yb8yRtX+Vdv3uJb1ybsDAdk8fmz/L2LnY/jkTKtp++CucCV3FlnXxf7SoEcgDbj0nAQ8VWFLFK9DoNBuTLM+PPXL3E6m/NkWvHeg8fMvQsTZUwOqBG0qPEIJQ+mhv/620PE3KVnLP/itctM+hlq8hDXoIJoOIOXwCCJ+Jg7J7IP6kEdSIyi0NYTVBUjIduvEcI/JkEOqSnqRIpETNcKI6+XuS15Q9o45tORVMXmPK7jaT6gT/HwbLP1KSQ9TRiEFIa1eFuFYc/w5pUBXg0zX/IP9xxHpUe0CmOX3G4+dtgkqr41QJ+znctUfFaah4uO0/7si5zUnrNv9b247rNEUqS/Vz5vQFK4R+owcG0WMbpmv+Zg8RPT/J2iBetSDi09WpNzq7k/6+9cTKrpnacs58ymU+anp5TzGVVVBcY0RkIGUKd1NKEqoXCtCt4rRWbYGWe8dWObf/etG/zL1y5ze2dMPy9a49Bc21YWqtbgULf7vK9vx9x09nWzrwzIkXpibN5h6cEk8eEpIbmcQBYek1zfHvLnb92i9PB//H3FBw9POK0qyBy+0qjl8XW6dUQ4PC35m3ceQWVQKfj+7QmTocVZi1OLeCHDBbZBFa8GLxaVMDlHaoYgQo4i51iLJomUjVWMaiwIGouAitS6o+Z51fQ74QVZWXauj/J9tgfe2Qfps9na45+j52iO26y8VQVnLEaFcQ++eX3IUaU4hZ/cP+akAodi1UAM3zfqUR+ucQBPHjgnCuYzsM9FuLnq8nmRxKFPczs9pa1rx6tmsBqysT4krWVK3C5ETPlGa/Pc45PAVhjv5ftV20RobEt7mRE0P1VVspjN6pIMrizxMX+VYGkV0yPK7OMzJJRasAjDnnD70pg/+sZl/vSNa3z/1i57g5yeMTUWa7oYGUtJIucuX3FnnV1kXxmQ8zRLBI/i8SYktRMM1ub0cbyy1ed/+84tTqeOv/r5h7zz4DCyKy7gEDGhjIAYNDI09089//N3jylFOS6v80cv77CzIVgjqLGxinE4uReLVbDqcASWCCxopN1jiYV2bh8fiwaKIexrBWvbD7V2evwG9Cy7neoRWJl/XpRHo9ZizWChAnxyQTg8FkMmsNFT3r7WAzdC/ZyfP4R950N0mm8wYyo6FsBsouy/JKDwDGBFVz574VbbnwRwNZTi2X3TJrCkpVqt11afoXY5R1eUb0VKRS3O6rJmab8zTTv7nTj/a6C1Z+sM/vYe5xzzcsZ8OmM+m1ItSrx3LRFyXMREF1LDTcbvphisNewOc968NuZfv3GNH712jVcvbzIoTIy2TKdNnFLDSrcq0nXWWWcX2Fcc5DSuKwCs4mJZAEsWXSUGL0phlZc2B/zHt25RohxXjvv7J5SEWk8a3VCBT7dIBt44Hs6m/PffVsycMl0of/qNHXY3e9gs5tNRCdWNY5A6gEgc9lonE1kcIDivWo8vJZQ28EFQidoQYm7OPrSfWhPohbQzDonwbwSVWe2YCJPnzkD5/vUByC6YQ/7h4QmzUknZYtWERGrio+Pi9248fo/tPJbmKddgHQRNwC+JietcN2sipRoX1idp62qb1uwdGxa5EwBcVVEuFixmc2bzGeVijisr0iJDjFlxxynggwtVLeotRpRBYbmxN+aHL+3xb75xlR/c3GR33CPPsuCIMnG/Vh9D5vXETnf3dWedPYt9pUDO2dwPKbdFeiCEmkcqoXaLaOBPnBjEKj11fPP6iNLepMLzX378O+4eTln4WJFcgoBYo0BWKFFjOFgo/+u9R0xnc6pqzp984wo3dnN6EvJ5GSAXh1dBJUfERkq7QoiVvOs8OrZpf2p71B1UPoSj2yyEm1trWn08Z6W6ZC86CIpaiEgGmNr3BqoeKyHp2fawxx/c7FOq57ic8ut9x1RtcOdpCShGQpFCFR9ZM2hmnk85Bs/glmlP7LUo+ZMIittMyKp49ot2ZX3ac6z0vQ1qBGphex0NJVFvkxL4+WVgcwYQPXf7LgY66rUOC1evVGXFfDZlfjplPpvhXHA7S7w/6/pxsf1qQJ0PgQjGgskoLOwMLa9f3eBfvXmdH712lW/sbbFRaJCSRTATkFUQ1a/7zr7Y3+POOntx7CsFcpKtfQCoomow3mCMAXWxirUPtacEsswwzj1vXRkz+OHLWKn4rz+7y2/vn1D6EmMjq+B9cClJFldYytGi5J8+esJp5Xh86vnzNzyvXxmR5ZYKEzLeJbeUT552nzgKoAkPjWu2Ri/QdCLk/igF5z3W2hCBZWzU6kDDhJwf7XPuGH3BtgxAl38PESsacg7FbNBGPT66AjeN8AdXhrj5Nhkn/GK/ZFq5GEZvUB/C0RFXEzpfprTladfjGQ+ydDw46+r6zOxZgNSZyKWLrIE1fvXdxuNah4Cn+lJnNTey9PKsdmYBtOSHWm6EJHeXRN1NWVLO58xnMxazGWVZor6q89SsHjvp5jwCJkYyqjK0ykuXJ/zw5T3+7I0rfO/mDlvDApsb8ILxAfB5G55LpgWa0vG/GuxtZ519cWb/8i//8i+/7EZ8oaZar7jS8y7kmEnrS48xsNHP2R70Ua88Pp4yXSxwLrmWLJAhYkNotg+FPiuxPJk5Hh3NOJ3NGeaWUa+gV+TBDWUkFuNrT/CCiendNSoMz31m1bqiuitNGG3c4KL8F7JmkvzyTVo/bdMGnNAOkU8FSKFvDVvDgmFuqKqSo1nFwileGqpf1AZNxNoJ7Xmb/Az7f9KxPm/7c/Y995if1XX9hG1eenvdj9Q8Xdwq3beN3sZ7h1eP8z7o2daAp7QkeFrzVs+fdqjbkDQzK0NdJxNVxZcl8+mU6ckJs5NTFrMpVVWGhYohJvVM+8py0r24YDFiKDK4sd3nh6/s8r9/9zb//ls3+PaNbTaHeUjcKTGiUILyJi1YJDE7T3P3vTDf5c46e/HsK8nknGvig75GTFwnaV0iIEyhIYuoMZaRWL5zZQu8Z+48f/Wzu9zZP6JyHsWCiYHOKXpHQhq+aam8c/+Ig+mUg9mc/1g6fvDKHqNBD1VBvEFxGLEk4XEAJ6HKNrGGTTOlr/ahDdCUqvIYo3hvsVaxNj5wzVka/5M+DNcxD5/tA3XdsdLKPa24LcYoTjzeg1UBPE6UrMi4mhv+JB8zyKD0B/zk0ZxT5zDGIS5HvUWsSzrSeNS0jG/6tzbQ6zz7hMxJWm23x+4iVqft2jqvLQ0j8Qnashpq/oxh6WvFveeeW1tky9nWrwL0wNzEBJAxU6dvSVqUlXuuBkbLx734vmyNZb2d4UwPFVCP845qsWA+PWU+nbKYL+I1SQdJgQLm7Hm1+ebmmWGYZ9zcGfAnb1zjX3/zKm9dnbA9yClMTlD6RV7LaLPIQUFD/qqnlJ/trLPOnmJfL5BDWFnVD1ADKr55gKHYyuAMOOPJe8o3r03o5a+SZTn/+ecf8uGDY8pKY8K/KLhRBV9GIYll4T0fH835L+884vFUuH/o+NPXd7g8GZCZHIzBayz9IIJ1hsx7LJbKGET8OTqNeC5pU9SKc+C9w7kQsWFM+LHWLlHd7cn2orpST7Pz9v2srB3+rlFgbbHNWKNYaSqibw5yfnBjiJcQCffP92DmY2V3W7U0OZEHEsGoR3wAvSmMP578eRsdT/CcrqPV/Z5BsPup7Dnb2XaPnXf9E1faBukJlIffTRDjJ3eU97WrFiT934omWrXlOlKNS6vl2mntu+xOatzAJm0vQVPjYymG+XTKfHZKuZjX2cvDARJsq8KP9FBvw+eGsIjyoSBwURiub494+6U9/u2b1/jBjS2ubQ0pbIaJmp1wflt7pZeS97VcZp111tnz29fHXdXizNOCrH7o1ax1yG0hWERCjorCCJN+j83xiF5mOF1UnM5LSudIWVtDtd+QxyYcJjxg5055cjLj/sGU+cLTMxmjviXLHWoyjFoy5zAscJnDGQ1ZkVnD4ERbWlW3gA40D/t2uG0CJKadY2d1aJ5zMv18QI4sv7ZYgXa50NiAOMEIuYXNfsEgKyi94XCulK5CtAyRKhIAjngTReceFQms3NJpnzNupTU5Pc3FtBZIrtvnGVwVz3ScT2ttb6KeBQ/nt6FJWKlecfWPD0LdVfpMDIhtvqdy9hzrhjfd16sar4ATm8YnrZuYxJCEJAXOOcrFjOnxCafHx8ymp5RVGVha7xB1YOIXXQA1iBpQG93QAAsERz/LuLY54vuvXuE/vHWDv/jWDb5/a4cr416oGm5sTA4a9GNn7vfUnzVj3PRz+aezzjo7375GTM6SGmDNxykCJoSK2xgRoUaY5PC9qxtsZDfoW/i/ZME7Hx8wWwjeC44Y2YNEl1M4n/PK41nJjz8+4smJ4+HxjH/rr/DdW5sMCovxIDi88VTiESxZZJoamWZsczss9YIHm6riXMjV4b2vGR1rQ+j5cpcvmHS/VGsBHG0AXPs1IUEDOEBMzt4o5w9vWHq5xRrDT+9WPJ7OwQR3YIjQcRiCiBmaml7LroxnaeKabZ8CXs4bZ1mz7XO1I0UnfQpbKoMgsqLPXc+ttNmd5fe1blKd48ZHt0zKyN3qQ2J/Wii2fYazx1/LKK0619oMmwQhsADicWXJYjGnWpQs5jMW0xlluQD1sRRD0n9pKylf6JCoBEG8hHvJCoz6GbcuTfjhq9f5l69f463LQ66Mc3p5DqQiLIqVGPCABDp5Tb868NJZZ5+NfY1Azllbl05LcfHdMB2qBPdR3yiv7g35T2/fYtQz/J/Zh/z8zhFHp1X0owuoR13MdmoMKY5k5pV3n5xy8MsZvz18wn/af5k/evUy1zYzvFW8ybEOcODN8nNP1yCeNtPjfRTYrrih0mcJ9KyCnVXA8/toQpMPx4ngjLA5FP7wWsG42GbSs/ztB8LDU4cag4jizQKviogljKT7knvxgtqKJkjXfLZqSWOTPEJtkJP0Jul2bh83Ydnzg8TPuleDFq45b9O05WK6NZMZGSDVkKW4WixCOPh0VruliIVzA+sX+2EMdaHb6KEWCakJMBarSmE8V3cn/PC16/zZN67y9q1t9iY5wyzwwkG9YzCiGCqSKFlX3G6dddbZZ29fS5CzvEpqTfZ1cbswcSoO1AaBoVFyI9zYHPLnb9xkkPX4fwZ3+fH7D3l4eByCwSVlMVY8DjGRIdCKCsvDE8c//e6Q6en73DmY8scvb/L6lTGbwxitZQW0ivldoF6J1r/rEiQ7Txis2touiTm9Q53HWxeiyTJbu7AS4HnRVo8XCZ/budyMSCxeGtxy457h9T1BZcIwh/9154A7RyUzJ+SSI+JwYlCCNmc1Mdyz6E7OaHjOY1A+jdbnaeLg57HzSI8LNj0DcOIHNaDRBGZWk/WlrMSydJBPOhJhCFZTJLRBesNgNcuW5c5570Iiv3JOOZ9TLmZUZUlVVaiPWYrr75qCT2UZfH1vhY1CLSqrSj8XLm8N+eb1bf7w9iW+d32bVy5vsjMqyJPnGonPhXDcxFa5mNXcdqKbzjr7XO1rBXJWV3zQdmKFv1TSA9pH+KN1/gpjhDz33N7pMyquMupbRgPlf76z4OHhgkpb04L4AJoUMBJqXznYP/X8/QcPuH98yof72/zrb1zlD1/K2N4QehmIJC1NelxL6+Hr0RSNoelhf94kfLbfaQJyOMQ5TEuknH7OaiA+2UP4IuD1vMc8bx8lVEhHQqyMqEMkAzFM+p5vXyrY7E3oFY6//eCYXz+u8C6kDEAE71tiz3PAxLK7Zt0GzwhCzoYDXbz9cwugn9qQMzssa2MucIWm1yXtVwNw4odL7tbmuG06Upa2qIvKnmPrdWSrCR6bbcPlbN4PWYpnzGZTysWcqpwHl25yAdfsj9JEOwZmNniVbCyQG76LhRU2ejnfvDHh+6/s8cevXuH1vRF7w4IizxAVTHLJxfQFATibtm9yjRrn4j531llnn9y+ViDn6RYe2NLKyxLXXa01l0MM7G1Y/vQb22yPLZuDAX/9y/t8+OCIha/qZ3h4Mc3DLXpIFt7z/uEJh+843n9c8u7jGT96bYdvXB2zM+pjnEPS5AFnn4Irk8KZCKpzJow22NCYk6QtYGy7s17MnDqNJYiqJtT4kpSHyDtEfSh8mMHtrYw/t5ts9jLGvzviFw9PmJaKeEvuG03OGW3LF96hZS3MpznERfbMPdMaTjeum5qlaTE2K7VP1wKcpXfOAzTrnFir1nzeuK/iJy1wowrqPYvFIrI2cxbzeUjip6m+VMMu1d/3tiDIeNRX0X9swSuZePYmOa9e3eI7t67wo1cu8dqVEZc2cvpZQSax2C4aGZ+GFRZiNfK4OLGp/ebF+2511tlXyTqQs2LBgy4IBkXx4iMTEzkVn6PqsUbZG/b5/vWCQT5ks1/wX39+h3fvHjKdV3hvYog6QCgiqRKEzIKlcoZHJxUn88c8PD3izsETfvTqFd6+fZmrGwWDzGAwoRREzL0RFplxAqgf0MsAB+KDf2lxvgawxEOkSCwRwcfCg203Vno9T7T8LLbK7jxrCPpFIcqNRiI4ALxo1EsAeDwhfL5nDDc3+hQ3hY3CMu73+Pn9E/ZP5uH6YGDlmgtE8LPeu1MnjHsWe5o7q73N6u/PanVbL25TyH3XHL+e0+v+pGKxob3LgGb5veYYUh9sGcqsMnfauF01SXCXdogAjxXWhzO/a2x40t4k95R3HudKXFlRVQvm0wBunKvwzkUWNMEwUx/Xp0KaqTfpnwhUcuvZ7Bfc3p3wvZd2+N6tHb51a5dbkyHjvglrF2/CMY2LDK6g9VMjlJAh3l1pyBvXGs/P3HXWWWcXWgdyWlanUE9uJxFC4cfWBEdI4qfqMSiTPnzvRs64Z7g8NPzVzz7in+8c8uBgitcgdhUN2p46WiMeWkU5rSp+83DG/smcDx5M+e29Gf/ilU1evz5hbzLEaqib5eJDWOMqV8TUD2ZNq24Bo5LSHEb2fQVgxJNLe7qLWqQkUk7RWW03lrW2fm+dyPl52J5PE0XSgm3R/aRx8gy/J3efoOQWrm3kjArDxmDEdq/PP3zwiLunC5yGJIyiFhtnXgf1eNZzc2jw2snoKdCibm97u9W4pdVeLR2h1pskZNvu/er+F7UmwYEGkSSgG08UJmHVurxCui+0DQJSaxp8s/R6Do+YzkZ9H6/RQsmZo60K5EPV+lpgrIqqw1Ul5aIMZRfmc6rFAucrnHeoRrYSaUV2+Xhs02p4OJZELZ4Ry2hkuLU34rs3dvnjl67xnWvbXNvssznMMTZmL68zJ8eIqVgsNr2/lDEobfp0v2JnnXX2GZjoixc//KWZtp/87feUsApUje6n8HA1MZmgB2al8vDwlB9/+ID//It7/O2vH/DR/hynjqDPSdRJzA+igphYiFAVK5a+FfYGOd++tskfvrrHH76yw8s7IzZ7fZBQzTxFW6lEwW2scl7TN95jpV3J3NeTYpNJNz3sQx+lBYRWawW1QU36ab+3+vkntbVam5Vb8kzCwjXXqdmvYXmaAwRux6vndAHvP17wj3eO+V8fH/PukynHc4+gIXxfTKwo5lA1dTRNfV5dac/KRH9uP1kmc56+gm8YoNQvWbd9i3FqBRUtMSnJmkin5H6KvUoMjQT2Yfke0HpfiHmCY2dqyNLSfDX6sdS8hjlsDtc+/kp/ajZHMLE2nPdp3LXuo3qPdwHcLBZzysWCarGgWpShcKaPeW6E4CaSCGhSq30AJEKskSYJkHgyC5Nhn+vbE964vs33b+/wnWtbvLIzYqOfkRmLMYKII2UnJuUmFlkRRTe91PYf9a8d2Omss8/TOianZfUDR9qrZ2meUEJIIkcDFATBCgwyw9WtMcNexnjYZ2djxF//4mM+eHzI8SIAIdGQg0eNby3sFGMMXiwnleP04IT9meODJzPevX/AD1/Z4bs3drg22WBgczJjUPE4QsZkjeJmq42bxccyE9J0puljPQFq3amzmti2a6CZwFbLE6yCnfMAz0Xg57nYnDZYaAG4wC7BmQ5BHA9hkjte37FMehtsjnM2P7T84lHJ45M5pY9icQkZrUMunYxY+2PthJS05WsByHJH109nz6LBaXwoZ7dtAZrI8ZGImhqAJFBDcx3DOLXcU+lwsiKySXdRDWxWRmFJH5YAjp57/RMTiTatbrtCtfVv6pGR9LtHo0u1LBeU8/BTlQuqqsRXjqb8QhgBU5/Th3QQsf1eLEYdohXEIO/M5mwM+lzbGvPG9U3evr3Ht65e4uWdITtDQ69IdXab+neRGm1dmzRea+6VM+901llnn7d1TM45dlZH4uJEmqj+yJakJ5ePbiNRTsqKD/bn/M27H/P//vID/vH9Rzw5VVxF8M1bFxINVj5MpCYLicVUwZWAYE3GuJfx2qUB37+5xR/fvsIbV7a4ujmgX1g8QkmFF8WiiAu6EiMZlTa5X5oHcfo7TiPiV9b60vqpex0+WXFN1XusTGSrGp5VwHPexPdJSkuc5yZbBWNNr8Ln3oR6Q0RBt8NwMHO89/CIv/twxj/eO+G9g1PmLuiTLCFCpnEwtsCArpw7jdpFs9hF37IL2ZyaclkDcNpt0lpHRBLfqqKxJlT4Lyaka49vu0jlU8AoK6L2VcdS89fZIrPNdWram7Y+77SNU9Wj3lGVMWnfYkG5KKnKEl9VSzqidC4v0a1Vu+bCsY/H4QAAIABJREFU99UDkggdF1xTNg8Fea9tjvj2jR3evn2Jt67vcHtnxOagTyYKJmRKRgJnY700Zarq/oUfkYuBfWeddfbFWcfkPI+luaTW72hINhZXsKMi5xt7hs3BdfYmBVe3xvz9bx7y4cNjTuYOdU2tnfDE9ZgoAglh0eDUczB1/OTOIR8/OeZXd4/4wc0d/uDmFq9dmbAzHpEXGSk/cnA1pOaFYzbEVMtX0F54r+tamq1bE2jDajWmbQahZlG0FjCHYzVaCGS96ytt1379rCx1xasEcCnEcRIyMewNYHx5wKSwXN8Q/uaO8M7jBQez4NoK/JsjCJIjQ9KOihGpXVif1TK9dok1fzXXoiFBaFEzpI/a12MpX00EKDUIWvYntf5KmaGb1qTdm7/C/dQGNs1lC4BkHaJru6fC/ZB4xmUhc8INTdFOH9xQZRARV4uSqnJ18j7VcC2kHrTQH6smuKuCnyvoYxBCXbhQnjcvDJPhgBu7I16/OuG71zf59tUtXtqdsD0oyLNQ/8zHgbdIw8a2FgDNOKwZ38466+xLtY7JeaqlVXFkR6Q1eYglFXcM02AqFQBeHQoczpT3Hp7w17+6w/945w6/+Gifx8eO0oFYQYxHcKgLmgEx0rgYMHgNK9XCWm6MC755ecj3bm7z1q0rvHbtErvDPoW4wMyI4uMs0axgQ9RQAiEaXS9nrf2AlphEsJmAVl01urJre6KMo1ZPWGk6EyFkghbBJKATXRXtsPXz2J+nXqkWm5P2DTggTG4hB1EQnNb9UU+pjsfHjl/dm/O3H53yzw+m3DmeUrkqjV7y+NS6pgbkpF437qi136h0OZp/mom+xUa1RcG0gIpGykNb77f72jrqskZmafxW3Skr7AraAjnnPRZW2b41HWXV5bVsZl0Czpp5UipXUZULXFlSlYugtylLvKuW9EQiCSxpq73xPvNJqxbuwOReMkbJM2VjkHNrd4Nv3tzh7Zs7vHl1i9s7G0x6GT0TtvZigzDdhNJVNn6fPKFwbMgIsTq+FxJinXXW2RdsHch5qqUJw7fkBw39nyZMEx/uPi3sYy4Oj2VeKfeP5/zjnQf8j1/f4e9+/ZA7j4+YVYr6oM9RyRrNJRXBUWJiwuIQ4WW1om+V3Y0Br17e4rvXL/H9G9t8Y3fI7kZOr7DhyRtBSsBKaQWb1sweJE3055V2kGb1/xSQc+Z53n7Cr7gRmk1aGoY1DE/a5iJX1ydJWpjcjA1rECYqQnYAvCiVh+nMcefJnJ/en/IPHx/z7v6URzOH8wmUEJm3pvltMbe0zrc8TkkDszIuCQi2wUtrwk/HWgI6n8A+OcjxwErhTNqlB54GcGAZcJw1kbN3knoXgU2FK0OUVFnOcWWFcyXqXX0XNv828PlMSgIlCI0btTQGpbDC3uaAW5e2eOvGFm9d3+KNyxNubvYZ9wqszUhsj631XUHgD3HxYcL3XAGbEl+1xiq04ylD1FlnnX1h1oGcZ7RUK6de5SY2JEVWxBWpJ4QvW3WBuDcZqOBdxcGi4t3HR/y3X3/M373zEe/ePWb/qKKswImgeEQXMQhEwFtQG1gD4wI75EP+nJ6BS6OMNy+Pefv2Dt++vs3t3Q12x31GvYwsCmVdIoVEAgsVsyZLLFdB7E5tbZbnglvjkwiGz4uWqiFHC9C0j7sOyJwXyXVhhFdLNJwmSwXwPkxgErRUThXvlJMTx7sPF/zdRyf8+MERd47nTF0sYxB8XmG6T5nwxCy5C2tQs/L3Oval7Rb0tV9oRQz8FI3Ss1oKpV45wtJ5Usbt1XMk92obHJ1v65mcJuQ7aIW8c3hXUVVVnbSvKkNOG+9DXps2MAVLw8to7dtqcTiNJkvC9yazMOxZ9sZ9bm+PefP6Nt++eYnvXt/iyqTHKLPk4gMwMUHr5jWAX6NKyHcTTu8hgmUfR8ByXubldePbWWedffHWgZxnthQRlaqVpwkJUvioRleWxO1VbKDJVWNIK1QY7s7m/OP7+/z3X97l//vNA95/OOVkXuJ1gZgZQSpVEPLxCIjHBNFOSFxWCTiHF09ula2B5fW9CW/f2ON7N3d5/eoWlzf7jPoZNq7MVcAnl5U6xAsmtm9Jc1NXXjYtkWjLCVUzWUSdQzJpNk6/nQNu2u4Zz3LE1uqq/GmC5/Z75zI8xpBCo5Nr0UjkUUSwVDj1qAhWQjFF5y3v7S/4p48P+ZuPj/nN/oz90wXzisjc0Ux2IjhpfHa13gpoUgI3Lq9mgOJmkcE5/5vYRLad1/903otD8pukjuvGtRbWrzneEsgROWdOlxrsUzNcjftLVVHnQoHMsqRcpOioJCB2NT8aDtfS69SuYcKYSmqbCexk/Ep6DYn3MiNMxgWXtga8fGnCd29c5o9evsorO312Rxk9ayPoCuyViCA2MDPN9UvtD/o2iXqudN8vh8uvY7CeBRB21llnn6d1IOeZrZmhlsn8pS3O31uDHkSBuVOO5iV3nhzz4w8e8Xe/ecgvPj7go/1jjmfzOBlngAVx4QeljujSkGo+KIA8Bscgs2wOCq5v9nn9yhZvXN3ktSsTbm7m7AwMw34PMdlSkjdjApBxEZilebp2Cmib6YkPcWk569rl0tc+zFcinVZBTjOFXQhyPq0gOfWnDeZE2nWEgkDVCEhyGRnLzAkH04r3Dyp+fm/Kz+4e8e6B48lCmVcOpMKYGqdAKnQaWZskT9Xo3FgdI0n/KPWW9RVIDEJyL64Zx2e1ZkxNzTycB3LShN/8nRi25IaRus3tfoSPUtiSx/sArr0PbI2rKqqyxEWA45zDVw7nPepC32uAlG7GelziGWpwFa+RpAR/IVQ8E6GfW7Y3+tzeHfCNKxO+fW2bV3Y3uL61we7GgH6mMVpqGYCImJBUkgsIzBUcfxbkXLRTZ5119mVYB3I+Z1t2UcTJygdoUuI5mJe8++AJf/POR/zdbx7wq3vHHBwr80WFkxJjqsCs+BywqLjgGlEbJoUaPIUVpgU2ehmXJz1e2xvz3esTvnl1i9t7m2wO+wwLS24BY3CpTWi9Gs6MRdSC981ck6JJ6vkmAYbzVq5LzpYzwOUikLNu/J5lUj+X8VmiT1qODWkmax/nVStAdNd4BUwW2DgVHh3N+dWDE/7h7ik/fTTjw8OSqdOQV0bCNUXTROnxvop1iQTnE8sUzl1H/dT9bjM1QePV9Ca4F9dFuF00butNWkBkZUigdsnW2645j7Q/SuA3MZvxPlHva7amKhdBa1OVwRVVlaiW1IkDTWQrl/riwj2GAa/NXSXa4O7oMjRAnlnG/YKdQcaN3RFv3tjl+ze3ePXyBtcnA4aZIbMWa/MwsuojSGr6auQijVpnnXX2+2odyPmcbTlvSwI5HjUZToIry7uSh6cVP/34gP/2szv87XsP+N2jY45niyBxVAUNq/BQZsdFYXOK5gqlJsR71JVhMWwNmShbvYLbe1u8efUSb13f4ltXRtzeKhgOMmxm66iwADhCUkIfC0OYVMgwTtCqGr10EjLGroiBk0ummTnbAG8Z5MRPngpyPsk4r5q03SotUNaWlYTd8jhXe0yqGq1BJwVC7hdYoyzUcPfY8ZN7U/7+3im/eDTj/nHJtNQIcECMxwt4E0CPeCHDUEUx+WpbpQUYEwhaBjkRgFLv/vyAMFZfX0tViNS5ntbuWoOccA+LaTRU3lU4V+EqF/Q1MRoquKFcnVKAup+Kj9GKAei0WEMRVKP7F4/6kuBxDAAt3V4GQ57l9IucazsDvn1rkz+4vc1b1ze4vjlksxjSzyzGuMBeYsDkWB/clRqTPsaTYmhYrs466+yrYx3I+ZxtlckJ6/KYNVlScT9P6YSjuePu/ik/ufuIf/rgIT/58Akf7k95crpgUbklATHqEKrAskgepkZ1BGGnrScUI0q/sIwHBXvDnJc2B7yyO+aVnTE3dybsbY3YHGSMCsitCXOggMGCGlwtrm25emhcCbrUz3XC1uXbqwE44TNdnbifE+s8HeSkf6JbpAVyVDNSxS8lJVKUOq+MkSq6UgRXwfHc89FJxS8ezfn5vRPe219wf6qcliWVunBtTRB2e3VxXxPlOcu6l3WW3EOp4edFuK0bg4vBoiwB06V942Asn2MlZ068h9UH4BLKKlRUVXBDucrVtc/UN7l6EgNYc3wipEguSSdvtUsxwW2YTh6T8GUGBrll0jPsjnrc3Nvi5avbvH5lwss7Q65u9Nke5vQyixUbwaKPdchCigbrQ805TZVPSLDSfGqg3Vlnnb141oGcL8DSSl01PHArUn3ioNswYiKgECpVjqdzPnx8zE8/PuTvf/eIn9x5xJ39Y05mJVUVjukjm6Ni8ZKBV0zUU3gsaQIJmZqDcNICPStMBj2ujPvc3Brxyt6EV3Y3eGV7yOXNPhujjCI3WDF1PpOkwVFJGWgTePArfWwYnfB7awxa/64MDmcm32eYa55ZoKzQFIKMSQpNYnVCJJyqwYgN3fKudYDQiaYMh42ZkIPm5PFMef9wwS8fzfj5/Rm/2z/h0cxxUoYin0YSHxHKBiSW62lzaXuyvejr+TRR9lk91Ko7UWrwEbZPQCm0kwg0UnV6dS5U+a5KXBWYG1eVIRLK+8CYnHF5RVjcclGSXEVLrF+7PZEt8iA2o8izoLUZZVzfGfHapQ3evLLFy5cm3NgesjPIGRU5eUpFACTBd3OlA1Mj2orMajORawF6Z5119vtuHcj5AqwBOfHVg0muJ/UYI1EATAQSQbA5W1TceTLnHz9+wt/87h4/+d19Prx7yOlpFfQJYsDmwV3lyuhe0hBFZYM7SbwJP2H9WmeKNQKZwKgo2B33ubE14vVLY751bZNXLk24utljZyOnV+SgYZLzqtG10ACdAKRWe9zoT+IIJEhR/11/mtxfnzvISSxOkgOnrMwxm3HrOrU5hbgRIVdRFg9TYfEYa1ggHC889w5KfnH3iB/fm/GL/QUfnTgWHixCIZZKF82cD7QBYhwxiFzSEjhM48MygGjcXCv9PWeMms+0hXHiWeuou+bHR0BTVRVVLKPgXdDUeO+abWMj28fXyHqFeyT9ngCIB0qIoM9jSHXFkh9R1SPqyKRkY5Bz+9I2b16/xLdvbPPK5Q1e2h5xZdCjV1isiW5CaaIapR4XiUAtsKYhyi4UxDX1PdowZB3I6ayzr551IOcLsCVNDoQEgPGhXjsiamZE8WLw4lF1LEo4nDo+fHLMT+/t808fPuaXd57w0cMTjmcV80pDleY4Ofo4EZpw2KhxaLsyBPWghOyxViyZMQyyjK1+zqVRwZVJn5vbIULl0taEvY0hO8OczUFBzxpyA9Ykd07DDLT1R6vMQfqvWVunFffyBFPP6eGAa8mf2tYAqaWP2mip5RZLrFKTO0dZ3jy2sX7bBOBIyJ2S8uNonaVZcc5xOPXcOaj49X7Jzx/NeO/glEcnc04XjrmaEP7fxnJtrdMSy6LLTddYZjIKls+bjFffXyqvEfsnJCAD1NFPHpdeqyq6oqraHeWcw7ugAQv3ro/uH4k4QlpjmaIBIzBMrJ8mEBMyfKMB3CihAKfBkVvo5ZbJYMTVnRG39obc2u5xe3eTl3e3uTYZMOkZBnkQEieGyOIh6sdUbJ2WYOm6N76p5b/PGbvOOuvsq2EdyPlCLE2r4dUrkTZvtDlhA0VwOGzcJ9RNwgsL59hfVHz4ZMrPPn7MTz58zC8/PuDDhyc8OZ6zcD5ES2koOhhy7aQw6SBeDRNdcI2FaKkYGZQmTxUshkIs40HO9rhgbzLk2kaPW5sDbm4NuTLuszMq2NoY0u9lFJklzyyZEUKkV5MXBVmeuMPKv+VCAYgiU5bnpIZs0OWxC5smF8h5o73OLRZP0lYdr1yfJZBBYAd0+R1Q3xAyGnQeRsBIiAiqFA7njo8O5ryzP+Xd/Snv7U/56AiOZp6FC8LkFM4dQEcbFEaWqcWGaJuJqsd1XcfDZ3VQWa2JiePuQ3bhoJupQgi3SyAmamxcFfQ03rdAqzYAKSboQyyNkLnN5rn4I/VnTR/iKMe+CkFn08+FrWHGla0RV3cnvLw74bVLE17dG3NlnDPuFwyKgtyYUIxWtfFAoq2aXBBC4GlAVYvAauKx2u1YN4x64eedddbZ7491IOcLsRVFyplfGkZBUvgyxOSCzaaqSumU06rk3vGUX90/4qd3nvCzDw/4zd0DHh7NmZaurtkjYpqcOCncHIIo1gcA4cWDcdRJAL1BfViBG1Eya+gZYZhZtgYFl8d9rkyGXN7a4NJmn8uTAdcmA/aGORu5YdDLyItedA1E14NUCA7vowYGiUnbwJJAjtQurUgyAGDwMaIsTv6ain42qiYkxSMlIBXk3WEMpc7n00R3xSFNk1maANOEnVxW0RcXwo3brQvsBWqR2AOrgU1Q41EjODGclML+yYL7+8f87JHjncdTfnu44NFMmVYBGRgN5TvUGrwhRP9IEJB7iC5NE2p9rYC3dpZooh6mzk/jAuvifBXZGkdZOVwVtDU+gpy0fehTZEQkZPL1sS4bEjVk4kPIfAIL2uQaCocI7lJJDFxyz8YB95GxMsYwKAom4z6XJ0NevjTizSsTXtsb89LuBrsbfUZFTt8asoijQl813S2xbEMah+Y7dIb6W2F0VsdvnXUgp7POvjrWgZwXwNqXoFl5UzP9dehteAsvsPCe6dzx4GjOuw+P+cndJ/zy7hHv3j/mweNjTmYLSudjpfQUyRLYAdXoHhMT8gqKR5KWIYXbegJAEok6IbDiKawyyIRBkbHR67E9GnJpMuTyRp8r44JL45y9jR6TUcE4LxjkltEwo5fbMFF6iaUUQn+b0hIp6iyVxtDIFNgI8HzNophUd0ullgeF8WnEpsTVfirMGE7W9hVpiyUKgElosR9x/JfdGh7Eta5Xyq0S2DhRh+JCs8OIoWrwFTw69bx/MOPdg1Pee7Lgg4M5D44XHJeeuSYJekrKGABL48aK7qoE5FLkUqRQgnsplkmIIuHE1Kj3Nchx3uN9BLO6fN+lMaxBizQfRD4pfK4tNqQFFlN6gZSGR31ka0wQxGfWM+oXbE+G7Ix73Nge88reBi9vjXhpd8zlzSEb/YJBL6Nvzdlxb65szX6mLTrRcGeddXaedSDnBbBVkFMzByq1hmK9eZz3nJaeR7OK9w/m/OruIb+685Df3j3izqNDDuaO07KirELUkHqt2ZAgxmxcJMuTfgAVKgImZZZ1AWhEwGFVsCajyAp6RcG4l7HRE7aGht1xj71hwc6wx+7miO3RgHGRMcozxkXGoJ8xKAyFDQU6bXSzmCgkBQLASrOtxogbAubzMSOwj6n/U1S40VpG2hyjPWSt8O1l51SzT9KrpP3DeCVWwjf7iIl6FA2ZjyMbZlJbAseDqFCJZ+aV41LZP3F8vL/gvf05vz045YOjUx6eVBwvlDLW0fJeoQrXRH3UzpCyCDeAxle+BjDqfdhWfe1uajq0yhsuM1Y1qI5sVh2FVI9Zm8GKWiQJ1yWVY4Bw/VBDZiy9vGA0yNgZ5VydFNzcHXH70oRXLo25tDFib9BjM88ZFYYsC1fDo1gTC2UusTO60urG5XVuzbLOOuvsa28dyHkBbDmXDsGFRMx9G6n/2lEiKZNL5BDiKrpSYe48R7OKR8dTPtif8quPH/PO/UPef3TM3YNTDk7mTGcVXi2YyIykWkYupvO3GYqNwKGK3E+cVFJ4sUZ9h7iYQM2CsRgxGBQrnl5u6NvwM+zljHs5Gz3LZj9jc5izOe6zPeix1bMMipxhkYWfXs4wz+jlhtwKxjqMEayAlVAIVQWwBmMsBhMKKfrI2UTXRl1zXBt2Io1x492IcKj9DWiTG8mFpjayQLoy4YerFC5QYHi8EjUtMROMelwZ3DilEU5FWCw805OSJ0eLwO7sH/PLh3M+PFpw4ioqNJQ6qDy4wMa46IoKZTkavYxGEBRcdWfVRit32poNGn1LYsAksiR1ZubkFov9DPeCDWxN1JFZC/1ezmBgmQxyLo3HXN0ccWN7yEt7G9za2WBvWDAZZGz0Db0sx2JjpuF0EXx0jdkVJkeXX+s8Qh3I6ayzzi62DuS8ANYGOQpoZARCgj9Is1cCOk6C/NNq7SwJ+8Y8Ns4rJ2XJ49MFHx9Mee/BIe/ee8K79w95/+ExD08WnC5K5lWF+siWaBRspqyyrZV0EhIH3UpaSUcXWmQ60lshLDi6NUIRJ0SDi6owUGRCL4NeYRjmOaMsY9DLAxDqZ2z0Mzb6BaNexrCwbORKL7f0s4y+zSgyIc8tRT+wRz2BXEO0l7R0K8HTFcOWW1FaTWK91MfICaSSBKmv0UXnvFL5KNs2xFINinNK5R2qglNlXjrKRUXloXTKdF6ycCVlVVGWJQuXc+Rh31XMXImfl5SzioOZ8mDquHe84PHpnJNyQaXBrSdOI5umdeZrbfXlrMVrFmb+NTdaU06CtF1rTCKablxX6ggFMGOYdxTLBxLHkuU5/dwwKgw7o5wr22Oubg+5sd3n1vaEG5sjdocZW8MeG/0eGbbOCg0Etires76+x2UJ4izn+mkBz9jEDuR01llnF1kHcl4AO+OuauafyDLElToJ6DSumFby3lqVkrQtAFUFp7OSJydzPj6e8u6jY969v8+7Dw65e3DK/lHJ0dSxcBrDhqtwhug+Cm4q6vPVtMcKeGhHLWlkfQJYAFUTc5WkHDCh3paoYjBYG8LYMxOKLOYG8iyjsJZhbigyS8/GSC4jFBnkhaXILT2r9DNDP88pjEXUY1QprKVX5ORZtuT0aNxQjd4mzesiEliYuIF6R1lVzBeLwKQYg9qMUmFWVkwXFaUPzNrCeebzEu+FysGirKico/KeqqpYeGVWOU69w/nognLgvKFUwamj0rC9RkeX+HAjqIn3hMZxraOWVr+6LXBQz/krzrhVjCTaOlbMcROjxpIfy4hirZBnhn4emLntUZ+rm0Nu7Y65uR2yDe+O++yMekwGORtFxjCzWBNKQNRVxJHIEyoet4SpUl4jEct51oCcBqx2mpzOOuvsPOtAzgtkq5eingBqGqIVedQKFY7KnZry92nCQOqJ0Tll4T1P5gseHp9w7/CUe0dz3ntwzO8envDxwYxHR1OenMyYV4rzFa4sG5eMMY2qtOXfqd0GqQI3AD7UtkJBLE1+5yiATqxPqhhBI7pFg65EJLA/Rmzr95b+xYAxSmaEzGZk1oag+agnyawhtxZjVzQ659kqoCNEA7mU5Te2UI3BKZTOs3BVSOAIeCe4mP9IFbxrRRV5RXGhHMISkxKuT8hILTQlzds3gFAHEq3qjVrME/VEr+mT1kFanVRZei8J3SVFUVmPtTlZVpBlOYPcMOlZdscFOzGH0pXtDa5Nhlwe99gb9dgaFYx6OZkx5NaQGUNKsRiYSYnjGxm+Nuxsuf8EQetiphdfL9/aJwHUzjrrrLNV60DOi2bavDRJ6uKDPGkwSGxPoxgNL7EuT4rKEduwKqox74vG9PvKvPLcPZpx58kp7z854f1HR3z46JR7T6bcPTji4fGUxcJReYPXJjNwYmLCxGrjvBnaGkTDLhQhFSGs3lMccAhRFiVoebTRzShau4K0dmOkpHWmNWUnFqv9VwQnPrUJ6qGp+S1p/awbd1128TQIM1Yab413ZLDaaVh8ndSwBSHqkHVD7e6DgO7E1dmj08ROrYVxDZCMYyUqdYxROGY743FsbEK9QKrPlUBMW8eSmiZE8EjQf2VWGA8M25MBextD9kY99kYFVzeHXNsasz0suDQuuLQxYjIoKKwEPVTUSaXUBw3okJSdCUFjbTVC+Hc8Z0oQCCGKz2uqw758OZYuVfpmtFjMDuR01lln66wDOS+a6dJLwjAtkMMSkxJs+QGfoo2IAtwWNIj7U+s7Kq8snDKtKg5nC56czHl4cMydgynvH8259+SYj/ZPuXc443BaMls4qpgN1ye3hkZAVut6arFHChILk5BpgYRGWbHsDktsg6SeOJpkiUuKEurepXFp6Uwaoey6sWqBnZarphlolk8UeQOJzJgkQNMCXCHqKgEM6vD18HFqf+IdFNQFZisyZcFFE0FeStIYNw0MU/qjBWbaGpv0fi0G1obti8cShMwYbGbo5YZBkbE96nFpPGRvPGB70OPSqGB3o8flSZ+doWXSyxj1CwZFL7gVRYIg3DScUmx181t9GZZZG0kXuwZjph7ydPkSM1nfDmusBv+tS9uBnM4662yddSDnRbOVq9FKFLvsulqyZqMLL6Yu/7GkBSK4Z7xXFouSk8rxZOF5eHjKh/vH3Hlyyr2jGQ8Opzw+PuVouuBo7jiZliyi4Napw2ssDarSqrrtYxPDRB7wV8yy7NOMWNMmYToU4iQeGY80AxKBE000lSaQlSa6eLwEgJZomfZr3f32bJk2WXHz+HTMFGkUxxBi2pgY4p76oo3DKDBAJiYmTJM8cZtmH229lyKa6msVgVgNHmIeHVQxxiAmACWRWipMnhl6RRB29/OcYc+wMcjYHPbZHhbsDAv2xj2uTEKuo81+n808o18YennQPpkIjkRsg97awKq+os3YNmBvhRmjfae2h7cDKJ111tnnYx3I+ZrZarh6+/f2pJSy7eKUyjmmleNwWnHvaMad/RPuH0/5+HDKvf0jHh1NOZhVHM5LDqclJ1NHWSpOfQhVp+3qCSjCJOahBidNKLRElkA1ZC42NcMTwUpdINQ3LFFz6ERUNcSOtt1VS6NR/7acT1iXPgMbs0D7KKIN2/jIxkgslYFqk+NHl49RJy8MA93GdA27pX6J1WpV+6jbJAnwRJeZMYYsz+kVBaPcMIxRacPCstHP2d3oszsesTUasDXK2BkXXN0YsTfssVlk9EwAQ5IFENPwXNHNp6B1DF/DsFxUAT3VSevYlc466+zLtg7kfM3sWUFOmnxVPV59zPkCrhLmpWdaeY7nU46mJQeziv1Zxf2TU+4fnvDg8JSj04rjueOX4TnqAAAGJUlEQVRk7jidlUznC2aLioVzVE7xagNzRNXyKDXakhB9Hp0gNUPT5IKp2ZQoUib9HUFPHWpdI54Vi24oSO6nto8qtaUVw1OTRBLFJ7p8DpH61/oErUk/NF9qrCCxP+22JQ1ukOcI1oYSCNZYMiv0MksvT7mEDKPchIzSgx4bwx7bw8DSbPV7bPZyNgrLuJ8x7IdItCwPUWr9PKNoC7kTZgQQX/chMVChD7LUtqc9NjqQ01lnnb0I1oGcr5nVCQe9f4ZJKMVDgReJgtBUm8jjNAhunYO5U07KBceLOUfzkuNZyZOTkidHJY+OZjw+mXEwm3E0X3C8cJwulOm8Yl7NKCtH6RTnwXmoXIgG874uB0kNOqK6tWZ7UqVtE4FO625e1vqkY6T3GqYl1bZa675Cl/IW1UxSLSJJXpxlHigAmhQtFRLmGQFrLcYETYs1grURxIhgU/h8bujnlkFMlNgvMvpZ0MdMBn22xn22Bj22hwXjwjLMQlh3rzD0i4xellEYSyZgTXI5BeF5ACkh4i2JpYOsO1QZr8FjrR9qA7VQZ6tOILmUw0bO/N2BnM466+zLtg7kfM1sFeS0WRxZYh6CHia4Kmw9r4cYnwrwOM0Ai1ETRdGuZlKcU5zzLCrltFROKs9JVXFULjiczTk4Drl7DqZzjmcLTmYVx6XjaLbgeFqGZHplxcIpVarH5JWq8lSxNIUiIdTd+9oF5GINJxETPToRbDQj0LzGSt+iwuqXoC0TSuHwgV2xTWSYxJIUKcoIDcJeCcVNjUShr7VYcVEjk9PLMwZ5YFSGvYJ+UUQXkzDohWSIm4OczUHGuJ8zLCwDaxmawOSEyu+GXm6xBkSbGKbEKNXgsPGuEUpuagQ5bTFz3CAJlltOq8Z11xTmFFkGOUsM4Jr7qbPOOuvsy7IO5HzNbNVdtToptcOSk0i2ltIshSynl5C0JoQQu+D+wEQXUCq2GaCRU8Vp0PgsSs+8DHW1FpVnXnnmHqal53hWMpuXLKqKmauYx8R788pxWjqmZcWiUkqvzBaeRZnqjiuLeUm5WNTRVrW7Kdl5866e91mY5I1Almf0ixxrJAAfUYoip98ryAmlJ3qFpZ9n9GyIQurnGb1eQQ4UWfwss/Ss0MsDQxOSHUKeKXlmKbKMXmZiDiDBSAyrFhtcTFE7E35vrkXAKprwSiSaNGZMDrogQwqxb5is5IpSjRrqUHJ8qf/N0CR9ztOtAzmdddbZl20dyPma2lK17WjLK3KaxbsE1qMBDAHASB2PLpHpcQ0TkBLX1VmOgSS+Tbl+NBSTTPlVVAXvQ/I87zUwNxqYnFlZsfCeuQuZg0uvIbNwFbIEew11o0IZhaZSuKi0XEnSej0H1cgykKujmkTIs4x+loWMvT70Nc8ziqLAim0imnJLLsEdlWeGIsvIJLI8sQCpiYxXlPMEhkVi3ahalN2ogpL7qC7bUH+SQEjkclRb7jRaW1CHdofzNCCH4H0EJLA0IuF6twBU/HRpHJeZvzVD2YGczjrr7Eu27MtuQGdfnl00CXkBb2MqP5WEc2q3kBIKiSbWRiKrExgdwUtKA6hR2aNLkCJU7AYjoeJ0PXGnqCRt9gqRSW3QESxtW0cfSeCRgiZmqTfprHHHFZCzNAxnz5PcQDUB0j5am01Jm6YBqkFASmacsuT4pVDzcD5Tn6Npkl9hz2zsmzZD1nK/aWwPK6AuZBoOFds9YDFxTNP+Cjbk+anF0UsDs1wus7POOuvs98U6Jqez2pZuBWl0KiGX3PJtoumDJL5tv1/rQdrAptn2rDVAoZ532/usbr1GR5y21ZaYRlY3OufczYuev1kLkLSP3qI5mtMsHaD5oMGUun7bFuiUVdfgiuvtrIqo0UKvnj0dqrkmiWlr9zeMX92rdSTX/9/eHeMACAIBEBTj/99sYamJHeo6U1NAtzlIWM6Pi48zmOQA7yRyAICk9X4JAMD3iBwAIEnkAABJIgcASBI5AECSyAEAkkQOAJAkcgCAJJEDACSJHAAgSeQAAEkiBwBI2p7eAAD8ydW/2GOMB3bSZ5IDACSJHAAgyXUVAEzkamoekxwAIEnkAABJIgcASBI5AECSyAEAknaIwVY8tRGe/wAAAABJRU5ErkJggg==;" vertex="1" parent="1">
          <mxGeometry x="70" y="450" width="164.55" height="125" as="geometry" />
        </mxCell>
        <mxCell id="bKqDK71Te4AQbXzB7GY1-45" value="&lt;b&gt;Web API&lt;/b&gt;&lt;br&gt;&lt;br&gt;REST API .NET (C#)&lt;br&gt;&lt;i&gt;(deployed to Azure using Docker)&lt;/i&gt;" style="text;html=1;align=center;verticalAlign=middle;resizable=0;points=[];autosize=1;strokeColor=none;fillColor=none;fontSize=12;fontColor=none;" vertex="1" parent="1">
          <mxGeometry x="44.55" y="575" width="190" height="60" as="geometry" />
        </mxCell>
        <mxCell id="bKqDK71Te4AQbXzB7GY1-47" value="&lt;div&gt;&lt;span&gt;Asynchronous communication&lt;/span&gt;&lt;/div&gt;&lt;div&gt;&lt;span&gt;&amp;nbsp;using Azure Storage Queue&lt;/span&gt;&lt;/div&gt;" style="text;html=1;align=center;verticalAlign=middle;resizable=0;points=[];autosize=1;strokeColor=none;fillColor=none;fontSize=12;fontColor=none;" vertex="1" parent="1">
          <mxGeometry x="359" y="550" width="180" height="30" as="geometry" />
        </mxCell>
        <mxCell id="bKqDK71Te4AQbXzB7GY1-53" style="edgeStyle=orthogonalEdgeStyle;rounded=0;orthogonalLoop=1;jettySize=auto;html=1;entryX=0;entryY=0.5;entryDx=0;entryDy=0;fontSize=12;fontColor=none;" edge="1" parent="1" source="bKqDK71Te4AQbXzB7GY1-49" target="bKqDK71Te4AQbXzB7GY1-52">
          <mxGeometry relative="1" as="geometry" />
        </mxCell>
        <mxCell id="bKqDK71Te4AQbXzB7GY1-49" value="" style="shape=image;verticalLabelPosition=bottom;labelBackgroundColor=#ffffff;verticalAlign=top;aspect=fixed;imageAspect=0;image=data:image/png,iVBORw0KGgoAAAANSUhEUgAAAJEAAACDCAYAAACNxvmzAAAeLElEQVR4nO2daZQc1ZmmnxsRuUZm1r5IpX2pUmlHSEiAQDYYYSwExm0sY2gP3pfuds+MZ2mP50yfaWbG7WWOp4du+9jT2D4GA8aAwWIxWALEZrTvUqm0VqmqpFKVqiqXyMzIyIg7P7JU2qVacgPyOUf8QKmMmxFvfPdb7v2ukFJKSpQYA0qhB1Di/U9JRCXGTElEJcZMSUQlxkxJRCXGTElEJcaMVugBXIq+hMOGNpP2AQuBKPRwCooQMK3SxR0zPCiiOO9F0YkoaTls7Uzy0Gt9nI6lCj2cgiME1AbcNFbUMr3KVZRCKjoRdUZtHtsZY2dnDMcp5UEBOgZS/HSTl/95WyVeTVBsOioqnyhiOrzbnuSV1hiO44Cg9AewHcmTOyNsP5EiXYQvVtGIyJGSI30WT+6K0h1NUXSvW6EYFNOJiMlPNkaImg7FVqkqGhH1JRxeO5LgnWMGUFw3qSgQ8MK+CBuOJjDt4ro/RSGitC3Z253i6T0xwsl0oYdTtISTFj/dFOZkNI1dRNNaUYjoZCzNy60G2zrihR5KcSPgzcMx/ngwQdwqiWiIpOWwudNkbYuBmbYLPZyix0w7/GJrlKP9FukimdYKKiIpoW0gzYstBgd6kkPRSIkroMC2DoNn98YIm3ZRONkFFZFhObzdnuTVQwa2XbJCw8V2HB7bEWVfj0WqCG5bwUTkSMmBnhRrW2IcHyiF9CNCwOHeJE/sjtNjFN4aFUxE4aTD+iMJ3jqaoBTSjwIh+d2uMFu7TBLpD6GIbEeyrcvkxQMGffFSfWy09EZNfr0jRvtAGqeA1qggIuo1bF45mGDz8UQhLv/BQcAfD0R4py1JzPwQiciyJW+2mbxy0CBhlRKLYyVupvn1ToPW01bBEpB5F1FHxOKl1hh7u0tWKCsIeOdolD8dinM6URgnO68ismzJKweTvH7YwLadfF76A41tp3l0R5Q93SkKkX/Mm4iklOw7leLlVoO2fquUWMwmQrC/O87a/XE6I+m8W6O8iShlS55vifPOsTjIkhXKPpIndkXY3GFi5dkc5U1EGzst1h8yOG2UQvpc0R0xeXa/wcH+/Kax8yKiqGnz9J4oWzsHnenSVJYzXtgf5c2jBkYe6yF5EdGrh03ePBLDMEu+UE4REE1YPLPHYNdJK2+XzbmITkTTPLMnSktPaRrLF++2xVl3OE5vPD/WKOciem5/go3tBqaVLhVZ84GARMri93tjbDqezEukllMRtfSkWLs/xvGB/JnWEhn2dSf448E47eHcVwVyJiLLdnhyd4xtXXEsxylZoXwiBKbt8NKBGG8eTeQ85M+ZiDZ3WbzaatAbK1mhQtHWb/JSq8GB3tw+g5yIKGbaPLY9wv6eJHYRLN/8sJJ2JBuOxFl3yCCeyl2CNycieu2oyYYjMcKJUpW+0HRHU7zcGmf7idxFx1kX0alYmt/siNLWb1EyQoXHkbClM8FLrQan47l5qbMuorUHErzXbmBYdimxWAwI6ItbrDto8Od2Mychf1ZFdKTP4okze+lLZqh4kLDvVJIXDxh0RrOfgMyaiNKO5IldMXZ2xTN7xUshffEgIJay2XA0zvrDiax3FsmaiHZ3p3hmb4yBkjNdtBzpM3mhJcah09kN+bMiooTl8MttUQ71Jouyf06JDKblsOl4nBcPxEla2Qv5syKid4+brN0XJWZexgrJ0p+8/7kUAjrDFi8fiLHnVPas0Zjb7Q0kbH6+KcLJSCrjS5/jCgXcKjUBjTKPglZykfJGzJJ0RS0iyYudaNuR7O5O8sy+OI1VGiGvOubrjVlErx5KsP5QlKTtDAlIFYKmGi83TvGzaLyH+qCGWy2pKF/0JRzWHzJ4tTVGV/SCJKOAnliada1Rbp3q4dbpPsQYg6AxieiUYfOTjZFMZvocK9Rc6+PfLa/grlk6VX61FKgVgKUTPAQ8Kk/uGKA3fv7UJaWktdfkyd0GC8d5qNbHZo1G5RNJKbEdyW/3xNl8PEZayiEBBTwuvra0nE8261TrJQEViplVLr50bYjbGoP4Xer5fpKAiJnm7WMG6w4nxrzpcVSWSALtYZuH3+0nYdnn/cW8ei+3TvNR4VOQwOm4TY/hkCxw04EPC1V+lVpdwasJ5te7uH9BkKN9KTYdNy7ar9/Wb/KbnVGWT/Ywocw16muOWERSSsy05OdbohzpiZ/vTIuMGS3zKgghSFgOz+6L8/TeOD1G/vdDffgQLJ+i89XFOnNqNFRFcPMUD2vmB2kPW3SFzfM+nbQctnfG+f3+OF9fEsI1Sr91xCKyJezvSfHzjQPYyPPrY1JQ4xe4B6fYrojFkzsjvH44Sql9TH442BOn1udQd12IWl0l6FH5RJPOvlMWj25Lkzy3pingZMziiZ1RVs7w0VTtHtU1R+QTSSmJmg4/fi9GXyx5SV1o6tmKRzItsdJ2qY6WR+Jmmid3xXi77ewmxpmVGp+crTOn3nvR521bcuBUgl9si2KO0uUYkYgsGzYeN3lqe3/mX2bDaS50Um44SbpiHu+F4xbQcirOs/sMWvsyfYuEENww0cO9cwIEvdpFn+9LpHl+b4ydJ81Rve/Dns6klPQnbX7wdphU2spKgVUV4NYEahGFcLYEy3FI21zyJfFoAk0pnrOPHClJ2pJzAyyJZO2+CPPrNCaFygh5Vcp9KrfNDPBeR4rn9/af/75I6Bgwefi9KP96twePa2S/blgiklIStyQvH0yy4XA0axX6xhofdzcHmFGhoBa4GbIEUjYcj0jWH0myqS3ChdUlBcGahdUsGaeguwq/UMGW0BETPL5tgMN9yfM6gkSTFs/ti7FgnJeVM3woQjC3VuMv5ui8dzzByUjy7IcFGJbN64ejrD+qc8fMkSUghyci4GQ0zfc29OM42dk/5nVprJoV5L/dUoHPVfB22kNIKXmgx+K+pxx2dMaGrJEAmmp8/OyuSjyaGHOWN5v4XQo/fruHE2HrPKd5c0eSF1sM5te7GRfQcGsKN0zy8KnZOj/dmEI6znnW9lQsxQ/eHuDmKR4C7uEnIIf19MJJyRN7ErR2x7L2+qkCvBpoxaOfIbwuhergxZFKedBTVOI5Q8AlLlmbtO00L7TEeOVgYmj6mlLh4u7ZARprLnayrbRkd6fBk7tH1oDsqpYobUsOnTb5l/f6R/TFV0PAeQ6e7UgiSYdTRholT89JStDdCvXBTE4FuKJIhMj4Qmc+40jJ8YE0qTw27FIQTKpwnZfTkeKcc60uoG0gxYstBovHe5hX70YAC+vdPLAgwH9/zSR9Qf/wcDLNP73bz11NXmoDw3OZr/qpnrjNv24z6B5I5HzNdHfc4eHNSZ7eHcFK53Zxm6YqLJus8+0byqgPjv579vbBQ+v7OXQ6mfOeiVV+D9+/o4qGchhWflkIpHR440iMhePczKgqx+dSqNZVbp2u8/LBOO8ejZ03BdoOHOuN88+bYvzDLeXDGtcVRZSwHLZ2JfndrkjOU4WKgGkVGt++XqfOB//7zR4iyRw0SZdQ7nezek6Qby0L0VStjdryCeAjkzSqPlHB3782wJuHwpkyUNZfNsHiSeX86PZyFo134RlhvbQvbvGnQwY3TPZzyzQvihDMrnXxwIIg2ztNEtb5BVrDcvjVln7um+ujudZz1e+/okfSFbX5f1sM+o3cn7shhMCtCiaXqXx9SYB/ubue5vpQlhPdgmlVXv7jzZX8/UfLmV3jGjwOc3Q/TgiB3yW4Zpybh1dV8sUlVdQE3Fkds1tV+ezCSh77dBXLJnoIuEc+XilhW2eC5/dF6BvcNhT0KNw42cetM/WL8kZSSrojSX7wdgQp5VV/zmVFFE7avH4kMViyyB+qIqjWFe5q9vPPq6tZ2VSOEGP3vl2KyoppIf7Xx2v46uIgE0Lq+X7FGLLqblUwrULjuyvK+LuPVNFY4x/bgb+DCcRq3ct3b6nhRx+vYEalhls9649JOYJCwOBC/TeOJlh/JFM/U4RgWqWL++cHKPdfHESkHFi7L8KGY8mrnsV7yadz5ijNX2yLEk1mJ7F4NRwpOR1Pc7A3hQCC7kyW9Qe3V/GNZVX43e7RlU8kBD0an11Qxv+4rYJPzPRT5VeHHnIqLdlxMsUz+5NX+aKL2XEyRWJwrbKqCOqDKv/mmiDfu72KG6cEcavqyK2SzHzXrHEB/mlVFd+4LkRDSENVMgIy05Jf74zTFR1hF30JrT1JXmg526XF7xIsbvByZ3PwAmuUuTf98RTf2zBA3LrykaGXFFGP4fDiwQQ7OozhDzILtPRY/MPrYf50OIEjwesSzKlz8e0by3jotirqy/XhlycGmVLp498vr+Y7KypY3OAh6FGG3ub+hM2z+w3+8yt9bDgy8t/6yFaD778VoW0g04hcCEGVX2XlDD//eHsVaxZUUKm7hj9eCT6Xwm2N5fx0dQ2rm3VqdJUzB8GejNn81/UD/PCNXvpHuptVQDLt8G6bwcsH4zhSoghBQ0hlzVyd2uDFvo8DvHU0yvMtCawrbFe7yLG2bIe93SaPb4/kyEm8PFHTZsPhCId7E7QvqeC++Tq6W2FKhcZfLgwysdzNP75xmm0dsfNWUl4KVVFZOsnPlxeXsXKGj7qAiqacCc3haH+ax3cZPLljgM6oxbjgyEO04+EUf9hr0Npr8W9vCDG/3oVXUwh4FBaP9/Cdm1UmhFQe3xGmbeDqlq5ad3HvgnK+ujjI7Fr30JJiKSWbOy1++FY/bxyOkrCcUe+qaQ9bvNQaZ8XUTNU+s+7IzT1zgvxsowUX5OkTKZv/804/KyZ7aAhpKJeIQi4S0YmYwwutCQ715D6kvwgJRspmS6dFf9KhbcDim9eFGBfSqPYrrGr0UqtX8/Cf3azdGyblXOL1kBLd6+bOpgBfuDbEdRM8lHvPWp+kJdnYYfKLrRHWH4rSFbHwjjJjLqXkVMxi7b5+uiIm31xWwW0zfFR4FdyaoLFa4+vXhZhYrvGLLWG2dxqZNMB5y2ckiiKYWuXn60vLuWe2ztTyzHQrpSSRljy7P8nP3utja0ecRDqNX9NG/WhSaYetnQnWthhMv15DUxXqAiqfmavz0oEYxy8Uu4BdXQbPtiT5yiIdv3sYInJk5ohIy6Fge+ktW9Lam+CRzTYno2m+sbSMReM9+DRYPslLhU9lWoWLR7b0Z04pkjIzj0uYWO7lgUXl3DtHp6nGhf8cgZwybF5qTfDotghbOmKZ3RBZ+I0xM83bx2L0J2yO9pexZl6ASWUqqiKYVK5x71yd8UGVR7ZqvHbYwEgOlick+Fwa104M8I3rQnxshp9aPTNe25GcjNn8fHOMp3YN0NqTxDljfsc45u5IilcPxlk5w8/8eg9uVTCnzs2988v48ZsmF8ZjliMwLeeys/JFIqrxK3xkqpcX9nto7y/QkZoiI+YT0RS/3RXmlGHztevKuW2GF5cimF/n5m+uL2N8SOVnm8McOhXHlrB4UoAHF4W4s8nP+NDZ6ct2JC29aZ7aHePZPREO9Cax0k72fpsQ2I5k14k44YRNR9jmwUVB5ta68GiCar/Kx6b7qNFVGkIuntsb4WTEpFJ3sbIxxJeuDbFsopuAOyMgM+2wrcvk55tjvHwgnOltkAXxnMFyJLtPJnluv8GsahduTaHCp/IXs/08s9tLW/9g2WNQNTNqfayc4cFzmX1fF4nI71K4rsHLXc0BfvKeWdBztACiZppXDkToiaXpCJdz3zw/AY/CxDKVBxcFGBfU+NU2N+VewZr5QVZM8VLuPZtLiVsO77SbPLY9yrpDUU5EUpl7k6OXo63f5Ikd/XRF0jy4KMhNU7yUexV0t8KSBg+VPpWGkMbbbQnm1Lp5YGFGbC41M32FTYc/tib41dYIbx4zSKRyEx33GBavH47z6Tl+ZtdmXs6pFRrXT/bRdjoxFHJpmsaXrg3RVO3mcqtnLxKREFAfVPnUHJ03jsXZ02UUfM2DmXbY2B6jx0jTFS3nS9cGaQiplHtVPtnsp6HMRZlXMKNCw3fOWpgTUZsXW+M8viPCluNxomY695ZVwGnD4sWWMN1Ri45IGXc2+YbyUo3VGl+8Nsgt0/3U6Zn8khCCtCPpCKf57R6DJ3eG2X3CxJZ2zu69ArhUgWvQWksya+cHEs7QVCsEXNvg5755+hVXLlyy7OHRFObUufnsvCAPnTIxC33Ir8jkkQ6dTvB/33XojqT48nUVLKjPTBfLJ52fLLMdyZ5TFk/vifH07giHTiczx3/n610QYKZt/twe43TC5ng4yJp5Os01mYhrfFBlfPBs7SJuOezuTvHotijP7YvSGTGv8OXZYVzIxR1NOpPLM1W4eEryTnuS99rjQ/dJd2t8Y2mIhjLtisnTy9bOKn0qq5p0Xj2U5M3D4cI3rDonAfbI5n66DcmXlpTxkSke/K6zb0nMdHi73eSx7WFePRijxxisCxVg/I6UtJyK80jcoiNs8flrQiyd4CY4WPySUtKfcNhwLMmj2yO8ejCGkQdr6XMpLJmos3qWjltTsB1JezjNL7dFGRg8TlVTBDdPC3L3LP9lp7EzXFZEmiKYWuHiwUVBdnbFCSeLpwusJSW/39NPZzTNySVl3DHTS6VPpdtwWHc4wS+3htnWEc97nutynIpaPLM7wolIxuFeMdVLpV/lZHQwWtweYVunQdrJorN/BaZWeLhnts60iszjDycdXj0U551jxpD/XhP08NfLQpT7rl7tvWIVP+gRfHSql1tnBnl2dz9Fte1HwKa2KKdiaQ726kwuc9Fy2uIP+w2O9ycvzscUEgHxVJo3jkQ5GU2x44TO5AoXLacsXjgQo61/5CWXUSGhzKdx81Q/Hxus5qdsyYFei8d2REkOOvEeTeGOpiC3TL144dqluKKIFCGoC6h8eXGQ99ridIUTBXeyz0PAsdMJfvSWiVsVmGnnbDRZRMMEQEDacdjTnaClx0RTBJYtsfNkfQAURTC3LrM8ti7oQkpJr5Hmuf0xdnQlAIEiYFKFl68tCeAZZhL2qp/yuTIp/E/NC6EoRbiWVYDtOCQsu+DpiOGSdhySaRtb5k9ASKgNuLi9McgNkzMWJpmW7Dhp8bvdMWw7M/UHPRqfnhticcPV1xGdYViqKPcqPLhQZ1qVr7QR8f2IlLg1wfWTfNzV7Ed3q5mlvWGbp3bHOdqXmU41RTCrzs8XFukjWsoyLBG5VMHMKhdfuDaEWxtzS6MS+UYIplZ6uas5yNzaTDokZkrebkvwh31hGNwOX+XXuH9BgBlVI9tOPez5KeBWuH++zrxx+oguMCIEmQVoQuT/z2jmlUKMU4jBRXrDHO/geqrbZwZZOdOHqmQSm/t7LZ7cbdAfT4HM5AavaQhw37yRP99hmxVFEdQFNP72hhBfey5OwjyTf8nepK67NabX6lSZ+T1o2KMJagMjb60yLuRiZl1g1HvYR4tPU/EMc6+VIuCa8T5WN/sZH9SQEnoNmz8eMHjzyNmQfnzQxRcXB6nWRz7TjOhfeDTBXU1+npgW5OX9fSO+2JUQQrBwnJtf3lOZ810TF6IIKPNe/VZcOKr/sjxE1PST74a5ihBMrhjeBoPqgJvVs3RumJhxlC1HsqnD5PGdEUwrs5rA71a5fkqAVTOHF9JfyIhEJIRA9yh85+Yy3m1LEE4kr7o47HJc2ItAkFk8PnsYuwtySWZhurzkumLbziyHkINNEiaVa2Sh7eWYOTPmC/4nLk3l4406q5p0/G4FKSWH+9L8fn+c1t6MMy2AKZUevro4iH8Eu17PZcR3QFMEyyZ6uXdegF9tNjOt9kaBZUsGkg5GSqJ5iyTik5CW0GfYtPclL/wrTvYliJk25T4VUSSJ17STOWc3mb44uTpvnJ9PzytjVs2gM51yWH84zvP7zvaLqvBp3NEYZPnk0VkhGOVrpCrw3ZvLeak1wYkB46LWw8MhlbbZ0pFg3eEESxpG11wp29hO5nySh9+LcKj34pWd7RGLH74T4QuLdDxF0g13f4/FC/ujQ1uBzhD0uvnM3CArJnsQgwXsjR0mv9kRpt8Y3PGhCJpqfXxxkT60A3g0jEpEihBMqXTxV0tDPLQuQTI9CkdYwMb2GA88ZeJzuyiGkoojwbRsUtblNk06fP+NU/x0k7coLJFAYKTSWOlz6pqDw7p7TojVzQFC3sw0djyc5rm9MTYdTwwt9agPaNwzWx+yVKNlTBP6N68L8NvdUfaciA05l+fObuJqi/GEIJVOk8rxlumRc6VRSyLxkTU8yDcLGnQ+Nz/ArKqMj2PakhcPGDy1J4ojMy+8S1O4ZkKABxYGCtvHusyr8p9uquCv/2AykMi8DQMJmWkQBUwMuZhRF2Brt008VeA1SR8SaoNuvrm0gpsGpzGADUeT/GZHlJ5oasgKTS13sWaeTt0wmzZciTF9gxCCe2brPL4rwLrWAVJph52nbKIpSR2gexT+bnmAFZNUeo10McxYH2yEoLHGw9KJXnR3ZodLS0+KJ3ZF2dJx1nr63SrLJuvc2eQb207dQcYsQ58m+A83BNnVlaAjnOTPbXF2dwcYH1TxuxWmVbqYENJKBwrnCZea6WkghOB0PM3jO6Os3RclNVhgRUJzrYfPLQhSloVzPSALIhKCTGFvdpBHt6QIx5P84K0wVX6VpRM8eDQF7RJ7lUrklpjp8OiOOI9tj9A/6Gogocrv4tbpAW6c5M2KFQIQMksdynedNLn/qW72dRtoimBOfYB75+rcPNlDja5SjKtIPqjETMnz++P8ZkeYI31nFuhlrNMt04N8b2UVixuy1/UtayJKpR1+9E6YH7/VS69hoakKVT6VyoAHn6d0xke+EEDKsjkZSXHasIYElNnY6eFbN1byV0tDWe2TmbWcvVtT+Nz8AK+0Gvy53cayJd2xNN2GXZR9Dj/IZOzCmRWemXvv0hSWTvJzZ5M/641Ws1r4mVim8cXFZRzrM2kPD4aTyNKZHoVGwvRKD6uadKZVjP4gmMuRVUmqiuATM/1cP1lHdymlkL5I8Hs0PjI9wK3TvLhzcARm1t3dal3l89cEmVzuKflBRcLcOi+faPQxPpSbFQdZF5EQcONkL7c1Bqj0aSVrVEgkVPhcrJzpZ9lEz5iKrFciJ4F3mVflvvkBZtX6cjbwEldHUQRLJvi4faafan92EouXvE6uvnhBvZvVzQHqQ8WxzONDh4RxITd3NOnMr3PnNELOmYi8LoVPzta5tsE37PXAJbKHpgiWT/ZxyzRfVo4tvxI5fbozKjXubtaZXF6yRnlFwtQqL6tm6cysyn5IfyE5FZGqCG6f4WP5FJ2gexTteEuMCq9LZeVMnRsm+fJyglPOr9BQ5uKTzTpNNd5SyJ8nmut83NGoM6ksP5sI8uKs3DTFy60zdCr9I+jpXGLkDG5UvKtZZ9F496hPlx4peRFRuU/N/LAGH1qRLHD/ICKEYPEEnZUz/NQHcutMn0vewqZF49x8vFEvhfy5QkKl7uLeuTqza1x5LXrnTURel8LHZ/pZPtmPWy3V1bKNIgQrpurcNMU3rO5mWb12Pi82q8bFqlkBplWNfqNciUsgoT7k4b75AaZX5n9Hbl5FpAjBR6d6uG2GH18p5M8amiK4e06Aaxs8BTmUOe9XbAi5uKNRZ369r/ha4r1PmVLl4zNzdCbmqEp/NQpSj7hhkodVswIEvaWQf0xI0BSVv1wYpLnWXbDItyAiKvOqrJzp56Yp/lICcowsbNC5e+hctMJQsMroNfUu7mrWqQoUtpXM+xYJbpfG15cEmFpx5Y73uaZgInJrCh+d5mf1rEAhh/E+RnLLtAAfnebPeZX+ahT06U2v0Lhzls70ak/JNxohfk+m4/24YGEFBAUWkSLg+gke7p0TQFVL1mjYSFgzP8g14z14c7DwfqQU9MkJIagNqKxsDHDdpEDJGg2TujIfX1kcpEZXimJPX8Fff1URLKx3ce9sP15X4U1zsSNQ+MrizCF2WpGsXy+4iADKPAorpvm5rbFkja6IlDTV+bl/QYAyb3FYISgSESmKoKnaxZp5QWqC7tLRD5dB01z8zbIgE8uG1344XxSFiAD8LsHSCR7unh0EUZrWziPT95gbpwRYPUvH57r8UZqFoGhEJIRgQpmLT88J0FjjLVmjC/C53fztsiB1emETi5eiaEQE4FEF8+vdrJkXQCsdRJNBZv6zenaQm6d6KcbYo6ielBBQ7VdZNUtn3RGTje3Gh97PzqRB3HxrWYgyr1pU09gZstbkKpuEkw4bjiXY3Gl+6NvSCGBiuZfPL/ThUYvLFzpDUYrIkZkz2qMp50Md8p85qMDnUgi4i1NAUKQiKvH+oqgc6xLvT0oiKjFmSiIqMWZKIioxZv4/iJqt8Hky+4cAAAAASUVORK5CYII=;" vertex="1" parent="1">
          <mxGeometry x="409" y="476.35999999999996" width="80" height="72.28" as="geometry" />
        </mxCell>
        <mxCell id="bKqDK71Te4AQbXzB7GY1-52" value="" style="shape=image;verticalLabelPosition=bottom;labelBackgroundColor=#ffffff;verticalAlign=top;aspect=fixed;imageAspect=0;image=data:image/png,iVBORw0KGgoAAAANSUhEUgAAATMAAAERCAYAAAAXPEBjAAAgAElEQVR4nOy9d3Rd133n+9nn3IZ2gYtKAAR7FymJalQXKatakq1m2Y6bMim2XxznTfLSZvwy6ePnSXkveZlMZiWT58Qlco2LbEmWKImqViMl9gaCBNE7bj9l7/fHuaAoipSAc8+tOJ+1sJYWBJ6zcXHu9+79/TWhlFL4+Pj4VDhaqRfg4+Pj4wW+mPn4+FQFvpj5+PhUBb6Y+fj4VAWBUi/Ap0JRCoUEyjx+pECUeg0LQWiAAFFRqy4LfDHzcYkN1jTYqVIv5L1REmSZC+7ZhJohUA/opV5JxeGLmY8rVHIvaurfUJlXS72U8yOANJBVIEu9mHmiRdBW/h+I5ptLvZKKxBczH1eoxMuoxJOQfQsIl3o570YqSErIVMCuTDnHddH5GQjE/COmS3wx81kYSoIyUamXwBoCEQFRW+pVvROlwJQgbdDKXMyUDVoQwssQ3b+MqNtQ6hVVLH4002dBKGWhjBEw9oEdL08hA8jaYJW7kElHzIKtiM7PQd06CJTZ61lB+Dszn4VhJ1Azu0DOlm+YUFaKT5YFvQ4atiKWfwr0mlIvqKLxxcxnYchp1My3wM5Snl4ZkJFv79DKGamg8XJE12cQgbpSr6bi8cXMZ94omUWZw5B5xTkiiTJMH1AKsrK8d2ZKgTIgshrRtAMR21bqFVUFvmfmM3+sGUgfAzkGWKVezbuRCuzcV9kjIXYDouVmRKil1IupCnwx85k3yhxEJV/JZamXIbYCo5y3ZLx9/I10I9pvR8SuLO16qgj/mOkzf7JHIP4joImydP8t5fhlZY0N0kKs+BKi8Vr8/YR3+K+kz7xQ2THInAR7jLKsHayE46U0QdRA0+2Ixm0Qaim/17GC8cXMZ16oTC8qcxgwS72U82NKsMp8VyYERLrQlv0q1CxDaKFSr6iq8I+ZPvMj+5bzJYKlXsk7mfOgLFneSbLKglAnNN+M6Lgdv5Dce3wx83lflDQg+zoYe0FES72cd2MrsCnPbkRKAQqUgOjVaF2/DMJ/2xUC/5jp8/6kD6GMsfIUC3DyyuwyPmLKFNRegmi+BRrWl3o1VYsvZj7vi0q8AmZ/qZdxYUzp7MzKFaEQS25HtN2C0PxdWaHwX1mfC6MUIFGpXWAOgiiz8qW5JNlybb6opOOVtdyNiN2EiHSWekVVjb8z87kgSpmo7GnI7gV7pvzETAFpuzxLl5QNCAguQSz5DNRtKt9k4yrBf3V9LoydQM08XZ4dMlRuV5aV5enlKQv0WkTzhxCxqxHh1lKvqOrxxcznwshZ1OyPwZ4q9UrejZ1rwFjORLoQa34TfCErCr5n5nN+pAHmCGReyHlnZXbELOc6TJmF+q2I7l9CRJaUX25eleLvzHzOi7JmUJlchwwlyqvdT7l2x1DKETK9CdF4NaL1NtBCfslSkfDFzOf8mIOQeAUIUXaGmSnBVGXqlRkQvQKadyBqe0q9mkWFf8z0eRdK2SijF5XcCTSUl5Yp5QhZufllc5n+egzRcS9a6wdKvaJFh78z83k31gxke8E4StltfyTOMbPMlgU22GlE9xcQTdf7/fxLgC9mPu/C6ZBxFEQZdpM1ZBl6ZaaTQ1Z3KaL9dqjp8X2yEuCLmc+7yeyDzP7yGyMHudKlchMzCaE2xPLPQ/16hD8uriT4npnPO1Bm3BEy47jTSLBcULnxcVaZHTGVBYFmiF6D1vmgMzrOpyT4OzOfd6DSJ1DZXpBlligrgYxdPnWYSuVqLyXUX4Lo+CQEouWVwrLI8MXM552k3wRrqLwimOCIWMour10ZKQh1IGI3ItpvLvViFj2+mPm8A5X6IZgngDLyfWQZJsiCs67We6Dtg34L7DLA98x8gFw3WWMAssfBToBWRmJm5QrKywUlnQhm9EZEyy2IujWlXpEPvpj5zCFTqMSrjpCVE3PdMcolSVbZgAStFtHxUUT0Mj96WSb4x0yfXKQwgYrvApUorxypuSNm2ZwyLdACUH8FouM2RO3SUi/IJ4e/M/MBFFjjkPgXkAEgUuoFvY1RRrsycEQ1vAJt/Vcg7HeOLSf8nZkPyppEpQ+BTDvfKKedWTl1x5BZiKxGtH4EUb8WoZVZW6RFjr8z8wFjEOIvUUZnOQcjN9i31MtSCjBAKIhuQSy5F3yfrOzwd2aLHWmB0YdKPgcEKasEs6xdPoN9lQF1mxAtOxCNm0u9Gp/z4IvZIkfZcVT2GBhv4bT7KYPNuspNXCqHnmW5CVWIBkT7xxCt95R4QT4XwhezxU72FGRPlNWGDEVuUEmplQzAdrzE2Aeh6XoId5R6QT4XwBezRY7K7EOl3ywvMZOqvEbIaQLR8wuI6GaEPy6ubCmDM4VPybDTkD0AxjHKpnypnPr7KwsCTYj2DyOilyKC0VKvyOc98D9mFjEq248ych0yRE15pGSUy9QlZYFWB/WXIZZ+AYL+uLhyx9+ZLWJU8jUwTpfPpO2zB/uWGmVAZAui7QFEdGOpV+MzD8rkKfYpBSrxhCNmlElDQUVZlS6Jxs2I7gdLvQyfeeLvzBYhSppgTTjdZOVM+QypNWXpS5eUcqKX7Q9Cx8cQ/mCSisEXszJgOm3SP51iaDZL1pbUBXWWNkbojEZoiBRAaGQGldgN9jhg4iTLlgGWKm2SrJK54+VGRMvtiOhleR/BlVIMxzMMzGSYSBmYtqIhrLO6pZ7WuhCRoN+Z1it8MSshWcvmxGSKN0cSHByNMzCdJm1JGkI6PbFa1rXWsbGtnlXNtUQCGsIrg17OomYeBZkEyuTNNBfBLOkR0+lTJto/hGjahgjFXF/JtCVTaZNDYwkOjCU4MZliPGFg2pJoJMC69gYu7mhgQ1sdSxrKqLC/ghFKlUVm4qIjbdr0TaV4ZM8Aj52aJp61iGhv7wLilk1zOMBNy2J8/JJONrU3ENRE3oKmlA3pfchjdzoRu3KIYIKTV5YpYfmSUs5rEWhAu+xRRP1m17syqRTD8SwvnJzin17v52TSQEcQ1pzXWqGIW5IrO+q5d307t6xto7nW71SbL76YlYifn5riv798kiPTaZRS78pZnfPCTQWdjRH+8a5NtNeHCOp5HnuMSdTMM6jTH3dSD8rFL5sySnvElAaEuxGr/gzRfisi2ORa6BNZi2/sG+JvXjlFGEFAgHbOpXLzz2mtCXLT8hi/c5PfrTZf/GhmCXjy2Bj/umeA4zNvC5kQ4h1fmhDowjkExlMG39jdz0gim//NzWFU6mUQdv7X8gKpnILyUk5dklkItELjzYi2myHQkNeO9YW+SV49NYWuIKA5Qna+v68ApjIWz5+a5r89e4zxpAd/30WML2ZFQimFJSU/OTzKDw6Osm80gWG/LWTnQxOCoAaWrfjpiUlGkgZWPm96JVHmcUg9kRvwWwZ/fpXLKyvp+cCG+g1onR9BhFsRmjsrWSlF2rB5fTjOoYkUEU2giwtbA5oQSKUYS5s8dWKSr+0Z5Mh4Ets/LLmiDJ7m6kcpRcKweeHkFN/ZN8wbQ7OkLElgHh6YJgS2UvTGDYbjWTKm+x2VsuNg9EJ2HxAp/YxHpcDGyfgvxftXKZAmRFYimrcjmq/N+5ITKYO+eIaJrIV+7tnyPGhCoJRiImPxg4Oj/PTIGMcmkkhf0BaML2YFRuaEbN9onL9+oY8D40lMqQjM40E/l7FElnjWdL+YbD9k+somKfXMoJJSCVmukl203OW09smz4aICRuMZUsbCPnA04fhqcdPm3w+O8IMDIwzHs0il8C3t+eOLWYExbckLp6b4o53HOJ3IAgrdpR1jSZWXtaQyh1DpveXTIcNWTgSzNDcHklCzEZq3Q3RTidbxNkENEqbNj4+M8VcvnCBl2GUzwL0S8MWsgGQsmx8dGuVf9wwwmTbRBe/pkb0fzXUh6twmWSobMrshuxdEGXR/mOuOUcqEfykQyz+HaLoS4cGRWwCtdWFqXPyN5gIDuoCsJdk9HOcPdx6lfyaNZZdBrWoF4ItZAZBKkbVs/v3ACD86PMrxyRTgvNgLFTKpFLoQbGyK0BONUBtyaU5nT6PMUyBnnXSMUueXlTLbX1mgNyDaP4FovgERbvPs0i11IZY1hImFAq6CNZoQCOGkd7x8eoZ/fmOA/aMJTF/Q3he/AsBjbKmYyZi83D/N9w6McGI6jQBXHplUCgXEIgE+vLaNnmiEUMDd549K7nYmlpfLEdOSpREzZQEaRFYgej4P4aWetQoXQlAXDrCtq5Hh2QyvDc1iS3UmNWO+aEIgUWQsyU+PjhHK+RIb2+sJ5ZlnWM34YuYhUimmMyavDczwled7SRgSTbgTMqUUSkFDOMDFHfU8dEkXjW7qNJUCbEg+D8ZJymIzLnO7slI0YFROciyN1yNarinILW5c1YwhJSNJg1MzGSe+odSCBS2oKUwJPzg0Ssq0eXjrUlY11y5YHBcLZfBkVw9p02ZX3yR/9MxxZg2JruHa7Dcl1AR0PrCymS/tWENTTfBdWeTzwwZrGpV5EewxyqLdjylL10lWAQ1XIXo+V7BbhHWNW9a08js3rKItEkQq9znBQc2xFX/WO8lXXjjBdNosiya85YgvZh4xnTb41t5h/vXNQaSUhDR3HplSCsNWREM692/q4GOXdFEfCrgOHCg7g0q8CfYMoErvlQFkSiBmSoFMQdN2RNt9iNqlBbuVEIKwrrGxrZ7/cstaNrTUoWtiwR7aXFAgIEBDcWwiye89eYRDo4m88g2rFV/M8sSWipm0yXcPjPD4sXEGZjNoc+UqLsx+qaA+qHPvxg5uX9vKsqYaV9d6+6Jx5MyPnH7/pW71o5TjlRW7O4aSQAa0RkTzzYjm6xF6YaeRCyGoD+lc2hnlM1u7ubIrSm1Qcx0U0IQgY9rsG47z1T0D7BmaJe0L2jvwPbM8MG3JeNJgV98kPz48xmA8g+5SdJyMb0FTJMBNK2Lcs7GdZU01rq8HThNGZY1C8mcgM6UvKpeUaISc09qH5u1O9LKAu7KzEUIQ0gUfWNMKKDQheH1olqwlXfleIlct8EzfJOGAhgIuWdLgOsJdbfivgkssWzKayPLSqWn+n5+fQkrpWnjmzP6mSIBt3Y38+rUrqAvqaPkeCe0EZHrBPObUYooStplRyvnKFHmEnFKADnob2tJfQTRcXMSbv80H1rQRDmikDIs3R5Mo1IKDAuAIWlDA48fGSRo2YV2wuSNKUM+/PVSl4x8zXTKeNHji2Dh/+VIfSsq8Mh7mzP7tK2L89o2rqAvq3mRQmCOoxOsgyiBHaa6nUbGXokynC8aSX4OGzRCoL/IC3ubqZc184ZoVrIyGAZFXdn9AwMunp/nbn5/i9HQa048K+GLmhsGZNN/YN8TX9w+fqZ1zZc6fx+yvC+l5VQm84/pmPySfBqKUfBNeiqlLKgtaCOq2oK14GMKtJQ2ABDTB6pY6/tOONVzaUU8k4M5Dg9zzoRRHJ1P89s6jvD44nV/dbhXgi9kCsGzJ8GyGb+4f5qkTk0wmDdfmfEHM/rNQdhKMU2AcBvTSj5ObKyovJsqG2vWIJQ8hapchtNJ3c60N6mxqb+ATl3RxzdJGmsLuKgXAETTDlhyfSPJPewb5+ekZZjOLV9B8z2yeZC2bwdkMjx+f4CfHxplMGtS4zMaeM/tjkQA3emT2v3vBA6jsUVDTIJq9u64bil2HqRRgQbAbEduBaL2jSDeeH7omuGFlCwLQheDlgRkShu0qKBAQAl2Dl/qnqQloSKXY1t1EY02ZdBAuIr6YzQPDlgzMZHiqd4K/fbWfGg3XQjZn9sciAbYtbeTXr1lBXcgDs//c+6T3QmpP6XuWgbMjs4qkZHOtfZQBTTdCy12Ims7i3HuBXL+yhZCukbVsXhqYPdPyx01QoDGos/PEJAnDJiQE23qaCHsRRKogfDGbB4MzaX5weJR/2D1IY0DkdTY3pXO0vGlFjC/khKwgj1vmeUg/DzQW4uoLw5BgFMugzrX20esRbdsLVrLkFZcvbSIaCZDK9vLmRArLdt8iKhrQ2D00y3ja5Eu64OKuRmoWUdqG75m9D73jCb65b5gfHBmjXheusvrh3Wb/xz02+99xr/RRlDHieEZClDbr3yhBtr8tED2/jWi6znUL7GKha4LlsVq+eP0qrumKUh/S8/LQwppgLJHlT186yYunpphKGR6vuHzxxewCZC2bgyOzfH3/MM+enGI2bRJyOertHWb/Jsfs7/HQ7D8XldoP5rDn13VFMcVMWSDCEN2BaL0dIj3FuW+e1AR11rbW89CWLrYvj9FSGyTh8liuC4GSiv7pNF99a4inT0wwPJvxeMXlSXl/bJWIlGHRN5XiewdG+FnfJPGM5YnZf9OKGPdsKIDZP4dyBpip1Itgni5txr/KGf6WLGJumYJQK6L7P0DdWoReU6wb542uCa5aFiOgCZQQPNU3yUzWIqKJBfteuhDUaPD60CwazjN404oW2uoLW8JVanwxO4eMadM7meKnR0b5xsFRavM1+4FY2DH7v1Ags//M/ZBO1n96F1hDuQlMJUJR3O4YSoLeCA2XovU8RKU+2pctbSKoC6SUfP/YBJaCQK4UaiHMBQVeHZola0uCQrBjdSt1ocC8Bq1UIpX5Fy8gR8cSfPvAMI8cHqMpoHli9t+4IsYXr11BrVeZ/RdCpiHxhiNopUYqSBWxdElmoelGRM9vUumP9aaOKHWhANJW/PDEJJZU1LqMCkQDGgfGk/zdGwMgFTevbaPBTV+8CqCy/+oes/v0NN8+OMKzp6Zp0LW8zH5TQjTkJMR+aGP7GSEraP2cHUdNPwr2ZOHuMR+Ueju3rBj3UmmouQgRuwXReFF5tDnKA10TdDdGePiKHnRdsPPUNFMZi3oXXYaFEEQ0mE6b/N2eQQypuHFlCx3RSAFWXlp8McNpqvjW4AzfOzTKa0OzpA2LSB4emVLQENS5b1MHt6152+wvKNICcwyVetzZpZSy3Y+twCxmBNNGtG5HtN2GKGHtpZeEAzrLY7Xcf1Enmqaxq3+KkaTpStD03OzV0USWRw6NkrIkN61sZkVzGTTq9JBFL2bxjMmhsQTf2j/MS4OzZEw7LyGba+OzfUWMuwtp9p+DshOo7AmwjoAqcYcMWzlRzEKjpBPBbLgC0XIzomFD4e9ZRHRNsKUziiUlCHiqb5LpTH5BgYPjSVBgK8WtmkZPU+UESd6PRS1mKcPm0FiC7+wb5icnpqjVcS1kZ8z+XBufX7tmOfWhQPEysK1RJ+NflbhDhsodLws9rERJnM65IUTnr0LD5aWvPy0QW7ubCGoCpOLfj09gSydq7TYocHAiiSklQsG9Fy0hGglWRVBgUYvZvqEZHtk/zI96J4kFPTL7lxfJ7D8HZZxGJZ6mtIMocY6XxZi6pEzQaiF6K6LlJogsKfw9S8imjiiNkSD1QY1/PTSGacu8ggJ90xn+Zf8ImlLcu6WrKmo5F62YPXVklO8fHuO1kTjRQAWa/Wdjp8Dsg+yblLzdjymLc8QECLejrflNiHQiqnRXNoemCToaIjy4pQuJ4KcnJhlNGu6DAjoksib/fGCEhCW5a0N7xXtoi07MUobNK/2TfPfwKG+NJjDy9MhULrO/qGb/OajsacgcARV3OmSUKppnq+L095cG1KxBdDyEiG4BrbqTQecIBTS6G2u4Z0M7SsDOvilOx7OugwIoxVTa5EfHxkEIblujWNtWuQGURSVmM2mTvcOzPLJvmDdGExiWzDuzvykSYMfK5qKa/eeiModQ6QNOKU8pKUbpkjJBq4HolYglD0EFZfl7gaYJ1rU38EHpeLSP904ynjJcBwVqNeiPZ3m8d9z5niZY1VKZO7RFI2bJrMXe4Vm+8dYgT5+eoU4XeQnZ2Wb//3b1cuoLmNn/XihpQnY/ZA+BKNGn6tyAEqMIU8plBuovQTTdiGhYX9h7lTGblkQJaAId+LdDY9jSGRTjNihwfDrDj46OIaXi45d2EasJVVxQYNGI2Wunp/nG3iF2np6hOU+z3zrL7P+NnNlfMsxxlHEUrNOgNZRuHZKilS6JzvsQnfcV5V7lzJq2ej4eCRALB/i7NwfJWPkFBQYTBo8cHkXakk9f0UOstvSdeRfCohCz7+0d5InjExwaT9HosdlfkxOyUk3GUam3wBiguIMoz0ECaauwI+SUDTKN6PwVRNNNVZMcmw+aELTWhbljQweGVHz/6DiDLj00IQQ1Olim5LETkyRMmwcv7mJ9BXloVS1mScNi57FxHjs2zpHJFBlbEnK5dS5ZZv/7oBJPgnGytH6ZyiXJFjKIKQIQaIOWmyHUjspOFfBmZYAWQISa3vfHgrpGR0OY29e1oTTBz3onOTqZch0UUEoxmTF5rn+aUFDnDkuypTPq5jcoOlUrZpMpg9dPT/Pd/cP0zmTI2u7nWr7L7F/fzrJYacz+OZS0wJqF9BtgjZVOzGQur6zgw7U10CKQ3OtEb2UVT/OuWYlovBLmIWbg7NBWNNdx5xoQQNaWnJ7NuAoKCCHQlGIiY/Fs3yQCCOqCDe0ltDDmSVWK2UzG5NXT03x99wCHptJogryE7Gyz//PbltEQLmJm/wUXlkUl9jmZ/8pwdi6lwMoN9i04NthTqBNfLn2VQ8GQoDdB5ycRjVcs+F8vb67jg+sEIU3wD28OYlvugwJBASMpk6d6J8haNg9fHqSjPkTAZdCsGFSlmP3s6BjfeHOIU/EswTxfe8fs17hhWYz//fqV1LrYvhcEmYTEUyCnKWqpwbkUu6hcK2GPtoKiwE5Cy92I9gehdpmrqyxtrOGu9e3UBjT+4tXTZCzbdVAgIGAiY/FE7yQDs1n+yy3r6CjjBo9VJ2Zf232ax46OM5wymNMdL8z+D29qpyZ3wVKZ/W8vToKcQCW+5vQwo0QPWDGnLs1R6te+ECgbyEDNRkT7nYimra4rGoQQxGpD7FjThtA0vr5/mBNTaddBAR1F1pbsH0/xV8/18umtS7loSXkeOatGzOJZi58cGuGJY+P0zWSwlcrvaHmO2b+0sfRm/xzKjqMyJ8AcAGpK1yHDlMUf7FuVOJ6s6P40oulqRDA/wz2oa7TWhdi+spmMLfnJsXEOjCVdCxpKkbFtXh2cpS40RMa2ubx7fn5eMal4MZNKMZowePHUFN/ZP8xgwsDKU8jmzP6bS5zZf0HMMUi+4ezQSrWsohn/VY6yQa+DhhsRHfcgarwZwqIJQXtDhFtXt6CArK04MZXKKygQN212nZxCAgLBJZ1RV4OLC0VFi5lSiomUwa6+Sf7x1X4mDYuAh2b/58rF7D8bpcA8jUrsyh25SrQ2UzqC5uMeJQENImvQVvw+RJaB5m33is5oDXesaSWia/zNa/2Ypp1XUGDGsHmqd5KptMmvR1bQ01hDSC8PQSsTN9sdplQ8eniMf3qtn4msRVDk99a2pDO85MZlMX73ptVEw4GSeuvnR6LMPkg9Q0k7ZGSKULpU7agMhHoQzfdAy3WgFya40V4f5tY1rXzp2uWIgEYmjw+hgHBSP14dnOUPnzzKSCJbNp9pFSlmzkBdyf945ST/fnCEGcM+E7XMf0DvEj6xtYtIuZj956CypyHbB8LZ7BfdEJ9rviiL0B1jESCaL0P0/AJCaAV71oQQRCMBti1r5veuXs6KWK3ruZxCCHThnGJOzGb4v3YdZ8/QbK5hZGmpuGOmLRWTaYPv7BtmZ+8kQ4kskOfR8myzf215mf3notKHUKm9pfPKHAPGP2Lmg1LOnIbWO6D9AUTN0oLfMqBpNNUEuWF5MylL8ujRcfaNJvIKCli25M2RBN98a5C4YXFtT4xQCVOXKkrMbKkYmM3wdO8E3zswwkzWQuTpkZ1t9t+1vp3lJc7sf0+kAZm9zlep0jGkgmwxB/tWGUo6pn/NGkTbA4imG4rW7lsTgtb6MLeuakEIgaUUR8aT7oMCubSNF/qnkUoREIJtPU0ENFGSE03FiJktFcOJLM+cmOCfXj9NypIENFzvoCrC7D8HZU5C9iBYp0BrLMEC5qaU+7syVygJSBAaou2jiKZrEaHmoi+jvSHCnWtaiYZ0vvLySTJZK6+ggCkVL/XPkDBsmmqCrIrVEglqRX8vVYxnljAsvr1viL9/tZ+kJQlq3pj9N5S12X8O6UMoa7h0R8xiTV2qWkzH6wyvQSz9KNSvKdlKmmqC3LSimS9vX40e1PMOCthKsXs4zm8/dojeyRSmXfznpOzFTErFTNrkb18+yU+OjmNJ5anZ/8mt3WVr9p+LTPwMsqeAEnUCtZTjl/m4QwHhFYi1/xXCnSV93oQQ1IYCbF4S5Y9vXM3a1rq8gwICmEib/NEzx3jh5DRps7jPSlkfMw1LMhzP8s29Q7zUP8102kQT+R0t5bsy+yNlfbQEUMoCawYye5zC8lIUlVu5VAx/Y+YOaUDNWkT7g4jmayBQ+hpTXRM0hANsW9pI3LD4yZEx3hqOE3DRJmuu9MlWcHI6zSP7hkiZNttXNlMfLs7zWrZiZliSvqkUjx8b58dHRjFt6epFnkPmGgfGIsHKMPvPRmZRqYNg9oNKgSjBG8FSxa/DrAaUAizQGxGN1yOWPIAIlcDvvABO2kaQm1e2EBACqWD/SNxVZr8QgkDun+wemkUBmoDtK5uJBAvfVr4sxcy0Jf0zaX52fIKv7hkkmIfRD2eb/UG2dTfy2W3LiJa52f8OZAoVfwZkojSDblWudMk3/t0hMxC9EVpuQ0QvKvVqzktTTZDtK5upC+r8bdpkPJnFlsr1UTigCfYMzRLPWsQiQS7qqKcuFCjoXIGy9MxGE1n+be8QX90zkHcLH3i32d9YCWb/2cg4zP4A7CwlScmwijRCrloRIJZ8ENH2gVKv5D1pCAe4dnmMP//AWhojwbxTCXUBJ6ZS/P5TR9g7HCdVYA+trMTMkpKB6TT/8Go/z/ZNndnquv10qGSzfw5lp5ysf/O4U/5SinWbRRghV40oG2QWsew/I2IfQJSBT/ZeCCEIBzRWxGr5Tzeu4kYg4tEAACAASURBVKKOBqw8FE0IgcCxjP7ypT6ePTHBdNrwbsHnUDZiljZtjo4n+ZtXT/HSwAyzWTPvo6V9ltl/+7pWenJmf6UIGQDmKCRfA5IU3X1XubKlbAZss7j3rnSU5bT5btyOaL8balaAKOEUr3miCUFNUOPSzigf39LJ1T1NeQuaUoqBmQzf3DfMo0fHGU9mPVzx25SFZ5Y2bQ6PJ/jh4TGeOD5BAAgWwOyvGI/sbMyTqPhjQJCSfPao3G0DHtSBerm5m7uWOM/3FnINVYDjs7IAAeHliO5fhvr1Zb8rOxshBHWhANcvjwFg2JI3h2aRynkE3CTX6gL2jiawcY6ft69pJRoOeuqhlVzMDEtybCLJj4+M8bV9QzTnGfWoeLP/LJTMOjMxUztBNJeuy2qtB29E5XFah8LZNZ7dEnruewshW4AjtDIg3AXN29GWPujttYtITVDnhuUxomGdv06bnJjOIJVC4C4wUB/QODiaYDZrEQ3pXN0TozHinaAJpQo57PD96ZtM8vevn+aHR8Zo8sDPMmxFfVDjltUt/NYNq4joleWRnY1KH0dN/DNq7MuglUDMSvtoFIcp03sxs1OIjocQa/4MUbfc22sXmbkONQMzWX79JwcZSmTRhfuTk1KKrFJYQvBXH1jLld1NNNZ408OtZJ6ZaUtOTCT5v1/p54VT0zTommdm/32bOvj01qWEK1jIAFS2D5U9WrryJSGq90vh7Mq8FGylwE5B063Qdh8issS7a5cIIQRBXaMrGuYPd6zmyq4oAqce0+31QkIQVvBfX+zj8ePjTHjkoZVEzLKWTd9Uir97vZ/dQzNkTDvvhNizzf471radyeyvVCFD2ZB9AzJvgChR+VI1IxWkbe+OvnNDSUJLEW13IGLXgF6+k4wWgpaLcm5Z0sAvXNzJ9ctjZwTNzcFOyyXXTiQNvnNwhMePTzCdyj/KWXTPLG3YHJlI8ujRMXaemERXuJ4yDlVm9p+FMschexisfhDlkzFeFdgqN1nK44iEsqHtLkTzjYiaLg+vXXqEEEQCOtcsc4ICli15ZWD2jIfmJihQqwsOjSX5sTZGUBPcsrolr6BAUcUsa9kcm0zy4yOjfHXvELGgnpf5N2f2N+fM/l+9ahmNkco0+89FpQ6gjKFSL6P6ULmyrIyH0QglQQQh3I229DOIho3eXbvMCOka1y6LEQ0HmM32cXQyjWVLVB5Bgf0jCaYzFnVBLa+gQFGPmUOzGb6+b4h/3TdMS1DP++Zzmf3XL4vxu9tX0xSpsMz+9yL1GhinSr2K6kPhfWmWMiHYgVj9F1C71hG2KiagCTZ3NPDnt65neWMYRH4vZ60uGJ7N8HvPHGf34AyJrOXqOkURs7fN/lM8f3KaqIdm//2blvCprd0Vb/afQdlgzqDST4M1SMna/VQrGdsx/r1CZiDUjWi+G9F6AwTqS5dCUySEEAQ0QWtdiD/YsZZrct1l8woKaIIw8Gcv9vGEy6BAwY+ZadMx+/9x9wC7h2bJmHbeHtk72visrYw2PvNFySykDoI56OQrlaJDRjUyV80wV2fqFSIA0csQ3R9DhMpvMG6hEEIQ1GBtSx0f29JJfVBn18kp0pbM5Vcv7P2oCYFQismkwbcOjJC1JXesaaW1bv5BlIKKWcqwODye5IdHRtnZN0nAQ7P/A6uqx+x/BzLlzMS0p0u9kurD8ND0V8rJ9G/Yimi7E9G01ZvrVhBzmf1XdjchcNoH7To5hSklwmUb7lpdcHg8yY81ga4J7ljdSnSeHlrBxMwx+1M8enSMr+8b9tzs/5Urq8fsP4OSYM+g4k+APUsZlc5WNnMlS15l+ysFSNAbEB0fQbR+sCLqLguFrgmu6G6kPqQzkzY5MJ4kbdkolWelgGHRuIBKgYK9W4ZmM3x97xBf2+ut2X/dsiZ+r9rM/jmUAdYIZF7KvWGqI0+p5Cgcr8yz46UNMg2tDyFi2yHc7tF1KxdNwIa2ev741nVc2lFPRNfyDwrMLCwo4LmYWWeZ/S+cmiYa8NLsdzL7Q9Vi9p+DMkZR8VdB5Po+VdnvVzK8TJBVhvN3qdmCWPoxqF9bdc+hG4QQaAIaIwH+4/WruLYnRo2uFTUo4KmYSaWYzlr8f3sGeGs4nndm/5nrAvdsaOf2dVWQ2f8eKHMAlXgOqAEW77HFU2wFpodF7kpBqAOx6rcQDRsrqhtGoXGinBrLmmp4YHMH1y2Pkc/bXxOCADCZNPjhoVFeOj3znu2IPBWzlGFzdCzBsyenSWatvMx+cMRR0wQXtdayY1ULa1rqqssjOwslM2CehMxrQGhRezCeYns4UUpZEFqCiN2G1vFhRCDqzXWrkEs7G7lxRYy1sVpsl2VPMBcU0Dg4luSNwRmGZzMX/FlPxWw8meXlk5NYHs3Mkwp0TeOeta10N4QrY/iIW8wJyPaCdRq/P7VHyFzZkpnn66lypUoEILoN0flpCDT4Hzjvga4JNrXWcf2yJjJS5f1ECwH9U2neGpq54M94KmYTaZNXBmYB5cmFTaXIAJuWRIs2rqpUqMxxVPpQ6TpkVCNZ27uhxTIFkQ2I5jugeZs316xy2urD9DTXMWPJvOcJBAQMxDPsG01c+Gfyu8U7SVuSoaSR60iZ/7syKARNQZ1YbYigXuXv8vQzkHzSLyr3grlUDC/LlgSIJXci2j9QlX5tIYgEdOrD3uxehRDEDZux9IXbt3scAAAjXwk+CyEWhw2uMiOoTD/Yk05Guf9myZ+Mnf/xEnJDSQzo+BSi5VZEuPJ7lBULTROeWkNOs5MiBQCCmqA+qHl2UrIVZKQimbWwPRTJckOlD4E5XOplVAdnhrB4kCCrbOfDpXYjYsknoP4i0Kq7iNxLDFuS9nBwdEgT1AYuvL3x9JhZF9RZEY2wdyKFclHOcC5SKVKWTf90mvb6MOH3+EUqmsxuJ1lWqwVCuW9Kzh8IOM/3lU3RJzctCL14w4sVjk+W74efkoCEYDtiycOIxksRQd8CWAgzaZPReObMlPN8sKSirSZId33ogj/jqZi11AS5oruRF0YThIFInj5XUBMEFTx3YoKVzbU0edQrvNxQxmFAh+D6t78pk8B5Ugpkwpmf+Q5SQHrhNy6G/glA1ANFyseSClJeJMhmQKuHhsvR1nzRi5UtOgZm0hwajhMN6HnlmwHMWJKL6kNsbq+/4M94KmZt9WFuXtPG472TDMSzWFLllTSrAaaU/Khvii3djTTVBGmuvbAyVyrakt93omXv4D12Zurcd2puF+EF6gJlIzILMme+ivPvepTMvHtt5ghq+uuQfq3w7b+9TJCVIGLXIZb7QuaG8USWXf3TPHFqmpDmPkivlMKUsCQS4MrORi5beuHOJJ6KWSig0d0Y4VcuX8r/2jNA35SL3cJZiFxbENuW/PDQGLoQbF/ZUnU7NBFeVuolvM27hHLu+9ZZ/0+d/+lU1rsGhKiZZ3HCOB4lrr4XlnSM/3xQyhHu+iug9R5EdLM3a1skSKWIZyx+eHiUXX1TmJZ9ZkKam2vZCsK64MMbOrh5dQsNkQu/9z1P3ooENLavbmEwkeXxY+P0TafzimhoubYgB8cSBHWBBG5Z1UJ9hc7CLHsu5G2J998Rn++vIdNvgDWKM8S4gNgq/1QMJQELAk2IltsRzTucZos+88KSktmMxRPHxnn82Dj90+m8hAwgGtK5aWUzd65vY23Le+/sPRezucEH92/sQCr47oFhxlOmq4ZtZxPQBK8MzjJt2DRHglzZ3UhNKL+BwT6FQynptJNO7XIitaKmsDe0pJPtnxfS8SMb70S03oJoWOvJ0hYDtlRMpkxeG5jhf+0eYCZjum75Ndfuqykc5IquKJ+9chltdaH3fa8XLMTUVBvi7vVt3L+pgwnTdhygPGcU1gc0+qdSfPm5Xk5OpclaMu9r+hQIZaKyA2CPnydg4eV9lPNl5Fm2NPccKR1t5RcRTZd7s75FgFKKpGHx8/5pvrTzGLMZ09VpTCmnhtOSENE1ruqO8gcfWEv7PIQMCtz9r6U2xM0rW/itK3vIeJRQqwFxw+JLTx/l5/3TpIwieDE+C8eOw/RjIGcKX6KV8aCDrDKdNIw1fwm160GrvkBToZhIGnzvwAj/8/XTeZn94Gyu22oCPHTREj6/bfmCJqcXVMyCukZ3NMJtq1v50OoW6sIB0nkWoQshkFIxMJPhG28N8WzfpOtpLj4FxJ5FxR/PRUALJAwqF7k08kyQlQYEWqDxJsSSeyHUXLy8uApGKsVM2uQHh0b56dExRpNZ1+255sz+tpoA923q4M51bXRFF9buq+DV25GgzvJYLQ9u6mDWsHl9eJaU4T7CAW/3Ht8zPEtQF2hCcOOKGDVB3a+bKwOUnUEZg5B53YlwigI9ZgqnmNyS+Tcaqd+EWPIRRG0ZRZbLGMuWTKVNHj06zk9zZn8+HpkmBM2RAHeubeW2tW2siC08L7EorShCAY1Lupu4J2mQsWxeHYrnJiHnHxR4dWCGlGkTDets7WokHND8oECpMScheRDsIdAaKUgkU+WmLOXTQXaul3+kB9GyA63jNi9XWLVYtmQsafBS/xT/441+jDw2J1IpdCFoqw1xdXeUT25dSsxl6lVR99K3rGvnw+va2BSrORN4ytfAD2iCA2MJ/uTZXgZmM1i2+0ZwPt6grBFUZjdoBfw7KJxs/7yEDLDTiI6PObWXhdpBVhFKKWYyFi+emuJPd50AS7oSsrPN/taaILevaub3dqx1LWRQgvE/161s4ROXdtNTH8L2KFlbAxJZi//zqSO8PjhD1sPiVh8XmL2QfAqIUbDNvymdsiXXSKfqovUj0HwzRDo8W1o1M5E0+PaBYf72tX5PzP7l0RD3bWznwYu78l5b0cWsMRLk8u5GPrW1m1gkAArsPHdSQghspTg5neGrewacYaSmH+UsBcqYhMxJsAZwCswLcOTPN0FWWU5JVngFouujiIbNCD96+Z5IpRhPZPn+wRGePD7BbNp0bfabUhG3FT0NoVxmfytt9flPIivJvrq1LsSO1S0MzGZ47PgE40nDs/D9awOzBDWNgIBrl8cI65ofFCgm2X5UthfIUrDicjPPBFllQ7AF0fVpROxqRLjFu7VVIZYtmUyb/ODwKI8dG+f0TMa1R2ZIhdAEa6IR7l7byo7VrfQ0eZNQXRIx04SgKRLkM1uXMpO12XVyipmM6ckkJyHg5dPTZG2bxkiQTe31flCgiKjsAcgeKFx/fJlngqxyhvdSfxnayi84/+1zQSxbMpo0eP7UFP+0ZxDDsFwLmSWdmt6lDWEeWt/G3Rd10uBhO/ySJdNoQtBYE+RzV/Zw7YoYs7Y8Ywrmw1yS3RuDcf7kmWMMzmYw/aBAUVBKoTLPOUOMRWNhjphuc8rmKgVkFuovRVv66xCI+ab/ezBn9u86Ocnv7DyGNN1FLefe17OWpKchwkc3tPPxy3o8FTIooZjNEasJct+6Nj660Sl78kJyAsKZsDycMPjPTx7hreFZ18NIfRZA6iRkpws7XCpju/fKZBoi6xHNt/tDSebBRNLg2weH+e+vn6YtpOO2PaECJkzJZe11/MLmJdy+vjAT4EsuZgFdY21LHXetbeWB9e1k3qfP93yYm64sleL4VJqv7hngxZNTGB6NwPM5Pyq9B6zBwlxcKkfI8mqFbSPabkV03IUI+jMvL4RUiuHZDN/YN8yjR8ZJpE2CmnuzP2ErLmur476NHVy/oplYgXoSlsUeuy4cYFN7AwFNkDBt9gzHSRt2XkOENSEQKCwFr5yeIaxrBHTBtqVNBFz+YXzeG5XaCVb/vNoFLezCeSbIKulEMJu2I9puQ9Sv83Z9VYRpS8aTBv9+aITHjo8zNJuhJg+zX9ME6xojPLCxnRtWNLOkIeLxit+mLMQMoD4cYHNHlM9uFfz9GwPsGZ7FNGVeQQEhBEHhfDq82D+NaUsawwHWtdYR8qOcnqGUDXYS0i86vcuEx1FMiRO9dHO8VBIQEGhGdH8eGi736y4vgGlLhuNZnj05wVf3DmEYtmshO2P2R8M8tL6dO9a1v2djRS8oq79qKKCxubORL17Rw7buJuIeBgUsqfj5wAx//uxxxpIGVh4j433OwU6jEm+AnfLeL1O5qeRpF3mDSjndMPRaRNsnEc3XIMKtHi+wOlBKMZkyeKZvgi89ewJp5pfZH7cly6KO2f+xrUsLLmRQZmI2x/LmWh6+tItPbF7iaVAA4NRshi89eYSDY4m8B/j45JBJSLwEMu59u5+8ypayoEmoW4VY/UUIF8Z4rgaG4xm+fWCE/7l70BOz/5rOKA9f0sVtBTL7z0dZilkkqLO2pZZ71rXzixd3EdC0M2103SKEQACWrTg0nuKruwf4+enpqp7HWTTkNCr+bZAZPG/3Y0jnyw1KQv3laEt/DVHThfBnXr4Lx+xP88iBER47Nk4y443Z/6H1bVy9LEaspniVFWXjmZ1LTTDAhrY66oM6tlS8cGqKqVwJhVs0IVAoLOV4aEFdIARc1d2Elmdb78WKspMo4xQYbwFREB4Khq3ceWVzx8vwGkTzXYjWO71bUxUxZ/Z//9AoTxyfyNvs13XB5uZaHtzQztXLYrR7UKK0EMpWzADCAZ0VzbV89ooe7JyJP5Nxxp25bR90dlDg2b4pMpakORJkVXMtAc0XtAVjjkHyLQqSXDYnZAu5tFJAbhJ5862I1g9CKOb92ioc05YMJ7I8e2KCf/HA7Nc0wcqmGj65qYPta9qo9zghdj6U5THzbHRN0FYf5teuWsaOlc1YCk/aB80FBV49PcN/29XLdMZ0Bin4QYH5oxTKOI1KvIinYjaXrZ92kyBrg0pCzUWItjsQsa3eratKOGP2n5jgS7tOYHtg9q+O1fCpi5Zw90WdJREyqAAxm6OpJsjHt3Tx2cuXEtAcGyXft09AgKUUR6ZS/MHPjnBwLOkHBRaEBKsX0s8ATXi20VdAVuL6j6EEYuUXEU1XerOeKuP0dJpv7h3iH3JmfyBPs//aziifuGgJN6wqbcF+xYhZQNfojoa5ZU0rn72ih/qQhp1n+6C5oEDWluwdTfL1PQO8NuAHBeaLMoYh2wdqFgh4V4spXSbIytzMy6W/gWjchvCPl+9ASkX/VIp/2z/M470TpPI0+5O24rquKPdubGfbshjRIqRfvBdl7ZmdS0DXWNZYw93r24kbNjt7JxhOZLFzrXfdoAmBUoqslLxwapqg7nTYuKyr0Q8KvB+ZI6j0IW+vaSunI8aCTX8L9DqouwzR/UsQ6Sxc544KxLAko4kM3zs0ylMnJhlJZPMz+zXBRS21PLChnW09MU/6keVLRYkZ5Dy0uhCfv2oZAsXO3kmGE0ZeMwXmggJpW/LMiUmyliQaCbCmuc51vk3VoxQqvQ/SewGPREMpZzhJxk2CrAGRixDt9yMaN3uznirBsCSDsxl29o7zjf3DmKYHZn8sZ/avbi2ZR3YuFXPMPBshBCFd43NXLefeDR00hnTPggJpW/L8qSn+ctcJkoblBwQugFIWGPvBPOZdux/JwjvIzgULhI6IbUVb9sn811FFKKUYS2R5snecP37xJDLPnv1xW7K6qYZPbeooqdl/PipSzOYIaoK7NrTx2at66KkPLTiKfz4CwvHhjkyl+NOdR+mdTHmy1qojdRBljXmb8e+2g6xMwZLPIDp/Gc92iVXC6ek03z4wzD+/NeSJ2X9NZ5Rf2LyEG1aXX1lYRYuZEIKW2hDXLW/mP1yxlBXRMHpuHkA+1wTOjMT7xpuDvDk049WSqwaVeBmMU95dUOaOmAvaldmg0hC9CdFyB9RvKExDyApEKsfsf+TAME/0TpDOWnln9l/XFeW+MjH7z0f57BFdoglBR32YHataSRk2Pzs2zvHpNGlL5h0USJg2u/omnZZBCC7u9HtgoSRIA5V+HsxBPCtfmmuFPV8tUzYgQWtwhvc2XoEI1HuzlgrnXLN/OJ6/2b+lzMz+81HxYjZHQzjAxy7pJqgJHjs6zqGJFKaUeQcFpg2bp3onMGwnKNDTWON6cnM1oJQJ2UEw9oKczb/dj8oJ2II7yFqgRSC63Wm4WLs0v3VUCYZlMzCbYWfvBN/cP4yRp9kf0AWrY7V8fGN7WZn956Oij5nn44EtXdy7sZ0V0TBWLrE236DAjGHz9IlJ/uYFPyiAnUIlXgM74c31FI5PtpAOskoBGkSWo63/CkS6vVlLhaOUYjie5fGj4/zJiyex8zT7E7ZkY2sdv3ppV9mZ/eej6sQM4IaVLXz6sm7WN0eYtiRGvlPTBWRsyZ7RBH+y2IMCchY1+yOwpzy6nosEWZmFuosRS/8j1C4FvxsGACcnU3z7wDD/sm/YE7N/x7ImPrm5k8t7KiP5uCrFLBoJcnl3Ew9f1sNN3Y0EdI1MHv3/546pKdPmtcUcFJCmU1ie3gXSJm+/zE2CrMxAaCkidjOi7RaEHkYs8s6xUin6JpM8cmCEn/VOkjHyM/uTtuKWZU3cu6GDrV2NZb8jm6MyVumC5lyUMyBAOzDCW6MJ0i5HZcG7gwKRgEZI09jYsXjmLip7FpXpBXsARDT/MW22gqy9wHwaE9F8HaLtLkSNf7zMWjbD8SzfOzjCzr5JRvPM7A/qGpe31/LAxg62djfSXKDhI4WgasUMoDaks2NNm5O1LASvD8cxbEnQZZnS2UGBZ/smEUpRHw7QHY2gLYaggDkCqd0gPPAMZa79yXyH+c619qlZDe0fRPij4shaNqdnMjx5fJxvHRzNy+w3c2b/2pZaHr64k6uWxagNVZY8VNZqXXLrunYawwEiuuCHvZM0BzU0pVzXXQY1wUjK5IneSZKGzW/duJrakF7dU9OVQhn9qOSz5J2arNTCOsgqBUiwM4ie30U03rjo6y6lUozEs/zs2Dhf/vkp2kK6a7MfIGlLruqI8otbOrlpTZvXyy0Ki0LMADZ3RkEIAsIRtFodwnmIT0BA3LB5cWAG7bnjfPryHpbHPJ5KVE7IFJgnILsPRJ7tfhY6bWmuiLz5QUTzteAPJeHUZIrvHhrhO4dG8zb7J03Jrctj3LehvWLM/vOxaMSsNhRgY3s9HxGdBAMaz/ZPk8harrflQgikUsxmbZ4/PUNtKMCd69vZVKUemjKGnHY/pIFYfpn2xkKEzHCilbUb0Fb+GtQsW9S9/KVSnJp0Mvuf7psia7j3gU2pSMs5s7+dyyrI7D8flbtyFzREgmzpbHCGCwvBywMzTKaMvIMCkxmLp/sm0TWnP1o1BgVUej8qfRBEHtnfcwmyC8krUzbUrkN0PIiIXeH+3lVA1rIZiWf57qERnu6byruNT1DXuKJCzf7zsajEDJy5Ahd3N6JpoAnYeXKKjGHnHRQYSZk82TuBJaUTFGiMVI+HpizIvAmZfSDq8rgObxeTz0fLlA2BFkTTdrTOj7q/bxVwttn/bQ/N/l+8uJMrlsWoqzCz/3xU/m/gks2djQQ0QVgTfPXACLGAR0GB45Oksha/eeOaqgkKKGvG8cvsQdBc1qcq5UQwE9b7J8jOJTnLDLTcC233Q6TD3X2rgDNm//FxvvyyN2b/to4oD1ew2X8+FnW24cqWOh7c3MlvXL6UhFSeVArEDZsXBmb56+eO0z+d9milpUUldqOMwfza/UicNIx5BTAlkIDIhtxQksvzuHHlc3g0ztfeGuSre71p47NjWYxPbu7kigo2+8/Hot2ZgXPkXN5Uw+1rWrGk4gdHx5nOw0N7R1Cgf4a2+jC3rmljdWseR7MyQCWfB3MYiLi/yEI7yEqJWPopRPM1iEBlv35ukVJxeCzOtw6M8PypaU/M/luXO2b/1u5G6irY7D8f1fXbuCAS1Fkeq+X+jR0YSvFM3xRDs5n8gwJZi8eOT2BIxa12a0UGBZSynYLyzBtgjYFwaRDbav4dZJUNWg3Edji7skiPu3tWOBnT5tR0iu8eHOW5U9NMpIy8zP5QQOPStnrH7O9qJFbhZv/5WPRiBhDUNXpitXxicyeaEPz46DjxtJl3UODIdJr44TGylqSpJkhHQ7iyPDRpoDInwOwDGQfNZR7dfDvIKhsIQM0axPLfhciqRVlEnjFtTkylePTwKD88Oo5l5Wf2BwMaG9rq+KVLOrmku4maYHUmHC9qz+xcuhpr+MTmTj62qYOErfJuH9QU1BlOGfy0d4Lv7R0kY9rISmofJFOo+M9BJtznlakFlC0pA0JdiOYPIVquRQQXX7NFqRSnph0h+393D6Ls/Nr4pKRic1s9n72ki6tXtFStkIG/M3sXLXUh7lnfTntdiL94oQ871+DRLfUBjZmMxbePjgNw35YuuqJ5eE/FxJ6CmX8DaQAu88syC0iQFWGIXYVY/rC7e1UBh0fjfPegsyPzIrP/rlXN3LexnS1djZ6usxzxxewcgrpGe32I65bFyJqSR/YPMxjPuG7Brec8tHjG4ntHx9F0jdsqICig7DTKHILsXkCA2zY7xjwTZO0MtN2N6HgIEW53d68K5myz/7lT01hW/mb/B1c18+EN7Vy8JFpxReNuqP7f0AUBTaOlNsSd69pI25Inj09wfDKJVKC78NECmkAoxXDS4CfHJpx/L2B1SxkLmjUF6UOgpp12Pwt1JOa6YljvkyCrJCgTajciWu9GNF3tXjgrlEKa/VuWNNBUU31m//nwxewC6JqgsSbIRy5aQkgTfO+gzcnpDELgKrlWF4LGoM7xmTSPHh1HKcV9QZ32Mg0KKHMQlfh5rmfZAtc3lyD7fh1klQQkiCCi7UFE07WIUHXlPr0fXpv9oYDGhtac2d/VSM0i2JHNsbg+Al1QHw5w76YOPnNpN3VBDUs671O3gYGmoE7vTJrvHB7l+/sGSZdhUEApBeZJSD0LNC68CaPi7S6y74nl1JTVbkV0P4BoWOdyxZWJlN6b/Re11fOrl+bM/kUkZODvzOZFTVDnhhUxouEAX37uOJNpC1vh2pytD2hMpy0eOTKOAu7b3EVnFPguzQAAEEBJREFUOQUF7Gkw+sEaAFHPgndmpoTUPBJkFRDsRKz9Ywgvvq6xh8e8N/vv39DBxYvA7D8f/s5sHmhC0BgJsrUrym9dt5KL2uoJagJLuttR6UKgw5mgwA8ODNM7kfR20XmgMidRmWOAsfB/PN8EWWk4+WRLHkY0bYVAFfeCOwepFAeHZ/nWgRGeOTmFZdl5D+h9YH0b92/qYEtnw6Iw+8/H4vytXaAJQTQcYMeqFtKm5NHDY+wbjWNKlVdQYChh8JPj4wR0jYAmWFYODR4z+yFzAISL3aI1jwRZaYAeQzRej+i4HwINrgv8K40zZv+hEU/M/nBQY9uSKPdvaGdDez0N4cWXZDyHL2YLQOQ61X5wfRuaAFtKDo4nsZWCPIICx6YzPH58gqAmuHO9TmtdqGRBAWWlnFY/2SMLb/cj1fwaLyoD/v/27is2rjM74Pj/u3cKy8yQHA6bqEIVS9RabnLXroVYbtr1yokL7GwKDAdYw0bgPKQAAQLsUwLkIW/7EiDJQ4AkSLIO0taQsQiQXe8m2RKvS1zWtrpkFdOkWKbedvJwZyxKIimWGQ7nzvkBhCCRlD6Rg8PvO/d856Rvx+Qew2TGV7/YFlNyfE5cLnD04wn+/dgk7hrb+CTjFrcMpXlp/yi7cik6IlwQuxwazFYhZll8fXyIwe4E3/7vU3x0ubTqp5wQPhT4YLJA3vWxRHjmtlGSMaspAU1Kp5HycQgmV97upxbIFotltQcddgIz+Ahm4KE1rbWV+IFwcqrAv3xwib+ozrVcSxufUiDcO5zhpf2j7BtpzxzZtTRntga3DGf4/YM7GM92ErPMioZyXysVs5goOvz1B5d49Z1P+Ty/inxVPZTeAf/C6tr9lP0b7MoC8POYLX+IyR4GewMcqdfJ+xdm+Yf3L/LPx9ae7J90A47clOP520bYlWu/K1+L0WC2Bp1xm925FL993xj3j/bQk7TX9FDAEpguufzdh59x9OPPOHN5/SenS/E1cE4Cncv/pNrxcsmaMi/sutF7GJN7DDq3tUVxbCDCu5/O8I8fXuKHZ6cJ/KAuyf4n9gywdyDd9kfL+fSYuUadcZt7t/aF8zhtw/+en2Wm4q/6oYAvwpnZMt/9ZIKYZThkGUZ6VhBYVkkCD5wpqHwIwQyYFeyapFYgu0ggFxfwIbkZs+VFSO3GxBr/f2q2kuNzcqrAqx9e4n/OTXO55K4x2W9z73D6i2R/Kw8faQT9atTJA9v7MYRF7T+7MMeM4xFDVpz3qj0UeH+ySPL4JAnb4qGdNn1d8cY+8QtKSOH/wCuGZ5nl/lNBtQxjqRmY4kGyH5M9iBk5gmmDHVnR8TlRzZG9fnISzwvWlOzviNvsG0ppsn8JGszq6Cvb++nvShB/+1NePT5Jl2VIsPqHAm9dmmPO8UkYeGx8iGTMalxAC4phR1mZW34gEwlLMUpLFMiKADam50GssW+xtt7brcEPhFNTBf71g0v85RqT/QKUA+HekTQv3aHJ/qVoMKuzHf1dPH/nZoyB752Zpuj4dK8y25uKWZyfK/Pn74QJ+Qd25Bo3DiyYhrnvQOCy7PbYQrgrW+raUlCEvsdg4Jm2GUry/oVZ/ukXl3jt+GRdKvuf3TvIU+OD3DSgyf6lRH+/v86SMZstvZ382m2j/MquHMOpBHlvWVM8rmMbgxH4vFDhr969yDsXZ5kru3VeMYiXR4qnw/uY4i4/Me8Eix8vJQApQmJbWE+WPRB2jY1wcayIcGG2xHePf163ZP9zewd5YvcAe3IpkjE9Wi5Fd2YNkIzZjA+lOSICxvCfp6e4mHfoslf+wo5Vr019PFXkjZNTDHYluHm4zlXe7gQU3yacVr7Mv9u/UQdZAXExg0fCXFkb7MoCgR+fucyb52eZLLp0x1af7O+I23x5U4YnxwfZk0tFbvhII+hXqIFuHg6LTi0Drx2fJF/xiK/ioYBlIGVb/PTcDHds6mHvULq+BbXuWaT4xsra/Sw1lVzCtj507sNseg6T3lu3pW5UIoIfCD84dZnP8xWS1uq+P24gdCRsbhtK8/L+Ucb6u3VHtkwazBrs5uEMmWSMnoTNt986D7DihwKWMSRsuFh0mCp7+IFg2fUJZiIB4h6D4utgsjc+Btaq+CuLXFsSCQeTJEYwO/4UusbBin5zQAEqQcDZvEPJC4itMJh9kewX4cBIhpf3j7JnaJUDl9uUBrN1MJzp4PHx8Jj1tx9+xkzJXdVDgbwv5F2fihcQX+Vj/utUzkL51PLLMYRqK+xFOshKBeKj4VCS3APQJjMv/UAoVHxmPR9HhNgqntpOuQHP7R3kqfEhtm/kLsQblAazdRC3LYbSSb62ZxAxhqPHJzk5XSK1wpxKrYnjKk8wC5LKSaRyfGV1ZSUfFq3GEMh8CbPlN9qqG4YBbKvauHOFn+sGYWPF5/YOcmT3ALtzerRcDQ1m66Q2m/PwTTksy/C9E5N8Mllc0UOB3oRNJmHXb1cmAZTfDd/MMiryawWyi92/DBzI3IkZfAKT2VefNbYIyzJ0xmz6kzHyxeXfq9Vkf/3oV22djWW7OWJbdMQs/ua9i0wVnBveFAhEcEUY7+tiNJWsWzATfzacvuQcW16HDH+RSn8RwIdYf9jLP/cEmPbaWVjG0BG32NffxXTRYbrs3TBv5gZCZ8LmVk3214XWmTXBSE8nj+8e4JU7N+MZE3bNqfZxv5aI4AnMuAH3b+1lZ7Z+dxql9AniTCzzg6s7skpw/Z/jQ1CG3FOY7KG2KMNYiIXh0PYsA6kkxSBYcLZD7fsciFARYf9Ihlfu2syeoYwGsjXSYNYkvZ0JDmzr448PbqevO8GsFyx4eisH4Yv+K8NpDo5lGa3npfP8T8A9s7x8WSWAykKJMg+MQOc+rNFnId0+zRavZQzs39zHwS09jHYnmF6g42741FOYdAKe3jvIN+8YZYcm++tCj5lNYluG3s44B7ZmsWM2b56b5r1Lc5yeKX9Rh5qwDLv7Orlncy8Ht/WxI9tdnyNmdTclpR+Ad54btvtZKlcmAolBzK4/gtRejL2BBrOsM2MMXQmbx24aJNed5EdnLvPz87OUvICAcOeQSdjs6e/i9tFe7t/Sy85sFwndkdWFBrMmsi2LbHeCXxrLsi3Twc0DKc7OVSi4PjHLoiNm2JxOcutQmu393XUrlBVxoPIpuMchKNy43Y9T7et/bSwLvLCerP8wZuBRjK13BwHGsl1kkjFG00n25LopegF+IGFHlGSMHb0d7BvO0NsZr9/DHIWR1Q6AVA3hB0Le8UjGLOKWhV3POowq8aaRqaPI598C9+LiwUyqdQaz7vXXlsQDk8T0PYwZ+z3ou6stWvusVJjzFDxfsC1DQoNXw+jObIOxrXCsXcOIgJ9H8v8B/ixLJsyEcEe2UNPFoAzdt0L/YUz2nkattuUZY4gbQ1xjWMNpMGs7AsEUFP8tvHZEcokPlXCY7yIFsmb4cczILzdklUqtlP68aDPiTSOlT8CfqV5hWuQl4As4cv1lcgnAL8LIC5jsw5h4b8PXrNRyaDBrN+4FyP+YpaePEAaxin910l/8sBi26zbM0DOQGm+LoSSqNegrsZ2ID85ppPAGYYZhkXxZUG2HPT/pLz7gQawHs+kFTOZ2TFxbOKuNQ3NmbUT8AuIcA+dNYIl2Pwu2wnbAikF6N2b7ixijLx21sejOrJ1UzkD55I0/rlZXNl8AZA5i7fgT9GWjNiL98dpGpHwMKf9i6Q+q+OERc/7GzC9D+m7MwJOY1JdohwlLqvVoMGsXfgUq70PlIxa8vlQrkJ3fQVYCwIVYFrKPYPoPtU2zRdV69LzQJsT9LAxk/oWw4v/afFmtQPaqXZmAlKH3AUzuECa1a51XrdTy6c6sTUjxA8S7tPAJUSR8glnwrhTISrWPtunG2vpNTO/d67hapVZOd2ZtQgo/AufEIu8kPFrOr/QXD2K9mJ1/Bqmb22IoiWptujOLOvHBL0Dl5+BPsWC+zBMoz4tkgQOxfuh9CDP0OCT6tThWbXgazCJOAgdKx8A7B+Jc3yHDrxbIXtWrzIfuXVgj34DOUe2GoVqCBrOoCwrI3BvhfUoWaALoBmFdWS2WiQcdWzH9D2IGD6FlGKpVaDCLMhHwp5GZ74S1YiZ5/fvd6rUluVKOYYZ+FTPyQnXCuVKtQc8PUSYOeBPgvAdSvP79TjCvK0YAQR76n4Tsw9AxvK5LVWqtNJhFmLgTSOFtoMSCXTJqBbLiAT7ERzAjT2Myt2CsBjaIVKoB9BwRZe55JP9fQAdX5cvmDygRgADsNIw8j+m9G5PINme9Sq2BBrOIksBBnNNQ+inQeSWPXyuQLfnhr+KDnYH0PVhbXoREe868VK1Pj5lR5U2DcxLcE1x1a1y4Mpm8Fsy6b8Ha8jvQtRlja3Gsak0azCJKKqeR8onrKyv8eQWyQRGSuzDZw9B/AH05qFamx8yoKr0dvpl5syxrubJa40UjmMGHMcNPYGI3mJ2p1AanwSyCxJ8D56PwLub82jKvWiAbBCAu9D0CuUcx3Tubt1il6kTPFREk5bOIcxZk7sofBtVpS44HGIgNYUZewKTv0nuXKhL0VRxFhbfA/fTqnmVetVdZ4ILdAYO/jum7D5PMNW+dStWRHjMjSIrfD0fKMa8rbMkHtwSWQNdWrJ2vQEIDmYoODWYRIoEH3hQ4n4A/Hd6trI2N86v1ZZn9WNt+F5IDGLPAxXOlWpQeM6NEykjhXfAnwnuZENaVlQLwHOjYjcl+HZN9BKPfehUxujOLEn8OmX0d/Hw4eby2K6tUgCT0HYLc45DobfZKlao7/fEcESJB2El25u/BLwGJsKas5IbFsd23YAYeweq7vdlLVaohNJhFhTuL5I9BMAV41b7+V4b5mm0vYfoONHWJSjWSHjOjwptAym+DcYFktUDWBSuF2fQypuceTLyn2atUqmF0ZxYV3jko/hDoALHCQBZ0QeouzKbfhOSmMI+mVETpziwCxC8jlVNQfhPorB4vPUiMYYaehfRejKXfahVtujOLgspFKJ+CoHp9qeSDpDF992Ft+YbWk6m2oMEsAsQ5gTgfh79xA3ALMPAUZtNvseBEJqUiSM8eUVB+J3yTLsjPQeoQJvsodO+6+n6mUhGmwazFiTMJzrHwYrnfER4vh54Oe/lrjzLVRvSY2eKk+DHinAOvCG4Ssl/F5B7EdI42e2lKrSsNZq2u9BNwzoBngQxgtv8BdGxu9qqUWnd6zGxxUjwKhROQuB8z8CKmextYyRt/olIRo8GsRUlQhvIJcCfADGFSBzEDD4GVxGjSX7UhDWatKighcz+DUgVSD2ByX8N06MxL1b40Z9aKRMDPI7PfB7Zi+r6K6bu72atSqqk0mLUgwQ87yk6/gRl4FpP5st67VG1Pg1kr8i4jpXMQO4jJ3A3JwWavSKmm02DWitwJcM9hjb0MXWMYS3dlSukDgFYTOGGLn/gI9NyOMfFmr0ipDcGIiDR7EWoF/DLizYJfgc5RjA7wVQrQYKaUigj9sa6UigQNZkqpSNBgppSKBA1mSqlI0GCmlIoEDWZKqUj4f7GNsr2bAqZiAAAAAElFTkSuQmCC;" vertex="1" parent="1">
          <mxGeometry x="660" y="447.92" width="147" height="130.72" as="geometry" />
        </mxCell>
        <mxCell id="bKqDK71Te4AQbXzB7GY1-59" style="edgeStyle=orthogonalEdgeStyle;rounded=0;orthogonalLoop=1;jettySize=auto;html=1;entryX=0.5;entryY=0;entryDx=0;entryDy=0;fontSize=12;fontColor=none;" edge="1" parent="1" source="bKqDK71Te4AQbXzB7GY1-54" target="bKqDK71Te4AQbXzB7GY1-57">
          <mxGeometry relative="1" as="geometry" />
        </mxCell>
        <mxCell id="bKqDK71Te4AQbXzB7GY1-54" value="&lt;b&gt;Azure Function&lt;/b&gt;&lt;br&gt;&lt;br&gt;triggered on a schedule&lt;br&gt;.NET (C#)&lt;br&gt;(&lt;i&gt;deployed)&amp;nbsp;&lt;/i&gt;" style="text;html=1;align=center;verticalAlign=middle;resizable=0;points=[];autosize=1;strokeColor=none;fillColor=none;fontSize=12;fontColor=none;" vertex="1" parent="1">
          <mxGeometry x="663.5" y="575" width="140" height="80" as="geometry" />
        </mxCell>
        <mxCell id="bKqDK71Te4AQbXzB7GY1-61" style="edgeStyle=orthogonalEdgeStyle;rounded=0;orthogonalLoop=1;jettySize=auto;html=1;fontSize=12;fontColor=none;" edge="1" parent="1" source="bKqDK71Te4AQbXzB7GY1-57" target="bKqDK71Te4AQbXzB7GY1-45">
          <mxGeometry relative="1" as="geometry" />
        </mxCell>
        <mxCell id="bKqDK71Te4AQbXzB7GY1-57" value="" style="shape=image;verticalLabelPosition=bottom;labelBackgroundColor=#ffffff;verticalAlign=top;aspect=fixed;imageAspect=0;image=data:image/png,iVBORw0KGgoAAAANSUhEUgAAAMAAAADTCAYAAADXnhwyAAAgAElEQVR4nO2daW9kR5aen4i4ay5kcmdVqUpSSS211IvUM63pmbF7mQVjYwZe4A0wDPibYcDwr/F/MAzbH2zD67htt+Gxe0bqmV6mpdauKpVKxX3J9a4R4Q83k0upVMVKMsnMm/kAyXuZJJP3Zp434sSJiHNEmqaWGTOmFHnVFzBjxlUyE8CMqWYmgBlTzUwAM6aamQBmTDUzAcyYapyrvoAyYK3tP8Bi4cS5tSeizPb45NGxZ4E4Pi1+XxTPCgFCFO1VcS5AFL8vhHjkq814MjMBPIIjY7bm1NHYvnFzbPRQ/O6XIk6Z9dDX8ziEEMWj+Kb//fHz8ug5MRPLQ0ylAAYGdWzo/RZ80GL3nzN9Y+eUoVss4lQrf2x4IJAnjG/QOg8kIBho4ehvONEf2JOdhB08der6MMc9i8ViDad6ieJlxdHxqIcQJ4XyRZHQF8q0UWoBPNxynjZ8izYGYyxaG4wx/e8N1lqEECgpkUqipEQpp/i+/xBSFOdj0Kqa/n0YYwrRGoM2Gq1N/9402miMMYXxS9m/l+N7lFKipOL4VgQnb+uq73FUiDIvhTgydK3JtSbPDVrnaK2xFpRSKEehlMLpP44MfPB5i5MOzGmjOHr2io3jC0Ivnjzx86NnMdZitDnxnmi0HgjE4iiFUhLHUShZvDdKySu/x1FRGgEMXBltNDovPlxtDNaYEy1e8WFKOfCL5bFbIMWp1rysH/jxgL3v4lmLNQN3yh4LxOijHhHLsShU8RiHnu8imFgBDPx3M+jqB+4L9P3eY19cDgSgVN+dGURTJv8DvEistX1XqjD+gWtozGAMNBh7gBSi35icfk8njYkSwFHLNfDdT/jsgw9JKYXjOLiOc9RiXdz/N1ibY2xWHMn73xfHk89Zq7EYsKZoXU+cnxjqcmrkW4yM+0PmQZhTArIQNOrEsXhI4SJwkMJBCPfE0T0Km57vnouGRuucLMvJ8pxca+iPkwp3sS8GUfSuoj82mgTGXgAnB67aWHR+/CEYbfA8F8/z8DwX1ynG9MO07MX/MVhMYbzWYCmOg+eNSclNm1Q3yXWH3HT6xy65bvePXTLTQZsuxmRYUozNMSbDUAjntBBs/38AfeOWQoFQSGTfmD2UCJDSR8kAJX2UCHFUFUfVcGQdV9VxZB1H1fGcBq6cQ0q/EJCQRXRqICChEChgODemGFcZsiwjSVPSLMNog+M6uE7RADn9hmfcXcqxF4DWmjTNSbOUXBuUlH2jd3EdFyG/OBk03IeqSfMD4nyLONsizrdJsh2SbJtE75Pm+2S6jbHJkVgGbkEhkMEcQf/5gYGfGIAeT3896S0XX/jKUTi13zscGa/sPzcYqBa9hpQ+rprDdxbxnCV8tYjvrhG61wi8dUJ3HUfWh+ol7KkB9vG4IU0TkjQj1xoBuK6L73tHY4ZxZOwEMOhyszwjy3K0MQgh+i6Ncyo0OczEjrEZmW4TpZ8TZxvHxp7vkuUttI3QJsaYBG0TjEkwNsHYDGMznmy844JA9nsPKb2jXkTJACkDHBni9AUSOGsE3jUCd53QvYar5pDCPfN/GghCa30UTta5PuqppZS4joPnOhfqkl4EYyOAgW+f5Zo8z7GWIloji+jDoFuV8uwtlrUabeJ+a75FnO+QZLuk+T6JLo5pfkimD8l0C2PTEd7h+CGFj6vquKqB5yziOQtFj6EWil7DWSFwVwncdZQMkeJs00aD0PPgszSDaBKDaJIzNr3ClQpg0JMacxyXLloRi+s6BL6H67pnNvqiO07IdJNUH5LmByT5Lr3kLt3kLt30M+Jsi9y0R3hXk4+SFQJnhdC7Sc1/jqr/PIGzgucs4joLuGoeJYIz977FWCEjTTOsNYUIVF8E6moHzFcmgEG3aYwl7Q+krLX4vk8lDM88+VK4TBnGpket/WHvFxz2fkErfpde+jmT47aML4Gzxlz4CguV15mvfJPQvY6SIUp4COGe6bPSWpNmGd1uhDEG13XwPBdHqSsbLF+ZAIwxZFlOL4oRUhAEAYHvHfn2cLY3Q5uYdvIh+5232O/9lE78CdpEGJsW4Uj0qG9lSpD9MYWLkiGhd4Ol2m+wXPst6v5LKBk88RVONnpJmhLFMXme47kuYeAfhVQvkysRwKBLzLXG9zw818VxnVPG/ziMSUnyffa7b3EY/SXd5C5JvkOaH5CbHrMWf9QIlAzw1CKBu0rFf5ZG+HUWq2/gOyso6T/xFYp1SjlplpOmKcYaAs/HdZ2nGuedl0sTwED9aVZEdyzgOg6B7xe+oDyb4fey+7Sid2lG79CK36Ob3CXX7X74ccblI3FVnYp3k7ngZebCV5kPv07Fu/lEIQwCH0makqYZxhgcpXBdF8e5nGjRpQhgMIObphlpliGkJPA9wqDoNp/U6ltryHSTTvIRe92fsNd5k1b8q+MJpBljgqAevMRy7TssVr9D3X8Rz1lAiMcbs7WWLNf0ogitNY6UeA+5wyO74lEL4OSKzGa7g+e6VCsVguDJ3SSAsTmZbnHQ/Sn39v8NregdtI1HeckzzokULvXgJZ5Z+Dss1/4qntMoZrefsDFIG0MviojjBEcpwiAollaMUAQjF4CxRZSn14vxfY9KGOK6zplvqpvc4/PD/8BG87+S5vv9yagZ444QDp5aYG3ud7m5+Hep+bd5kgAGLlEUJ7TabcIgIAj8o2UVo2DkG2Kyvs/v+x6VSngq5PUkWtG7bLR+yGbzvxNnOzDz8ycGa3OSfI+t1o8Ay7X5v06j8tpj/2awuC7wPaBOL4qQqUR4jGwGeaQCyPoL14QQRcvvnL3l76Wfs9P5Mdut/02cbYzyMmeMDEOSb7PT/hMcNYfrLFD1bj32L4qVpYow8PsrA3JkLkcWIh1JvOnkoNdajlZrPs0NHPZ+xl7nx/TST0dxiTMukSjbYK/zJgfdv+gvE3zyJn8pJZVKiBCCPM/RejS9/8gCroOJLqev5rNSiEez1/0J7fjDUV3ejEumE3/IXuetYr3VGUadQggcpfC9YlFemo5mndaIegBI0uxoG93TdV2GJN8jyXb7k1ozyoC2MUm+Ry/5DEt+5r8L/GKGOMvP/jdPw4h6AEue5zhusYT5aQRgsf019zmzGd1yYW2GNr1TG/afxCBJAX1X6Ek5kp6WkblAudYoqZ46hCUQOLKClB5PCpvNmCykdHHVHDzFJpzj7ZaCfATjgJENguNMH2Upe9pLctQ8gbtevFkzSoEjq/jOKr670t/nfHaKvcayv//7gq/rYl+uwFhoJjnz5umvtshc5tCovEY3/ZTD7s8nYEVnsRXx1N3aU4cv/OBR78wXmwrxxTPx8E8f3mQ/jggq3i0a4TdxZHWYPwdAm8G9XpxnMBIBaAubnZyVBcP8kK+xWvsuab5PnG4QZQ8u9PouDgnCBXzAxeJgrWSwY9gAxpqjhx1kiDg6Hn+g4ihtYnEuRT/LglBH+T0HW9ulsAgMkAMZkIDNGNeJQiVDFqu/zkr9u0P9vbUQ55Z2bgiDi3VbRiQAy3ak2WrH1AKXeuA99Ws4qs5q/fuA5d7evybOL3MmWAEeVgQYK9HWkhtNplMyE5HoLkneITcxxhropy6xg57gVOt/nEz3VOs/yDuKPZ0890gE/aM4Ojv6reIp2+9zLKBRwsGVIZ5TxZMVHBXgKg9XOjgSBDnCxhSCuaz3UaBkyPXGH7E69zv4ztJQr5JrzUGccT+2rM9drNGObCY4sfDebpfQd3l5CAEIIQm9G6zWv4+1mu32/6aT3CmiCBeGi8VDW0luNamOSfMumYnJjQE8DBJjLdoatMnITUpmYjIdoU06NsuwpXBQooerujjSR0kXR7ooIVFSIMjBZjhS4akQX9VwVYAjBRKDIKUQx0Vdj4vvrLA6933W5n6fuv+VfmDj6TDGsBfnfNrJaBnJEF71YxmZAJSUvL3doRp4PLtQJXCffi2HFA4V7ybPLPwdHFVjt/3/aMUfkOZ7Q4wLHCwKbSyZSQsDJsWSk1tJqnPivEuUNYnzJrmZrBWnpp+gKzPdx/6eK0MCZ56KZwkcjSsVSuRIUqTQeKqCIz2UAIGGp4jZFwhcNU/Vf5bFyre4sfC3CZy1oYwfIM5y7rZSPmhmrNTOPqF6VkYiAIFAKslHhzEVv8Orq3VuL1aKnz1lVEgIhec0uLX4D6j7L7HZ+mN2Oz8myfbQNuHLuvMihbnADBJdEZDbgEgb2mmPw2iLOG9h7GgmWMaVzERkaUQ73Tz1vBQOodNgIbxF3Q/xFSgihE2QskjShRi4XY9CIIWHq+osVH6N9fk/YHXuu4Aaqj7CIAXjRivi3b2Iu92clfqECGCAsfDm/UOqnuSf/sZz+Op8o/f58FWq/k1W699no/Xf2Wn/H9K8yRdFoIAaifVopS32e3eJ8hbaFDvRigGpHhv3ZRwwNqeX7RPnTTY7EgEo6RA68yxVnmPOq+OJFOjAF3pfgaMqLFW/w7X5v85c+CqeWqD4HIbDAnGa8ePNLr86TBAj2iY58uXQB3HGm/ebVNzP+Ptfv85c4AydBkNKD1csMB9+Dc9ZZrX+Pfa7P6MZvU033SDONZ2sy2H0OXF+j9xacpOR5F30RCW1uhosBm3N0duUmZRc5yQ6Ylu6OEIQOBUWwmtU3Sq+ElS9debDV2hUXqfqPUvgXsNRtTPnEHoUxljaScYP7+7zy72YZmpoBBMqgNzAg3bC//pkj4rr8L3nF7lWLwZfwyCExFF1arJG1b9F6F6nUfkGUbpDJ2uz2XmPTvYTkvR9eunerJU/F5bcJuRZAggq7iI1/xrzlTe4Vv8qVbdO6C5T9W5S8Z/r5wo6n6FqY9npJfz5Rps3N7tsx5p8hO3WpVSISbXls1bCv393E4Plt28t8sxcgO8M/2YVE2Ye9eAl6sFLGJMR503qwdvU/WfZ6bzDYXyXXrpHlB8QZ4ekujPbUXZGpFC4qkrgLBC6C4TuIo3gOVZrr7JWe521+jcJnAZKnj2F4pNIc81WL+UX2x3+170m27EZefN1aSWSjIXP2yn/6i8fcBBl/NHLa9yY8/EvqPqIlC4Vb5nnvB/w3MIP0Calk26x2f4ZD5o/YaPzc/Z7H9NLdzE2Q9sMY/qpzcd+pnm0CCRSFCnWpXRRwiVw51kIn+da/de5NvfrXJv7FnX/Bq4ML/z/W2vJtGWjk/An95v8eKPD4SVl67n0GmHNWPOf39/hk/2Iv/nVFX771uJQIdInIYVL3b9GxV3m2YXvo01Kkh9yGH3KVudtdnvvstd9n/3eh3TSLYydThFIoai6KzTC51muvsxK9Wus1F5lIXye0F1CCQ8li4c4x6D2caTa8JebTf7n/Q4fN1N6o/R5HuLSBWCBTqr51U6HVpLzy602339+mReXKtS8i7ucwZoiqRxcilYrdBpUvTWWqi+T5C1S3SbJW8TZAZ10m066SSfZPHWMsl1yM8kDaIGSHhV3iaq3QtVbpeqtUfPWqPnXqfvXCN1FfFXHc+r4ao7AmcdVFdSQsfuz0ss095oxP9lo8cFhwkYvI8qftF/sYhmhAL7crRmI4IO9Lnu9lJ1uxjfW67y6UuPFpSq+M5qEqVK6+NLFd45XmRaFNxLivEmcHxBl+/3jAXF2QKybxeyw7pLqDmn/mOkume6Rm5jcJGibok1SnJvivHCvLnj9unBQ0sORAa6s4KgQV4a4KsQ5OlbwVBXfqeOp2inDDtwGgdMgcBuE7hKhs4Ajzz94PSvWWlJt+bQZ83Ez5oODiA/3Iw7T0fv7j2I0Ajij7RoLO72MH93Z54PdLh9fm+ONm/PcnAtZq/nUPIU74tpTxda7gJoKqPlrD/20n81Od4ueIj8kyg5I8kPi7JBEt0mPhBCR6Yjc9Mh0RGYijClS/hVVZ2z/OKg484hrOfVV9Cu79Iv59Y9SuP01PzU8VRi479QfYewNQneRwJ3HU7VT/+EqyI2lm2l2eynbkeYvt9u8tx+xHekr7VvHok6wBe63Ez5v7/Cju3t8+/o8P7i9xCvLNRZCF9+RuPIqsgcX/8tTNTxVo+5ff+pXMFb3lylkGJujTdqvMTYo6HeqGO9RBRjZr/+lpNtv9V2Oq8GMP4MFf7mxZMZymGg+Ooj4swdN3jtIiPV4uJRjIYABFuilhj/7rMnPNtrcnAt47Vqd37y5wNdWawTnCJteFQJZDCT7FVeselyZJPHQd+KRz08KmbHcacb8fLPNr/ZjHvQyUm3IxmhqZqwEAIVZJNqQaMPHBz12eym/2GyzVvX46kqNV1drPLdQYTG8uPjzKDnusU5V/Cot7VTzWSvm44OYu+2EvShnP85op4bkopdyXgBjJ4CTxLkhzlO2uikfKcGdw4h3tjvcmPNZr/ms1wOu131Wqh41z3lkFfcZoyXKDQdxzk4vZaeXsRPlbHZTNjop21FOOoZGf5KxFsBJEm25cxBx5yDCkYKFwOH2YpUXFys8t1AMmud8Rc13qHsOgSNHPoCeNrSxJNrQzQy9TNPNDftxzoNOyr1WzGethMNUj5WL8yQmRgAnyY0tWpveIW/eP8RTguWKx8vLFb6yXOMri1VuzAXMBw6OFEePYmOImPUUT8DaYh+btoXR636N5m5u2OllfNqKuduMudtM2Itz0gky+IeZSAE8TKotW52EvV7KW/dbOEpQ9xzW6z5fWazwwmKFW42Q63MB84E7ovnM8mApfPmtbsZGN+V+O+GzVsJOlNPJDdoU0Z3c2gvfoXXZlEIAUGzE19qSaA0ZdJKc/Sjjs8OoWI7tKaquYj5wWK24rNV9Vqs+S1WPxcBlIXTx1Ghz0Y8TgwmpZqo5THIO45yDOGcvyjhINO1ME2WGKC8evVyT6qJXKBOlEcDDaFtMtfcyDd0ir6QAfEcy7zs0QpdG4DIXONQ9Rc1zqHmKuj84d6h4itBRhK6k4hZHv1+6Z1xlYvvF6TNjSLQl7htwnBd++5FBZ5puXkxOdTNDJ9N0Uk07yelkhtRc7pKEq6K0AngUltORpZMIoOJKFgKXhcpAHC51z6HuK+b8QigVT50YV8gvjDHUIIWJKAp9q/65EMeZHY7O+7/zcLKnQRaJ4ljsd7O22NlgDP1N+se+ubGQ989zU8TfY10YejctWvNOamineWHkqaaVamI9HUb+OKZKAI/DAt3M0M0S7reTL/09JaDiKqp9l6rmOdR8Rd13CB2F78jioSSeKs49VQhFCo5EoqTAVYrQd9D2OF2Ktf31SX2jzs3pR6KLSEzcb9WjXPdbdEM30/QyQ1RSwx5FrzsTwFOibbGQr5tppDhu0U+ec6qlB8TpJQ+Ds2rgsb5UOwobPmy2J787mWvoZO9g+39XCGcy8sSNEzMBDMGRa3LKd3l6s8uFpJbpiQ4jTjqzmaKrZFxH0lPETABXiGCmgatmJoAZU81MADOmmpEJYNa1z5gEZj3AjKlmJoAZU81MADOmmpkAZkw1MwHMmGpmApgx1cwEMGOqmQlgxlQzE8CMqWYmgBlTzUwAM6aamQBmTDUzAcyYCEa1d2ImgBlTzUwAM6aamQBmTDUzAcyYamYCmDHVzAQwY6oZWWKsSUuyLIC6r2gELnXfoeoqQlcRuEWBvlRbHrRi3t7uXPWlzrhARpoZblw1oAQsVTyWKx4rVY/FsJ8lup8ZuuIq/BN5PZUUNOOMt+43x0oAnhS8vlplMXBQUhzlD82MJdXmKDN0NzO0++kcL7EI+0QwVakRa55iueJxre7zXCPkZiPk5nxRZ2wx9B5bH2Czk3DnILrkK348nhJ851qdlxYCAkeSaUOqLYmxRP205+1M00o0e1HOQZzRSjXtviDa6dXW6B0HpkIAUkDVVbyyWuN7zy7y3ecWWQxdlBzXPursCIqeoOoqcB9f+ybJNZu9jA8PYt7fj3h/P6KbG1JtSlf44qyUXgBSwHLF4+99bZ3futXgWj3AV5IS2P5T4ynJjZrPWsXjjfUa+3HOn292+IutDvfa6ZNfoISUWgChI3l+ocLf+9o6X1+vs1Lx8M9RbHvSNSOEwBHgSIGvBKEjqTwzx/PzAb/c6fLWZptWaqbKLSqtAAJH8pWlCn/jq2v81q0GNc85l8sz6cb/MEIIPCVYq3rM+Q4NX1HzFP/vQZv9OCef9Op3Z6S0AnhmLuC7zy3yey8s4Ss5NcXvhiF0JM/PByyGDqk2/GSzw06UT0VPUEoBBI7kjRvz/P4LywTOrCjqWVBS0PAd/uj2AgdJTjvrEk1BzLSUM8GvrtT4+lqd5Yp31ZcyUQhgznf4tdUaz88HV305l0IpBfCN9Tq3FysXGubUpqjCWGZEv8Lly4shz9Z9nCnwGkvlAgkgdCW3F0JWq8O3/qk27EcZdw8itjsJ7TRnt5fx0V734i72AtAWtnopjUCxYixVVxGcI8o1oOE7XK95rFRcNrrZBVzp+FIqAUgBazWf5YpH+IRJoS+jl2nuHvT4+UabX2y2uHsYsd9LiXLDuHUAubH8aq/HQZyzFLosBQ4rFZfVikvVLeoZD4OSgpWKy42aNxPAJOFIyfMLIVVv+Nv67DDiP7y7xQ8/2iUe8+nRzFh+uRvxy91iiUboSG7VPX73VoNXlkIW/OFDvw1fsVpxL/Jyx5JSjQGUhJvzARV3+Nv64ce7vHm/OfbG/yji3PDxYcK/fHebtzY6HCT50K9V9xyWwlK1j4+kVAKQQrBc8fCG8IO1sez1Uu4dRuxHk9ntW4rq8q3U8BdbHT5pxkO/VtWVzJ+jJ50USieARuDiySEEYC2ft2IOSzILeq+dsN3Nho5cubJYKhGocoeCSiYAqPsOzhAfmjaWjXZClJejbPtgD0Cqh7sfIQSuKlaZlspIHqJU9yYoZoHVEMsejLXsR9nQBjOOxNrQO4eglSh6gTKvIimVAKBY8jtM4MMC7aQc7s+A3FiScwhaCvBKZyGnKdftCYEUIIZYu2ktpNpiSiQAYznX3IWgmBkuM6USwHnzR2pjS7UC0lII+1yIYZqT0SCOvlwcpRLA+SmT+RfGX647unhmAjhBGfcMnFcAZRfQTAAnEKJ8O7/OS9nfj9IJ4DwtlmCmgGmjdAI4j/3Kktm/xWLPPQouN6UTgBSi1BM3T4M2lGpeYxSUSgAC8Bw5dOxa23KFQXNrSMw5ZrYFpc+fVCoBSMHQSa8skOSmVNse49zSy84xE0yRda7MlEYAjhTUz7EBxFpLM87ISiUAQzfVQ/+9koLAKXdKmdIIwFOChdDtjwGGWA1qYbeXkZZkNShAlBta5xCAIwU1T5XaDSqNAEJHcWMuYJjl68ZaklyzF6WlWg3ayTSHSY61w0WDPClY9J2ZAMYdAcwHDl9druKop7+lNC+yQHQTXaosyZ1Usx/roSNBgSNZr3o4MxdovAndYjP8X312EX8IAXTSnA93u6ULGeYWWmnORicdSthVV/Jiw2cxcLiAbCtjycTf1mLo8LvPL/G3XlmjEQ7XXR9EOT/daJKWqfnv0041HxxEQ4lbCcG87/DXnmtwo+qV0hWauF3P9X6Vl4WKy1LocnuxwmvrdV5aquIMsRe4m+bca0a8vdUhO0/MfExpJpq393p8e72Op55ufb8QAt+RfHOlSqItv9jpcreVcJgMP7AeNyZOAGs1nzeemeeVlSrX6wE35wNqnjNU5MdYy71mzM83Wmx2ylkgopcbPmkm3O8k3FYBladMGCaFYDF0+a3rdZZCh7f3ejxop/Ryw2Y3O9eWy3Fg4gRwre7znWca/MYzjaFfYxARaSc5f36/yZ98enBRlzd2GFu4QW8+6DDnOTwz5Ez5nO/w7fU6r61Uaaeaz9oJ//aDPT5pJiO46stj4scAw6It/PGHO/zozh67vXK2/gNSbfmzjTYfH0Z0zjEvAMXcwJzvcGvu6XuTcWTieoDzkmnDTjfljz/a5f9+us+nh9HY5fy8aCyFK/R/7rdQUvDGWm3o3KlCCCQW5wpWzo7i/02VAFJt+PQg4ocf7/J/Pz1go52cK2vCJGGBu62EP33Qxlh4faXKnK+GXjhYljZjqgRgrKWbabY6CUlumK5ycJBoy7t7EVFukMC31qpF4qsST3Q9iYkcAwz7cQWO4htrdf75bz7L79xeZL3ql6JW8NOgrWWrm/GnG232o3LlQRqGqeoBoFgyvRh6/OPXb1D3HX740S6fjFkF+FFyrebxnfUaP7g5z5w3fA2Bsmw0mzoBDAZxdd/h924v0Us1zThnb0IzQj8Nt+d9fvt6nV9fq7EQOEUepXOMAcqggYl0gc6L6C+Zvj4X8O0b83xzvX4l13FZRiSABV/xxnqNb63VWKt6Qy8bLxsT1wMcRBkf7nXxHcmc77JccQldNZQvL4XghcUK374xz5v3D4mycg6LXSn42nKF11eqrA9Z9SU3lk6maSY53dTQTPNzzymMAxMngPd3uzxox6zXA15dqfFXnl3gK0sV5nx3KH92seLxwmKF5xohH+z1SjcoFEDNk/zOzXlWq+5Tt/rWWnJrOYhy3tuP+OVuj7utmFaqz7XdclyYOAFkxnIY57SSLnf2e/z43gF/8OIyf/jyCs/MhUO95lLF4zs3G9w9jMnN5LdqJ6m6khcaAddqHsEQS8VzY7nbTPhPdw744CAiygzaWkxJ0i5O5BjA2OKDiXLDVifhR3f2+M/vb9NJcswQ4Yl53+Eba3XcElZDqXuKVxZDfPX0Pn9mDLtRxn/8ZJ/39yNaiSY1Fl0S44cJFcBJtIX7rYSfPWjzznabbIg1/YFbbKdcCJyhw4LjSs1V3J4Ph9rV1U0N7+1HfHAQ0051aYz+JBMvACjSmm91E/78QWuoPb2OFNQ9h+v14EIKTY8LAqi4kvWqO1SQoJXmvLcXEeflDA5ASQQA0E01d/aHH8QqKXimJCscB7iyqPE15ztDLXeIc8tGN0WXZdbrEZRGAKk27Efp0LkwpYDVmodfoh6g4krmvOEFnWjDXpyXerVsaT7tTFua/ZO7Sh8AAAr5SURBVBKnw4hgsPPJK9FA2FeSypCCttYWsf+0vO4PlEgAlmLjR2bMUC2WFFDz1FD7iscVt5/ZbRiMLULOWYndHyiRAGAgAjNUKFQgihnl8nQAKCmGXu2aW1uqNJFfRqkEAIUrNEyjJQRDL6kYV85TNNAYW7pZ8UdROgGcB/8cqdXLxniu9rz4z6Z0Ahj2LRLiCopr2NGuqx9PIx4vSieA81S6m7X9p5mG96N8AjgHtmxN5jnuZ1o8wdIJYEo+tzNxHj0LxqdC/CgpnQDOVSb1PGGTMURMQY2v81I+Adjh1+pKUa52TwmGLxl1wdcyrpRKAJYidj3M5L1A4A1ZYO88jNLQHCnwh7whY22pioV8GeUSgC2SPw0zfyMEVDyFp2Rp+gBfSSrucB+xNpa8hOniH6ZcAgCiTA9V6lSKIunrvO+UZk9AxZXUh1wNmltLOpsJniyshWack50j3+fziyFrNf8Cr+rqmPMUS+FwWSCSc9YYnhRKJQBjLXu99Fyljr7zTIPX1+tDuw7jwqKvWKu4Q+8HiLShk5UrQcCjmLisEI9DG8tmJyHKh//gbs2H/OD2Eq6S/Gqnw+etmHaiJ2ZXlABCR/L6apUXGyHeEJkgoNhhdxjnF3txY0ipBJAby6eHEb1zJGwKXMXr1+ZYr/m8sNnig90uO92Uwzhjp5ux2RmviiiuFDj9R6AEdU9xo+bx2zfq3Jzzhn7dZpKzMwXpIkslAG0sdw56tNMiPcqwKzs9JbnVCLnVKPIMddOcj/d7/M+P9/i372xe5CWfCyVgtVIM3Od9xWro8kIj4NXFkOAcac+1sezHOVu9mQAmCgMcxjmb7YR2kjMfDDcAfJjQLSpTLlaGb1FHQeBI/vD5BV5eDKl7Dkpw1BucJ5S7HWVsRzlxPhlu33mY7JHeIzAWfrXT4V7z4lKeS1HsrBq33WJF2hNF3SseFVf1J/POl/j2g/2I++1kKmaDSycAgF9utXl3u0s7Kf8g7iLRxrITZby732OjW373B0oqgHuHMT/daPLudptMm6FTpZxkbFvDC7qwQfmon251+OiwyAQ3DZRqDDDAAj/faBM6khtzASs1H1cOXwzi5OuOG/boy/AMjP9OM+G/3TlkdwqiPwNKKQAoimD/5PMmqTb8k2/f5Ho9wHPKk/XtIullhrd3evy7j/bZi7LxXQQ3gjFYaQVgKZZF/Gyjzb/400/5ndtL/Nr1Oa7Vg+HCgyPYv3uVG9AGbuGnrYSfbnX46XaXrV7GuAd+LloDpRUAFJmjD+Ocv3jQKrr4g4iXl6vcXqxwY65IhDttWSCs7aeV72V82or58CDmg4OYjW5a6hSIX0apBTAgM5ZfbnX4ZD/i5/MBr12r8/JylZWKz1zgUPMUoavwlcRVEiW+OF6YRNvQpkhulWpDlBtibeikhr0o404z4Z29HttRdq61U5POSAUwbm9rN9O8t9vlvd0uSsCtRsiLixVuL1Z4Zi5gperTCJx+giyQiH6SCUE3zceuqrylSGDbyw1C6L5LVSQGsxbivKjltRflbHRTHnRS7rVTtnvZVGR9OwsjE8C4rx3TtgiXPmgn/PizQ5QQR1sIK65iPnCY8x0qriJ0JdrA5634qi/7FKm2vLXZ4YN+neMkN/S0IcoM7VQT6/4Ouf7uLm0sekp2ep2V0QjgImJzl4C2Fp1bHl7epkTGdlfiysEMcOEOjVsPkBvLhwfRUVWbk0aem5mhn4XR9QCjeuFLQFvQuWH07f353iULdKZg08ooGdlMcJmyK4yScXcVy85oBCDAGaIq4YwZl83IegBXyHIuNJpxJYwqZ9lIbFQKqPuqdCVHZ1wdSggq7sWnrBmJAJQQrFa90qQXmXH1uEow76sLT9o7oh5AcK3uMV/CwtMzLp9io79gLXSPQtIXxWh6AClYqnjcqPs0/KlYbTFjhLhSsOA7XK95F74rb6Q+yq9dm+OFxXCU/2LGFHCj5vLSQoAzAmdipAJ4dbXKN9frrFbHazP5jMnBV4IX5otMF+Kce50fxUgF0AhcvrVe5zefmS9VBfYZl8fLCwGvLgUsh6NxpUdulbcXQr737ALfWK3NokIzzowUcL3q8sZalRfmfdwRBVNGbpGhq3hlpcI/+uY6t+aDmQhmPBElYMFX/N7NOb6+FI40kHIp1lhxFV9drvLP3rjJ11ar+OOWYOcKmS0F+iLXqi5/83aD31iv0vBHu4/7UgQghSBwJC8tVfiHX1/n928vsTQin27G5OJJwWvLIX/43DyvLVeouaPfsnppViiFoOopvr5aI3AUyxWXn222eX+3SzJbuD7VSAHLgcMriwGvr1R4sREMndb9abn0Zjh0FV9brbFe87he95nzFZ8cROz1spkQpgwpoOpI1qsurywGfHu1yvWqiztkSvdhEGmaXpnVaWPZ7qb8lw93efN+k/uthDjXU7OTqRK4rC3NTeU4wJOCOU/xYsPnezfqvNTwL9XwB1ypAKwtCtpFueazZsJb95v8jzv7fN6Kp0IE0yoAXwleW67wxlqVrzR8aq4sMlpfwf6RKx2Jiv5G9Jrn8HxDMB84vLpa453tNj/f7PDJQURzluC2FCgBS4HDywsBrywGXK96LIcO1UsY6D6OsQnFBK7iuqtYrXpcq3u8sFjh44OIOwcR95oxn7diUm1L1VqW6V4ehQBqruRa1eVGzeOZmsezcx43qh6BI8YiKdmVukBPopXkfHoY885Oh/d2umx1Uw6inFaS0y1BAbew7wKVCSWg4hTlWed9xXrF5cWGzwvzASvh+C2PH2sBDDDWkuSGd3e6/GKrwzvbhXuUakOqi4LOkzhmKIsATlamqbuSZ+c8XlkIeXkhYK3iosbM6E8yEQIYJHLNjCXTlijXHEQ572x3imIYuz02OsnE5bYsgwB8JVgJHF5o+Ly8EPLsnMe8p3ClwJUC+Yg0k+PERAjgYUw/8VMzzmkmOYdRzm4v5fN2wmetmPutpKgTNuZFHiZRAL4ULIcO16seN2oua1WXRd+h5knqrqLqStQ5a5RdJmMzCH4apBB4SrBS9VipehhribIi6etuL2W3lxWPbspelHEY5xzGxbGTavJJ6yquAAF4qnBp5n2Hhq9o+Ip5T7EQOCz1Hw1fTfQCx4nsAc5Cpg3NRLPRjtnqpGx1U7a7KXu9jHaa08sMcW5I8v5RF+eX+WaMQw8gKDac+1LgK0ngCAIlCR1J3ZMsBg6rocNqxWUldJn35JVMWI2K0grgy4hzzU435bNWwmYnYbuTHYljt5uSakNuCzfL9CfqBhN2R99f0LVchgAExZKD4lj45MdH8JWk4SuWA4fl0GGt4rJeKQy+7jmM8fj1QphIF+g8+EpyrR6wWvXRfSPXhqOEsvtRxk43ZaebsRdlNOOMZpLTjHMO4yIE207ysa+kAuD0Q5I1T1H3JA3fYcEvXJjF/vm8X9RFUGJQDrZ/FKNJRDVuTF0P8GUMcnSm+tgdSrQh64dZU237UShDZiy9TBNlhjjXJNoS54b0hCsV6+L7QZbm3NjTmZuNRUsJQfDY61KiyIrgKYEnJa4SeIPvlcSVHLksoSOpDB6uJOj/fBCiLF5H9l+reLhqPCakroqZAJ6SwZuV5IZUGzJtSPvh2UwXBl+IxZDr43z8xlqMOT7X1pJbQSYf709LIXD6IlBS4IjCkB0JjpQ4sviZryS+OnksjH6ajfsszAQwY6opz3B+xowhmAlgxlQzE8CMqWYmgBlTzUwAM6aamQBmTDX/H8VS4H/gQxKyAAAAAElFTkSuQmCC;" vertex="1" parent="1">
          <mxGeometry x="673" y="700" width="122" height="134.07" as="geometry" />
        </mxCell>
        <mxCell id="bKqDK71Te4AQbXzB7GY1-60" value="&lt;b&gt;NoSQL Database&lt;/b&gt;&lt;br&gt;Azure Cosmos DB?&lt;br&gt;Azure Tables Storage?&lt;br&gt;&lt;i&gt;(optimistic concurrency:&lt;br&gt;try-catch: Entity has changed&lt;br&gt;&amp;nbsp;since it was retrieved)&lt;/i&gt;" style="text;html=1;align=center;verticalAlign=middle;resizable=0;points=[];autosize=1;strokeColor=none;fillColor=none;fontSize=12;fontColor=none;" vertex="1" parent="1">
          <mxGeometry x="648.5" y="834.07" width="170" height="90" as="geometry" />
        </mxCell>
      </root>
    </mxGraphModel>
  </diagram>
</mxfile>
